<svg xmlns="http://www.w3.org/2000/svg" viewBox="0 0 48 48"><style>.st0{fill:none}.st1{fill:#fac8c6}.st2{fill:#ef4742}</style><path class="st0" d="M0 0h48v48H0z" id="Boundary"/><g id="Design"><path class="st1" d="M42 38.15l-4.55 2.62-.43 5.23-3.89-3.52-5.11 1.21 2.15-4.79-2.73-4.48 5.22.56L36.07 31l1.09 5.13z"/><path class="st2" d="M10.135 13.679A9.994 9.994 0 0 0 20 22c4.892 0 9.037-3.5 9.854-8.31A9.411 9.411 0 0 0 30 12c0-5.514-4.486-10-10-10S10 6.486 10 12c0 .568.045 1.13.133 1.671l.002.008zM20 20a7.988 7.988 0 0 1-7.644-5.646c2.224-.486 3.751-2.078 4.631-3.33 1.26 1.446 4.125 3.231 10.609 3.461A7.968 7.968 0 0 1 20 20zm0-16c4.411 0 8 3.589 8 8 0 .166-.011.326-.02.486-9.069-.247-9.991-3.623-9.993-3.63a1 1 0 0 0-1.904-.233c-.015.034-1.379 3.102-4.052 3.757-.007-.128-.031-.25-.031-.38 0-4.411 3.589-8 8-8zm22.385 33.227l-4.356-1.818-.981-4.617a1 1 0 0 0-1.737-.442l-3.067 3.58-4.697-.504a.998.998 0 0 0-.96 1.514l2.456 4.03-1.934 4.31a1.002 1.002 0 0 0 1.142 1.383l4.598-1.089 3.5 3.167a.996.996 0 0 0 1.039.189.999.999 0 0 0 .629-.848l.387-4.707 4.095-2.358a1 1 0 0 0-.114-1.79zm-5.434 2.676a1.001 1.001 0 0 0-.498.785l-.264 3.212-2.389-2.162a1.001 1.001 0 0 0-.901-.231l-3.137.743 1.319-2.94a1.001 1.001 0 0 0-.058-.93l-1.675-2.749 3.205.344c.328.034.651-.094.866-.344l2.093-2.443.669 3.15c.068.321.29.588.593.715l2.972 1.241-2.795 1.609z"/><path class="st2" d="M10 29.26A3.264 3.264 0 0 1 13.26 26h2.876l2.946 6.875a.998.998 0 0 0 1.837 0L23.869 26h2.871A3.264 3.264 0 0 1 30 29.26V31h2v-1.74c0-2.9-2.359-5.26-5.26-5.26H13.26A5.265 5.265 0 0 0 8 29.26V42a1 1 0 0 0 1 1h16v-2H10V29.26zm10 .684L18.307 26h3.382L20 29.944z"/></g></svg>