<?xml version="1.0" encoding="utf-8"?>
<!-- Generator: Adobe Illustrator 19.2.1, SVG Export Plug-In . SVG Version: 6.00 Build 0)  -->
<svg version="1.1" xmlns="http://www.w3.org/2000/svg" xmlns:xlink="http://www.w3.org/1999/xlink" x="0px" y="0px"
	 viewBox="0 0 48 48" style="enable-background:new 0 0 48 48;" xml:space="preserve">
<style type="text/css">
	.st0{fill:none;}
	.st1{fill:#FAC8C6;}
	.st2{fill:#EF4742;}
</style>
<g id="Boundary">
	<rect class="st0" width="48" height="48"/>
</g>
<g id="Design">
	<g>
		<g>
			<polygon class="st1" points="42,38.15 37.45,40.77 37.02,46 33.13,42.48 28.02,43.69 30.17,38.9 27.44,34.42 32.66,34.98 
				36.07,31 37.16,36.13 			"/>
		</g>
		<g>
			<path class="st2" d="M10.135,13.679C10.965,18.5,15.114,22,20,22c4.892,0,9.037-3.5,9.854-8.31C29.951,13.161,30,12.592,30,12
				c0-5.514-4.486-10-10-10S10,6.486,10,12c0,0.568,0.045,1.13,0.133,1.671C10.134,13.674,10.134,13.677,10.135,13.679z M20,20
				c-3.557,0-6.619-2.322-7.644-5.646c2.224-0.486,3.751-2.078,4.631-3.33c1.26,1.446,4.125,3.231,10.609,3.461
				C26.54,17.739,23.514,20,20,20z M20,4c4.411,0,8,3.589,8,8c0,0.166-0.011,0.326-0.02,0.486c-9.069-0.247-9.991-3.623-9.993-3.63
				c-0.073-0.438-0.425-0.775-0.865-0.829c-0.436-0.051-0.863,0.189-1.039,0.596c-0.015,0.034-1.379,3.102-4.052,3.757
				C12.024,12.252,12,12.13,12,12C12,7.589,15.589,4,20,4z"/>
			<path class="st2" d="M42.385,37.227l-4.356-1.818l-0.981-4.617c-0.079-0.372-0.362-0.667-0.731-0.761
				c-0.37-0.092-0.759,0.029-1.006,0.319l-3.067,3.58l-4.697-0.504c-0.38-0.041-0.747,0.137-0.951,0.458
				c-0.204,0.322-0.208,0.731-0.009,1.056l2.456,4.03l-1.934,4.31c-0.156,0.348-0.101,0.753,0.141,1.047
				c0.244,0.293,0.63,0.423,1.001,0.336l4.598-1.089l3.5,3.167C36.536,46.911,36.776,47,37.02,47c0.124,0,0.249-0.023,0.368-0.07
				c0.354-0.14,0.598-0.468,0.629-0.848l0.387-4.707l4.095-2.358c0.33-0.19,0.523-0.55,0.499-0.93
				C42.974,37.707,42.736,37.374,42.385,37.227z M36.951,39.903c-0.285,0.164-0.471,0.458-0.498,0.785L36.189,43.9l-2.389-2.162
				c-0.186-0.168-0.426-0.258-0.671-0.258c-0.077,0-0.154,0.009-0.23,0.027l-3.137,0.743l1.319-2.94
				c0.135-0.301,0.113-0.648-0.058-0.93l-1.675-2.749l3.205,0.344c0.328,0.034,0.651-0.094,0.866-0.344l2.093-2.443l0.669,3.15
				c0.068,0.321,0.29,0.588,0.593,0.715l2.972,1.241L36.951,39.903z"/>
			<path class="st2" d="M10,29.26c0-1.797,1.462-3.26,3.26-3.26h2.876l2.946,6.875C19.239,33.242,19.6,33.48,20,33.48
				s0.761-0.238,0.919-0.605L23.869,26h2.871c1.797,0,3.26,1.462,3.26,3.26V31h2v-1.74c0-2.9-2.359-5.26-5.26-5.26H13.26
				C10.359,24,8,26.359,8,29.26V42c0,0.552,0.448,1,1,1h16v-2H10V29.26z M20,29.944L18.307,26h3.382L20,29.944z"/>
		</g>
	</g>
</g>
</svg>
