<?xml version="1.0" encoding="utf-8"?>
<!-- Generator: Adobe Illustrator 19.2.1, SVG Export Plug-In . SVG Version: 6.00 Build 0)  -->
<svg version="1.1" xmlns="http://www.w3.org/2000/svg" xmlns:xlink="http://www.w3.org/1999/xlink" x="0px" y="0px"
	 viewBox="0 0 48 48" style="enable-background:new 0 0 48 48;" xml:space="preserve">
<style type="text/css">
	.st0{fill:none;}
	.st1{fill:#FAC8C6;}
	.st2{fill:#EF4742;}
</style>
<g id="Boundary">
	<rect class="st0" width="48" height="48"/>
</g>
<g id="Design">
	<g id="XMLID_1_">
		<g>
			<g>
				<path class="st1" d="M22.66,6.72c1.63,2.6,0.55,6.08,0.55,6.08s-3.65-0.62-5.27-3.22c-1.63-2.6-0.91-6.67-0.91-6.67
					S21.04,4.12,22.66,6.72z"/>
			</g>
		</g>
		<g>
			<path class="st2" d="M37.516,14.401c-2.198-2.206-4.899-3.421-7.605-3.421c-1.398,0-2.756,0.263-4.038,0.73
				C27.95,8.151,31.638,6.02,35.98,6.02v-2c-4.747,0-8.938,2.3-11.424,6.028c-0.021-1.211-0.265-2.609-1.049-3.859
				c-1.8-2.885-6.01-4.182-6.188-4.235c-0.274-0.085-0.569-0.045-0.812,0.105c-0.244,0.149-0.411,0.396-0.461,0.677
				c-0.032,0.183-0.768,4.483,1.046,7.373c0.203,0.326,0.435,0.62,0.682,0.893C11.01,11.229,5.99,18.592,5.99,25.2
				c0,12.437,6.939,20.79,13.42,20.79c1.908,0,3.477-0.752,4.59-1.531c1.113,0.779,2.682,1.531,4.59,1.531
				c6.307,0,13.37-8.536,13.42-20.787C42.022,21.334,40.3,17.194,37.516,14.401z M17.892,4.303c1.289,0.564,3.066,1.577,3.92,2.946
				c0,0,0.001,0.001,0.001,0.002c0.895,1.427,0.808,3.237,0.641,4.317c-1.062-0.342-2.774-1.088-3.666-2.52
				C17.89,7.617,17.822,5.587,17.892,4.303z M28.59,43.99c-1.706,0-3.086-0.844-3.943-1.552c-0.18-0.147-0.424-0.229-0.656-0.229
				s-0.457,0.081-0.637,0.229c-0.857,0.708-2.237,1.552-3.943,1.552c-4.667,0-11.42-6.691-11.42-18.79
				c0-5.651,4.412-12.22,10.1-12.22c1.891,0,3.705,0.528,5.307,1.558c0.34,0.256,0.801,0.271,1.155,0.036
				c1.578-1.043,3.431-1.594,5.358-1.594c2.781,0,4.901,1.54,6.189,2.833c2.423,2.43,3.921,6.025,3.91,9.383
				C39.962,36.84,33.326,43.99,28.59,43.99z"/>
			<path class="st2" d="M9.88,25.95h2c0-4.255,3.303-9.2,7.561-9.2v-2C13.969,14.75,9.88,20.663,9.88,25.95z"/>
		</g>
	</g>
</g>
</svg>
