<svg xmlns="http://www.w3.org/2000/svg" viewBox="0 0 48 48"><style>.st0{fill:none}.st1{fill:#f9b6b3}.st2{fill:#ef4742}</style><path class="st0" d="M0 0h48v48H0z" id="Boundary"/><g id="Design"><path class="st2" d="M29.836 25.993l2.056 2.056a3.608 3.608 0 0 1 3.002 3.002l2.057 2.057v-1.495a5.624 5.624 0 0 0-5.615-5.62h-1.5zM34.95 42.11H13.064V31.613a3.622 3.622 0 0 1 3.615-3.62h3.094l3.32 7.521a1 1 0 0 0 1.83 0l1.822-4.127-1.517-1.517-1.22 2.764-2.048-4.641h1.391l-2-2h-4.672a5.624 5.624 0 0 0-5.615 5.62V43.11a1 1 0 0 0 1 1H35.95a1 1 0 0 0 1-1v-1.517l-2-2v2.517zM24.006 3.893c4.961 0 8.998 4.038 8.998 9 0 .225-.018.447-.034.668-10.31-.245-11.308-4.129-11.312-4.145a1 1 0 0 0-1.904-.234c-.014.031-1.046 2.318-3.055 3.574l1.448 1.448c1.101-.775 1.935-1.75 2.5-2.575 1.337 1.616 4.503 3.687 11.955 3.919a9.025 9.025 0 0 1-6.928 6.182l1.648 1.648c4.448-1.41 7.682-5.577 7.682-10.487 0-6.065-4.934-11-10.998-11-4.909 0-9.076 3.235-10.486 7.685l1.648 1.648c.785-4.166 4.446-7.331 8.838-7.331zM1.411.003L-.003 1.417l46.012 46.012.3.29 1.39-1.438z"/></g></svg>