<?xml version="1.0" encoding="utf-8"?>
<!-- Generator: Adobe Illustrator 19.2.1, SVG Export Plug-In . SVG Version: 6.00 Build 0)  -->
<svg version="1.1" xmlns="http://www.w3.org/2000/svg" xmlns:xlink="http://www.w3.org/1999/xlink" x="0px" y="0px"
	 viewBox="0 0 48 48" style="enable-background:new 0 0 48 48;" xml:space="preserve">
<style type="text/css">
	.st0{fill:none;}
	.st1{fill:#FAC8C6;}
	.st2{fill:#EF4742;}
</style>
<g id="Boundary">
	<rect class="st0" width="48" height="48"/>
</g>
<g id="Design">
	<path class="st2" d="M44,23.083c0-1.421-0.61-2.768-1.628-3.726C43.395,18.113,44,16.525,44,14.818c0-2.756-1.594-5.23-4.029-6.415
		c-0.153-2.843-2.455-5.124-5.396-5.201C33.373,1.237,31.157,0,28.75,0C26.318,0,24.188,1.245,23,3.101
		C21.812,1.245,19.682,0,17.25,0c-2.405,0-4.619,1.234-5.821,3.197C8.525,3.234,6.164,5.534,6.014,8.41
		C3.588,9.597,2,12.067,2,14.818c0,1.707,0.605,3.295,1.628,4.539C2.61,20.315,2,21.662,2,23.083c0,1.797,0.93,3.476,2.343,4.431
		c-0.939,1.273-1.434,2.911-1.329,4.543c0.187,2.88,2.295,5.231,5.064,5.925C8.035,38.263,8,38.546,8,38.833
		c0,2.933,2.24,5.353,5.084,5.638c0.857,2.11,2.92,3.528,5.249,3.528c1.935,0,3.644-0.976,4.667-2.459
		C24.023,47.024,25.732,48,27.667,48c2.33,0,4.393-1.419,5.25-3.53C35.769,44.177,38,41.761,38,38.833
		c0-0.288-0.035-0.571-0.077-0.852c2.769-0.695,4.877-3.046,5.064-5.926c0.104-1.631-0.39-3.269-1.329-4.542
		C43.07,26.559,44,24.88,44,23.083z M18.333,46c-1.673,0-3.133-1.13-3.551-2.747c-0.111-0.435-0.499-0.741-0.948-0.75L13.667,42.5
		C11.645,42.5,10,40.855,10,38.833c0-0.894,0.325-1.756,0.916-2.425l-1.5-1.323c-0.269,0.305-0.491,0.642-0.686,0.993
		c-2.026-0.434-3.587-2.097-3.72-4.15c-0.097-1.498,0.544-3.054,1.632-3.964c0.284-0.238,0.414-0.614,0.336-0.977
		s-0.35-0.652-0.707-0.753C4.976,25.87,4,24.516,4,23.083c0-0.934,0.423-1.776,1.122-2.363c0.793,0.542,1.701,0.934,2.692,1.121
		l0.371-1.965C5.761,19.418,4,17.291,4,14.818c0-1.756,0.902-3.349,2.322-4.287c0.39,1.102,1.121,2.069,2.123,2.739l1.111-1.662
		C8.582,10.956,8,9.868,8,8.696c0-1.93,1.57-3.5,3.413-3.504l0.5,0.043c0.424,0.037,0.813-0.192,0.992-0.57
		C13.667,3.046,15.372,2,17.25,2C19.869,2,22,4.008,22,6.476V14h-4c-0.552,0-1-0.449-1-1h-2c0,1.654,1.346,3,3,3h4v4h-8
		c-0.552,0-1-0.449-1-1h-2c0,1.654,1.346,3,3,3h8v4h-8c-1.654,0-3,1.346-3,3h2c0-0.551,0.448-1,1-1h8v4h-4c-1.654,0-3,1.346-3,3h2
		c0-0.551,0.448-1,1-1h4v8.333C22,44.355,20.355,46,18.333,46z M39.729,26.233c-0.357,0.101-0.629,0.39-0.707,0.753
		s0.052,0.739,0.336,0.977c1.088,0.91,1.729,2.466,1.632,3.963c-0.133,2.054-1.694,3.718-3.72,4.151
		c-0.195-0.35-0.417-0.687-0.686-0.993l-1.5,1.323C35.675,37.078,36,37.939,36,38.833c0,2.021-1.645,3.667-3.687,3.667l-0.147,0.003
		c-0.449,0.009-0.837,0.315-0.948,0.75C30.8,44.87,29.34,46,27.667,46C25.645,46,24,44.355,24,42.333V34h4c0.552,0,1,0.449,1,1h2
		c0-1.654-1.346-3-3-3h-4v-4h8c0.552,0,1,0.449,1,1h2c0-1.654-1.346-3-3-3h-8v-4h8c1.654,0,3-1.346,3-3h-2c0,0.551-0.448,1-1,1h-8
		v-4h4c1.654,0,3-1.346,3-3h-2c0,0.551-0.448,1-1,1h-4V6.476C24,4.008,26.131,2,28.75,2c1.878,0,3.583,1.046,4.345,2.666
		c0.178,0.378,0.566,0.607,0.992,0.57l0.413-0.04c1.93,0,3.5,1.57,3.5,3.5c0,1.171-0.582,2.26-1.557,2.912l1.111,1.662
		c1.002-0.67,1.733-1.637,2.123-2.739C41.098,11.469,42,13.062,42,14.818c0,2.473-1.761,4.6-4.186,5.058l0.371,1.965
		c0.991-0.187,1.899-0.579,2.692-1.121C41.577,21.307,42,22.149,42,23.083C42,24.516,41.024,25.87,39.729,26.233z"/>
</g>
</svg>
