<svg xmlns="http://www.w3.org/2000/svg" viewBox="0 0 48 48"><style>.st0{fill:none}.st1{fill:#fac8c6}.st2{fill:#ef4742}</style><path class="st0" d="M0 0h48v48H0z" id="Boundary"/><g id="Design"><g id="XMLID_61_"><path class="st1" d="M43.04 3v2H5V3c0-1.1.9-2 2-2h34.04c1.1 0 2 .9 2 2z"/><path class="st2" d="M11.5 29C9.57 29 8 30.57 8 32.5S9.57 36 11.5 36s3.5-1.57 3.5-3.5-1.57-3.5-3.5-3.5zm0 5c-.827 0-1.5-.673-1.5-1.5s.673-1.5 1.5-1.5 1.5.673 1.5 1.5-.673 1.5-1.5 1.5zM36.5 29c-1.93 0-3.5 1.57-3.5 3.5s1.57 3.5 3.5 3.5 3.5-1.57 3.5-3.5-1.57-3.5-3.5-3.5zm0 5c-.827 0-1.5-.673-1.5-1.5s.673-1.5 1.5-1.5 1.5.673 1.5 1.5-.673 1.5-1.5 1.5zM17 26h14v2H17zM17 30h14v2H17zM17 34h14v2H17z"/><path class="st2" d="M47.04 8h-3V3c0-1.654-1.346-3-3-3H7C5.346 0 4 1.346 4 3v5H1a1 1 0 0 0-1 1v7a1 1 0 0 0 1 1h3v22a1 1 0 0 0 1 1h3v4.96A3.043 3.043 0 0 0 11.04 48h1.92A3.043 3.043 0 0 0 16 44.96V40h16v4.96A3.043 3.043 0 0 0 35.04 48h1.92A3.043 3.043 0 0 0 40 44.96V40h3.04a1 1 0 0 0 1-1V17h3a1 1 0 0 0 1-1V9a1 1 0 0 0-1-1zm-5 8v6H24.245l7.498-8.331-1.486-1.338L21.555 22h-7.31l7.498-8.331-1.486-1.338L11.555 22H6V6h36.04v10zM7 2h34.04c.551 0 1 .448 1 1v1H6V3c0-.552.449-1 1-1zm-5 8h2v5H2v-5zm12 34.96c0 .573-.467 1.04-1.04 1.04h-1.92c-.573 0-1.04-.467-1.04-1.04V40h4v4.96zm24 0c0 .573-.467 1.04-1.04 1.04h-1.92c-.573 0-1.04-.467-1.04-1.04V40h4v4.96zM39 38H6V24h36.04v14H39zm7.04-23h-2v-5h2v5z"/></g></g></svg>