<svg xmlns="http://www.w3.org/2000/svg" viewBox="0 0 48 48"><style>.st0{fill:none}.st1{fill:#fac8c6}.st2{fill:#ef4742}.st3{fill:#fff}</style><path class="st0" d="M0 0h48v48H0z" id="Boundary"/><g id="Design"><path class="st1" d="M10.5 9c.83 0 1.5-.67 1.5-1.5S11.33 6 10.5 6 9 6.67 9 7.5 9.67 9 10.5 9zm28-3c-.83 0-1.5.67-1.5 1.5S37.67 9 38.5 9 40 8.33 40 7.5 39.33 6 38.5 6zM1 3h46v9H1V3z"/><circle class="st2" cx="38.5" cy="7.5" r="1.5"/><circle class="st2" cx="10.5" cy="7.5" r="1.5"/><g><path class="st2" d="M47 2H1a1 1 0 0 0-1 1v41a1 1 0 0 0 1 1h39c.266 0 .52-.105.707-.293l7-7A.996.996 0 0 0 48 37V3a1 1 0 0 0-1-1zm-1 2v7H2V4h44zM2 13h44v23h-6a1 1 0 0 0-1 1v6H2V13zm42.586 25L41 41.586V38h3.586z"/><path class="st2" d="M10 16H6a1 1 0 0 0-1 1v4a1 1 0 0 0 1 1h4a1 1 0 0 0 1-1v-4a1 1 0 0 0-1-1zm-1 4H7v-2h2v2zM18 16h-4a1 1 0 0 0-1 1v4a1 1 0 0 0 1 1h4a1 1 0 0 0 1-1v-4a1 1 0 0 0-1-1zm-1 4h-2v-2h2v2zM26 16h-4a1 1 0 0 0-1 1v4a1 1 0 0 0 1 1h4a1 1 0 0 0 1-1v-4a1 1 0 0 0-1-1zm-1 4h-2v-2h2v2zM34 16h-4a1 1 0 0 0-1 1v4a1 1 0 0 0 1 1h4a1 1 0 0 0 1-1v-4a1 1 0 0 0-1-1zm-1 4h-2v-2h2v2zM38 22h4a1 1 0 0 0 1-1v-4a1 1 0 0 0-1-1h-4a1 1 0 0 0-1 1v4a1 1 0 0 0 1 1zm1-4h2v2h-2v-2zM10 25H6a1 1 0 0 0-1 1v4a1 1 0 0 0 1 1h4a1 1 0 0 0 1-1v-4a1 1 0 0 0-1-1zm-1 4H7v-2h2v2zM18 25h-4a1 1 0 0 0-1 1v4a1 1 0 0 0 1 1h4a1 1 0 0 0 1-1v-4a1 1 0 0 0-1-1zm-1 4h-2v-2h2v2zM26 25h-4a1 1 0 0 0-1 1v4a1 1 0 0 0 1 1h4a1 1 0 0 0 1-1v-4a1 1 0 0 0-1-1zm-1 4h-2v-2h2v2zM34 25h-4a1 1 0 0 0-1 1v4a1 1 0 0 0 1 1h4a1 1 0 0 0 1-1v-4a1 1 0 0 0-1-1zm-1 4h-2v-2h2v2zM10 34H6a1 1 0 0 0-1 1v4a1 1 0 0 0 1 1h4a1 1 0 0 0 1-1v-4a1 1 0 0 0-1-1zm-1 4H7v-2h2v2zM18 34h-4a1 1 0 0 0-1 1v4a1 1 0 0 0 1 1h4a1 1 0 0 0 1-1v-4a1 1 0 0 0-1-1zm-1 4h-2v-2h2v2zM26 34h-4a1 1 0 0 0-1 1v4a1 1 0 0 0 1 1h4a1 1 0 0 0 1-1v-4a1 1 0 0 0-1-1zm-1 4h-2v-2h2v2zM34 34h-4a1 1 0 0 0-1 1v4a1 1 0 0 0 1 1h4a1 1 0 0 0 1-1v-4a1 1 0 0 0-1-1zm-1 4h-2v-2h2v2zM42 31a1 1 0 0 0 1-1v-4a1 1 0 0 0-1-1h-4a1 1 0 0 0-1 1v4a1 1 0 0 0 1 1h4zm-3-4h2v2h-2v-2z"/></g></g></svg>