<svg width="54" height="50" viewBox="0 0 54 50" xmlns="http://www.w3.org/2000/svg"><title>Chat bubble icon</title><g fill="#9C9DA2" fill-rule="evenodd"><path d="M2.25 34.59c-.32 0-.63-.128-.848-.36a.988.988 0 0 1-.128-1.208l4.036-6.583C1.924 23.607 0 19.7 0 15.59 0 6.992 9.085.001 20.25.001c11.167 0 20.25 6.991 20.25 15.588h-2.25c0-7.44-8.075-13.492-18-13.492s-18 6.052-18 13.492c0 3.759 1.897 7.33 5.204 9.798a1 1 0 0 1 .272 1.338L4.83 31.452l8.253-3.076a1.17 1.17 0 0 1 .746-.031c.99.283 2.019.493 3.06.623l-.297 2.077a22.812 22.812 0 0 1-3.035-.589L2.67 34.514c-.138.05-.28.076-.419.076"/><path d="M42.75 44.023c.135 0 .268.023.396.067l6.316 2.208-2.093-3.902c-.238-.442-.11-.979.304-1.289 2.707-2.016 4.077-4.561 4.077-7.565 0-6.25-6.698-11.53-14.625-11.53S22.5 27.292 22.5 33.542c0 3.744 2.21 7.316 5.91 9.559 4.159 2.515 9.345 2.893 13.883 1.012a1.22 1.22 0 0 1 .457-.09m9 5.24c-.133 0-.266-.022-.396-.066L42.779 46.2c-5.139 1.967-10.933 1.48-15.595-1.346-4.342-2.626-6.934-6.857-6.934-11.313 0-7.386 7.729-13.626 16.875-13.626S54 26.156 54 33.542c0 3.35-1.456 6.324-4.225 8.651l2.98 5.553a.997.997 0 0 1-.168 1.172 1.169 1.169 0 0 1-.837.346"/></g></svg>