<svg xmlns="http://www.w3.org/2000/svg" viewBox="0 0 48 48"><style>.st0{fill:none}.st1{fill:#f9b6b3}.st2{fill:#ef4742}</style><path class="st0" d="M0 0h48v48H0z" id="Boundary"/><g id="Design"><g id="XMLID_33_"><path class="st1" d="M10 5h28v4H10z"/><path class="st2" d="M44.99 41V27.819A2.995 2.995 0 0 0 47 25c0-1.654-1.346-3-3-3s-3 1.346-3 3c0 1.288.831 2.384 1.99 2.806V41H39V5a1 1 0 0 0-1-1H10a1 1 0 0 0-1 1v36H4.99V27.819A2.995 2.995 0 0 0 7 25c0-1.654-1.346-3-3-3s-3 1.346-3 3c0 1.288.831 2.384 1.99 2.806V41H0v2h48v-2h-3.01zM44 24a1.001 1.001 0 0 1-.001 2A1.007 1.007 0 0 1 43 25c0-.551.448-1 1-1zM4 24a1.001 1.001 0 0 1-.001 2A1.007 1.007 0 0 1 3 25c0-.551.448-1 1-1zM37 6v2H11V6h26zM11 39h8v2h-8v-2zm16 2h-6v-7a3.004 3.004 0 0 1 5.118-2.128c.569.577.882 1.333.882 2.128v7zm.532-10.542A5.01 5.01 0 0 0 24 29c-2.757 0-5 2.243-5 5v3h-8V10h26v27h-8v-3a5.014 5.014 0 0 0-1.468-3.542zM29 41v-2h8v2h-8z"/><path class="st2" d="M18 12h-4a1 1 0 0 0-1 1v4a1 1 0 0 0 1 1h4a1 1 0 0 0 1-1v-4a1 1 0 0 0-1-1zm-1 4h-2v-2h2v2zM26 12h-4a1 1 0 0 0-1 1v4a1 1 0 0 0 1 1h4a1 1 0 0 0 1-1v-4a1 1 0 0 0-1-1zm-1 4h-2v-2h2v2zM30 18h4a1 1 0 0 0 1-1v-4a1 1 0 0 0-1-1h-4a1 1 0 0 0-1 1v4a1 1 0 0 0 1 1zm1-4h2v2h-2v-2zM18 20h-4a1 1 0 0 0-1 1v4a1 1 0 0 0 1 1h4a1 1 0 0 0 1-1v-4a1 1 0 0 0-1-1zm-1 4h-2v-2h2v2zM26 20h-4a1 1 0 0 0-1 1v4a1 1 0 0 0 1 1h4a1 1 0 0 0 1-1v-4a1 1 0 0 0-1-1zm-1 4h-2v-2h2v2zM30 26h4a1 1 0 0 0 1-1v-4a1 1 0 0 0-1-1h-4a1 1 0 0 0-1 1v4a1 1 0 0 0 1 1zm1-4h2v2h-2v-2z"/></g></g></svg>