<?xml version="1.0" encoding="utf-8"?>
<!-- Generator: Adobe Illustrator 21.0.2, SVG Export Plug-In . SVG Version: 6.00 Build 0)  -->
<svg version="1.1" id="Layer_1" xmlns="http://www.w3.org/2000/svg" xmlns:xlink="http://www.w3.org/1999/xlink" x="0px" y="0px"
	 viewBox="0 0 48 48" style="enable-background:new 0 0 48 48;" xml:space="preserve">
<style type="text/css">
	.st0{fill:#FFFFFF;}
</style>
<g id="Design">
	<path class="st0" d="M46.822,30.091c-0.738-0.937-1.732-1.594-2.856-1.901c0.021-0.258,0.035-0.509,0.035-0.708
		c0-2.891-1.21-5.684-3.32-7.662c-1.571-1.473-3.499-2.396-5.575-2.712c-1.756-4.282-5.939-7.12-10.611-7.12
		c-4.411,0-8.339,2.566-10.246,6.343c-1.314-0.323-2.67-0.423-4.052-0.271c-5.282,0.584-9.539,4.842-10.122,10.124
		c-0.361,3.272,0.682,6.544,2.859,8.976c2.181,2.434,5.304,3.83,8.569,3.83H42.33c2.868,0,5.287-2.063,5.626-4.798
		C48.141,32.708,47.737,31.252,46.822,30.091z M45.972,33.944c-0.216,1.736-1.781,3.044-3.642,3.044H11.504
		c-2.697,0-5.278-1.153-7.079-3.165c-1.826-2.039-2.665-4.674-2.361-7.422c0.481-4.359,3.994-7.873,8.354-8.355
		c1.051-0.117,2.086-0.066,3.089,0.15c-0.156,0.521-0.285,1.054-0.365,1.605c-0.08,0.544-0.12,1.103-0.12,1.659V22h2v-0.539
		c0-0.46,0.033-0.921,0.099-1.372c0.669-4.619,4.699-8.103,9.376-8.103c3.536,0,6.736,1.966,8.363,5.016
		c-0.018,0.001-0.036,0-0.054,0.001C27.307,17.36,23,22.105,23,27.807V28h2v-0.193c0-4.651,3.484-8.52,7.933-8.807
		c2.387-0.16,4.647,0.654,6.38,2.278c1.733,1.625,2.688,3.828,2.688,6.203c0,0.241-0.038,0.719-0.102,1.276l-0.021,0.509
		l0.259,0.326c0.187,0.235,0.465,0.39,0.764,0.423c0.932,0.105,1.767,0.572,2.351,1.313C45.833,32.067,46.089,32.996,45.972,33.944z
		"/>
</g>
</svg>
