<svg id="Layer_1" xmlns="http://www.w3.org/2000/svg" viewBox="0 0 48 48"><style>.st0{fill:#fff}</style><path class="st0" d="M46.822 30.091a5.452 5.452 0 0 0-2.856-1.901 9.24 9.24 0 0 0 .035-.708 10.54 10.54 0 0 0-3.32-7.662 10.393 10.393 0 0 0-5.575-2.712 11.478 11.478 0 0 0-10.611-7.12c-4.411 0-8.339 2.566-10.246 6.343a11.578 11.578 0 0 0-4.052-.271C4.915 16.644.658 20.902.075 26.184a11.567 11.567 0 0 0 2.859 8.976 11.52 11.52 0 0 0 8.569 3.83H42.33c2.868 0 5.287-2.063 5.626-4.798a5.48 5.48 0 0 0-1.134-4.101zm-.85 3.853c-.216 1.736-1.781 3.044-3.642 3.044H11.504a9.513 9.513 0 0 1-7.079-3.165c-1.826-2.039-2.665-4.674-2.361-7.422.481-4.359 3.994-7.873 8.354-8.355a9.58 9.58 0 0 1 3.089.15 11.197 11.197 0 0 0-.365 1.605c-.08.544-.12 1.103-.12 1.659V22h2v-.539c0-.46.033-.921.099-1.372.669-4.619 4.699-8.103 9.376-8.103a9.486 9.486 0 0 1 8.363 5.016l-.054.001C27.307 17.36 23 22.105 23 27.807V28h2v-.193c0-4.651 3.484-8.52 7.933-8.807a8.408 8.408 0 0 1 6.38 2.278 8.422 8.422 0 0 1 2.688 6.203c0 .241-.038.719-.102 1.276l-.021.509.259.326c.187.235.465.39.764.423a3.47 3.47 0 0 1 2.351 1.313c.581.739.837 1.668.72 2.616z" id="Design"/></svg>