<?xml version="1.0" encoding="utf-8"?>
<!-- Generator: Adobe Illustrator 21.0.2, SVG Export Plug-In . SVG Version: 6.00 Build 0)  -->
<svg version="1.1" id="Layer_1" xmlns="http://www.w3.org/2000/svg" xmlns:xlink="http://www.w3.org/1999/xlink" x="0px" y="0px"
	 viewBox="0 0 48 48" style="enable-background:new 0 0 48 48;" xml:space="preserve">
<style type="text/css">
	.st0{fill:#FFFFFF;}
</style>
<g id="Design">
	<g>
		<g>
			<circle class="st0" cx="13" cy="21" r="1.5"/>
			<circle class="st0" cx="13" cy="15" r="1.5"/>
			<path class="st0" d="M45,3H3C1.3,3,0,4.3,0,6v28c0,1.7,1.3,3,3,3h17v5h-4v2h16v-2h-4v-5h17c1.7,0,3-1.3,3-3V6C48,4.3,46.7,3,45,3
				z M26,42h-4v-5h4V42z M46,34c0,0.6-0.4,1-1,1H3c-0.6,0-1-0.4-1-1v-5h3h41V34z M46,27H5H2V9h44V27z M46,7H2V6c0-0.6,0.4-1,1-1h42
				c0.6,0,1,0.4,1,1V7z"/>
			<rect x="16" y="14" class="st0" width="13" height="2"/>
			<rect x="31" y="14" class="st0" width="5" height="2"/>
			<rect x="16" y="20" class="st0" width="13" height="2"/>
			<rect x="31" y="20" class="st0" width="5" height="2"/>
			<circle class="st0" cx="24" cy="32" r="1"/>
		</g>
	</g>
</g>
</svg>
