<svg id="Layer_1" xmlns="http://www.w3.org/2000/svg" viewBox="0 0 48 48"><style>.st0{fill:#fff}</style><g id="Design"><circle class="st0" cx="13" cy="21" r="1.5"/><circle class="st0" cx="13" cy="15" r="1.5"/><path class="st0" d="M45 3H3C1.3 3 0 4.3 0 6v28c0 1.7 1.3 3 3 3h17v5h-4v2h16v-2h-4v-5h17c1.7 0 3-1.3 3-3V6c0-1.7-1.3-3-3-3zM26 42h-4v-5h4v5zm20-8c0 .6-.4 1-1 1H3c-.6 0-1-.4-1-1v-5h44v5zm0-7H2V9h44v18zm0-20H2V6c0-.6.4-1 1-1h42c.6 0 1 .4 1 1v1z"/><path class="st0" d="M16 14h13v2H16zM31 14h5v2h-5zM16 20h13v2H16zM31 20h5v2h-5z"/><circle class="st0" cx="24" cy="32" r="1"/></g></svg>