<svg xmlns="http://www.w3.org/2000/svg" viewBox="0 0 48 48"><style>.st0{fill:none}.st1{fill:#fac8c6}.st2{fill:#ef4742}</style><path class="st0" d="M0 0h48v48H0z" id="Boundary"/><g id="Design"><path class="st1" d="M47 6v2H1V6c0-1.1.9-2 2-2h42c1.1 0 2 .9 2 2z"/><circle class="st2" cx="13" cy="21" r="1.5"/><circle class="st2" cx="13" cy="15" r="1.5"/><path class="st2" d="M45 3H3C1.346 3 0 4.346 0 6v28c0 1.654 1.346 3 3 3h17v5h-4v2h16v-2h-4v-5h17c1.654 0 3-1.346 3-3V6c0-1.654-1.346-3-3-3zM26 42h-4v-5h4v5zm20-8c0 .551-.448 1-1 1H3c-.552 0-1-.449-1-1v-5h44v5zm0-7H2V9h44v18zm0-20H2V6c0-.551.448-1 1-1h42c.552 0 1 .449 1 1v1z"/><path class="st2" d="M16 14h13v2H16zM31 14h5v2h-5zM16 20h13v2H16zM31 20h5v2h-5z"/><circle class="st2" cx="24" cy="32" r="1"/></g></svg>