<?xml version="1.0" encoding="utf-8"?>
<!-- Generator: Adobe Illustrator 19.2.1, SVG Export Plug-In . SVG Version: 6.00 Build 0)  -->
<svg version="1.1" xmlns="http://www.w3.org/2000/svg" xmlns:xlink="http://www.w3.org/1999/xlink" x="0px" y="0px"
	 viewBox="0 0 48 48" style="enable-background:new 0 0 48 48;" xml:space="preserve">
<style type="text/css">
	.st0{fill:none;}
	.st1{fill:#FAC8C6;}
	.st2{fill:#EF4742;}
</style>
<g id="Boundary">
	<rect class="st0" width="48" height="48"/>
</g>
<g id="Design">
	<g>
		<path class="st2" d="M14,40c-0.377,0-0.725-0.213-0.895-0.553L6.962,27.159l-5.084,9.319l-1.756-0.957l6-11
			C6.301,24.194,6.647,24.011,7.018,24c0.373,0.007,0.71,0.22,0.877,0.553l5.955,11.911l8.21-22.803
			c0.145-0.404,0.484-0.656,0.962-0.661c0.43,0.01,0.805,0.292,0.933,0.702l4.261,13.633l2.891-5.782
			c0.34-0.678,1.449-0.678,1.789,0l1.159,2.319L46.13,2.508l1.74,0.984l-13,23c-0.182,0.322-0.536,0.506-0.896,0.508
			c-0.369-0.01-0.704-0.223-0.869-0.553L32,24.236l-3.105,6.211c-0.182,0.365-0.572,0.579-0.975,0.55
			c-0.407-0.033-0.753-0.31-0.874-0.699l-4.113-13.159l-7.992,22.2c-0.135,0.376-0.482,0.636-0.882,0.659
			C14.039,39.999,14.02,40,14,40z"/>
	</g>
</g>
</svg>
