<svg xmlns="http://www.w3.org/2000/svg" viewBox="0 0 48 48"><style>.st0{fill:none}.st1{fill:#fac8c6}.st2{fill:#ef4742}</style><path class="st0" d="M0 0h48v48H0z" id="Boundary"/><path class="st2" d="M14 40c-.377 0-.725-.213-.895-.553L6.962 27.159l-5.084 9.319-1.756-.957 6-11c.179-.327.525-.51.896-.521.373.007.71.22.877.553l5.955 11.911 8.21-22.803c.145-.404.484-.656.962-.661a1 1 0 0 1 .933.702l4.261 13.633 2.891-5.782c.34-.678 1.449-.678 1.789 0l1.159 2.319L46.13 2.508l1.74.984-13 23a1.034 1.034 0 0 1-.896.508 1.003 1.003 0 0 1-.869-.553L32 24.236l-3.105 6.211a1 1 0 1 1-1.849-.149l-4.113-13.159-7.992 22.2a.998.998 0 0 1-.882.659L14 40z" id="Design"/></svg>