<svg xmlns="http://www.w3.org/2000/svg" viewBox="0 0 48 48"><style>.st0{fill:none}.st1{fill:#fac8c6}.st2{fill:#ef4742}</style><path class="st0" d="M0 0h48v48H0z" id="Boundary"/><g id="Design"><path class="st1" d="M22 13h21v26H22z"/><path class="st2" d="M45.3 6H32.216l-.786-3.843A2.72 2.72 0 0 0 28.251.05L3.158 5.161A2.722 2.722 0 0 0 1.051 8.35L8.16 43.232a2.71 2.71 0 0 0 2.64 2.163c.178 0 .358-.018.54-.055L17 44.186v.114c0 1.489 1.211 2.7 2.7 2.7h25.6c1.489 0 2.7-1.211 2.7-2.7V8.7C48 7.211 46.789 6 45.3 6zM10.937 43.38a.696.696 0 0 1-.818-.55L3.012 7.957a.715.715 0 0 1 .548-.837l25.082-5.109a.699.699 0 0 1 .829.549L30.175 6H19.7a2.695 2.695 0 0 0-2.676 2.458L5.63 10.78l5.59 27.439L17 37.044v5.101l-6.063 1.235zM17 35.003l-4.22.858L7.989 12.34 17 10.504v24.499zM46 44.3a.7.7 0 0 1-.7.7H19.7a.7.7 0 0 1-.7-.7V8.7a.7.7 0 0 1 .7-.7h25.6a.7.7 0 0 1 .7.7v35.6z"/><path class="st2" d="M21 40h23V12H21v28zm2-26h19v24H23V14z"/><circle class="st2" cx="32.501" cy="42.501" r="1.496"/></g></svg>