<svg xmlns="http://www.w3.org/2000/svg" viewBox="0 0 48 48"><style>.st0{fill:none}.st1{fill:#fac8c6}.st2{fill:#ef4742}</style><path class="st0" d="M0 0h48v48H0z" id="Boundary"/><g id="Design"><path class="st1" d="M38 2v6H12c-.83 0-1.58-.34-2.12-.88S9 5.83 9 5c0-1.66 1.34-3 3-3h26z"/><path class="st2" d="M40 7h-1V2a1 1 0 0 0-1-1H12C9.794 1 8 2.794 8 5v6H6c-2.206 0-4 1.794-4 4s1.794 4 4 4h2v2H6c-2.206 0-4 1.794-4 4s1.794 4 4 4h2v2H6c-2.206 0-4 1.794-4 4s1.794 4 4 4h2v3.39A4.615 4.615 0 0 0 12.61 47H40a1 1 0 0 0 1-1V8a1 1 0 0 0-1-1zM12 3h25v4H12c-.532 0-1.034-.208-1.413-.587S10 5.533 10 5c0-1.103.897-2 2-2zM6 17c-1.103 0-2-.897-2-2s.897-2 2-2h2v4H6zm0 10c-1.103 0-2-.897-2-2s.897-2 2-2h2v4H6zm0 10c-1.103 0-2-.897-2-2s.897-2 2-2h2v4H6zm33 8H12.61A2.613 2.613 0 0 1 10 42.39V39h4v-2h-4v-8h4v-2h-4v-8h4v-2h-4V8.465A3.974 3.974 0 0 0 12 9h27v36z"/><path class="st2" d="M19 23h13a1 1 0 0 0 1-1v-7a1 1 0 0 0-1-1H19a1 1 0 0 0-1 1v7a1 1 0 0 0 1 1zm1-7h11v5H20v-5zM18 33h11v2H18zM18 27h15v2H18z"/></g></svg>