<svg xmlns="http://www.w3.org/2000/svg" viewBox="0 0 48 48"><style>.st0{fill:none}.st1{fill:#f9b6b3}.st2{fill:#ef4742}</style><path class="st0" d="M0 0h48v48H0z" id="Boundary"/><g id="Design"><path class="st2" d="M17.414 16h-1.42l-7.98-7.98h1.42zm-7.98-7.98h-1.42L6.994 7V5.58zm-2.43 0h1.01l7.98 7.98h-1.4l-7.6-7.6v-.38zm-.01.38L.004 1.41l.7-.7L6.994 7v1.02z"/><path class="st2" d="M6.994 7l1.02 1.02h-1.02zm30 29.99v1.41l-5.91-5.91.7-.7zM23.414 22h-1.42l-6-6h1.42zm13.58 13.58v1.41l-5.21-5.2.71-.71zm-30-30V7L.704.71l.71-.71z"/><path class="st2" d="M32.494 31.08l-.71.71-4.56-4.57.71-.7zM15.994 16l6 6h-1.4l-6-6z"/><path class="st2" d="M27.934 26.52l-.71.7-5.23-5.22h1.42zm-.71.7l4.56 4.57-.7.7-4.56-4.56z"/><path class="st2" d="M27.224 27.22l-.7.71-5.93-5.93h1.4zM47.414 46l-.71.71-9.71-9.72v-1.41z"/><path class="st2" d="M36.994 36.99l9.71 9.72-.7.7-9.01-9.01z"/><path class="st1" d="M33.201 28.959l.707.707 2.876-2.876 5.56-5.56-4.47-4.66-.65.66-7.876 7.876.707.706zm-7.386 1.091l-.707-.707-4.204 4.197 4.57 4.56 4.195-4.196-.706-.707z"/><path class="st0" d="M37.859 18.002l-7.804 7.81 3.146 3.147 7.743-7.743zm-3.244 12.371l1.379 1.379v-2.758zm11.152-13.98c.154-.155.239-.362.239-.583s-.085-.428-.239-.583l-1.981-1.992a.85.85 0 0 0-1.164.002L41.5 14.359l3.153 3.148 1.114-1.114zM25.473 36.687l3.49-3.49-3.148-3.147-3.496 3.49zm17.766-17.766l-3.153-3.147-.811.811 3.088 3.212zM35.994 5H9.243l2.02 2.02h24.731zm0 12V9.02H13.263L19.242 15h9.752v2h-7.752l7.399 7.398L36.033 17zm-34 25c0 1.103.897 2 2 2s2-.897 2-2v-2h-4v2z"/><path class="st0" d="M7.994 42a3.96 3.96 0 0 1-.567 2.02h25.567c1.654 0 3-1.346 3-3v-.791l-5.617-5.617-4.196 4.196-.005-.005a.995.995 0 0 1-.536.284l-5.479.92a1.043 1.043 0 0 1-.166.014c-.039 0-.075-.016-.113-.02h-5.887v-2h5.153l.77-4.624a.995.995 0 0 1 .285-.539l-.005-.005 4.204-4.196L18.765 23h-4.771v-2h2.771l-8.771-8.771V42zm6-15h6v2h-6v-2z"/><path class="st0" d="M21.571 35.619l-.364 2.183 2.185-.366z"/><path class="st2" d="M35.994 5v2.02H11.263l2 2h22.732V17h.039l-7.393 7.398 1.414 1.414 7.805-7.81 3.085 3.213-7.743 7.743 1.414 1.414 1.379-1.379v2.758l2 2V27h-.006l9.193-9.193a2.825 2.825 0 0 0 .002-3.992l-1.981-1.992a2.826 2.826 0 0 0-3.994 0l-3.213 3.215V4a1 1 0 0 0-1-1H7.243l2 2h26.751zm6.627 8.237a.85.85 0 0 1 1.164-.002l1.981 1.992c.154.155.239.362.239.583s-.085.428-.239.583l-1.114 1.114-3.153-3.148 1.122-1.122zm-2.535 2.537l3.153 3.147-.876.876-3.088-3.212.811-.811zM20.202 32.837a.991.991 0 0 0-.285.539L19.147 38h-5.153v2h5.887c.038.004.075.02.113.02.055 0 .11-.004.166-.014l5.479-.92a.991.991 0 0 0 .536-.284l.005.005 4.196-4.196-1.414-1.414-3.49 3.489-3.154-3.147 3.496-3.49-1.414-1.414-4.204 4.196.006.006zm1.369 2.782l1.82 1.817-2.185.367.365-2.184z"/><path class="st2" d="M35.994 41.02c0 1.654-1.346 3-3 3H7.427A3.95 3.95 0 0 0 7.994 42V12.229l-2-2V38h-5a1 1 0 0 0-1 1v3c0 2.206 1.794 4 4 4v.02h29c2.384 0 4.377-1.68 4.874-3.917l-1.874-1.874v.791zm-30 .98c0 1.103-.897 2-2 2s-2-.897-2-2v-2h4v2zm23-27h-9.752l2 2h7.752z"/><path class="st2" d="M13.994 23h4.771l-2-2h-2.771zm0 4h6v2h-6zM46.309 47.719l-.3-.29L-.003 1.417 1.411.003l46.288 46.278z"/></g></svg>