<?xml version="1.0" encoding="utf-8"?>
<!-- Generator: Adobe Illustrator 19.2.1, SVG Export Plug-In . SVG Version: 6.00 Build 0)  -->
<svg version="1.1" xmlns="http://www.w3.org/2000/svg" xmlns:xlink="http://www.w3.org/1999/xlink" x="0px" y="0px"
	 viewBox="0 0 48 48" style="enable-background:new 0 0 48 48;" xml:space="preserve">
<style type="text/css">
	.st0{fill:none;}
	.st1{fill:#FAC8C6;}
	.st2{fill:#EF4742;}
</style>
<g id="Boundary">
	<rect class="st0" width="48" height="48"/>
</g>
<g id="Design">
	<g>
		<g>
			<polygon class="st1" points="41.01,8 41.01,12 7.01,12 7.01,8 15.57,8 32.42,8 			"/>
		</g>
		<path class="st2" d="M46.481,14.119c-0.013-0.007-0.028-0.009-0.041-0.015l0.002-0.005l-4.433-2.128V11V8c0-0.552-0.447-1-1-1
			h-8.363L24,2.851L15.342,7H7.01c-0.553,0-1,0.448-1,1v3.971l-4.441,2.128l0.002,0.004c-0.014,0.007-0.029,0.008-0.042,0.016
			C1.203,14.292,1,14.631,1,15v28.29c0,0.473,0.201,0.931,0.552,1.254C1.874,44.842,2.274,45,2.71,45H45.3
			c0.364,0,0.73-0.12,1.06-0.348c0.017-0.012,0.033-0.023,0.049-0.036c0.383-0.301,0.602-0.708,0.602-1.116V15
			C47.01,14.631,46.807,14.292,46.481,14.119z M8.01,13h32v4.793L24,28.449L8.01,17.801V13z M42.01,14.189l1.983,0.952l-1.983,1.32
			V14.189z M16.839,26.084L3,41.46V16.869L16.839,26.084z M18.521,27.204l4.924,3.279c0.336,0.224,0.772,0.224,1.108,0l4.919-3.274
			L43.699,43H4.305L18.521,27.204z M31.156,26.088l13.854-9.221v24.602L31.156,26.088z M24,5.069L28.025,7h-8.054L24,5.069z
			 M40.01,9v2h-32V9H40.01z M6.01,16.469l-1.992-1.327l1.992-0.954V16.469z"/>
	</g>
</g>
</svg>
