<svg xmlns="http://www.w3.org/2000/svg" viewBox="0 0 48 48"><style>.st0{fill:none}.st1{fill:#f9b6b3}.st2{fill:#ef4742}</style><path class="st0" d="M0 0h48v48H0z" id="Boundary"/><path class="st2" d="M46.472 9.118A.995.995 0 0 0 46 9.005V9H2v.005a.985.985 0 0 0-.472.114A.998.998 0 0 0 1 10v28.29A1.717 1.717 0 0 0 2.71 40h42.58c.364 0 .73-.12 1.059-.348.017-.011.032-.023.048-.035.383-.301.603-.708.603-1.117V10a1 1 0 0 0-.528-.882zM24.019 23.449L5.308 11h37.388L24.019 23.449zm-7.156-2.36L3 36.463V11.867l13.863 9.222zm1.683 1.12l4.921 3.273a1 1 0 0 0 1.107 0l4.922-3.28L43.695 38H4.307l14.239-15.791zm12.631-1.128L45 11.869v24.597L31.177 21.081z" id="Design"/></svg>