<?xml version="1.0" encoding="utf-8"?>
<!-- Generator: Adobe Illustrator 19.2.1, SVG Export Plug-In . SVG Version: 6.00 Build 0)  -->
<svg version="1.1" xmlns="http://www.w3.org/2000/svg" xmlns:xlink="http://www.w3.org/1999/xlink" x="0px" y="0px"
	 viewBox="0 0 48 48" style="enable-background:new 0 0 48 48;" xml:space="preserve">
<style type="text/css">
	.st0{fill:none;}
	.st1{fill:#FAC8C6;}
	.st2{fill:#EF4742;}
</style>
<g id="Boundary">
	<rect class="st0" width="48" height="48"/>
</g>
<g id="Design">
	<g>
		<g>
			<polygon class="st1" points="43,33 43,45 24,45 24,42 24,33 30,39 37,39 			"/>
		</g>
		<g>
			<path class="st2" d="M9.26,26h2.876l2.946,6.875C15.239,33.242,15.6,33.48,16,33.48s0.761-0.238,0.919-0.605L19.869,26h2.871
				c1.797,0,3.26,1.462,3.26,3.26V30h2v-0.74c0-2.9-2.359-5.26-5.26-5.26H9.26C6.359,24,4,26.359,4,29.26V42c0,0.552,0.448,1,1,1h16
				v-2H6V29.26C6,27.462,7.462,26,9.26,26z M16,29.944L14.307,26h3.382L16,29.944z"/>
			<path class="st2" d="M6.135,13.679C6.965,18.5,11.114,22,16,22c4.892,0,9.037-3.5,9.854-8.31C25.951,13.161,26,12.592,26,12
				c0-5.514-4.486-10-10-10S6,6.486,6,12c0,0.568,0.045,1.13,0.133,1.671C6.134,13.674,6.134,13.677,6.135,13.679z M16,20
				c-3.557,0-6.619-2.322-7.644-5.646c2.224-0.486,3.751-2.078,4.631-3.33c1.26,1.446,4.125,3.231,10.609,3.461
				C22.54,17.739,19.514,20,16,20z M16,4c4.411,0,8,3.589,8,8c0,0.166-0.011,0.326-0.02,0.486c-9.069-0.247-9.991-3.623-9.993-3.63
				c-0.073-0.438-0.425-0.775-0.865-0.829c-0.431-0.051-0.863,0.189-1.039,0.596c-0.015,0.034-1.379,3.102-4.052,3.757
				C8.024,12.252,8,12.13,8,12C8,7.589,11.589,4,16,4z"/>
			<path class="st2" d="M43,32h-5v-2c0-0.552-0.448-1-1-1h-7c-0.552,0-1,0.448-1,1v2h-5c-0.552,0-1,0.448-1,1v12
				c0,0.552,0.448,1,1,1h19c0.552,0,1-0.448,1-1V33C44,32.448,43.552,32,43,32z M31,31h5v1h-5V31z M37,34h3.586l-4,4h-6.172l-4-4H30
				H37z M25,44v-8.586L29.586,40h7.828L42,35.414V44H25z"/>
		</g>
	</g>
</g>
</svg>
