<svg xmlns="http://www.w3.org/2000/svg" viewBox="0 0 48 48"><style>.st0{fill:none}.st1{fill:#fac8c6}.st2{fill:#ef4742}.st3{fill:#fff}</style><path class="st0" d="M0 0h48v48H0z" id="Boundary"/><g id="Design"><path class="st2" d="M29.49 45c-.83 0-1.5.67-1.5 1.5s.67 1.5 1.5 1.5c.82 0 1.5-.67 1.5-1.5s-.68-1.5-1.5-1.5zM10.135 13.68A9.993 9.993 0 0 0 20 22c4.892 0 9.037-3.5 9.854-8.31A9.42 9.42 0 0 0 30 12c0-5.514-4.486-10-10-10S10 6.486 10 12c0 .567.045 1.13.133 1.671l.002.009zM20 20a7.989 7.989 0 0 1-7.644-5.645c2.224-.487 3.751-2.079 4.631-3.331 1.26 1.446 4.125 3.232 10.609 3.461A7.968 7.968 0 0 1 20 20zm0-16c4.411 0 8 3.589 8 8 0 .166-.011.326-.02.486-9.069-.248-9.991-3.624-9.993-3.63a.998.998 0 0 0-.863-.827 1.013 1.013 0 0 0-1.04.593c-.015.034-1.397 3.1-4.053 3.758-.007-.129-.031-.251-.031-.38 0-4.411 3.589-8 8-8zM10 29.26A3.263 3.263 0 0 1 13.26 26h2.875l2.946 6.875a1 1 0 0 0 1.838 0L23.869 26h2.871A3.264 3.264 0 0 1 30 29.26V31h2v-1.74c0-2.9-2.359-5.26-5.26-5.26H13.26A5.265 5.265 0 0 0 8 29.26V42a1 1 0 0 0 1 1h16v-2H10V29.26zm10 .684L18.307 26h3.382L20 29.944z"/><path class="st2" d="M30.172 33.016c-1.964 0-3.471 1.089-4.135 2.986a.528.528 0 0 0 .287.649l.864.362c.258.101.547-.023.677-.3.438-1.121 1.239-1.738 2.257-1.738 1.171 0 2.055.909 2.055 2.115 0 1.054-.613 1.628-1.721 2.669-1.059.938-1.869 1.75-1.869 2.921 0 .382.091.775.25 1.081l.049.094h1.85l-.068-.274c-.047-.187-.101-.398-.101-.631 0-.738.588-1.273 1.562-2.159 1.398-1.256 2.208-2.282 2.208-3.811-.001-2.259-1.791-3.964-4.165-3.964z"/></g></svg>