<?xml version="1.0" encoding="utf-8"?>
<!-- Generator: Adobe Illustrator 19.2.1, SVG Export Plug-In . SVG Version: 6.00 Build 0)  -->
<svg version="1.1" xmlns="http://www.w3.org/2000/svg" xmlns:xlink="http://www.w3.org/1999/xlink" x="0px" y="0px"
	 viewBox="0 0 48 48" style="enable-background:new 0 0 48 48;" xml:space="preserve">
<style type="text/css">
	.st0{fill:none;}
	.st1{fill:#FAC8C6;}
	.st2{fill:#EF4742;}
	.st3{fill:#FFFFFF;}
</style>
<g id="Boundary">
	<rect class="st0" width="48" height="48"/>
</g>
<g id="Design">
	<g>
		<path class="st2" d="M29.49,45c-0.83,0-1.5,0.67-1.5,1.5c0,0.83,0.67,1.5,1.5,1.5c0.82,0,1.5-0.67,1.5-1.5
			C30.99,45.67,30.31,45,29.49,45z"/>
		<path class="st2" d="M10.135,13.68C10.965,18.501,15.114,22,20,22c4.892,0,9.037-3.5,9.854-8.31C29.951,13.16,30,12.592,30,12
			c0-5.514-4.486-10-10-10S10,6.486,10,12c0,0.567,0.045,1.13,0.133,1.671C10.134,13.674,10.134,13.677,10.135,13.68z M20,20
			c-3.557,0-6.619-2.322-7.644-5.645c2.224-0.487,3.751-2.079,4.631-3.331c1.26,1.446,4.125,3.232,10.609,3.461
			C26.54,17.739,23.514,20,20,20z M20,4c4.411,0,8,3.589,8,8c0,0.166-0.011,0.326-0.02,0.486c-9.069-0.248-9.991-3.624-9.993-3.63
			c-0.072-0.437-0.424-0.772-0.863-0.827c-0.437-0.048-0.862,0.188-1.04,0.593c-0.015,0.034-1.397,3.1-4.053,3.758
			C12.024,12.251,12,12.129,12,12C12,7.589,15.589,4,20,4z"/>
		<path class="st2" d="M10,29.26c0-1.798,1.462-3.26,3.26-3.26h2.875l2.946,6.875C19.239,33.242,19.6,33.48,20,33.48
			s0.761-0.238,0.919-0.605L23.869,26h2.871c1.797,0,3.26,1.462,3.26,3.26V31h2v-1.74c0-2.9-2.359-5.26-5.26-5.26H13.26
			C10.359,24,8,26.359,8,29.26V42c0,0.553,0.448,1,1,1h16v-2H10V29.26z M20,29.944L18.307,26h3.382L20,29.944z"/>
		<path class="st2" d="M30.172,33.016c-1.964,0-3.471,1.089-4.135,2.986c-0.089,0.251,0.04,0.542,0.287,0.649l0.864,0.362
			c0.258,0.101,0.547-0.023,0.677-0.3c0.438-1.121,1.239-1.738,2.257-1.738c1.171,0,2.055,0.909,2.055,2.115
			c0,1.054-0.613,1.628-1.721,2.669c-1.059,0.938-1.869,1.75-1.869,2.921c0,0.382,0.091,0.775,0.25,1.081l0.049,0.094h1.85
			l-0.068-0.274c-0.047-0.187-0.101-0.398-0.101-0.631c0-0.738,0.588-1.273,1.562-2.159c1.398-1.256,2.208-2.282,2.208-3.811
			C34.336,34.721,32.546,33.016,30.172,33.016z"/>
	</g>
</g>
</svg>
