<svg xmlns="http://www.w3.org/2000/svg" viewBox="0 0 48 48"><style>.st0{fill:none}.st1{fill:#f9b6b3}.st2{fill:#ef4742}</style><path class="st0" d="M0 0h48v48H0z" id="Boundary"/><g id="Design"><g id="XMLID_38_"><path class="st1" d="M24 15.01c4.46.26 8 3.97 8 8.49 0 4.69-3.81 8.5-8.5 8.5S15 28.19 15 23.5c0-4.52 3.54-8.23 8-8.49.17-.01.33-.01.5-.01s.33 0 .5.01z"/><path class="st2" d="M44.753 24.842c-.375-.429-9.306-10.495-20.681-10.829l-.013-.001H24.046l-.018-.001v.001a9.77 9.77 0 0 0-1.055 0v-.002l-.018.001h-.013l-.013.001c-11.375.334-20.306 10.4-20.681 10.829a1 1 0 0 0 0 1.316C2.634 26.601 11.859 37 23.5 37s20.866-10.399 21.253-10.842a1 1 0 0 0 0-1.316zM23.451 16h.049c.161.004.294 0 .441.008C27.899 16.239 31 19.53 31 23.5c0 4.136-3.364 7.5-7.5 7.5S16 27.636 16 23.5c0-3.97 3.101-7.261 7.058-7.492.133-.008.26-.008.393-.008zm.049 19c-9.103 0-16.919-7.249-19.126-9.5 1.579-1.613 6.036-5.779 11.785-8.017A9.465 9.465 0 0 0 14 23.5c0 5.238 4.262 9.5 9.5 9.5s9.5-4.262 9.5-9.5c0-2.275-.81-4.37-2.155-6.013 5.741 2.24 10.201 6.401 11.781 8.013C40.418 27.752 32.603 35 23.5 35z"/><path class="st2" d="M20 23.5c0-1.93 1.57-3.5 3.5-3.5v-2a5.506 5.506 0 0 0-5.5 5.5h2zM23 6.5h2v6h-2z"/><path transform="rotate(45.001 12.33 11.38)" class="st2" d="M9.332 10.38h5.997v2H9.332z"/><path transform="rotate(45.001 35.67 11.38)" class="st2" d="M34.67 8.382h2v5.997h-2z"/></g></g></svg>