<svg xmlns="http://www.w3.org/2000/svg" viewBox="0 0 48 48"><style>.st0{fill:none}.st1{fill:#fac8c6}.st2{fill:#ef4742}</style><path class="st0" d="M0 0h48v48H0z" id="Boundary"/><g id="Design"><path class="st1" d="M3.99 3.99h25V6h-25z"/><path class="st2" d="M45.41 25.19l-5-2.09-1.12-5.31c-.08-.37-.36-.66-.73-.76a.925.925 0 0 0-.57.03V9.4c0-.27-.1-.52-.29-.71l-6.39-6.4a1 1 0 0 0-.71-.3H2.99c-.55 0-1 .45-1 1v42.02c0 .55.45 1 1 1h34c.56 0 1-.45 1-1v-9.92l.73.66c.19.16.43.25.67.25a1.008 1.008 0 0 0 1-.92l.44-5.4 4.7-2.7c.33-.19.52-.55.5-.93a.995.995 0 0 0-.62-.86zM35.17 8.99h-4.18v-4.2l4.18 4.2zm-31.18-5h25V6h-25V3.99zm32 40.02h-32V8h25v1.99c0 .55.45 1 1 1h6v8.18l-1.97 2.29-5.39-.57a.972.972 0 0 0-.95.45c-.2.33-.21.74-.01 1.06l2.82 4.63-2.21 4.95c-.16.35-.1.75.14 1.05.24.29.63.42 1 .33l5.28-1.25 1.29 1.17v10.73zm3.38-15.8c-.28.16-.47.46-.49.78l-.32 3.91-.26-.24-2.65-2.39c-.19-.17-.43-.26-.67-.26-.08 0-.16.01-.23.03l-3.82.91 1.6-3.58c.14-.3.12-.65-.06-.93l-2.04-3.35 3.9.42c.33.03.65-.09.87-.34l2.55-2.98.81 3.84c.07.32.29.59.59.71l3.62 1.51-3.4 1.96z"/><path class="st2" d="M10 14h20v2H10zm0 12h14.99v2H10zm0-6h10.99v2H10zm0 12h6v2h-6z"/></g></svg>