<svg id="Layer_1" xmlns="http://www.w3.org/2000/svg" viewBox="0 0 48 48"><style>.st0{fill:#fff}</style><g id="Design"><path class="st0" d="M39.077 23l3.852-9.629A1 1 0 0 0 42 12H32V8a1 1 0 0 0-1-1H11V5.816A2.996 2.996 0 0 0 13 3c0-1.654-1.346-3-3-3S7 1.346 7 3c0 1.302.839 2.402 2 2.816V48h2V29h9v4a1 1 0 0 0 1 1h21a1.001 1.001 0 0 0 .929-1.371L39.077 23zM10 4a1.001 1.001 0 0 1 0-2 1.001 1.001 0 0 1 0 2zm1 23V9h19v18H11zm11 5v-3h9a1 1 0 0 0 1-1V14h8.523l-3.452 8.629a1.002 1.002 0 0 0 0 .742L40.523 32H22z" id="XMLID_67_"/></g></svg>