<?xml version="1.0" encoding="utf-8"?>
<!-- Generator: Adobe Illustrator 21.0.0, SVG Export Plug-In . SVG Version: 6.00 Build 0)  -->
<svg version="1.1" xmlns="http://www.w3.org/2000/svg" xmlns:xlink="http://www.w3.org/1999/xlink" x="0px" y="0px"
	 viewBox="0 0 48 48" style="enable-background:new 0 0 48 48;" xml:space="preserve">
<style type="text/css">
	.st0{fill:none;}
	.st1{fill:#FAC8C6;}
	.st2{fill:#EF4742;}
	.st3{fill:#FFFFFF;}
</style>
<g id="Boundary">
	<rect class="st0" width="48" height="48"/>
</g>
<g id="Design">
	<g id="XMLID_67_">
		<g>
			<g>
				<polygon class="st1" points="42,13 38,23 42,33 21,33 21,28 31,28 31,13 				"/>
			</g>
		</g>
		<path class="st2" d="M39.077,23l3.852-9.629c0.123-0.308,0.085-0.657-0.101-0.932S42.332,12,42,12H32V8c0-0.553-0.448-1-1-1H11
			V5.816C12.161,5.402,13,4.302,13,3c0-1.654-1.346-3-3-3S7,1.346,7,3c0,1.302,0.839,2.402,2,2.816V8v20v20h2V29h9v4
			c0,0.553,0.448,1,1,1h21c0.332,0,0.642-0.165,0.828-0.439s0.224-0.624,0.101-0.932L39.077,23z M10,4C9.449,4,9,3.552,9,3
			s0.449-1,1-1s1,0.448,1,1S10.551,4,10,4z M11,27V9h19v18H11z M22,32v-3h9c0.552,0,1-0.447,1-1V14h8.523l-3.452,8.629
			c-0.095,0.238-0.095,0.504,0,0.742L40.523,32H22z"/>
	</g>
</g>
</svg>
