<svg xmlns="http://www.w3.org/2000/svg" viewBox="0 0 48 48"><style>.st0{fill:none}.st1{fill:#d4d5d7}.st2{fill:#282c36}</style><path class="st0" d="M0 0h48v48H0z" id="Boundary"/><g id="Design"><g id="XMLID_16_"><path class="st1" d="M36.87 14.76c.18 3.33.18 7.13 0 10.47C36.62 30.11 36 34 35 34c0 0-1.24-.36-3.22-.92l.01-.05c1.62-4.32 1.61-21.86-.01-26.1C33.76 6.37 35 6 35 6c1 0 1.62 3.88 1.87 8.76z"/><path class="st2" d="M44 19h4v2h-4z"/><path transform="rotate(-135.008 45.114 26.116)" class="st2" d="M43.114 25.115h4.002v2h-4.002z"/><path transform="rotate(45.001 45.085 13.885)" class="st2" d="M44.085 11.884h2v4.002h-2z"/><path class="st2" d="M37.825 13.979C37.335 5.731 36.114 5 35 5a.99.99 0 0 0-.286.042c-.004.001-1.237.369-3.208.927-16.893 4.822-24.115 6.183-25.164 5.891-.11-.04-.226-.06-.342-.06-1.182 0-2.023 1.081-2.509 3.2H2.63C1.18 15 0 16.18 0 17.63v4.74C0 23.82 1.18 25 2.63 25h.825c.28 1.332.926 3.33 2.545 3.33.098 0 .255-.035.348-.062.01-.004.191-.053.775-.018l3.051 13.646a3.97 3.97 0 0 0 1.391 2.234c.707.569 1.564.87 2.475.87a3.96 3.96 0 0 0 3.877-4.763l-2.263-10.375c6.034 1.427 12.984 3.366 15.854 4.18 1.975.559 3.212.917 3.214.918.09.027.183.04.278.04 1.114 0 2.335-.732 2.826-8.991C40.306 25.113 42 22.733 42 19.99c0-2.748-1.694-5.124-4.175-6.011zM2 22.37v-4.74a.63.63 0 0 1 .63-.63h.533a28.786 28.786 0 0 0-.014 6H2.63a.63.63 0 0 1-.63-.63zm4.048 3.918c-.179-.219-.523-.903-.771-2.452-.378-2.263-.37-5.415.02-7.671.243-1.459.578-2.11.752-2.323 1.177.18 5.344-.082 25.06-5.681 1.184 4.87 1.184 18.838-.007 23.688-3.589-1.01-10.716-2.971-16.536-4.294-2.759-.634-4.918-1.044-6.412-1.218a11.83 11.83 0 0 0-1.398-.101 4.253 4.253 0 0 0-.708.052zm9.507 15.996c-.658.802-1.931.936-2.738.287a1.962 1.962 0 0 1-.69-1.108l-2.895-12.95c1.162.19 2.608.479 4.274.854l2.456 11.281a1.972 1.972 0 0 1-.407 1.636zm20.316-17.108v.002c-.245 4.794-.763 6.999-1.093 7.717-.386-.111-.991-.285-1.756-.502 1.304-5.307 1.303-19.454.005-24.778.762-.218 1.366-.394 1.753-.508.33.719.846 2.922 1.091 7.706a100.62 100.62 0 0 1 0 10.363zm2.058-1.413c.091-2.469.09-5.078 0-7.541C39.186 16.994 40 18.401 40 19.99c0 1.586-.813 2.995-2.071 3.773z"/></g></g></svg>