<svg xmlns="http://www.w3.org/2000/svg" viewBox="0 0 48 48"><style>.st0{fill:none}.st1{fill:#d4d5d7}.st2{fill:#282c36}</style><path class="st0" d="M0 0h48v48H0z" id="Boundary"/><g id="Design"><g id="XMLID_23_"><path class="st1" d="M24.3 40.24l-1.63-.83-11.98-6.08-1.54-.78c-.99-.5-2.19-.11-2.69.87L4.34 37.6l18.72 9.51 2.12-4.18a2 2 0 0 0-.88-2.69zm-2.63 3.26c-.51 0-.93-.38-.99-.87-.01-.04-.01-.09-.01-.13 0-.54.43-.99.98-1h.02c.55 0 1 .45 1 1s-.45 1-1 1z"/><path class="st2" d="M21.67 41.5h-.02a.999.999 0 0 0-.97 1.13c.06.49.48.87.99.87.55 0 1-.45 1-1s-.45-1-1-1z"/><path class="st2" d="M39.985 11.189a3.516 3.516 0 0 0-1.805-.523l.74-1.521c.809-1.675.261-3.712-1.245-4.636a3.506 3.506 0 0 0-2.036-.52c.172-1.36-.417-2.744-1.589-3.473a3.512 3.512 0 0 0-4.915 1.304A3.521 3.521 0 0 0 27.596.722c-1.654-.61-3.591.219-4.396 1.872l-4.611 9.015-.744-1.975c-.489-1.418-2.005-2.317-3.609-2.123-1.603.188-2.746 1.397-2.911 3.072-.238 2.229-.559 4.806-1.374 7.259a13.541 13.541 0 0 0 .781 13.087l-.502 1.046-.63-.32a3.009 3.009 0 0 0-4.032 1.311l-2.121 4.18a1 1 0 0 0 .439 1.344L22.606 48a1 1 0 0 0 1.345-.44l2.119-4.177c.364-.714.428-1.528.178-2.292s-.782-1.384-1.496-1.744l-.757-.385 1.017-2.102c4.023-.892 7.455-3.585 9.243-7.281l2.839-5.809 4.145-7.96c.801-1.665.248-3.696-1.254-4.621zM24.348 41.714a.995.995 0 0 1-.059.764l-1.667 3.287-16.938-8.604 1.667-3.287a1.004 1.004 0 0 1 1.347-.433l15.151 7.691a.998.998 0 0 1 .499.582zm15.105-26.796L32.46 28.705c-1.588 3.282-4.695 5.634-8.309 6.292a1 1 0 0 0-.721.548l-1.216 2.513-10.2-5.176.768-1.601a1 1 0 0 0-.082-1.003 11.542 11.542 0 0 1-.92-11.622c.019-.038.055-.137.068-.178.874-2.601 1.215-5.329 1.467-7.691.1-1.016.767-1.244 1.155-1.29.564-.067 1.277.187 1.494.814 0 0 1.331 3.642 1.335 3.664a8.29 8.29 0 0 1-.686 5.271l-1.67 3.38 1.793.886 1.674-3.387a10.464 10.464 0 0 0 .983-5.693l5.596-10.945c.364-.746 1.224-1.146 1.917-.889a1.517 1.517 0 0 1 .922 1.868l-5.51 10.912 1.785.901 6.756-13.442a1.5 1.5 0 0 1 .929-.778c.417-.123.85-.064 1.215.159.646.401.861 1.306.485 2.07l-.308.635-6.224 12.447 1.789.895 5.732-11.436a1.504 1.504 0 0 1 2.15-.619c.633.388.854 1.313.493 2.06l-1.242 2.554-6.336 12.246 1.776.92 5.483-10.488a1.49 1.49 0 0 1 2.133-.61c.646.396.866 1.299.519 2.026zM46.115 10.862l-1.89.655c1.131 3.263 1.006 6.544-.342 9.001l1.753.962c1.62-2.951 1.795-6.821.479-10.618zM15.437 1.67l-.873-1.8c-3.628 1.76-6.24 4.623-7.165 7.854l1.923.551c.768-2.686 2.997-5.093 6.115-6.605z"/></g></g></svg>