<svg xmlns="http://www.w3.org/2000/svg" viewBox="0 0 48 48"><style>.st0{fill:none}.st1{fill:#d4d5d7}.st2{fill:#282c36}</style><path class="st0" d="M0 0h48v48H0z" id="Boundary"/><g id="Design"><g id="XMLID_3_"><path class="st1" d="M37.75 40.85c.9 1.94-.51 4.15-2.64 4.15H12.89c-2.13 0-3.54-2.21-2.64-4.15L14.82 31h18.36l4.57 9.85z"/><path class="st2" d="M38.657 40.429L30.468 22.79A5.002 5.002 0 0 1 30 20.67V8.369a3.006 3.006 0 0 0 2-2.829V5c0-1.654-1.346-3-3-3H19c-1.654 0-3 1.346-3 3v.54c0 .802.31 1.553.864 2.108.322.331.709.576 1.136.725V20.67c0 .736-.157 1.45-.467 2.119L9.343 40.43a3.91 3.91 0 0 0 .25 3.765A3.894 3.894 0 0 0 12.89 46h22.22a3.893 3.893 0 0 0 3.297-1.806 3.907 3.907 0 0 0 .25-3.765zM19.348 23.63a7.012 7.012 0 0 0 .635-2.63H23v-2h-3v-2h5v-2h-5v-2h3v-2h-3V7.54a.997.997 0 0 0-1-1c-.583 0-1-.732-1-1V5c0-.551.449-1 1-1h10c.551 0 1 .449 1 1v.54c0 .551-.449 1-1 1a1 1 0 0 0-1 1v13.13c0 1.028.22 2.024.653 2.961L31.61 30H16.39l2.958-6.37zm17.374 19.487A1.88 1.88 0 0 1 35.11 44H12.89a1.88 1.88 0 0 1-1.612-.883 1.89 1.89 0 0 1-.121-1.846L15.462 32h17.077l4.304 9.271c.282.61.239 1.283-.121 1.846z"/></g></g></svg>