<svg xmlns="http://www.w3.org/2000/svg" viewBox="0 0 48 48"><style>.st0{fill:none}.st1{fill:#d4d5d7}.st2{fill:#282c36}</style><path class="st0" d="M0 0h48v48H0z" id="Boundary"/><g id="Design"><g id="XMLID_35_"><path class="st1" d="M34 3.02v3.99H7V3h27z"/><path class="st2" d="M41.708 8.704l-6.39-6.41A1.002 1.002 0 0 0 34.61 2H7a1 1 0 0 0-1 1v42.02a1 1 0 0 0 1 1h34a1 1 0 0 0 1-1V9.41c0-.264-.105-.518-.292-.706zM35 4.808L39.179 9H35V4.808zM33 4v2.01H8V4h25zM8 44.02V8.01h25V10a1 1 0 0 0 1 1h6v33.02H8z"/><path class="st2" d="M20.01 33.99H34v2H20.01zM14 34h4v2h-4zm6.01-6.02H34v2H20.01zm-6.01.01h4v2h-4zm6.01-6.01H34v2H20.01zm-6.01.01h4v2h-4zm6.01-6H34v2H20.01zM14 16h4v2h-4z"/></g></g></svg>