<svg xmlns="http://www.w3.org/2000/svg" viewBox="0 0 48 48"><style>.st0{fill:none}.st1{fill:#d4d5d7}.st2{fill:#282c36}</style><path class="st0" d="M0 0h48v48H0z" id="Boundary"/><g id="Design"><g id="XMLID_12_"><path class="st1" d="M30 6h6v36h-6z"/><path class="st2" d="M25 21.5h2v5h-2z"/><path class="st2" d="M37 41V6a1 1 0 0 0-1-1h-5V3a.998.998 0 0 0-1.165-.986l-18 3A1 1 0 0 0 11 6v35H2v2h9.917l17.918 2.986A1 1 0 0 0 31 45v-2h15v-2h-9zm-8 2.819l-16-2.667V6.847L29 4.18v39.639zM35 41h-4V7h4v34z"/></g></g></svg>