<svg xmlns="http://www.w3.org/2000/svg" viewBox="0 0 48 48"><style>.st0{fill:none}.st1{fill:#d4d5d7}.st2{fill:#282c36}</style><path class="st0" d="M0 0h48v48H0z" id="Boundary"/><g id="Design"><g id="XMLID_30_"><path class="st1" d="M47 9.98v6h-7l-1 .04c0-1.11-.91-2.02-2.02-2.02H9V9.98h38z"/><path class="st2" d="M44.98 5H11.02A3.024 3.024 0 0 0 8 8.02V13H3.02A3.024 3.024 0 0 0 0 16.02v23.96A3.024 3.024 0 0 0 3.02 43h33.96A3.024 3.024 0 0 0 40 39.98V35h4.98A3.024 3.024 0 0 0 48 31.98V8.02A3.024 3.024 0 0 0 44.98 5zM38 39.98c0 .553-.467 1.02-1.02 1.02H3.02C2.467 41 2 40.533 2 39.98V16.02c0-.553.467-1.02 1.02-1.02h33.96c.553 0 1.02.467 1.02 1.02v23.96zm8-8c0 .553-.467 1.02-1.02 1.02H40V16.98h6v15zm0-17h-6.196A3.017 3.017 0 0 0 36.98 13H10v-2.02h36v4zm-36-6v-.96c0-.553.467-1.02 1.02-1.02h33.96c.553 0 1.02.467 1.02 1.02v.96H10z"/><path class="st2" d="M31.02 28.98c-.877 0-1.74.243-2.5.682a5.012 5.012 0 0 0-2.5-.682c-2.757 0-5 2.243-5 5s2.243 5 5 5c.877 0 1.74-.243 2.5-.682.76.439 1.623.682 2.5.682 2.757 0 5-2.243 5-5s-2.243-5-5-5zm-3 5c0-.595.186-1.151.5-1.63.314.479.5 1.036.5 1.63 0 .594-.186 1.151-.5 1.63a2.964 2.964 0 0 1-.5-1.63zm-5 0c0-1.654 1.346-3 3-3 .31 0 .611.053.901.145-.578.826-.901 1.813-.901 2.855s.323 2.03.9 2.855a2.96 2.96 0 0 1-.9.145c-1.654 0-3-1.346-3-3zm8 3a2.97 2.97 0 0 1-.901-.145 4.964 4.964 0 0 0 .901-2.855 4.964 4.964 0 0 0-.901-2.855 2.96 2.96 0 0 1 .901-.145c1.654 0 3 1.346 3 3s-1.346 3-3 3zm-26-18h6v2h-6zm8 0h6v2h-6zm8 0h6v2h-6zm8 0h6v2h-6zm-24 16h7v2h-7zm0-6h12v2h-12z"/></g></g></svg>