<svg xmlns="http://www.w3.org/2000/svg" viewBox="0 0 48 48"><style>.st0{fill:none}.st1{fill:#d4d5d7}.st2{fill:#282c36}</style><path class="st0" d="M0 0h48v48H0z" id="Boundary"/><g id="Design"><g id="XMLID_7_"><path class="st1" d="M5 40h38v4H5z"/><path class="st2" d="M45 3.01H3a1 1 0 0 0-1 1V12a1 1 0 0 0 1 1h1v31a1 1 0 0 0 1 1h38a1 1 0 0 0 1-1V13h1a1 1 0 0 0 1-1V4.01a1 1 0 0 0-1-1zM42 39H6V13h36v26zM6 43v-2h36v2H6zm38-32H4V5.01h40V11z"/><path class="st2" d="M16 25h16a1 1 0 0 0 1-1v-6a1 1 0 0 0-1-1H16a1 1 0 0 0-1 1v6a1 1 0 0 0 1 1zm1-6h14v4H17v-4z"/></g></g></svg>