<svg xmlns="http://www.w3.org/2000/svg" viewBox="0 0 48 48"><style>.st0{fill:none}.st1{fill:#d4d5d7}.st2{fill:#282c36}</style><path class="st0" d="M0 0h48v48H0z" id="Boundary"/><g id="Design"><g id="XMLID_11_"><path class="st1" d="M11 18h26v6H11z"/><path class="st2" d="M37 0H18a1 1 0 0 0-1 1v1.099L15.817.423A1.002 1.002 0 0 0 15 0h-4a1 1 0 0 0-1 1v23.65a1 1 0 0 0 .564.9l7.6 3.683A2.99 2.99 0 0 1 20 32v12c0 2.206 1.794 4 4 4 1.067 0 2.071-.417 2.827-1.173S28 45.067 28 44V32c0-1.214.721-2.3 1.886-2.79l7.55-3.66a1 1 0 0 0 .564-.9V1a1 1 0 0 0-1-1zM12 2h2.482l2.701 3.827A1 1 0 0 0 19 5.25V2h7v10h2V2h4v5h2V2h2v15H12V2zm0 21v-4h24v4H12zm17.064 4.388A4.986 4.986 0 0 0 26 32v12c0 .533-.208 1.035-.587 1.413S24.533 46 24 46c-1.103 0-2-.897-2-2V32c0-2.022-1.203-3.833-3.014-4.59L14.014 25h19.938l-4.888 2.388z"/></g></g></svg>