<?xml version="1.0" encoding="utf-8"?>
<!-- Generator: Adobe Illustrator 21.0.0, SVG Export Plug-In . SVG Version: 6.00 Build 0)  -->
<svg version="1.1" xmlns="http://www.w3.org/2000/svg" xmlns:xlink="http://www.w3.org/1999/xlink" x="0px" y="0px"
	 viewBox="0 0 48 48" style="enable-background:new 0 0 48 48;" xml:space="preserve">
<style type="text/css">
	.st0{fill:none;}
	.st1{fill:#D4D5D7;}
	.st2{fill:#282C36;}
</style>
<g id="Boundary">
	<rect class="st0" width="48" height="48"/>
</g>
<g id="Design">
	<g>
		<g>
			<polygon class="st1" points="41.07,8.08 41.07,12.08 7.07,12.08 7.07,8.08 15.64,8.08 32.49,8.08 			"/>
		</g>
	</g>
	<g>
		<g>
			<path class="st2" d="M8.07,18.62h-2V8.08c0-0.552,0.448-1,1-1h34c0.552,0,1,0.448,1,1v9.89h-2V9.08h-32V18.62z"/>
		</g>
		<g>
			<path class="st2" d="M45.36,45.08H2.77c-0.436,0-0.836-0.158-1.159-0.456c-0.35-0.325-0.551-0.782-0.551-1.254V15.08
				c0-0.369,0.203-0.708,0.528-0.882c0.324-0.175,0.719-0.156,1.026,0.05L24.06,28.528l21.456-14.281
				c0.307-0.204,0.702-0.223,1.026-0.049c0.325,0.174,0.528,0.513,0.528,0.881v28.5C47.07,44.365,46.255,45.08,45.36,45.08z
				 M3.06,43.08h42.01V16.947L24.614,30.562c-0.336,0.224-0.772,0.224-1.108,0L3.06,16.948V43.08z"/>
		</g>
		<g>
			<polygon class="st2" points="3.033,44.559 2.27,43.91 1.563,43.203 17.587,25.41 19.073,26.749 			"/>
		</g>
		<g>
			<rect x="7.07" y="11.08" class="st2" width="34" height="2"/>
		</g>
		<g>
			
				<rect x="36.45" y="23.137" transform="matrix(0.7429 -0.6694 0.6694 0.7429 -13.5193 33.9623)" class="st2" width="2" height="22.884"/>
		</g>
		<g>
			<polygon class="st2" points="45.636,15.98 40.636,13.57 41.065,12.68 41.06,11.669 41.298,11.669 46.504,14.179 			"/>
		</g>
		<g>
			<polygon class="st2" points="32.057,8.981 24.061,5.139 16.074,8.981 15.207,7.178 24.06,2.92 32.923,7.178 			"/>
		</g>
		<g>
			
				<rect x="1.785" y="12.874" transform="matrix(0.9012 -0.4335 0.4335 0.9012 -5.5633 3.3503)" class="st2" width="5.559" height="2"/>
		</g>
	</g>
</g>
</svg>
