<svg xmlns="http://www.w3.org/2000/svg" viewBox="0 0 48 48"><style>.st0{fill:none}.st1{fill:#ccc}.st2{fill:none;stroke:#282c36;stroke-width:2;stroke-linejoin:round;stroke-miterlimit:10}.st3{fill:#282c36}.st4,.st5{fill:none;stroke:#282c36;stroke-width:2;stroke-miterlimit:10}.st5{fill:#282c36;stroke:#fff;stroke-width:4}.st6{stroke-linecap:square}.st6,.st7{fill:none;stroke:#292d37;stroke-width:2;stroke-linejoin:round;stroke-miterlimit:10}</style><path class="st0" d="M0 0h48v48H0z" id="Boundary"/><g id="Design"><g id="XMLID_13_"><path class="st1" d="M42.93 12.108l-2.83 2.83-3.53-3.53-3.54-3.541 2.83-2.83z"/><path class="st3" d="M44.229 3.833l-.09-.09A5.877 5.877 0 0 0 39.951 2h-.008a5.9 5.9 0 0 0-4.2 1.74L4.703 34.77l.005.005a.99.99 0 0 0-.284.538l-1.41 8.49a1 1 0 0 0 1.15 1.15l8.49-1.41a.994.994 0 0 0 .538-.284l.005.005 31.029-31.04a5.901 5.901 0 0 0 1.741-4.209 5.864 5.864 0 0 0-1.738-4.182zM12.49 41.143l-5.666-5.666L33.029 9.281l2.122 2.122L8.953 37.601l1.414 1.414 26.198-26.198 2.121 2.121L12.49 41.143zM34.444 7.867l1.416-1.416 5.656 5.656-1.416 1.417-5.656-5.657zM7.976 42.294l-2.302-2.302.404-2.432 4.33 4.33-2.432.404zm34.942-31.612l-5.633-5.633A3.906 3.906 0 0 1 39.943 4h.005a3.89 3.89 0 0 1 2.772 1.152l.094.094a3.905 3.905 0 0 1 .104 5.436z"/></g></g></svg>