<svg xmlns="http://www.w3.org/2000/svg" viewBox="0 0 48 48"><style>.st0{fill:none}.st1{fill:#d4d5d7}.st2{fill:#282c36}</style><path class="st0" d="M0 0h48v48H0z" id="Boundary"/><g id="Design"><g id="XMLID_4_"><path class="st2" d="M30.01 19.06c0 2.03-1.19 3.39-2.88 4.91-1.34 1.21-2.16 1.97-2.16 3.06 0 .36.1.69.16.97h-2.04c-.18-.37-.3-.85-.3-1.34 0-1.51 1.12-2.57 2.43-3.72 1.51-1.43 2.36-2.25 2.36-3.73 0-1.82-1.33-3.06-2.97-3.06-1.42 0-2.59.82-3.24 2.46-.09.24-.35.36-.59.27l-1.14-.48a.457.457 0 0 1-.26-.57c.86-2.44 2.76-3.83 5.29-3.83 2.94 0 5.34 2.09 5.34 5.06zM24 30c1.11 0 2 .89 2 2a2 2 0 1 1-2-2z"/><path class="st2" d="M24 48C10.767 48 0 37.233 0 24S10.767 0 24 0s24 10.767 24 24-10.767 24-24 24zm0-46C11.869 2 2 11.869 2 24s9.869 22 22 22 22-9.869 22-22S36.131 2 24 2z"/><path class="st2" d="M24 44C12.972 44 4 35.028 4 24S12.972 4 24 4s20 8.972 20 20-8.972 20-20 20zm0-38C14.075 6 6 14.075 6 24s8.075 18 18 18 18-8.075 18-18S33.925 6 24 6z"/></g></g></svg>