<?xml version="1.0" encoding="utf-8"?>
<!-- Generator: Adobe Illustrator 21.0.0, SVG Export Plug-In . SVG Version: 6.00 Build 0)  -->
<svg version="1.1" xmlns="http://www.w3.org/2000/svg" xmlns:xlink="http://www.w3.org/1999/xlink" x="0px" y="0px"
	 viewBox="0 0 48 48" style="enable-background:new 0 0 48 48;" xml:space="preserve">
<style type="text/css">
	.st0{fill:none;}
	.st1{fill:#D4D5D7;}
	.st2{fill:#282C36;}
</style>
<g id="Boundary">
	<rect class="st0" width="48" height="48"/>
</g>
<g id="Design">
	<g>
		<g id="XMLID_6_">
			<g>
				<g>
					<polygon class="st1" points="28.067,27.003 24.917,30.153 24.208,29.442 18.558,23.792 17.847,23.083 20.997,19.933 					"/>
				</g>
			</g>
			<g>
				<g>
					<path class="st2" d="M3.997,45.002c-0.264,0-0.523-0.105-0.716-0.302c-0.288-0.295-0.365-0.738-0.194-1.113
						c1.253-2.745,2.492-6.164,2.412-7.041c-0.124-0.191-0.18-0.42-0.155-0.65c0.032-0.301,0.198-0.571,0.452-0.734l4.449-2.87
						c0.005-0.003,0.011-0.007,0.016-0.01l0.21-0.13c0.396-0.243,0.906-0.185,1.233,0.144l4,4c0.328,0.328,0.388,0.838,0.144,1.233
						l-0.13,0.21l-2.88,4.466c-0.164,0.254-0.435,0.42-0.734,0.452c-0.207,0.024-0.406-0.02-0.583-0.115c-0.007,0-0.015,0-0.021,0
						c-0.915,0-4.336,1.199-7.11,2.381C4.263,44.976,4.129,45.002,3.997,45.002z M11.29,42.37c0,0,0.001,0.001,0.002,0.001
						C11.291,42.371,11.29,42.37,11.29,42.37z M7.474,36.46c0.023,0.918-0.3,2.575-1.577,5.683c3.102-1.214,4.728-1.575,5.626-1.59
						l2.2-3.411l-2.865-2.865L7.474,36.46z"/>
				</g>
				<g>
					<path class="st2" d="M24.918,31.152c-0.256,0-0.512-0.098-0.707-0.292L23.5,30.15l1.414-1.415l0.003,0.004L43.7,9.956
						C43.895,9.763,44,9.513,44,9.247c0-0.266-0.105-0.515-0.295-0.703l-4.244-4.245C39.269,4.105,39.019,4,38.753,4h-0.001
						c-0.266,0-0.515,0.105-0.702,0.295L19.262,23.083l0.003,0.003L17.851,24.5l-0.71-0.71c-0.391-0.391-0.391-1.023,0-1.414
						l19.49-19.49C37.192,2.316,37.947,2,38.752,2c0,0,0,0,0.001,0c0.805,0,1.56,0.316,2.126,0.889l4.235,4.236
						C45.684,7.687,46,8.442,46,9.247s-0.316,1.56-0.89,2.127L25.625,30.859C25.43,31.055,25.174,31.152,24.918,31.152z"/>
				</g>
				<g>
					
						<rect x="23.532" y="18.468" transform="matrix(0.7071 -0.7071 0.7071 0.7071 -9.4087 24.2216)" class="st2" width="2" height="9.999"/>
				</g>
				<g>
					
						<rect x="4.169" y="40.003" transform="matrix(0.7071 -0.7071 0.7071 0.7071 -26.9437 16.957)" class="st2" width="5.657" height="2"/>
				</g>
				<g>
					<path class="st2" d="M15.657,39.002c-0.266,0-0.52-0.105-0.707-0.293l-5.66-5.66c-0.188-0.188-0.293-0.442-0.293-0.708
						c0-0.265,0.105-0.52,0.293-0.707l8.561-8.55c0.391-0.39,1.023-0.39,1.414,0l5.649,5.65c0.391,0.39,0.391,1.023,0.001,1.414
						l-8.55,8.56C16.178,38.897,15.923,39.002,15.657,39.002L15.657,39.002z M11.412,32.343l4.245,4.245l7.136-7.145l-4.235-4.237
						L11.412,32.343z"/>
				</g>
			</g>
		</g>
	</g>
</g>
</svg>
