<svg xmlns="http://www.w3.org/2000/svg" viewBox="0 0 48 48"><style>.st0{fill:none}.st1{fill:#d4d5d7}.st2{fill:#282c36}</style><path class="st0" d="M0 0h48v48H0z" id="Boundary"/><g id="Design"><g id="XMLID_10_"><path class="st1" d="M41.07 30.73l-1.1 7.79-18.82-2.65.22-1.5 9.94-3.31c1.08.89 2.27 1.66 3.77 1.87 3.64.51 5.76-1.93 5.99-2.2zM27.45 16.16l2.33 6.98-18.03 6-2.14-6.41.13-.04S10.27 21 13 20c2.91-1.06 6.41 1.92 10.1.69 3.26-1.09 4.18-3.88 4.35-4.53z"/><path class="st2" d="M30.729 22.824L25.04 5.744a1.002 1.002 0 0 0-1.266-.633l-18.03 6.01a1.002 1.002 0 0 0-.633 1.265l5.691 17.071a1 1 0 0 0 1.263.632l18.03-6a.999.999 0 0 0 .634-1.265zM23.457 7.325l2.944 8.85a5.676 5.676 0 0 1-3.618 3.566c-1.645.548-3.276.106-5.002-.362-1.69-.458-3.438-.933-5.125-.318-1.247.457-2.092 1.046-2.678 1.604l-2.654-7.963 16.133-5.377zM12.382 27.876l-1.653-4.958c.146-.301.75-1.296 2.613-1.978 1.092-.398 2.4-.042 3.916.37 1.847.5 3.938 1.07 6.159.329 1.899-.635 3.107-1.781 3.859-2.841l1.238 3.71-16.132 5.368z"/><path class="st2" d="M47.142 16.3L32.05 14.137 27.568.684a.997.997 0 0 0-1.265-.632l-22.16 7.38h-.002l-3.46 1.16a1 1 0 0 0-.63 1.264l9.48 28.46a1.002 1.002 0 0 0 1.264.632l5.108-1.703-.823 5.845a1.002 1.002 0 0 0 .85 1.13l26.739 3.77a1 1 0 0 0 1.13-.85l4.19-29.71a1 1 0 0 0-.847-1.13zM2.265 10.171l23.723-7.906 8.848 26.563-23.722 7.907-8.849-26.564zm28.844 22.006c.969.746 2.233 1.519 3.833 1.743.391.055.766.08 1.126.08a7.461 7.461 0 0 0 3.665-.963l-.614 4.353-16.626-2.341 8.616-2.872zm9.012-1.893c-.59.606-2.275 2.026-4.902 1.656-.625-.087-1.182-.303-1.689-.569l2.887-.962a1 1 0 0 0 .632-1.265l-.102-.307a2.991 2.991 0 0 0 2.026-2.421c.225-1.643-.921-3.162-2.547-3.385a2.923 2.923 0 0 0-1.372.123l-.872-2.617 7.17 1.013-1.231 8.734zm-3.808-3.346l-.626-1.878c.142-.049.295-.073.456-.049.542.075.922.583.847 1.132a.984.984 0 0 1-.677.795zm5.646 18.932L17.2 42.379l.824-5.84 2.142-.714c-.01.23.045.458.183.645a1 1 0 0 0 .661.391l18.819 2.65a1 1 0 0 0 1.13-.85l2.511-17.82a1 1 0 0 0-.851-1.129l-9.145-1.293-.718-2.155 13.113 1.877-3.91 27.729z"/></g><path class="st2" d="M20.292 16.648a3.006 3.006 0 0 1-2.849-2.051 3.005 3.005 0 0 1 1.897-3.795 2.98 2.98 0 0 1 2.291.163c.716.358 1.25.974 1.503 1.734.254.76.196 1.574-.162 2.291s-.975 1.251-1.734 1.504a2.974 2.974 0 0 1-.946.154zm-.002-4a1.001 1.001 0 1 0 .316 1.949.997.997 0 0 0 .633-1.264h-.001a.993.993 0 0 0-.501-.578.994.994 0 0 0-.447-.107z"/></g></svg>