<?xml version="1.0" encoding="utf-8"?>
<!-- Generator: Adobe Illustrator 21.0.0, SVG Export Plug-In . SVG Version: 6.00 Build 0)  -->
<svg version="1.1" xmlns="http://www.w3.org/2000/svg" xmlns:xlink="http://www.w3.org/1999/xlink" x="0px" y="0px"
	 viewBox="0 0 48 48" style="enable-background:new 0 0 48 48;" xml:space="preserve">
<style type="text/css">
	.st0{fill:none;}
	.st1{fill:#D4D5D7;}
	.st2{fill:#282C36;}
</style>
<g id="Boundary">
	<rect class="st0" width="48" height="48"/>
</g>
<g id="Design">
	<g id="XMLID_37_">
		<g>
			<g>
				<path class="st1" d="M47.03,40.17c0,2.21-1.79,4-4,4s-4-1.79-4-4c0-2.21,4-9,4-9S47.03,37.96,47.03,40.17z"/>
			</g>
		</g>
		<g>
			<g>
				<path class="st2" d="M16.808,43.513c-1.36,0-2.726-0.517-3.765-1.556L1.518,29.932c-1.639-1.627-2.021-4.125-0.933-6.197
					c0.001-0.003,0.003-0.007,0.005-0.01c0.242-0.448,0.556-0.873,0.932-1.261L20.553,3.433c0.189-0.189,0.464-0.275,0.714-0.293
					c0.268,0.002,0.523,0.111,0.71,0.303l20.57,21.17c0.28,0.288,0.36,0.716,0.204,1.086c-0.156,0.37-0.519,0.611-0.921,0.611
					h-3.916L20.51,41.993C19.498,43.005,18.156,43.513,16.808,43.513z M2.353,24.67c-0.663,1.269-0.42,2.855,0.592,3.86
					l11.527,12.027c1.273,1.274,3.372,1.273,4.661-0.015L36.86,24.568c0.184-0.166,0.422-0.258,0.67-0.258h1.934L21.25,5.564
					L2.947,23.867C2.711,24.111,2.507,24.385,2.353,24.67z"/>
			</g>
			<g>
				<path class="st2" d="M43.03,45.17c-2.757,0-5-2.243-5-5c0-2.363,3.447-8.334,4.138-9.508c0.36-0.609,1.363-0.609,1.724,0
					c0.691,1.173,4.138,7.145,4.138,9.508C48.03,42.927,45.787,45.17,43.03,45.17z M43.03,33.193c-1.399,2.539-3,5.818-3,6.977
					c0,1.654,1.346,3,3,3s3-1.346,3-3C46.03,39.061,44.475,35.819,43.03,33.193z"/>
			</g>
			<g>
				<path class="st2" d="M7.728,17.729l-0.07-0.08l-3.375-3.373C3.158,13.14,2.54,11.651,2.54,10.08
					c0-1.589,0.619-3.083,1.743-4.207C5.405,4.75,6.897,4.132,8.485,4.132c1.587,0,3.08,0.618,4.202,1.741l8.15,8.15l-1.414,1.414
					l-8.15-8.15c-1.49-1.49-4.087-1.489-5.576,0C4.951,8.034,4.54,9.025,4.54,10.08c0,1.041,0.412,2.03,1.161,2.786l3.531,3.544
					L7.728,17.729z"/>
			</g>
			<g>
				
					<rect x="17.271" y="13.55" transform="matrix(0.7071 -0.7071 0.7071 0.7071 -4.3383 18.6265)" class="st2" width="6.088" height="2"/>
			</g>
			<g>
				<polygon class="st2" points="35.27,28.455 35.07,28.435 1.934,25.225 2.126,23.235 35.47,26.465 				"/>
			</g>
		</g>
	</g>
</g>
</svg>
