<svg xmlns="http://www.w3.org/2000/svg" viewBox="0 0 48 48"><style>.st0{fill:none}.st1{fill:#d4d5d7}.st2{fill:#282c36}</style><path class="st0" d="M0 0h48v48H0z" id="Boundary"/><g id="Design"><path class="st2" d="M27.538 48h-7.076a.999.999 0 0 1-.982-.813l-.873-4.584-3.938-1.638-3.87 2.633c-.396.269-.93.22-1.27-.12l-5.007-5.007a1 1 0 0 1-.12-1.27l2.633-3.87-1.638-3.939-4.583-.872A.999.999 0 0 1 0 27.539v-7.077a1 1 0 0 1 .813-.982l4.583-.872 1.638-3.939-2.633-3.87a1 1 0 0 1 .12-1.27l5.007-5.007a1 1 0 0 1 1.27-.12l3.87 2.633 3.938-1.638.873-4.584A1 1 0 0 1 20.462 0h7.076c.48 0 .893.341.982.813l.873 4.584 3.938 1.638 3.87-2.633a1 1 0 0 1 1.27.12l5.007 5.007a1 1 0 0 1 .12 1.27l-2.633 3.87 1.638 3.939 4.583.872a.999.999 0 0 1 .814.981v7.077a1 1 0 0 1-.813.982l-4.583.872-1.638 3.939 2.633 3.87a1 1 0 0 1-.12 1.27l-5.007 5.007a.999.999 0 0 1-1.27.12l-3.87-2.633-3.938 1.638-.873 4.584a1 1 0 0 1-.983.813zm-6.249-2h5.422l.818-4.3a.998.998 0 0 1 .599-.736l4.936-2.052a1 1 0 0 1 .946.097l3.633 2.471 3.837-3.836-2.472-3.632a1.003 1.003 0 0 1-.097-.946l2.052-4.936c.13-.311.406-.536.737-.599l4.3-.818v-5.422l-4.3-.818a1.002 1.002 0 0 1-.737-.599l-2.052-4.936a1 1 0 0 1 .097-.946l2.472-3.632-3.837-3.836-3.633 2.468a1.004 1.004 0 0 1-.946.097l-4.936-2.052a1.002 1.002 0 0 1-.599-.736L26.711 2h-5.422l-.818 4.3a.998.998 0 0 1-.599.736l-4.936 2.052a.997.997 0 0 1-.946-.097L10.357 6.52 6.52 10.356l2.472 3.632c.189.279.226.635.097.946L7.037 19.87c-.13.311-.406.536-.737.599l-4.3.82v5.422l4.3.818c.331.063.607.288.737.599l2.052 4.936a1 1 0 0 1-.097.946L6.52 37.642l3.837 3.836 3.633-2.471a.997.997 0 0 1 .946-.097l4.936 2.052c.311.129.535.406.599.736L21.289 46z"/><path class="st2" d="M27.733 33.962h-7.467a.996.996 0 0 1-.707-.293l-5.267-5.267a1 1 0 0 1-.292-.707v-7.467c0-.265.105-.52.293-.707l5.267-5.266a.997.997 0 0 1 .707-.293h7.467c.266 0 .52.105.707.293l5.267 5.266a1 1 0 0 1 .292.707v7.467c0 .265-.105.52-.293.707l-5.267 5.267a1 1 0 0 1-.707.293zm-7.052-2h6.639L32 27.281v-6.639l-4.681-4.68H20.68L16 20.642v6.639l4.681 4.681z"/></g></svg>