<svg xmlns="http://www.w3.org/2000/svg" viewBox="0 0 48 48"><style>.st0{fill:none}.st1{fill:#d4d5d7}.st2{fill:#282c36}</style><path class="st0" d="M0 0h48v48H0z" id="Boundary"/><g id="Design"><g id="XMLID_37_"><path class="st1" d="M47.03 40.17c0 2.21-1.79 4-4 4s-4-1.79-4-4 4-9 4-9 4 6.79 4 9z"/><path class="st2" d="M16.808 43.513a5.31 5.31 0 0 1-3.765-1.556L1.518 29.932c-1.639-1.627-2.021-4.125-.933-6.197a5.74 5.74 0 0 1 .937-1.271L20.553 3.433c.189-.189.464-.275.714-.293a1 1 0 0 1 .71.303l20.57 21.17a1 1 0 0 1-.717 1.697h-3.916L20.51 41.993a5.217 5.217 0 0 1-3.702 1.52zM2.353 24.67a3.316 3.316 0 0 0 .592 3.86l11.527 12.027c1.273 1.274 3.372 1.273 4.661-.015L36.86 24.568a1 1 0 0 1 .67-.258h1.934L21.25 5.564 2.947 23.867c-.236.244-.44.518-.594.803zm40.677 20.5c-2.757 0-5-2.243-5-5 0-2.363 3.447-8.334 4.138-9.508.36-.609 1.363-.609 1.724 0 .691 1.173 4.138 7.145 4.138 9.508 0 2.757-2.243 5-5 5zm0-11.977c-1.399 2.539-3 5.818-3 6.977 0 1.654 1.346 3 3 3s3-1.346 3-3c0-1.109-1.555-4.351-3-6.977z"/><path class="st2" d="M7.728 17.729l-.07-.08-3.375-3.373A5.933 5.933 0 0 1 2.54 10.08a5.91 5.91 0 0 1 1.743-4.207 5.9 5.9 0 0 1 4.202-1.741c1.587 0 3.08.618 4.202 1.741l8.15 8.15-1.414 1.414-8.15-8.15c-1.49-1.49-4.087-1.489-5.576 0A3.926 3.926 0 0 0 4.54 10.08c0 1.041.412 2.03 1.161 2.786l3.531 3.544-1.504 1.319z"/><path transform="rotate(-45.001 20.315 14.55)" class="st2" d="M17.271 13.55h6.088v2h-6.088z"/><path class="st2" d="M35.27 28.455l-.2-.02-33.136-3.21.192-1.99 33.344 3.23z"/></g></g></svg>