<svg xmlns="http://www.w3.org/2000/svg" viewBox="0 0 48 48"><style>.st0{fill:none}.st1{fill:#d4d5d7}.st2{fill:#282c36}</style><path class="st0" d="M0 0h48v48H0z" id="Boundary"/><g id="Design"><path class="st1" d="M41.07 8.08v4h-34v-4h25.42z"/><path class="st2" d="M8.07 18.62h-2V8.08a1 1 0 0 1 1-1h34a1 1 0 0 1 1 1v9.89h-2V9.08h-32v9.54z"/><path class="st2" d="M45.36 45.08H2.77a1.719 1.719 0 0 1-1.71-1.71V15.08a1 1 0 0 1 1.554-.832l21.446 14.28 21.456-14.281a1 1 0 0 1 1.554.832v28.5c0 .786-.815 1.501-1.71 1.501zm-42.3-2h42.01V16.947L24.614 30.562a.997.997 0 0 1-1.108 0L3.06 16.948V43.08z"/><path class="st2" d="M3.033 44.559l-.763-.649-.707-.707L17.587 25.41l1.486 1.339zM7.07 11.08h34v2h-34z"/><path transform="rotate(-42.021 37.454 34.581)" class="st2" d="M36.45 23.137h2v22.884h-2z"/><path class="st2" d="M45.636 15.98l-5-2.41.429-.89-.005-1.011h.238l5.206 2.51zM32.057 8.981l-7.996-3.842-7.987 3.842-.867-1.803L24.06 2.92l8.863 4.258z"/><path transform="rotate(-25.689 4.565 13.874)" class="st2" d="M1.785 12.874h5.559v2H1.785z"/></g></svg>