<svg xmlns="http://www.w3.org/2000/svg" viewBox="0 0 48 48"><style>.st0{fill:none}.st1{fill:#d4d5d7}.st2{fill:#282c36}</style><path class="st0" d="M0 0h48v48H0z" id="Boundary"/><g id="Design"><g id="XMLID_1_"><path class="st1" d="M24 40.69V41L3 32V11l10.74 4.09L24 19z"/><path class="st1" d="M24 41.11V45L3 36v-4l21 9z"/><path class="st2" d="M45.356 10.065l-21-8a1.01 1.01 0 0 0-.708-.001l-21 7.9a1 1 0 0 0-.648.932c0 .016.006.031.007.047C2.006 10.962 2 10.98 2 11v25c0 .4.238.762.606.919l21 9 .004-.009c.125.053.255.09.39.09.133 0 .268-.027.394-.081l21-9A.999.999 0 0 0 46 36V11a1 1 0 0 0-.644-.935zM4 12.451l19 7.239v19.794L4 31.341v-18.89zm21 7.238l19-7.238v19l-19 8.143V19.689zm-.998-1.76l-7.517-2.899 17.289-7.237L42.191 11l-18.189 6.929zm-.004-13.86l7.065 2.691-17.27 7.231-7.985-3.08 18.19-6.842zM4 33.516l19 8.143v1.824L4 35.341v-1.825zm21 9.967v-1.714l19-8.143v1.715l-19 8.142z"/></g></g></svg>