<svg xmlns="http://www.w3.org/2000/svg" viewBox="0 0 48 48"><style>.st0{fill:none}.st1{fill:#d4d5d7}.st2{fill:#282c36}</style><path class="st0" d="M0 0h48v48H0z" id="Boundary"/><g id="Design"><g id="XMLID_41_"><path class="st1" d="M37 27.028c5.52 0 10 4.48 10 10.01 0 5.52-4.48 10-10 10-5.53 0-10.01-4.48-10.01-10 0-5.53 4.48-10.01 10.01-10.01z"/><path class="st2" d="M37 48.038c-6.071 0-11.01-4.935-11.01-11 0-6.071 4.938-11.01 11.01-11.01 6.065 0 11 4.939 11 11.01 0 6.065-4.935 11-11 11zm0-20.01c-4.968 0-9.01 4.042-9.01 9.01 0 4.962 4.042 9 9.01 9 4.963 0 9-4.038 9-9 0-4.968-4.037-9.01-9-9.01z"/><path class="st2" d="M24.99 41.028h-20a1 1 0 0 1-1-1v-34a1 1 0 0 1 1-1h38a1 1 0 0 1 1 1v20h-2v-19h-36v32h19v2zm15.293-3.293l-3.293-3.293-3.293 3.293-1.414-1.414 4-4a.999.999 0 0 1 1.414 0l4 4-1.414 1.414z"/><path class="st2" d="M35.99 33.028h2v9h-2zm-31-24h38v2h-38z"/></g></g></svg>