<svg xmlns="http://www.w3.org/2000/svg" viewBox="0 0 48 48"><style>.st0{fill:none}.st1{fill:#d4d5d7}.st2{fill:#282c36}</style><path class="st0" d="M0 0h48v48H0z" id="Boundary"/><g id="Design"><path class="st1" d="M22.375 17.019l-7.27 4.05c-.01-.02-.01-.04-.01-.07a8.49 8.49 0 0 1-.05-.88v-.04c-.01-.93.12-1.82.39-2.67.04-.14.09-.28.14-.42.23-.65.53-1.27.9-1.84.49-.76 1.1-1.44 1.78-2.02a9.006 9.006 0 0 1 5.74-2.1c3.16-.02 5.94 1.59 7.58 4.04.37.57.68 1.18.92 1.82.05.14.1.28.14.42.27.83.42 1.72.42 2.65 0 .01.01.03.01.04 0 .17-.01.33-.02.49-.01.17-.02.34-.04.5a11.3 11.3 0 0 1-6.27-.74 11.19 11.19 0 0 1-4.36-3.23z"/><path class="st2" d="M24.072.029h-.154C17.504.07 11.49 2.604 6.982 7.164S.015 17.766.055 24.176c.061 9.203 5.23 17.416 13.492 21.433l.017.008.066.033a23.79 23.79 0 0 0 10.444 2.39h.137c3.633-.02 7.096-.825 10.241-2.367.141-.059.282-.128.425-.2 8.196-4.141 13.25-12.414 13.189-21.589C47.982 10.697 37.234.029 24.072.029zm.128 46.01a22.024 22.024 0 0 1-9.135-1.937v-7.073c0-1.654 1.346-3 3-3h1.474l3.792 6.504a1 1 0 0 0 .864.496h.009c.359-.003.688-.199.864-.512l3.623-6.488h1.374c1.654 0 3 1.346 3 3v7.077a21.517 21.517 0 0 1-8.865 1.933zm-2.346-12.01h4.547l-2.225 3.983-2.322-3.983zm13.211 9.058v-6.058c0-2.757-2.243-5-5-5h-12c-2.757 0-5 2.243-5 5v6.061C6.288 39.202 2.107 32.083 2.055 24.163A21.84 21.84 0 0 1 8.405 8.57a21.884 21.884 0 0 1 15.526-6.541c12.083-.097 22.057 9.733 22.134 21.867.053 7.994-4.136 15.234-11 19.191z"/><path class="st2" d="M24.065 10.029c-5.514 0-10 4.486-10 10s4.486 10 10 10 10-4.486 10-10-4.486-10-10-10zm0 2c4.398 0 7.977 3.569 7.998 7.962-1.31.109-3.032.008-4.887-.777a10.34 10.34 0 0 1-3.974-2.946.999.999 0 0 0-1.258-.237l-5.841 3.253c.377-4.063 3.802-7.255 7.962-7.255zm0 16c-3.904 0-7.158-2.812-7.856-6.516l6.006-3.345c.92.97 2.293 2.099 4.186 2.89 1.75.741 3.408.973 4.798.973.215 0 .408-.016.61-.027-.884 3.458-4.016 6.025-7.744 6.025z"/></g></svg>