<svg xmlns="http://www.w3.org/2000/svg" viewBox="0 0 48 48"><style>.st0{fill:none}.st1{fill:#d4d5d7}.st2{fill:#282c36}</style><path class="st0" d="M0 0h48v48H0z" id="Boundary"/><g id="Design"><path class="st1" d="M8 3.98h30V8H8z"/><path class="st2" d="M47 24.56a5.25 5.25 0 0 0-1.545-3.739c-1.749-1.739-4.423-1.986-6.455-.769V3.98a1 1 0 0 0-1-1H8a1 1 0 0 0-1 1v34H2a1 1 0 0 0-1 1v3c0 2.206 1.794 4 4 4V46h29c2.757 0 5-2.243 5-5v-6.256l6.461-6.461A5.27 5.27 0 0 0 47 24.56zM37 4.98V7H9V4.98h28zm-34 37v-2h4v2c0 1.103-.897 2-2 2s-2-.897-2-2zm41.043-15.107l-7.57 7.57c-.695.695-1.92.696-2.615 0a1.842 1.842 0 0 1 0-2.625l7.56-7.56a.429.429 0 0 1 .618.012.406.406 0 0 1 .115.292.433.433 0 0 1-.127.302l-6.561 6.55 1.414 1.415 6.562-6.551a2.45 2.45 0 0 0 .712-1.716c0-.654-.265-1.284-.714-1.718a2.432 2.432 0 0 0-3.434 0l-7.56 7.56c-.731.731-1.134 1.699-1.134 2.728s.402 1.997 1.134 2.727a3.82 3.82 0 0 0 2.722 1.125c.656 0 1.277-.178 1.835-.483V41c0 1.654-1.346 3-3 3H8.433A3.96 3.96 0 0 0 9 41.98V9h28v12.808l-3.388 3.396 1.416 1.412 4.367-4.377a3.306 3.306 0 0 1 4.647-.002c.618.617.958 1.442.958 2.323 0 .867-.342 1.69-.957 2.313z"/><path class="st2" d="M15 37.98h14v2H15zm0-23h15v2H15zm0 6h11v2H15zm0 6h6v2h-6z"/></g></svg>