<?xml version="1.0" encoding="utf-8"?>
<!-- Generator: Adobe Illustrator 21.0.0, SVG Export Plug-In . SVG Version: 6.00 Build 0)  -->
<svg version="1.1" xmlns="http://www.w3.org/2000/svg" xmlns:xlink="http://www.w3.org/1999/xlink" x="0px" y="0px"
	 viewBox="0 0 48 48" style="enable-background:new 0 0 48 48;" xml:space="preserve">
<style type="text/css">
	.st0{fill:none;}
	.st1{fill:#D4D5D7;}
	.st2{fill:#282C36;}
</style>
<g id="Boundary">
	<rect class="st0" width="48" height="48"/>
</g>
<g id="Design">
	<g id="XMLID_35_">
		<g>
			<g>
				<polygon class="st1" points="34,3.02 34,7.01 7.01,7.01 7,7.01 7,3 34,3 				"/>
			</g>
		</g>
		<g>
			<path class="st2" d="M41.708,8.704l-6.39-6.41C35.13,2.106,34.875,2,34.61,2H7C6.448,2,6,2.448,6,3v42.02c0,0.552,0.448,1,1,1h34
				c0.552,0,1-0.448,1-1V9.41C42,9.146,41.895,8.892,41.708,8.704z M35,4.808L39.179,9H35V4.808z M33,4v2.01H8V4H33z M8,44.02V8.01
				h25V10c0,0.552,0.448,1,1,1h6v33.02H8z"/>
			<rect x="20.01" y="33.99" class="st2" width="13.99" height="2"/>
			<rect x="14" y="34" class="st2" width="4" height="2"/>
			<rect x="20.01" y="27.98" class="st2" width="13.99" height="2"/>
			<rect x="14" y="27.99" class="st2" width="4" height="2"/>
			<rect x="20.01" y="21.98" class="st2" width="13.99" height="2"/>
			<rect x="14" y="21.99" class="st2" width="4" height="2"/>
			<rect x="20.01" y="15.99" class="st2" width="13.99" height="2"/>
			<rect x="14" y="16" class="st2" width="4" height="2"/>
		</g>
	</g>
</g>
</svg>
