<svg xmlns="http://www.w3.org/2000/svg" viewBox="0 0 48 48"><style>.st0{fill:none}.st1{fill:#d4d5d7}.st2{fill:#282c36}</style><path class="st0" d="M0 0h48v48H0z" id="Boundary"/><g id="Design"><path class="st1" d="M43 31H1v6c0 1.1.9 2 2 2h42c1.1 0 2-.9 2-2v-6h-4zm-19 5c-.55 0-1-.45-1-1s.45-1 1-1 1 .45 1 1-.45 1-1 1z"/><circle class="st2" cx="37" cy="9" r="1"/><circle class="st2" cx="33" cy="9" r="1"/><circle class="st2" cx="29" cy="9" r="1"/><circle class="st2" cx="24" cy="35" r="1"/><path class="st2" d="M45 6h-1V3c0-1.654-1.346-3-3-3H25c-1.654 0-3 1.346-3 3v3H3C1.346 6 0 7.346 0 9v28c0 1.654 1.346 3 3 3h17v6h-4v2h16v-2h-4v-6h17c1.654 0 3-1.346 3-3V9c0-1.654-1.346-3-3-3zM24 3c0-.551.449-1 1-1h16c.551 0 1 .449 1 1v12c0 .551-.449 1-1 1h-9a.997.997 0 0 0-.707.293L29 18.586V17a1 1 0 0 0-1-1h-3c-.551 0-1-.449-1-1V3zm2 43h-4v-6h4v6zm20-9c0 .551-.449 1-1 1H3c-.551 0-1-.449-1-1v-5h44v5zm0-7H2V9c0-.551.449-1 1-1h19v7c0 1.654 1.346 3 3 3h2v3a1.002 1.002 0 0 0 1.707.707L32.414 18H41c1.654 0 3-1.346 3-3V8h1c.551 0 1 .449 1 1v21z"/></g></svg>