<svg xmlns="http://www.w3.org/2000/svg" viewBox="0 0 48 48"><style>.st0{fill:none}.st1{fill:#d4d5d7}.st2{fill:#282c36}</style><path class="st0" d="M0 0h48v48H0z" id="Boundary"/><g id="Design"><g id="XMLID_6_"><path class="st1" d="M28.067 27.003l-3.15 3.15-.709-.711-5.65-5.65-.711-.709 3.15-3.15z"/><path class="st2" d="M3.997 45.002a1.002 1.002 0 0 1-.91-1.415c1.253-2.745 2.492-6.164 2.412-7.041a.997.997 0 0 1 .297-1.384l4.449-2.87.016-.01.21-.13a1 1 0 0 1 1.233.144l4 4a1 1 0 0 1 .144 1.233l-.13.21-2.88 4.466a1.002 1.002 0 0 1-1.317.337H11.5c-.915 0-4.336 1.199-7.11 2.381a1.021 1.021 0 0 1-.393.079zm7.293-2.632l.002.001-.002-.001zm-3.816-5.91c.023.918-.3 2.575-1.577 5.683 3.102-1.214 4.728-1.575 5.626-1.59l2.2-3.411-2.865-2.865-3.384 2.183zm17.444-5.308a1 1 0 0 1-.707-.292l-.711-.71 1.414-1.415.003.004L43.7 9.956a.989.989 0 0 0 .005-1.412l-4.244-4.245A.988.988 0 0 0 38.753 4h-.001a.978.978 0 0 0-.702.295L19.262 23.083l.003.003-1.414 1.414-.71-.71a.999.999 0 0 1 0-1.414l19.49-19.49A2.957 2.957 0 0 1 38.752 2h.001c.805 0 1.56.316 2.126.889l4.235 4.236c.57.562.886 1.317.886 2.122s-.316 1.56-.89 2.127L25.625 30.859a.993.993 0 0 1-.707.293z"/><path transform="rotate(-45.001 24.534 23.469)" class="st2" d="M23.532 18.468h2v9.999h-2z"/><path transform="rotate(-45.001 6.997 41.003)" class="st2" d="M4.169 40.003h5.657v2H4.169z"/><path class="st2" d="M15.657 39.002a.996.996 0 0 1-.707-.293l-5.66-5.66a1 1 0 0 1 0-1.415l8.561-8.55a1 1 0 0 1 1.414 0l5.649 5.65a1 1 0 0 1 .001 1.414l-8.55 8.56a.995.995 0 0 1-.708.294zm-4.245-6.659l4.245 4.245 7.136-7.145-4.235-4.237-7.146 7.137z"/></g></g></svg>