<svg xmlns="http://www.w3.org/2000/svg" viewBox="0 0 48 48"><style>.st0{fill:none}.st1{fill:#d4d5d7}.st2{fill:#282c36}</style><path class="st0" d="M0 0h48v48H0z" id="Boundary"/><g id="Design"><g id="XMLID_20_"><path class="st1" d="M18 19c0 .46-.04.91-.11 1.34-9.9-.03-10.56-3.99-10.56-3.99s-1.68 3.91-5.22 3.99C2.04 19.91 2 19.46 2 19c0-4.42 3.59-8 8-8 4.42 0 8 3.58 8 8z"/><circle class="st2" cx="40" cy="12" r="1"/><circle class="st2" cx="36" cy="12" r="1"/><circle class="st2" cx="32" cy="12" r="1"/><path class="st2" d="M45 2H27c-1.654 0-3 1.346-3 3v14c0 1.654 1.346 3 3 3h3v3a1.002 1.002 0 0 0 1.707.707L35.414 22H45c1.654 0 3-1.346 3-3V5c0-1.654-1.346-3-3-3zm1 17c0 .551-.449 1-1 1H35a.997.997 0 0 0-.707.293L32 22.586V21a1 1 0 0 0-1-1h-4c-.551 0-1-.449-1-1V5c0-.551.449-1 1-1h18c.551 0 1 .449 1 1v14zM17.2 30H3.8C1.705 30 0 31.602 0 33.57V45a1 1 0 0 0 1 1h19a1 1 0 0 0 1-1V33.57c0-1.968-1.705-3.57-3.8-3.57zM19 44H2V33.57c0-.866.808-1.57 1.8-1.57H9v4h2v-4h6.2c.992 0 1.8.704 1.8 1.57V44zM1.124 20.507A8.975 8.975 0 0 0 10 28a8.976 8.976 0 0 0 9-9c0-4.962-4.038-9-9-9s-9 4.038-9 9c0 .494.042.999.123 1.5l.001.007zM10 26a6.975 6.975 0 0 1-6.654-4.832c1.882-.453 3.198-1.773 3.986-2.861 1.177 1.277 3.738 2.786 9.278 3.004A6.979 6.979 0 0 1 10 26zm0-14c3.86 0 7 3.14 7 7 0 .104-.021.211-.026.316-7.834-.239-8.656-3.131-8.658-3.131a1 1 0 0 0-1.904-.233c-.013.029-1.171 2.613-3.396 3.245C3.014 19.133 3 19.065 3 19c0-3.86 3.14-7 7-7z"/></g></g></svg>