<svg xmlns="http://www.w3.org/2000/svg" viewBox="0 0 48 48"><style>.st0{fill:none}.st1{fill:#d4d5d7}.st2{fill:#282c36}</style><path class="st0" d="M0 0h48v48H0z" id="Boundary"/><g id="Design"><g id="XMLID_34_"><path class="st1" d="M38 16h7v4h-7zM3 16h7v4H3z"/><path class="st2" d="M46 41V16a1 1 0 0 0-1-1h-6V2a1 1 0 0 0-1-1H10a1 1 0 0 0-1 1v13H3a1 1 0 0 0-1 1v25H0v2h48v-2h-2zm-2-22h-5v-2h5v2zM9 17v2H4v-2h5zM4 41V21h5v2H6v2h3v2H6v2h3v12H4zm15 0v-9h4v9h-4zm10 0h-4v-9h4v9zM18 30a1 1 0 0 0-1 1v10h-6V3h26v38h-6V31a1 1 0 0 0-1-1H18zm21 11V29h3v-2h-3v-2h3v-2h-3v-2h5v20h-5z"/><path class="st2" d="M13.893 5.874A2.935 2.935 0 0 0 13 8c0 1.654 1.346 3 3 3 .811 0 1.565-.317 2.107-.874C18.684 9.566 19 8.811 19 8s-.316-1.566-.874-2.108c-1.121-1.15-3.149-1.132-4.233-.018zm2.801 2.838A.957.957 0 0 1 16 9c-.552 0-1-.449-1-1 0-.267.103-.513.306-.712.181-.186.427-.288.694-.288s.513.102.713.306c.184.181.287.427.287.694s-.103.513-.306.712zm5.199-2.838A2.935 2.935 0 0 0 21 8c0 1.654 1.346 3 3 3 .811 0 1.565-.317 2.107-.874C26.684 9.566 27 8.811 27 8s-.316-1.566-.874-2.108c-1.121-1.15-3.149-1.132-4.233-.018zm2.801 2.838A.957.957 0 0 1 24 9c-.552 0-1-.449-1-1 0-.267.103-.513.306-.712.181-.186.427-.288.694-.288s.513.102.713.306c.184.181.287.427.287.694s-.103.513-.306.712zM32 11c.811 0 1.565-.317 2.107-.874C34.684 9.566 35 8.811 35 8s-.316-1.566-.874-2.108c-1.121-1.149-3.149-1.131-4.233-.018A2.935 2.935 0 0 0 29 8c0 1.654 1.346 3 3 3zm-.694-3.712C31.487 7.102 31.733 7 32 7s.513.102.713.306c.184.181.287.427.287.694s-.103.513-.306.712A.957.957 0 0 1 32 9c-.552 0-1-.449-1-1 0-.267.103-.513.306-.712zm-17.413 6.586A2.935 2.935 0 0 0 13 16c0 1.654 1.346 3 3 3 .811 0 1.565-.317 2.107-.874.577-.56.893-1.315.893-2.126s-.316-1.566-.874-2.108c-1.121-1.15-3.149-1.132-4.233-.018zm2.801 2.838A.957.957 0 0 1 16 17c-.552 0-1-.449-1-1 0-.267.103-.513.306-.712.181-.186.427-.288.694-.288s.513.102.713.306c.184.181.287.427.287.694s-.103.513-.306.712zm5.199-2.838A2.935 2.935 0 0 0 21 16c0 1.654 1.346 3 3 3 .811 0 1.565-.317 2.107-.874.577-.56.893-1.315.893-2.126s-.316-1.566-.874-2.108c-1.121-1.15-3.149-1.132-4.233-.018zm2.801 2.838A.957.957 0 0 1 24 17c-.552 0-1-.449-1-1 0-.267.103-.513.306-.712.181-.186.427-.288.694-.288s.513.102.713.306c.184.181.287.427.287.694s-.103.513-.306.712zM32 19c.811 0 1.565-.317 2.107-.874.577-.56.893-1.315.893-2.126s-.316-1.566-.874-2.108c-1.121-1.149-3.149-1.131-4.233-.018A2.935 2.935 0 0 0 29 16c0 1.654 1.346 3 3 3zm-.694-3.712c.181-.186.427-.288.694-.288s.513.102.713.306c.184.181.287.427.287.694s-.103.513-.306.712A.957.957 0 0 1 32 17c-.552 0-1-.449-1-1 0-.267.103-.513.306-.712zm-17.413 6.586A2.935 2.935 0 0 0 13 24c0 1.654 1.346 3 3 3 .811 0 1.565-.317 2.107-.874.577-.56.893-1.315.893-2.126s-.316-1.566-.874-2.108c-1.121-1.15-3.149-1.132-4.233-.018zm2.801 2.838A.957.957 0 0 1 16 25c-.552 0-1-.449-1-1 0-.267.103-.513.306-.712.181-.186.427-.288.694-.288s.513.102.713.306c.184.181.287.427.287.694s-.103.513-.306.712zm5.199-2.838A2.935 2.935 0 0 0 21 24c0 1.654 1.346 3 3 3 .811 0 1.565-.317 2.107-.874.577-.56.893-1.315.893-2.126s-.316-1.566-.874-2.108c-1.121-1.15-3.149-1.132-4.233-.018zm2.801 2.838A.957.957 0 0 1 24 25c-.552 0-1-.449-1-1 0-.267.103-.513.306-.712.181-.186.427-.288.694-.288s.513.102.713.306c.184.181.287.427.287.694s-.103.513-.306.712zm9.413 1.414c.577-.56.893-1.315.893-2.126s-.316-1.566-.874-2.108c-1.121-1.149-3.149-1.131-4.233-.018A2.935 2.935 0 0 0 29 24c0 1.654 1.346 3 3 3 .811 0 1.565-.317 2.107-.874zM31 24c0-.267.103-.513.306-.712.181-.186.427-.288.694-.288s.513.102.713.306c.184.181.287.427.287.694s-.103.513-.306.712A.957.957 0 0 1 32 25c-.552 0-1-.449-1-1z"/></g></g></svg>