<svg xmlns="http://www.w3.org/2000/svg" viewBox="0 0 48 48"><style>.st0{fill:none}.st1{fill:#f9b6b3}.st2{fill:#ef4742}</style><path class="st0" d="M0 0h48v48H0z" id="Boundary"/><g id="Design"><path class="st1" d="M24 42.04h18v4H24zm-18 0h18v4H6z"/><path class="st2" d="M44 11.04H31.627c.344-.257.679-.532.99-.843 2.863-2.863 2.926-7.108 1.57-8.464-1.418-1.418-5.744-.691-8.584 2.15a9.207 9.207 0 0 0-1.599 2.172 9.163 9.163 0 0 0-1.596-2.172c-2.839-2.84-7.167-3.569-8.584-2.15-1.356 1.356-1.292 5.602 1.57 8.464.311.311.646.585.99.843H4a1 1 0 0 0-1 1v8a1 1 0 0 0 1 1h1v25a1 1 0 0 0 1 1h36a1 1 0 0 0 1-1v-25h1a1 1 0 0 0 1-1v-8a1 1 0 0 0-1-1zM25.01 9.72c.024-1.192.564-2.98 2.007-4.423C28.732 3.582 30.907 3 32.053 3c.35 0 .604.054.72.147.421.421.68 3.387-1.57 5.636-1.551 1.551-3.753 2.257-5.143 2.257-.541 0-.799-.106-.843-.137-.051-.051-.199-.332-.208-.927 0-.031.004-.225.001-.256zm-8.203-.937c-2.25-2.25-1.991-5.215-1.576-5.631.118-.094.375-.149.729-.149 1.15 0 3.32.583 5.032 2.294 1.438 1.438 1.984 3.229 2.016 4.401-.007.12-.008.226-.001.285-.019.591-.165.87-.205.911-.054.041-.313.146-.853.146-1.389 0-3.591-.706-5.142-2.257zM5 13.04h18v6H5v-6zm36 28H25v-20h16v20zm-18 0H7v-20h16v20zm-16 2h16v2H7v-2zm18 2v-2h16v2H25zm18-26H25v-6h18v6z"/></g></svg>