<?xml version="1.0" encoding="utf-8"?>
<!-- Generator: Adobe Illustrator 19.2.1, SVG Export Plug-In . SVG Version: 6.00 Build 0)  -->
<svg version="1.1" xmlns="http://www.w3.org/2000/svg" xmlns:xlink="http://www.w3.org/1999/xlink" x="0px" y="0px"
	 viewBox="0 0 48 48" style="enable-background:new 0 0 48 48;" xml:space="preserve">
<style type="text/css">
	.st0{fill:none;}
	.st1{fill:#FAC8C6;}
	.st2{fill:#EF4742;}
</style>
<g id="Boundary">
	<rect class="st0" width="48" height="48"/>
</g>
<g id="Design">
	<g>
		<path class="st2" d="M47.933,30.813l0.047-0.009l-5-25c-0.077-0.387-0.375-0.692-0.759-0.779S41.437,5.085,41.2,5.4l-3,4l1.6,1.2
			l1.658-2.211l3.134,15.671C42.616,22.169,39.944,21,37,21c-3.845,0-7.231,1.987-9.198,4.984c-2.345-1.254-5.259-1.254-7.604,0
			C18.231,22.987,14.846,21,11,21c-2.944,0-5.616,1.169-7.592,3.06L6.542,8.389L8.2,10.6l1.6-1.2l-3-4
			C6.564,5.085,6.167,4.938,5.779,5.025C5.394,5.112,5.097,5.417,5.02,5.804l-5,25l0.047,0.009C0.025,31.203,0,31.599,0,32
			c0,6.065,4.935,11,11,11s11-4.935,11-11c0-1.509-0.306-2.947-0.858-4.257c1.762-0.946,3.956-0.946,5.717,0
			C26.306,29.053,26,30.491,26,32c0,6.065,4.935,11,11,11s11-4.935,11-11C48,31.599,47.975,31.203,47.933,30.813z M11,41
			c-4.962,0-9-4.038-9-9s4.038-9,9-9s9,4.038,9,9S15.962,41,11,41z M37,41c-4.962,0-9-4.038-9-9s4.038-9,9-9s9,4.038,9,9
			S41.962,41,37,41z"/>
		<path class="st2" d="M11,25v2c2.757,0,5,2.243,5,5c0,0.573-0.096,1.134-0.284,1.667l1.886,0.666C17.866,33.585,18,32.8,18,32
			C18,28.14,14.86,25,11,25z"/>
		<path class="st2" d="M37,25v2c2.757,0,5,2.243,5,5c0,0.573-0.096,1.134-0.284,1.667l1.886,0.666C43.866,33.585,44,32.8,44,32
			C44,28.14,40.86,25,37,25z"/>
	</g>
</g>
</svg>
