<?xml version="1.0" encoding="utf-8"?>
<!-- Generator: Adobe Illustrator 19.2.1, SVG Export Plug-In . SVG Version: 6.00 Build 0)  -->
<svg version="1.1" xmlns="http://www.w3.org/2000/svg" xmlns:xlink="http://www.w3.org/1999/xlink" x="0px" y="0px"
	 viewBox="0 0 48 48" style="enable-background:new 0 0 48 48;" xml:space="preserve">
<style type="text/css">
	.st0{fill:none;}
	.st1{fill:#FAC8C6;}
	.st2{fill:#EF4742;}
</style>
<g id="Boundary">
	<rect class="st0" width="48" height="48"/>
</g>
<g id="Design">
	<g>
		<g>
			<path class="st1" d="M14,27h20c0,5.52-4.48,10-10,10S14,32.52,14,27z"/>
		</g>
		<g>
			<path class="st2" d="M24,0C10.761,0-0.01,10.766-0.01,24c0,13.239,10.771,24.01,24.01,24.01c13.233,0,24-10.771,24-24.01
				C48,10.766,37.233,0,24,0z M24,46.01C11.864,46.01,1.99,36.136,1.99,24C1.99,11.869,11.864,2,24,2c12.131,0,22,9.869,22,22
				C46,36.136,36.131,46.01,24,46.01z"/>
			<path class="st2" d="M14,19.81c0-1.549,1.261-2.81,2.81-2.81c1.55,0,2.811,1.261,2.811,2.81V20h2v-0.19
				c0-2.652-2.158-4.81-4.811-4.81S12,17.158,12,19.81V20h2V19.81z"/>
			<path class="st2" d="M31.19,15c-2.652,0-4.811,2.158-4.811,4.81V20h2v-0.19c0-1.549,1.261-2.81,2.811-2.81
				c1.549,0,2.81,1.261,2.81,2.81V20h2v-0.19C36,17.158,33.843,15,31.19,15z"/>
			<path class="st2" d="M34,26H14c-0.553,0-1,0.448-1,1c0,6.065,4.935,11,11,11s11-4.935,11-11C35,26.448,34.553,26,34,26z M24,36
				c-4.625,0-8.445-3.506-8.944-8h17.889C32.445,32.494,28.625,36,24,36z"/>
		</g>
	</g>
</g>
</svg>
