<svg xmlns="http://www.w3.org/2000/svg" viewBox="0 0 48 48"><style>.st0{fill:none}.st1{fill:#fac8c6}.st2{fill:#ef4742}</style><path class="st0" d="M0 0h48v48H0z" id="Boundary"/><g id="Design"><path class="st1" d="M14 27h20c0 5.52-4.48 10-10 10s-10-4.48-10-10z"/><path class="st2" d="M24 0C10.761 0-.01 10.766-.01 24c0 13.239 10.771 24.01 24.01 24.01 13.233 0 24-10.771 24-24.01C48 10.766 37.233 0 24 0zm0 46.01C11.864 46.01 1.99 36.136 1.99 24 1.99 11.869 11.864 2 24 2c12.131 0 22 9.869 22 22 0 12.136-9.869 22.01-22 22.01z"/><path class="st2" d="M14 19.81A2.814 2.814 0 0 1 16.81 17a2.814 2.814 0 0 1 2.811 2.81V20h2v-.19c0-2.652-2.158-4.81-4.811-4.81S12 17.158 12 19.81V20h2v-.19zM31.19 15a4.817 4.817 0 0 0-4.811 4.81V20h2v-.19A2.814 2.814 0 0 1 31.19 17 2.814 2.814 0 0 1 34 19.81V20h2v-.19A4.815 4.815 0 0 0 31.19 15zM34 26H14a1 1 0 0 0-1 1c0 6.065 4.935 11 11 11s11-4.935 11-11a1 1 0 0 0-1-1zM24 36c-4.625 0-8.445-3.506-8.944-8h17.889c-.5 4.494-4.32 8-8.945 8z"/></g></svg>