<?xml version="1.0" encoding="utf-8"?>
<!-- Generator: Adobe Illustrator 19.2.1, SVG Export Plug-In . SVG Version: 6.00 Build 0)  -->
<svg version="1.1" xmlns="http://www.w3.org/2000/svg" xmlns:xlink="http://www.w3.org/1999/xlink" x="0px" y="0px"
	 viewBox="0 0 48 48" style="enable-background:new 0 0 48 48;" xml:space="preserve">
<style type="text/css">
	.st0{fill:none;}
	.st1{fill:#FAC8C6;}
	.st2{fill:#EF4742;}
</style>
<g id="Boundary">
	<rect class="st0" width="48" height="48"/>
</g>
<g id="Design">
	<g>
		<g>
			<polygon class="st1" points="19.99,42 28,42 28.99,42 28.99,43.98 28.99,47 18.99,47 18.99,42 			"/>
		</g>
		<path class="st2" d="M24.829,0.041c-0.765-0.03-1.586-0.025-2.469,0.064c-0.001,0-0.002,0-0.003,0
			C14.301,0.937,7.99,7.795,7.99,15.72c0,8.641,4.419,12.883,7.343,15.69c1.484,1.425,2.657,2.55,2.657,3.599c0,0.552,0.447,1,1,1
			h1.698L19.24,41H16.99v2h1v4c0,0.552,0.447,1,1,1h10c0.553,0,1-0.448,1-1v-4h1v-2h-2.24l-1.449-4.99H29c0.553,0,1-0.448,1-1
			c0-1.049,1.173-2.174,2.657-3.599C35.581,28.604,40,24.361,40,15.72C40,7.529,33.201,0.496,24.829,0.041z M22.99,2.609v28.145
			c-0.515-0.907-1.111-1.763-1.726-2.636c-2.149-3.05-4.585-6.507-4.226-14.02C17.25,9.714,19.464,5.501,22.99,2.609z M24.99,2.593
			c3.537,2.893,5.76,7.113,5.971,11.504c0.353,7.513-2.08,10.97-4.228,14.02c-0.622,0.884-1.224,1.75-1.743,2.67V2.593z
			 M16.719,29.968c-2.84-2.726-6.729-6.459-6.729-14.248c0-6.065,4.251-11.414,10.055-13.126c-2.978,3.124-4.802,7.198-5.004,11.408
			c-0.392,8.199,2.37,12.119,4.589,15.268c1.117,1.587,2.101,3,2.587,4.74h-2.37C19.43,32.57,18.154,31.346,16.719,29.968z
			 M27.99,46h-8v-3h8V46z M26.669,41h-5.347l1.449-4.99h2.449L26.669,41z M31.271,29.968c-1.436,1.378-2.711,2.602-3.128,4.042
			h-2.36c0.485-1.74,1.468-3.154,2.586-4.742c2.216-3.149,4.975-7.068,4.59-15.266c-0.202-4.197-2.014-8.258-4.976-11.378
			C33.73,4.358,38,9.67,38,15.72C38,23.509,34.111,27.242,31.271,29.968z"/>
	</g>
</g>
</svg>
