<svg xmlns="http://www.w3.org/2000/svg" viewBox="0 0 48 48"><style>.st0{fill:none}.st1{fill:#fac8c6}.st2{fill:#ef4742}</style><path class="st0" d="M0 0h48v48H0z" id="Boundary"/><g id="Design"><path class="st1" d="M.99 24C.99 11.3 11.29 1 24 1c12.7 0 23 10.3 23 23 0 12.71-10.3 23.01-23 23.01C11.29 47.01.99 36.71.99 24zM43 24c0-10.49-8.51-19-19-19C13.5 5 4.99 13.51 4.99 24c0 10.5 8.51 19.01 19.01 19.01 10.49 0 19-8.51 19-19.01z"/><path class="st2" d="M24 0C10.761 0-.01 10.766-.01 24c0 13.239 10.771 24.01 24.01 24.01 13.233 0 24-10.771 24-24.01C48 10.766 37.233 0 24 0zm0 46.01C11.864 46.01 1.99 36.136 1.99 24 1.99 11.869 11.864 2 24 2c12.131 0 22 9.869 22 22 0 12.136-9.869 22.01-22 22.01z"/><path class="st2" d="M24 4C12.967 4 3.99 12.972 3.99 24c0 11.033 8.977 20.01 20.01 20.01 11.028 0 20-8.977 20-20.01 0-11.028-8.972-20-20-20zm0 38.01c-9.931 0-18.01-8.079-18.01-18.01 0-9.925 8.079-18 18.01-18 9.925 0 18 8.075 18 18 0 9.931-8.075 18.01-18 18.01z"/><path class="st2" d="M25.723 12.132a11.353 11.353 0 0 0-3.433-.002c-5.712.805-10.039 5.573-10.288 11.319a12.62 12.62 0 0 0 .042 1.673 11.951 11.951 0 0 0 10.26 10.769c.573.079 1.144.119 1.696.119s1.123-.04 1.7-.12a11.946 11.946 0 0 0 10.246-10.771 12.497 12.497 0 0 0 .043-1.67c-.262-5.754-4.585-10.513-10.266-11.317zm-11.71 12.334c-.007-.136-.019-.27-.02-.408a17.671 17.671 0 0 1 4.112-2.06A19.74 19.74 0 0 0 18 24c0 .864.072 1.71.18 2.542a17.865 17.865 0 0 1-4.167-2.076zM28 24a17.45 17.45 0 0 1-.297 3.115c-.898.187-1.8.311-2.703.361v-6.444c.946.052 1.883.182 2.797.381.124.837.203 1.685.203 2.587zm-7.704 3.115A17.481 17.481 0 0 1 20 24c0-.899.079-1.747.204-2.587A17.678 17.678 0 0 1 23 21.032v6.444a18.204 18.204 0 0 1-2.704-.361zM25 19.034v-4.942a17.853 17.853 0 0 1 2.357 5.199A20.101 20.101 0 0 0 25 19.034zm-2-4.941v4.942c-.794.039-1.582.126-2.357.257A17.824 17.824 0 0 1 23 14.093zm0 15.386v4.435a17.613 17.613 0 0 1-2.21-4.674c.736.12 1.474.202 2.21.239zm2 4.432v-4.432a19.975 19.975 0 0 0 2.21-.239A17.75 17.75 0 0 1 25 33.911zm4.895-11.914c1.451.5 2.821 1.192 4.102 2.052-.001.143-.013.28-.021.42a17.412 17.412 0 0 1-4.157 2.074c.109-.834.181-1.68.181-2.543 0-.69-.04-1.352-.105-2.003zm3.784-.487a19.615 19.615 0 0 0-4.131-1.704 19.822 19.822 0 0 0-1.839-5.082 9.982 9.982 0 0 1 5.97 6.786zM20.29 14.723a19.808 19.808 0 0 0-1.839 5.083 19.635 19.635 0 0 0-4.144 1.714 9.971 9.971 0 0 1 5.983-6.797zm-5.811 12.359a19.642 19.642 0 0 0 4.117 1.667 19.472 19.472 0 0 0 1.719 4.56 9.93 9.93 0 0 1-5.836-6.227zm13.205 6.226a19.425 19.425 0 0 0 1.72-4.559 19.425 19.425 0 0 0 4.103-1.655 9.928 9.928 0 0 1-5.823 6.214z"/></g></svg>