<svg xmlns="http://www.w3.org/2000/svg" viewBox="0 0 48 48"><style>.st0{fill:none}.st1{fill:#f9b6b3}.st2{fill:#ef4742}</style><path class="st0" d="M0 0h48v48H0z" id="Boundary"/><g id="Design"><g id="XMLID_29_"><path class="st1" d="M34 24L24 34 14 24l10-10 10 10zm-10 5l5-5-5-5-5 5 5 5z"/><path class="st2" d="M23.293 18.293l-5 5a.999.999 0 0 0 0 1.414l5 5a.997.997 0 0 0 1.414 0l5-5a.999.999 0 0 0 0-1.414l-5-5a.999.999 0 0 0-1.414 0zM27.586 24L24 27.586 20.414 24 24 20.414 27.586 24z"/><path class="st2" d="M47.126 21.892A2.944 2.944 0 0 0 45 21a2.996 2.996 0 0 0-2.816 2h-7.77L25 13.586V5.819a2.864 2.864 0 0 0 1.108-.693C26.683 4.565 27 3.811 27 3s-.317-1.565-.874-2.108C25.005-.257 22.978-.24 21.892.874A2.944 2.944 0 0 0 21 3c0 1.302.839 2.402 2 2.816v7.77L13.586 23H5.819a2.864 2.864 0 0 0-.693-1.108c-1.121-1.149-3.148-1.132-4.234-.018C.317 22.435 0 23.189 0 24s.317 1.565.874 2.108A2.944 2.944 0 0 0 3 27a2.996 2.996 0 0 0 2.816-2h7.77L23 34.414v7.767a2.864 2.864 0 0 0-1.108.693C21.317 43.435 21 44.189 21 45s.317 1.565.874 2.108c.561.575 1.315.892 2.126.892s1.565-.317 2.108-.874A2.944 2.944 0 0 0 27 45a2.996 2.996 0 0 0-2-2.816v-7.77L34.414 25h7.767c.147.417.376.799.693 1.108.561.575 1.315.892 2.126.892s1.565-.317 2.108-.874c.575-.561.892-1.315.892-2.126s-.317-1.565-.874-2.108zM23.306 2.288C23.487 2.102 23.733 2 24 2s.513.102.712.306c.186.181.288.427.288.694s-.102.513-.306.712A.957.957 0 0 1 24 4c-.551 0-1-.449-1-1 0-.267.102-.513.306-.712zM3 25a.974.974 0 0 1-.712-.306C2.102 24.513 2 24.267 2 24s.102-.513.306-.712C2.487 23.102 2.733 23 3 23s.513.102.712.306A.957.957 0 0 1 4 24c0 .551-.449 1-1 1zm21.694 20.712a.991.991 0 0 1-1.406-.018C23.102 45.513 23 45.267 23 45s.102-.513.306-.712A.957.957 0 0 1 24 44c.551 0 1 .449 1 1a.974.974 0 0 1-.306.712zM24 32.586L15.414 24 24 15.414 32.586 24 24 32.586zm21.694-7.874a.991.991 0 0 1-1.406-.018A.957.957 0 0 1 44 24c0-.551.449-1 1-1 .267 0 .513.102.712.306.186.181.288.427.288.694s-.102.513-.306.712z"/><path class="st2" d="M35.725 34.311l-3.679-3.679-1.414 1.414 3.67 3.67A2.965 2.965 0 0 0 34 37c0 .795.313 1.547.883 2.118a2.98 2.98 0 0 0 4.235-.001 2.98 2.98 0 0 0 .004-4.23c-.887-.898-2.285-1.083-3.397-.576zm1.979 3.392a1.004 1.004 0 0 1-1.406.001A.99.99 0 0 1 36 37c0-.262.105-.512.297-.704l.004-.004a.978.978 0 0 1 1.402.004c.192.192.297.442.297.704s-.105.511-.296.703zM11 14.003c.454 0 .887-.112 1.285-.304l3.668 3.668 1.414-1.414-3.67-3.67c.192-.398.303-.831.303-1.283 0-.795-.313-1.547-.883-2.118-1.139-1.138-3.094-1.139-4.234.001a2.977 2.977 0 0 0-.005 4.23c.567.574 1.321.89 2.122.89zm-.704-3.706c.192-.192.442-.297.704-.297s.512.105.703.296c.192.193.297.442.297.704s-.105.512-.297.704l-.004.004a.994.994 0 0 1-1.401-.004C10.105 11.512 10 11.262 10 11s.105-.511.296-.703zM15.953 30.633l-3.679 3.679c-1.111-.507-2.507-.322-3.394.573a2.978 2.978 0 0 0 .003 4.233 2.98 2.98 0 0 0 4.235-.001A2.98 2.98 0 0 0 14 37c0-.452-.112-.885-.303-1.283l3.67-3.67-1.414-1.414zm-4.249 7.07a1.004 1.004 0 0 1-1.406.001A.99.99 0 0 1 10 37c0-.262.105-.512.297-.704l.004-.004a.978.978 0 0 1 1.402.004c.192.192.297.442.297.704s-.105.511-.296.703zM32.047 17.367l3.67-3.67c.398.192.831.303 1.283.303.795 0 1.547-.313 2.118-.883a2.98 2.98 0 0 0-.001-4.235c-1.139-1.138-3.099-1.134-4.229-.004a2.962 2.962 0 0 0-.89 2.122c0 .454.112.887.304 1.285l-3.668 3.668 1.413 1.414zm4.249-7.07c.192-.192.442-.297.704-.297s.511.105.703.296c.192.192.297.442.297.704s-.105.512-.296.703a1.003 1.003 0 0 1-1.407 0l-.004-.004a.978.978 0 0 1 .003-1.402z"/></g></g></svg>