<svg xmlns="http://www.w3.org/2000/svg" viewBox="0 0 48 48"><style>.st0{fill:none}.st1{fill:#fac8c6}.st2{fill:#ef4742}</style><path class="st0" d="M0 0h48v48H0z" id="Boundary"/><g id="Design"><path class="st1" d="M41.01 8v4h-34V8h25.41z"/><path class="st2" d="M46.481 14.119c-.013-.007-.028-.009-.041-.015l.002-.005-4.433-2.128V8a1 1 0 0 0-1-1h-8.363L24 2.851 15.342 7H7.01a1 1 0 0 0-1 1v3.971l-4.441 2.128.002.004c-.014.007-.029.008-.042.016A.997.997 0 0 0 1 15v28.29c0 .473.201.931.552 1.254.322.298.722.456 1.158.456H45.3c.364 0 .73-.12 1.06-.348.017-.012.033-.023.049-.036.383-.301.602-.708.602-1.116V15a1 1 0 0 0-.53-.881zM8.01 13h32v4.793L24 28.449 8.01 17.801V13zm34 1.189l1.983.952-1.983 1.32v-2.272zM16.839 26.084L3 41.46V16.869l13.839 9.215zm1.682 1.12l4.924 3.279a.997.997 0 0 0 1.108 0l4.919-3.274L43.699 43H4.305l14.216-15.796zm12.635-1.116l13.854-9.221v24.602L31.156 26.088zM24 5.069L28.025 7h-8.054L24 5.069zM40.01 9v2h-32V9h32zm-34 7.469l-1.992-1.327 1.992-.954v2.281z"/></g></svg>