<svg xmlns="http://www.w3.org/2000/svg" viewBox="0 0 48 48"><style>.st0{fill:none}.st1{fill:#fac8c6}.st2{fill:#ef4742}</style><path class="st0" d="M0 0h48v48H0z" id="Boundary"/><g id="Design"><path class="st1" d="M46 17.46v3.08l-2.23.42-.89 2.15 1.28 1.87-2.18 2.18-1.87-1.28-2.15.89-.42 2.23h-3.08l-.42-2.23-1.04-.43-1.11-.46-1.87 1.28-2.18-2.18 1.28-1.87-.89-2.15-2.23-.42v-3.08l2.23-.42.89-2.15-1.28-1.87 2.18-2.18 1.87 1.28 1.11-.46 1.04-.43.42-2.23h3.08l.42 2.23 2.15.89 1.87-1.28 2.18 2.18-1.28 1.87.89 2.15 2.23.42zm-5.99 3.25v-3.33l-2.35-2.35h-3.33l-2.35 2.35v3.33l2.35 2.35h3.33l2.35-2.35z"/><circle class="st2" cx="20" cy="42" r="2"/><path class="st2" d="M46.185 16.478l-1.698-.32-.476-1.149.974-1.424a.999.999 0 0 0-.118-1.271l-2.18-2.18a.999.999 0 0 0-1.272-.118l-1.423.975-1.149-.476-.32-1.698A.99.99 0 0 0 38 8.128V3c0-1.654-1.346-3-3-3H5C3.346 0 2 1.346 2 3v42c0 1.654 1.346 3 3 3h30c1.654 0 3-1.346 3-3V29.872a.99.99 0 0 0 .523-.688l.32-1.698 1.149-.476 1.423.975a1 1 0 0 0 1.272-.118l2.18-2.18c.34-.34.39-.875.118-1.271l-.974-1.424.476-1.149 1.698-.32A1 1 0 0 0 47 20.54v-3.08a.998.998 0 0 0-.815-.982zM35 46H5c-.551 0-1-.448-1-1V3c0-.552.449-1 1-1h30c.551 0 1 .448 1 1v5h-1.54a.968.968 0 0 0-.46.128V6H6v32h28v-8.128a.98.98 0 0 0 .46.128H36v15c0 .552-.449 1-1 1zm-7.985-32.416l.974 1.424-.476 1.149-1.698.32a1 1 0 0 0-.815.983v3.08c0 .48.342.894.815.982l1.698.32.476 1.149-.974 1.424a.999.999 0 0 0 .118 1.271l2.18 2.18a1 1 0 0 0 1.272.118L32 27.016V36H8V8h24v2.984l-1.415-.969a1.002 1.002 0 0 0-1.272.118l-2.18 2.18a.998.998 0 0 0-.118 1.271zM45 19.711l-1.415.267a.998.998 0 0 0-.739.6l-.89 2.15a1 1 0 0 0 .099.947l.812 1.186-1.006 1.006-1.185-.812a1.003 1.003 0 0 0-.947-.099l-2.15.89a1.002 1.002 0 0 0-.601.739L36.711 28h-1.422l-.266-1.415a.998.998 0 0 0-.601-.739l-2.149-.89a1.002 1.002 0 0 0-.948.099l-1.185.812-1.006-1.006.812-1.186a1 1 0 0 0 .099-.947l-.89-2.15a1 1 0 0 0-.739-.6L27 19.711v-1.422l1.415-.267a.998.998 0 0 0 .739-.6l.89-2.15a1 1 0 0 0-.099-.947l-.812-1.186 1.006-1.006 1.185.812c.278.19.636.227.948.099l2.149-.89a.998.998 0 0 0 .601-.739L35.289 10h1.422l.266 1.415a1 1 0 0 0 .601.739l2.15.89c.311.128.668.092.947-.099l1.185-.812 1.006 1.006-.812 1.186a1 1 0 0 0-.099.947l.89 2.15a1 1 0 0 0 .739.6l1.416.267v1.422z"/><path class="st2" d="M38.367 14.323a1 1 0 0 0-.707-.293h-3.33a.997.997 0 0 0-.707.293l-2.35 2.35a.997.997 0 0 0-.293.707v3.33c0 .266.105.52.293.707l2.35 2.35a1 1 0 0 0 .707.293h3.33c.265 0 .52-.105.707-.293l2.35-2.35a.997.997 0 0 0 .293-.707v-3.33a.996.996 0 0 0-.293-.707l-2.35-2.35zm.643 5.973l-1.764 1.764h-2.502l-1.764-1.764v-2.502l1.764-1.764h2.502l1.764 1.764v2.502z"/></g></svg>