<svg xmlns="http://www.w3.org/2000/svg" viewBox="0 0 48 48"><style>.st0{fill:none}.st1{fill:#f9b6b3}.st2{fill:#ef4742}</style><path class="st0" d="M0 0h48v48H0z" id="Boundary"/><g id="Design"><g id="XMLID_9_"><g id="XMLID_39_"><path class="st1" d="M37 24v9H11v-9s.97-4 5.31-4c4.66 0 7.64 8 12.89 8 5.24 0 7.8-4 7.8-4z"/><path class="st2" d="M24 40c-1.1 0-2 .9-2 2s.9 2 2 2 2-.9 2-2-.9-2-2-2z"/><path class="st2" d="M39 0H9C7.346 0 6 1.346 6 3v42c0 1.654 1.346 3 3 3h30c1.654 0 3-1.346 3-3V3c0-1.654-1.346-3-3-3zm1 45c0 .551-.448 1-1 1H9c-.552 0-1-.449-1-1V3c0-.551.448-1 1-1h30c.552 0 1 .449 1 1v42z"/><path class="st2" d="M10 38h28V6H10v32zm2-13.859c.166-.542 1.13-3.141 4.31-3.141 1.844 0 3.54 1.712 5.337 3.525C23.725 26.623 26.08 29 29.2 29c3.128 0 5.378-1.279 6.8-2.468V32H12v-7.859zM12 36v-2h24v2H12zM36 8v15.68c-.59.78-2.819 3.32-6.8 3.32-2.286 0-4.155-1.886-6.133-3.882C21.062 21.093 18.987 19 16.31 19c-1.9 0-3.305.687-4.31 1.584V8h24z"/><path class="st2" d="M29 20c2.757 0 5-2.243 5-5s-2.243-5-5-5-5 2.243-5 5 2.243 5 5 5zm0-8c1.654 0 3 1.346 3 3s-1.346 3-3 3-3-1.346-3-3 1.346-3 3-3z"/></g></g></g></svg>