<?xml version="1.0" encoding="utf-8"?>
<!-- Generator: Adobe Illustrator 21.0.2, SVG Export Plug-In . SVG Version: 6.00 Build 0)  -->
<svg version="1.1" id="Layer_1" xmlns="http://www.w3.org/2000/svg" xmlns:xlink="http://www.w3.org/1999/xlink" x="0px" y="0px"
	 viewBox="0 0 48 48" style="enable-background:new 0 0 48 48;" xml:space="preserve">
<style type="text/css">
	.st0{fill:#FFFFFF;}
</style>
<g id="Design">
	<g>
		<g>
			<circle class="st0" cx="24" cy="42" r="2"/>
			<path class="st0" d="M39,0H9C7.3,0,6,1.3,6,3v42c0,1.7,1.3,3,3,3h30c1.7,0,3-1.3,3-3V3C42,1.3,40.7,0,39,0z M40,45
				c0,0.6-0.4,1-1,1H9c-0.6,0-1-0.4-1-1V3c0-0.6,0.4-1,1-1h30c0.6,0,1,0.4,1,1V45z"/>
			<path class="st0" d="M10,38h28V6H10V38z M12,8h24v28H12V8z"/>
		</g>
	</g>
</g>
</svg>
