<svg xmlns="http://www.w3.org/2000/svg" viewBox="0 0 48 48"><style>.st0{fill:none}.st1{fill:#f9b6b3}.st2{fill:#ef4742}</style><path class="st0" d="M0 0h48v48H0z" id="Boundary"/><g id="Design"><g id="XMLID_2_"><path class="st1" d="M43.29 44.71V45H38L21.85 28.92l2.83-2.83z"/><path class="st2" d="M16.897 8.413a.999.999 0 0 0-1.414 0l-7.07 7.07a.999.999 0 0 0 0 1.414l2.83 2.83a.997.997 0 0 0 1.414 0l7.07-7.07a.999.999 0 0 0 0-1.414l-2.83-2.83zm-4.947 9.193l-1.416-1.416 5.656-5.656 1.416 1.416-5.656 5.656z"/><path class="st2" d="M45.707 37.293L30.333 21.851l2.694-2.694c.605-.605.938-1.407.938-2.257s-.333-1.652-.938-2.257l-11.18-11.18C20.904 2.52 19.649 2 18.315 2s-2.589.52-3.532 1.463l-11.32 11.32C2.52 15.726 2 16.98 2 18.315s.52 2.589 1.463 3.532l11.18 11.18c.605.605 1.407.938 2.257.938s1.652-.333 2.257-.938l2.694-2.694 15.443 15.376c.188.186.441.291.706.291h7a1 1 0 0 0 1-1v-7a.997.997 0 0 0-.293-.707zm-27.964-5.68a1.214 1.214 0 0 1-1.686 0l-11.18-11.18C4.312 19.867 4 19.115 4 18.315s.312-1.552.877-2.118l11.32-11.32c1.131-1.131 3.104-1.131 4.236 0l11.18 11.181a1.186 1.186 0 0 1 0 1.685l-3.4 3.4-7.07 7.07-3.4 3.4zm5.523-2.695l1.414-1.414L41.166 44h-2.753L23.266 28.918zM44 44h-.005l-17.9-17.91 2.824-2.824 4.235 4.256-1.401 1.401 1.414 1.414 1.397-1.397 1.408 1.415-1.399 1.399 1.414 1.414 1.396-1.395 4.265 4.287-1.355 1.355 1.414 1.414 1.353-1.353.94.94V44z"/></g></g></svg>