<?xml version="1.0" encoding="utf-8"?>
<!-- Generator: Adobe Illustrator 19.2.1, SVG Export Plug-In . SVG Version: 6.00 Build 0)  -->
<svg version="1.1" xmlns="http://www.w3.org/2000/svg" xmlns:xlink="http://www.w3.org/1999/xlink" x="0px" y="0px"
	 viewBox="0 0 48 48" style="enable-background:new 0 0 48 48;" xml:space="preserve">
<style type="text/css">
	.st0{fill:none;}
	.st1{fill:#FAC8C6;}
	.st2{fill:#EF4742;}
</style>
<g id="Boundary">
	<rect class="st0" width="48" height="48"/>
</g>
<g id="Design">
	<g id="XMLID_57_">
		<g>
			<g>
				<rect x="9" y="11" class="st1" width="30" height="16"/>
			</g>
		</g>
		<g>
			<path class="st2" d="M9,28h30c0.553,0,1-0.447,1-1V11c0-0.553-0.447-1-1-1H9c-0.553,0-1,0.447-1,1v16C8,27.553,8.447,28,9,28z
				 M10,12h28v14H10V12z"/>
			<path class="st2" d="M47.996,39c0-0.153-0.03-0.306-0.101-0.447l-3.989-7.978C43.961,30.392,44,30.201,44,30V8
				c0-1.103-0.897-2-2-2H6C4.897,6,4,6.897,4,8v22c0,0.201,0.039,0.392,0.094,0.575l-3.989,7.978
				C0.035,38.694,0.004,38.847,0.004,39H0v3c0,0.553,0.447,1,1,1h46c0.553,0,1-0.447,1-1v-3H47.996z M42,8v22H6V8H42z M5.618,32
				h36.764l3,6H30.72l-0.772-2.316C29.812,35.275,29.431,35,29,35H19c-0.431,0-0.813,0.275-0.948,0.684L17.28,38H2.618L5.618,32z
				 M28.613,38h-9.226l0.333-1h8.559L28.613,38z M2,41v-1h44v1H2z"/>
		</g>
	</g>
</g>
</svg>
