<?xml version="1.0" encoding="utf-8"?>
<!-- Generator: Adobe Illustrator 19.2.1, SVG Export Plug-In . SVG Version: 6.00 Build 0)  -->
<svg version="1.1" xmlns="http://www.w3.org/2000/svg" xmlns:xlink="http://www.w3.org/1999/xlink" x="0px" y="0px"
	 viewBox="0 0 48 48" style="enable-background:new 0 0 48 48;" xml:space="preserve">
<style type="text/css">
	.st0{fill:none;}
	.st1{fill:#FAC8C6;}
	.st2{fill:#EF4742;}
</style>
<g id="Boundary">
	<rect class="st0" width="48" height="48"/>
</g>
<g id="Design">
	<g>
		<g>
			<path class="st1" d="M21,33.64c0.97,0.24,1.99,0.36,3.04,0.36c1.02,0,2.01-0.12,2.96-0.34c0.69-0.16,1.36-0.37,2-0.64V40H19
				v-7.01C19.64,33.25,20.31,33.47,21,33.64z"/>
		</g>
		<g>
			<path class="st2" d="M38.05,20.99c0-7.725-6.285-14.01-14.01-14.01s-14.01,6.285-14.01,14.01c0,5.418,3.11,10.302,7.97,12.636V43
				c0,1.103,0.897,2,2,2v0.18c0,1.555,1.265,2.82,2.82,2.82h2.36c1.555,0,2.82-1.265,2.82-2.82V45c1.103,0,2-0.897,2-2v-9.338
				C34.909,31.357,38.05,26.46,38.05,20.99z M20,34.394c0.253,0.076,0.506,0.155,0.76,0.217C21.805,34.869,22.908,35,24.04,35
				c1.064,0,2.136-0.123,3.186-0.366c0.266-0.062,0.519-0.138,0.774-0.213V39h-8V34.394z M26,32.818
				c-1.352,0.221-2.717,0.213-4-0.01V27h4V32.818z M26,45.18C26,45.64,25.64,46,25.18,46h-2.36C22.36,46,22,45.64,22,45.18V45h4
				V45.18z M27,43h-6h-1v-2h8v2H27z M28.611,32.099c-0.195,0.082-0.404,0.153-0.611,0.225V27h1c1.654,0,3-1.346,3-3s-1.346-3-3-3
				s-3,1.346-3,3v1h-4v-1c0-1.654-1.346-3-3-3s-3,1.346-3,3s1.346,3,3,3h1v5.291c-0.206-0.072-0.413-0.142-0.617-0.225
				c-4.467-1.894-7.354-6.24-7.354-11.076c0-6.623,5.388-12.01,12.01-12.01c6.622,0,12.01,5.388,12.01,12.01
				C36.05,25.875,33.133,30.234,28.611,32.099z M28,25v-1c0-0.551,0.449-1,1-1s1,0.449,1,1s-0.449,1-1,1H28z M20,25h-1
				c-0.551,0-1-0.449-1-1s0.449-1,1-1s1,0.449,1,1V25z"/>
			<rect x="23" class="st2" width="2" height="5"/>
			<rect x="13.75" y="2.475" transform="matrix(0.866 -0.5 0.5 0.866 -0.5114 8.0416)" class="st2" width="2" height="5"/>
			<rect x="6.975" y="9.25" transform="matrix(0.5 -0.866 0.866 0.5 -6.1883 12.7816)" class="st2" width="2" height="5"/>
			<rect x="3" y="20" class="st2" width="5" height="2"/>
			<rect x="5.475" y="29.25" transform="matrix(0.8661 -0.4999 0.4999 0.8661 -14.0545 8.0382)" class="st2" width="5" height="2"/>
			<rect x="39.025" y="27.75" transform="matrix(0.5 -0.866 0.866 0.5 -6.1849 49.7874)" class="st2" width="2" height="5"/>
			<rect x="40" y="20" class="st2" width="5" height="2"/>
			
				<rect x="37.525" y="10.75" transform="matrix(0.8661 -0.4999 0.4999 0.8661 -0.5136 21.5829)" class="st2" width="5" height="2"/>
			<rect x="30.75" y="3.975" transform="matrix(0.4999 -0.8661 0.8661 0.4999 12.3189 31.2848)" class="st2" width="5" height="2"/>
		</g>
	</g>
</g>
</svg>
