<svg xmlns="http://www.w3.org/2000/svg" viewBox="0 0 48 48"><style>.st0{fill:none}.st1{fill:#fac8c6}.st2{fill:#ef4742}</style><path class="st0" d="M0 0h48v48H0z" id="Boundary"/><g id="Design"><path class="st1" d="M21 33.64c.97.24 1.99.36 3.04.36a13.102 13.102 0 0 0 4.96-.98V40H19v-7.01c.64.26 1.31.48 2 .65z"/><path class="st2" d="M38.05 20.99c0-7.725-6.285-14.01-14.01-14.01s-14.01 6.285-14.01 14.01c0 5.418 3.11 10.302 7.97 12.636V43c0 1.103.897 2 2 2v.18A2.823 2.823 0 0 0 22.82 48h2.36A2.823 2.823 0 0 0 28 45.18V45c1.103 0 2-.897 2-2v-9.338a13.958 13.958 0 0 0 8.05-12.672zM20 34.394c.253.076.506.155.76.217 1.045.258 2.148.389 3.28.389 1.064 0 2.136-.123 3.186-.366.266-.062.519-.138.774-.213V39h-8v-4.606zm6-1.576a12.089 12.089 0 0 1-4-.01V27h4v5.818zm0 12.362c0 .46-.36.82-.82.82h-2.36c-.46 0-.82-.36-.82-.82V45h4v.18zM27 43h-7v-2h8v2h-1zm1.611-10.901c-.195.082-.404.153-.611.225V27h1c1.654 0 3-1.346 3-3s-1.346-3-3-3-3 1.346-3 3v1h-4v-1c0-1.654-1.346-3-3-3s-3 1.346-3 3 1.346 3 3 3h1v5.291c-.206-.072-.413-.142-.617-.225a12.018 12.018 0 0 1-7.354-11.076c0-6.623 5.388-12.01 12.01-12.01s12.01 5.388 12.01 12.01a11.974 11.974 0 0 1-7.438 11.109zM28 25v-1c0-.551.449-1 1-1s1 .449 1 1-.449 1-1 1h-1zm-8 0h-1c-.551 0-1-.449-1-1s.449-1 1-1 1 .449 1 1v1zM23 0h2v5h-2z"/><path transform="rotate(-30 14.75 4.976)" class="st2" d="M13.75 2.475h2v5h-2z"/><path transform="rotate(-60 7.975 11.75)" class="st2" d="M6.975 9.25h2v5h-2z"/><path class="st2" d="M3 20h5v2H3z"/><path transform="rotate(-29.991 7.977 30.251)" class="st2" d="M5.475 29.25h5v2h-5z"/><path transform="rotate(-60 40.025 30.251)" class="st2" d="M39.025 27.75h2v5h-2z"/><path class="st2" d="M40 20h5v2h-5z"/><path transform="rotate(-29.991 40.027 11.749)" class="st2" d="M37.525 10.75h5v2h-5z"/><path transform="rotate(-60.007 33.249 4.975)" class="st2" d="M30.75 3.975h5v2h-5z"/></g></svg>