<svg width="16" height="15" viewBox="0 0 16 15" xmlns="http://www.w3.org/2000/svg"><title>Linkedin_icon</title><g fill="none" fill-rule="evenodd"><path d="M1.94 0c1.173 0 1.895.755 1.917 1.749 0 .971-.744 1.748-1.94 1.748h-.022C.744 3.497 0 2.72 0 1.75 0 .755.766 0 1.94 0zm10.109 4.641C14.3 4.641 16 6.085 16 9.191V15h-3.427V9.58c0-1.361-.505-2.285-1.738-2.285-.952 0-1.515.619-1.767 1.228-.087.22-.107.515-.107.82V15H5.534s.039-9.172 0-10.124h3.427v1.428c.456-.686 1.272-1.663 3.088-1.663zM.203 4.876H3.63V15H.203V4.876z" fill="#FFF"/><path d="M0-1h16v16H0z"/></g></svg>