<svg xmlns="http://www.w3.org/2000/svg" viewBox="0 0 48 48"><style>.st0{fill:none}.st1{fill:#fac8c6}.st2{fill:#ef4742}</style><path class="st0" d="M0 0h48v48H0z" id="Boundary"/><g id="Design"><g id="XMLID_60_"><path class="st1" d="M36.62 30.34c.6-.35 1.08-.84 1.38-1.51-.33 1-.84 1.91-1.5 2.69-1.44 1.69-3.56 2.77-5.93 2.77-2.78 0-5.2-1.62-6.57-3.84-1.38 2.22-3.8 3.84-6.58 3.84-2.37 0-4.49-1.08-5.93-2.77a8.071 8.071 0 0 1-1.5-2.69c.3.67.78 1.16 1.39 1.51.68.39 1.52.57 2.4.56 3.98-.05 3.51-3.27 4.75-4.7.65-.75 1.52-1.2 2.58-1.2 1.18 0 2.26.71 2.89 1.62.62-.91 1.7-1.62 2.88-1.62 1.07 0 1.93.45 2.58 1.2 1.24 1.43.77 4.65 4.75 4.7.88.01 1.72-.17 2.41-.56z"/><path class="st2" d="M45 24h-1.141l-.454-2h1.555c1.103 0 2-.897 2-2v-2c0-1.103-.897-2-2-2h-2.917l-1.506-6.633A2.986 2.986 0 0 0 37.6 7H10.29a2.982 2.982 0 0 0-2.935 2.358L5.847 16H2.93c-1.103 0-2 .897-2 2v2c0 1.103.897 2 2 2h1.555l-.454 2H3c-1.654 0-3 1.346-3 3v13a1 1 0 0 0 1 1h3v3.96A3.043 3.043 0 0 0 7.04 48h1.92A3.043 3.043 0 0 0 12 44.96V41h24v3.96A3.043 3.043 0 0 0 39.04 48h1.92A3.043 3.043 0 0 0 44 44.96V41h3a1 1 0 0 0 1-1V27c0-1.654-1.346-3-3-3zm-.04-6v2h-2.009l-.454-2h2.463zM2.93 20v-2h2.463l-.453 2H2.93zM9.307 9.792A1 1 0 0 1 10.29 9H37.6c.477 0 .881.326.985.802L41.808 24H26.88c-1.033 0-2.065.416-2.884 1.13-.824-.714-1.857-1.13-2.886-1.13H6.082L9.307 9.792zm19.398 17.063c.25.288.436.785.632 1.312.548 1.469 1.377 3.688 4.862 3.733.157.003.313-.001.468-.011a6.739 6.739 0 0 1-4.097 1.4c-2.246 0-4.438-1.289-5.719-3.365a1 1 0 0 0-.85-.475H24a1 1 0 0 0-.849.472C21.859 32 19.664 33.29 17.42 33.29a6.739 6.739 0 0 1-4.097-1.4c.155.01.312.012.469.011 3.483-.045 4.312-2.265 4.861-3.733.197-.526.382-1.023.632-1.312.492-.568 1.106-.856 1.825-.856.756 0 1.568.467 2.068 1.189a1 1 0 0 0 .822.431c.348-.017.641-.165.827-.437.489-.718 1.295-1.183 2.053-1.183.729 0 1.326.279 1.825.855zM10 44.96c0 .573-.467 1.04-1.04 1.04H7.04C6.467 46 6 45.533 6 44.96V41h4v3.96zm32 0c0 .573-.467 1.04-1.04 1.04h-1.92c-.573 0-1.04-.467-1.04-1.04V41h4v3.96zM46 39H2V27c0-.552.449-1 1-1h14.442c-.285.459-.477.969-.662 1.467-.522 1.397-.899 2.406-3.011 2.434-.715.016-1.389-.14-1.891-.428-.457-.262-.775-.605-.975-1.051a.999.999 0 0 0-1.862.722 9.025 9.025 0 0 0 1.688 3.024c1.69 1.984 4.129 3.122 6.691 3.122 2.475 0 4.891-1.18 6.578-3.149 1.68 1.97 4.094 3.149 6.572 3.149 2.562 0 5.001-1.138 6.693-3.124a9.054 9.054 0 0 0 1.687-3.022 1 1 0 0 0-1.862-.722 2.265 2.265 0 0 1-.96 1.048c-.513.289-1.192.42-1.905.431-2.114-.027-2.491-1.036-3.012-2.433-.186-.498-.377-1.008-.663-1.468H45c.551 0 1 .448 1 1v12z"/><path class="st2" d="M6.5 31C4.57 31 3 32.57 3 34.5S4.57 38 6.5 38s3.5-1.57 3.5-3.5S8.43 31 6.5 31zm0 5c-.827 0-1.5-.673-1.5-1.5S5.673 33 6.5 33s1.5.673 1.5 1.5S7.327 36 6.5 36zM41.5 31c-1.93 0-3.5 1.57-3.5 3.5s1.57 3.5 3.5 3.5 3.5-1.57 3.5-3.5-1.57-3.5-3.5-3.5zm0 5c-.827 0-1.5-.673-1.5-1.5s.673-1.5 1.5-1.5 1.5.673 1.5 1.5-.673 1.5-1.5 1.5z"/></g></g></svg>