<svg xmlns="http://www.w3.org/2000/svg" viewBox="0 0 48 48"><style>.st0{fill:none}.st1{fill:#fac8c6}.st2{fill:#ef4742}</style><path class="st0" d="M0 0h48v48H0z" id="Boundary"/><g id="Design"><g id="XMLID_59_"><path class="st1" d="M24 1c12.7 0 23 10.3 23 23 0 12.71-10.3 23.01-23 23.01C11.29 47.01.99 36.71.99 24 .99 11.3 11.29 1 24 1zm19 23c0-10.49-8.51-19-19-19C13.5 5 4.99 13.51 4.99 24c0 10.5 8.51 19.01 19.01 19.01 10.49 0 19-8.51 19-19.01z"/><path class="st2" d="M24 0C10.761 0-.01 10.767-.01 24c0 13.239 10.771 24.01 24.01 24.01 13.233 0 24-10.771 24-24.01C48 10.767 37.233 0 24 0zm0 46.01C11.864 46.01 1.99 36.136 1.99 24 1.99 11.869 11.864 2 24 2c12.131 0 22 9.869 22 22 0 12.136-9.869 22.01-22 22.01z"/><path class="st2" d="M36 19h-7v-7a1 1 0 0 0-1-1h-8a1 1 0 0 0-1 1v7h-7a1 1 0 0 0-1 1v8a1 1 0 0 0 1 1h7v7a1 1 0 0 0 1 1h8a1 1 0 0 0 1-1v-7h7a1 1 0 0 0 1-1v-8a1 1 0 0 0-1-1zm-1 8h-7a1 1 0 0 0-1 1v7h-6v-7a1 1 0 0 0-1-1h-7v-6h7a1 1 0 0 0 1-1v-7h6v7a1 1 0 0 0 1 1h7v6z"/><path class="st2" d="M24 4C12.967 4 3.99 12.972 3.99 24c0 11.033 8.977 20.01 20.01 20.01 11.028 0 20-8.977 20-20.01 0-11.028-8.972-20-20-20zm0 38.01c-9.931 0-18.01-8.079-18.01-18.01 0-9.925 8.079-18 18.01-18 9.925 0 18 8.075 18 18 0 9.931-8.075 18.01-18 18.01z"/></g></g></svg>