<svg xmlns="http://www.w3.org/2000/svg" viewBox="0 0 48 48"><style>.st0{fill:none}.st1{fill:#fac8c6}.st2{fill:#ef4742}</style><path class="st0" d="M0 0h48v48H0z" id="Boundary"/><g id="Design"><path class="st1" d="M1 28v6c0 1.1 1.058 2 2.351 2H45c1.1 0 2-.9 2-2v-6H1z"/><circle class="st2" cx="24" cy="32" r="1"/><path class="st2" d="M45 3H3C1.346 3 0 4.346 0 6v28c0 1.654 1.346 3 3 3h17v5h-4v2h16v-2h-4v-5h17c1.654 0 3-1.346 3-3V6c0-1.654-1.346-3-3-3zM3 5h42c.551 0 1 .449 1 1v21H2V6c0-.551.449-1 1-1zm23 37h-4v-5h4v5zm19-7H3c-.551 0-1-.449-1-1v-5h44v5c0 .551-.449 1-1 1z"/></g></svg>