<?xml version="1.0" encoding="utf-8"?>
<!-- Generator: Adobe Illustrator 21.0.2, SVG Export Plug-In . SVG Version: 6.00 Build 0)  -->
<svg version="1.1" id="Layer_1" xmlns="http://www.w3.org/2000/svg" xmlns:xlink="http://www.w3.org/1999/xlink" x="0px" y="0px"
	 viewBox="0 0 48 48" style="enable-background:new 0 0 48 48;" xml:space="preserve">
<style type="text/css">
	.st0{fill:#FFFFFF;}
</style>
<path id="Boundary" class="st0" d="M0,0h48v48H0V0z"/>
<g id="Design">
	<g id="XMLID_19_">
		<path class="st0" d="M14.135,16.679C14.951,21.489,19.121,25.007,24,25c4.893,0,9.037-3.5,9.854-8.31
			C33.953,16.132,34.002,15.567,34,15c0-5.514-4.486-10-10-10S14,9.486,14,15c0,0.568,0.045,1.13,0.133,1.671
			C14.133,16.671,14.135,16.679,14.135,16.679z M24,23c-3.512,0.004-6.615-2.288-7.644-5.646c2.224-0.486,3.751-2.078,4.631-3.331
			c1.26,1.446,4.124,3.231,10.609,3.461C30.531,20.778,27.461,23.007,24,23z M24,7c4.411,0,8,3.589,8,8
			c0,0.166-0.011,0.326-0.02,0.486c-9.07-0.247-9.991-3.623-9.993-3.63c-0.073-0.436-0.424-0.773-0.863-0.827
			c-0.439-0.052-0.861,0.188-1.04,0.592c-0.015,0.034-1.397,3.1-4.053,3.758C16.024,15.251,16,15.129,16,15C16,10.589,19.589,7,24,7
			z M44.42,26h-8.18c-1.148-0.001-2.227,0.553-2.894,1.488c-0.789-0.458-1.684-0.702-2.596-0.708h-13.5
			c-0.922,0-1.806,0.258-2.596,0.708c-0.667-0.935-1.746-1.489-2.894-1.488H3.58C1.604,26.002,0.002,27.604,0,29.58V37
			c0,0.552,0.448,1,1,1h11v3c0,0.552,0.448,1,1,1h22c0.552,0,1-0.448,1-1v-3h11c0.552,0,1-0.448,1-1v-7.42
			C47.998,27.604,46.396,26.002,44.42,26z M33.735,28.995l-0.332,0.336l0.323-0.336H33.735z M25.783,28.78L24,32.941l-1.783-4.162
			L25.783,28.78L25.783,28.78z M14.274,28.995l0.323,0.337l-0.333-0.336L14.274,28.995z M2,36v-6.42C2,28.709,2.709,28,3.58,28H7v4
			h2v-4h2.76c0.586,0,1.095,0.325,1.367,0.817c-0.726,0.914-1.123,2.046-1.127,3.213V36H2z M34,40H14v-7.97
			c0-0.875,0.346-1.699,0.973-2.318l-0.005-0.005c0.612-0.592,1.43-0.925,2.282-0.927h2.791l3.04,7.094
			c0.216,0.508,0.803,0.744,1.311,0.527c0.237-0.101,0.426-0.29,0.527-0.527l3.04-7.094h2.791c0.847,0,1.657,0.33,2.282,0.927
			l-0.005,0.005C33.654,30.331,34,31.154,34,32.03V40z M46,36H36v-3.97c-0.004-1.167-0.401-2.299-1.127-3.213
			c0.272-0.502,0.796-0.816,1.367-0.817H39v4h2v-4h3.42c0.871,0,1.58,0.709,1.58,1.58V36z M41,25c2.944,0,5.429-2.102,5.896-4.941
			C46.967,19.741,47,19.405,47,19c0-3.309-2.691-6-6-6c-2.187,0.001-4.201,1.191-5.256,3.107l-0.001,0.002
			C35.257,16.995,35.001,17.989,35,19C35,22.309,37.691,25,41,25z M41,23c-2.206,0-4-1.794-4-4c0-0.155,0.011-0.311,0.03-0.465
			c1.13,0.969,3.324,2.071,7.525,2.27C43.883,22.152,42.506,23.003,41,23z M41,15c2.145,0,3.886,1.7,3.982,3.82
			c-5.168-0.165-6.739-1.772-7.112-2.299C38.626,15.563,39.779,15.003,41,15z M7,25c3.309,0,6-2.691,6-6
			c-0.001-1.011-0.257-2.005-0.743-2.891l-0.001-0.001C11.201,14.192,9.187,13.001,7,13c-3.309,0-6,2.691-6,6
			c0,0.405,0.033,0.741,0.094,1.003C1.566,22.894,4.071,25.013,7,25z M7,23c-1.503,0.002-2.877-0.848-3.546-2.194
			c4.193-0.192,6.387-1.295,7.517-2.268C10.989,18.692,11,18.846,11,19C11,21.206,9.206,23,7,23z M7,15
			c1.235,0,2.384,0.575,3.136,1.529c-0.343,0.493-1.886,2.125-7.118,2.293C3.113,16.701,4.855,15,7,15z"/>
	</g>
</g>
</svg>
