<svg id="Layer_1" xmlns="http://www.w3.org/2000/svg" viewBox="0 0 48 48"><style>.st0{fill:#fff}</style><g id="Design"><g id="XMLID_17_"><path class="st0" d="M47.189 13.814l-1.982-1.992a2.826 2.826 0 0 0-3.994 0L38 15.036V4a1 1 0 0 0-1-1H7a1 1 0 0 0-1 1v34H1a1 1 0 0 0-1 1v3c0 2.206 1.794 4 4 4v.02h29c2.757 0 5-2.243 5-5V27h-.005l9.193-9.193a2.827 2.827 0 0 0 .001-3.993zM25.48 36.687l-3.154-3.147 15.538-15.539 3.087 3.215L25.48 36.687zm-3.903-1.068l1.821 1.817-2.185.367.364-2.184zM39.28 16.584l.811-.811 3.155 3.148-.877.877-3.089-3.214zM36 5v2.02H8V5h28zM2 42v-2h4v2c0 1.103-.897 2-2 2s-2-.897-2-2zm34-.98c0 1.654-1.346 3-3 3H7.433c.367-.61.563-1.308.567-2.02V9.02h28V17h.036L20.203 32.833l.005.005a.99.99 0 0 0-.285.538L19.153 38H14v2h5.887c.038.004.075.02.113.02.055 0 .11-.004.166-.014l5.48-.92a.993.993 0 0 0 .536-.284l.005.005L36 28.995V41.02zm9.773-24.627l-1.114 1.114-3.155-3.148 1.122-1.122a.825.825 0 0 1 1.164-.001l1.982 1.992c.323.32.323.844.001 1.165z"/><path class="st0" d="M14 15h15v2H14v-2zm0 6h11v2H14v-2zm0 6h6v2h-6v-2z"/></g></g></svg>