<?xml version="1.0" encoding="utf-8"?>
<!-- Generator: Adobe Illustrator 21.0.2, SVG Export Plug-In . SVG Version: 6.00 Build 0)  -->
<svg version="1.1" id="Layer_1" xmlns="http://www.w3.org/2000/svg" xmlns:xlink="http://www.w3.org/1999/xlink" x="0px" y="0px"
	 viewBox="0 0 48 48" style="enable-background:new 0 0 48 48;" xml:space="preserve">
<style type="text/css">
	.st0{fill:#FFFFFF;}
</style>
<g id="Design">
	<g id="XMLID_17_">
		<path class="st0" d="M47.189,13.814l-1.982-1.992c-1.103-1.102-2.891-1.102-3.994,0L38,15.036V4c0-0.552-0.448-1-1-1H7
			C6.448,3,6,3.448,6,4v34H1c-0.552,0-1,0.448-1,1v3c0,2.206,1.794,4,4,4v0.02h29c2.757,0,5-2.243,5-5V27h-0.005l9.193-9.193
			C48.289,16.704,48.289,14.918,47.189,13.814z M25.48,36.687l-3.154-3.147l15.538-15.539l3.087,3.215L25.48,36.687z M21.577,35.619
			l1.821,1.817l-2.185,0.367C21.213,37.803,21.577,35.619,21.577,35.619z M39.28,16.584l0.811-0.811l3.155,3.148l-0.877,0.877
			L39.28,16.584z M36,5v2.02H8V5H36z M2,42v-2h4v2c0,1.103-0.897,2-2,2S2,43.103,2,42z M36,41.02c0,1.654-1.346,3-3,3H7.433
			C7.8,43.41,7.996,42.712,8,42V9.02h28V17h0.036L20.203,32.833l0.005,0.005c-0.149,0.145-0.249,0.333-0.285,0.538L19.153,38H14v2
			h5.887c0.038,0.004,0.075,0.02,0.113,0.02c0.055,0,0.11-0.004,0.166-0.014l5.48-0.92c0.204-0.036,0.391-0.136,0.536-0.284
			l0.005,0.005L36,28.995V41.02z M45.773,16.393l-1.114,1.114l-3.155-3.148l1.122-1.122c0.322-0.321,0.842-0.321,1.164-0.001
			l1.982,1.992C46.095,15.548,46.095,16.072,45.773,16.393z"/>
		<path class="st0" d="M14,15h15v2H14V15z M14,21h11v2H14V21z M14,27h6v2h-6V27z"/>
	</g>
</g>
</svg>
