<svg xmlns="http://www.w3.org/2000/svg" viewBox="0 0 48 48"><style>.st0{fill:none}.st1{fill:#fac8c6}.st2{fill:#ef4742}</style><path class="st0" d="M0 0h48v48H0z" id="Boundary"/><g id="Design"><path class="st1" d="M7 4h30v4H7z"/><path transform="rotate(-45.065 42.035 16.3)" class="st2" d="M41.035 13.072h2v6.456h-2z"/><path class="st2" d="M47.189 13.814l-1.982-1.992a2.826 2.826 0 0 0-3.994 0L38 15.036V4a1 1 0 0 0-1-1H7a1 1 0 0 0-1 1v34H1a1 1 0 0 0-1 1v3c0 2.206 1.794 4 4 4v.02h29c2.757 0 5-2.243 5-5V27h-.005l9.193-9.193a2.827 2.827 0 0 0 .001-3.993zM25.48 36.687l-3.154-3.147 15.55-15.551 3.151 3.151L25.48 36.687zm-3.903-1.068l1.821 1.817-2.185.367.364-2.184zM36 5v2H8V5h28zM2 42v-2h4v2c0 1.103-.897 2-2 2s-2-.897-2-2zm34-.98c0 1.654-1.346 3-3 3H7.433A3.96 3.96 0 0 0 8 42V9h28v8h.036L20.203 32.833l.005.005a.992.992 0 0 0-.285.538L19.153 38H14v2h5.887c.038.004.075.02.113.02.055 0 .11-.004.166-.014l5.48-.92a.991.991 0 0 0 .536-.284l.005.005L36 28.995V41.02zm9.773-24.627l-3.333 3.333-3.151-3.151 3.338-3.338a.825.825 0 0 1 1.164-.001l1.982 1.992a.823.823 0 0 1 0 1.165z"/><path class="st2" d="M14 15h15v2H14zm0 6h11v2H14zm0 6h6v2h-6z"/></g></svg>