<svg width="48" height="48" viewBox="0 0 48 48" xmlns="http://www.w3.org/2000/svg"><title>notifications</title><g fill="none" fill-rule="evenodd"><path d="M41.86 40.07c.47.87-.16 1.93-1.15 1.93H7.29c-.99 0-1.62-1.06-1.15-1.93.35-.65.72-1.37 1.08-2.13l32.77.06.67-.32c.4.86.81 1.67 1.2 2.39z" fill="#F9B6B3"/><path d="M15.302 1.882L14.359.118C10.65 2.102 7.921 5.625 6.87 9.785l1.939.49c.914-3.616 3.28-6.675 6.493-8.393zm23.719 8.393l1.939-.49c-1.052-4.16-3.781-7.684-7.488-9.667l-.943 1.764c3.212 1.718 5.578 4.777 6.492 8.393zm3.718 29.319c-.416-.77-.808-1.55-1.176-2.344a74.637 74.637 0 0 1-1.978-4.574c-2.563-6.774-2.605-17.539-2.605-17.646 0-5.488-3.466-10.408-8.619-12.24-2.849-1.036-5.778-1.036-8.706-.002-5.159 1.834-8.625 6.754-8.625 12.235-.001.107-.107 10.788-2.598 17.635a84.855 84.855 0 0 1-2.115 4.854 46.009 46.009 0 0 1-1.056 2.083 2.29 2.29 0 0 0 .049 2.28A2.286 2.286 0 0 0 7.29 43h10.232c1.053 2.973 3.607 5 6.468 5 2.85 0 5.404-2.027 6.465-5H40.71c.82 0 1.561-.421 1.981-1.126.42-.697.44-1.566.048-2.28zM13.03 15.03c0-4.644 2.932-8.806 7.293-10.357 1.257-.444 2.487-.666 3.708-.666s2.432.222 3.653.666c4.363 1.551 7.295 5.714 7.295 10.358 0 .456.042 11.234 2.74 18.366a80.833 80.833 0 0 0 1.522 3.602l-30.46-.056c.53-1.18 1.037-2.37 1.518-3.571 2.62-7.199 2.727-17.884 2.731-18.342zM23.99 46c-1.795 0-3.431-1.191-4.311-3h8.617c-.885 1.809-2.519 3-4.306 3zm16.983-5.15a.297.297 0 0 1-.263.15H7.29a.297.297 0 0 1-.263-.15.3.3 0 0 1-.006-.306c.267-.496.545-1.041.822-1.603L40 39s.637.911.98 1.545a.3.3 0 0 1-.007.305z" fill="#EF4742"/><path d="M20.644 8.822l-.668-1.885A7.502 7.502 0 0 0 15 14h2a5.497 5.497 0 0 1 3.644-5.178z" fill="#EF4742"/></g></svg>