<?xml version="1.0" encoding="utf-8"?>
<!-- Generator: Adobe Illustrator 21.0.0, SVG Export Plug-In . SVG Version: 6.00 Build 0)  -->
<svg version="1.1" id="Layer_1" xmlns="http://www.w3.org/2000/svg" xmlns:xlink="http://www.w3.org/1999/xlink" x="0px" y="0px"
	 viewBox="0 0 48 48" style="enable-background:new 0 0 48 48;" xml:space="preserve">
<style type="text/css">
	.st0{fill:#FFFFFF;}
</style>
<g>
	<path class="st0" d="M15.302,1.882l-0.943-1.764C10.65,2.102,7.921,5.625,6.87,9.785l1.939,0.49
		C9.723,6.659,12.089,3.6,15.302,1.882z M39.021,10.275l1.939-0.49c-1.052-4.16-3.781-7.684-7.488-9.667l-0.943,1.764
		C35.741,3.6,38.107,6.659,39.021,10.275z M42.739,39.594c-0.416-0.77-0.808-1.55-1.176-2.344c-0.71-1.502-1.37-3.028-1.978-4.574
		c-2.563-6.774-2.605-17.539-2.605-17.646c0-5.488-3.466-10.408-8.619-12.24c-2.849-1.036-5.778-1.036-8.706-0.002
		c-5.159,1.834-8.625,6.754-8.625,12.235c-0.001,0.107-0.107,10.788-2.598,17.635c-0.654,1.64-1.36,3.258-2.115,4.854
		c-0.334,0.703-0.686,1.398-1.056,2.083c-0.39,0.715-0.372,1.583,0.049,2.28c0.413,0.7,1.167,1.129,1.98,1.125h10.232
		c1.053,2.973,3.607,5,6.468,5c2.85,0,5.404-2.027,6.465-5H40.71c0.82,0,1.561-0.421,1.981-1.126
		C43.111,41.177,43.131,40.308,42.739,39.594z M13.03,15.03c0-4.644,2.932-8.806,7.293-10.357c1.257-0.444,2.487-0.666,3.708-0.666
		s2.432,0.222,3.653,0.666c4.363,1.551,7.295,5.714,7.295,10.358c0,0.456,0.042,11.234,2.74,18.366
		c0.478,1.213,0.986,2.414,1.522,3.602l-30.46-0.056c0.53-1.18,1.037-2.37,1.518-3.571C12.919,26.173,13.026,15.488,13.03,15.03z
		 M23.99,46c-1.795,0-3.431-1.191-4.311-3h8.617C27.411,44.809,25.777,46,23.99,46z M40.973,40.85
		c-0.054,0.094-0.155,0.152-0.263,0.15H7.29c-0.108,0.002-0.209-0.056-0.263-0.15c-0.058-0.093-0.06-0.211-0.006-0.306
		c0.267-0.496,0.545-1.041,0.822-1.603L40,39c0,0,0.637,0.911,0.98,1.545C41.033,40.64,41.031,40.757,40.973,40.85z"/>
	<path class="st0" d="M20.644,8.822l-0.668-1.885C16.992,8.004,15,10.831,15,14h2C16.999,11.678,18.457,9.605,20.644,8.822z"/>
</g>
</svg>
