<svg xmlns="http://www.w3.org/2000/svg" viewBox="0 0 48 48"><style>.st0{fill:none}.st1{fill:#fac8c6}.st2{fill:#ef4742}</style><path class="st0" d="M0 0h48v48H0z" id="Boundary"/><g id="Design"><path class="st1" d="M10.63 44.38l.15.35c-3.73 1.66-8.78 1.68-7.2.14 1.7-1.65 1.6-3.78 1.65-5.89l5.4 5.4z"/><path class="st2" d="M45.277 2.663c-1.128-1.127-2.64-1.7-4.22-1.723a5.863 5.863 0 0 0-4.201 1.82L12.664 28.131a2.992 2.992 0 0 0-.773 2.643c-.124-.01-.248-.024-.374-.025-1.821-.047-3.581.813-5.298 2.487-1.736 1.702-1.935 3.757-1.989 5.716v.004l-.01.495c-.034 1.86-.064 3.466-1.339 4.703-.76.741-.688 1.51-.368 1.983.42.62 1.411.871 2.633.871 1.889 0 4.325-.601 6.038-1.363 1.131-.5 2.061-1.098 2.764-1.779 2.445-2.384 3.644-5.331 3.423-7.807.124.015.247.035.371.035.745 0 1.488-.273 2.058-.82l1.479-1.41h.001l23.9-22.789A5.818 5.818 0 0 0 47 6.82c0-1.57-.611-3.046-1.723-4.157zM4.807 45.001c.904-1.145 1.212-2.432 1.33-3.7l2.988 2.988c-1.704.558-3.35.742-4.318.712zm7.748-2.569c-.372.36-.865.705-1.441 1.018l-4.867-4.867c.063-1.502.27-2.837 1.372-3.916 1.321-1.289 2.624-1.979 3.873-1.917 1.335.018 2.386.813 3.032 1.478 1.7 1.748.797 5.506-1.969 8.204zm4.471-8.631l-2.895-2.883a1.008 1.008 0 0 1-.019-1.408l.704-.738 4.346 4.346-.746.712a.997.997 0 0 1-1.39-.029zM43.8 9.626l-23.189 22.11-4.413-4.413 22.104-23.18a3.877 3.877 0 0 1 2.776-1.203h.041c1.036 0 2.01.403 2.744 1.137A3.85 3.85 0 0 1 45 6.82a3.833 3.833 0 0 1-1.2 2.806z"/><path class="st2" d="M38.913 4.783a2.982 2.982 0 0 0-.878 2.123c0 .802.312 1.556.878 2.122.585.585 1.354.878 2.122.878s1.537-.293 2.122-.878a2.98 2.98 0 0 0 .878-2.122 2.98 2.98 0 0 0-.878-2.122 3.004 3.004 0 0 0-4.244-.001zm2.83 2.829c0 .001 0 .001 0 0a1.001 1.001 0 1 1-1.416-1.416 1.001 1.001 0 0 1 1.416 1.416z"/></g></svg>