<?xml version="1.0" encoding="utf-8"?>
<!-- Generator: Adobe Illustrator 19.2.1, SVG Export Plug-In . SVG Version: 6.00 Build 0)  -->
<svg version="1.1" xmlns="http://www.w3.org/2000/svg" xmlns:xlink="http://www.w3.org/1999/xlink" x="0px" y="0px"
	 viewBox="0 0 48 48" style="enable-background:new 0 0 48 48;" xml:space="preserve">
<style type="text/css">
	.st0{fill:none;}
	.st1{fill:#FAC8C6;}
	.st2{fill:#EF4742;}
</style>
<g id="Boundary">
	<rect class="st0" width="48" height="48"/>
</g>
<g id="Design">
	<g>
		<g>
			<path class="st1" d="M10.63,44.38l0.15,0.35c-3.73,1.66-8.78,1.68-7.2,0.14c1.7-1.65,1.6-3.78,1.65-5.89L10.63,44.38z"/>
		</g>
		<g>
			<path class="st2" d="M45.277,2.663c-1.128-1.127-2.64-1.7-4.22-1.723c-1.599,0.017-3.09,0.662-4.201,1.82L12.664,28.131
				c-0.697,0.734-0.953,1.72-0.773,2.643c-0.124-0.01-0.248-0.024-0.374-0.025c-1.821-0.047-3.581,0.813-5.298,2.487
				c-1.736,1.702-1.935,3.757-1.989,5.716c0,0.001,0,0.002,0,0.004l-0.01,0.495c-0.034,1.86-0.064,3.466-1.339,4.703
				c-0.76,0.741-0.688,1.51-0.368,1.983c0.42,0.62,1.411,0.871,2.633,0.871c1.889,0,4.325-0.601,6.038-1.363
				c1.131-0.5,2.061-1.098,2.764-1.779c2.445-2.384,3.644-5.331,3.423-7.807c0.124,0.015,0.247,0.035,0.371,0.035
				c0.745,0,1.488-0.273,2.058-0.82l1.479-1.41l0.001,0L45.18,11.075C46.354,9.958,47,8.447,47,6.82
				C47,5.25,46.389,3.774,45.277,2.663z M4.807,45.001c0.904-1.145,1.212-2.432,1.33-3.7l2.988,2.988
				C7.421,44.847,5.775,45.031,4.807,45.001z M12.555,42.432c-0.372,0.36-0.865,0.705-1.441,1.018l-4.867-4.867
				c0.063-1.502,0.27-2.837,1.372-3.916c1.321-1.289,2.624-1.979,3.873-1.917c1.335,0.018,2.386,0.813,3.032,1.478
				C16.224,35.976,15.321,39.734,12.555,42.432z M17.026,33.801l-2.895-2.883c-0.388-0.393-0.395-1.012-0.019-1.408l0.704-0.738
				l4.346,4.346l-0.746,0.712C18.034,34.197,17.411,34.187,17.026,33.801z M43.8,9.626l-23.189,22.11l-4.413-4.413L38.302,4.143
				c0.733-0.765,1.72-1.191,2.776-1.203c0.014,0,0.027,0,0.041,0c1.036,0,2.01,0.403,2.744,1.137C44.597,4.81,45,5.784,45,6.82
				C45,7.894,44.574,8.891,43.8,9.626z"/>
			<path class="st2" d="M38.913,4.783c-0.566,0.566-0.878,1.32-0.878,2.123c0,0.802,0.312,1.556,0.878,2.122
				c0.585,0.585,1.354,0.878,2.122,0.878s1.537-0.293,2.122-0.878c0.566-0.566,0.878-1.319,0.878-2.122
				c0-0.803-0.312-1.556-0.878-2.122C41.987,3.612,40.083,3.614,38.913,4.783z M41.743,7.612
				C41.743,7.613,41.743,7.613,41.743,7.612c-0.391,0.391-1.025,0.391-1.416,0c-0.188-0.188-0.292-0.439-0.292-0.707
				c0-0.268,0.104-0.52,0.292-0.708c0.195-0.195,0.451-0.292,0.708-0.292s0.513,0.098,0.708,0.293
				c0.188,0.188,0.292,0.439,0.292,0.708C42.035,7.173,41.932,7.424,41.743,7.612z"/>
		</g>
	</g>
</g>
</svg>
