<?xml version="1.0" encoding="utf-8"?>
<!-- Generator: Adobe Illustrator 19.2.1, SVG Export Plug-In . SVG Version: 6.00 Build 0)  -->
<svg version="1.1" xmlns="http://www.w3.org/2000/svg" xmlns:xlink="http://www.w3.org/1999/xlink" x="0px" y="0px"
	 viewBox="0 0 48 48" style="enable-background:new 0 0 48 48;" xml:space="preserve">
<style type="text/css">
	.st0{fill:none;}
	.st1{fill:#FAC8C6;}
	.st2{fill:#EF4742;}
</style>
<g id="Boundary">
	<rect class="st0" width="48" height="48"/>
</g>
<g id="Design">
	<g>
		<path class="st2" d="M36.091,39.012c-1.755,0-3.511-0.667-4.847-2.001L13.83,19.64c-0.744-0.741-1.154-1.729-1.155-2.779
			c0-1.051,0.408-2.039,1.151-2.782c0.742-0.742,1.729-1.151,2.779-1.151s2.037,0.409,2.779,1.151l16.683,16.683l-1.39,1.39
			L17.994,15.469c-0.742-0.741-2.036-0.741-2.778,0c-0.372,0.372-0.575,0.865-0.575,1.391c0,0.524,0.205,1.018,0.577,1.388
			l17.414,17.371c1.911,1.906,5.016,1.904,6.923-0.004c0.925-0.925,1.435-2.155,1.435-3.464s-0.51-2.538-1.435-3.464L21.384,10.518
			c-1.463-1.463-3.408-2.268-5.477-2.268c0,0,0,0-0.001,0c-2.069,0-4.014,0.806-5.477,2.27l-0.189,0.188
			c-1.463,1.465-2.268,3.412-2.266,5.481c0.002,2.071,0.81,4.016,2.277,5.478l13.367,13.327l-1.388,1.392L8.863,23.059
			c-1.838-1.834-2.852-4.273-2.854-6.868s1.007-5.037,2.842-6.873l0.189-0.188c1.834-1.835,4.273-2.846,6.867-2.846
			c0,0,0.001,0,0.001,0c2.594,0,5.033,1.01,6.867,2.844l18.171,18.171c1.296,1.297,2.011,3.02,2.011,4.854s-0.714,3.558-2.011,4.854
			C39.607,38.343,37.849,39.012,36.091,39.012z"/>
	</g>
</g>
</svg>
