<svg xmlns="http://www.w3.org/2000/svg" viewBox="0 0 48 48"><style>.st0{fill:none}.st1{fill:#fac8c6}.st2{fill:#ef4742}</style><path class="st0" d="M0 0h48v48H0z" id="Boundary"/><g id="Design"><path class="st1" d="M6 1h4v46H6z"/><path class="st2" d="M18 37h16v2H18z"/><path class="st2" d="M39.1 0H6a1 1 0 0 0-1 1v46a1 1 0 0 0 1 1h33.1c2.15 0 3.9-1.75 3.9-3.9V3.9C43 1.75 41.25 0 39.1 0zM7 2h2v44H7V2zm34 42.1c0 1.048-.853 1.9-1.9 1.9H11V2h28.1c1.047 0 1.9.852 1.9 1.9v40.2z"/><path class="st2" d="M27.726 8.132a11.406 11.406 0 0 0-3.436-.002 11.975 11.975 0 0 0-10.278 11.312l-.001.05-.001.008h.001c-.008.168-.011.33-.011.5 0 .38.021.75.054 1.122.516 5.557 4.725 9.977 10.221 10.746.559.088 1.14.132 1.725.132s1.166-.044 1.709-.13c5.513-.771 9.722-5.191 10.237-10.751a12.497 12.497 0 0 0 .043-1.67c-.263-5.755-4.585-10.515-10.263-11.317zM16.023 20.469c-.007-.14-.02-.279-.021-.421a17.736 17.736 0 0 1 4.103-2.051A20.054 20.054 0 0 0 20 20c0 .864.072 1.71.18 2.542a17.651 17.651 0 0 1-4.157-2.073zm6.273 2.646A17.481 17.481 0 0 1 22 20c0-.899.079-1.747.204-2.587a18.079 18.079 0 0 1 7.593 0c.124.837.203 1.685.203 2.587 0 1.066-.114 2.104-.296 3.115a18.056 18.056 0 0 1-7.408 0zm9.599-5.118c1.451.5 2.821 1.192 4.102 2.052-.001.143-.013.28-.021.42a17.412 17.412 0 0 1-4.157 2.074c.109-.834.181-1.68.181-2.543 0-.69-.04-1.352-.105-2.003zm3.785-.487a19.672 19.672 0 0 0-4.131-1.705 19.828 19.828 0 0 0-1.839-5.083 9.99 9.99 0 0 1 5.97 6.788zM26 10c.328 0 .654.023.978.058a17.853 17.853 0 0 1 2.379 5.234 20.255 20.255 0 0 0-6.714 0 17.832 17.832 0 0 1 2.368-5.216c.326-.036.652-.076.989-.076zm-3.711.725a19.836 19.836 0 0 0-1.838 5.08c-1.443.414-2.825.98-4.131 1.705a9.987 9.987 0 0 1 5.969-6.785zm-5.797 12.366a19.456 19.456 0 0 0 4.105 1.658 19.529 19.529 0 0 0 1.712 4.544 9.892 9.892 0 0 1-5.817-6.202zm8.516 6.833a17.601 17.601 0 0 1-2.217-4.683c1.069.173 2.143.269 3.209.269 1.066 0 2.14-.096 3.21-.269a17.562 17.562 0 0 1-2.218 4.684c-.651.07-1.318.07-1.984-.001zm4.684-.634a19.491 19.491 0 0 0 1.712-4.542 19.395 19.395 0 0 0 4.102-1.655 9.889 9.889 0 0 1-5.814 6.197z"/></g></svg>