<svg xmlns="http://www.w3.org/2000/svg" viewBox="0 0 48 48"><style>.st0{fill:none}.st1{fill:#fac8c6}.st2{fill:#ef4742}.st3{fill:#fff}</style><path class="st0" d="M0 0h48v48H0z" id="Boundary"/><g id="Design"><path class="st1" d="M42.93 12.11l-2.83 2.83-3.53-3.53-3.54-3.54 2.83-2.83z"/><path class="st2" d="M44.227 3.833l-.088-.088a5.875 5.875 0 0 0-4.188-1.743h-.008a5.897 5.897 0 0 0-4.2 1.741l-31.04 31.03.005.005a.984.984 0 0 0-.284.538l-1.41 8.489a1 1 0 0 0 1.15 1.151l8.49-1.41a1 1 0 0 0 .538-.284l.005.005 31.029-31.04a5.897 5.897 0 0 0 1.741-4.208 5.868 5.868 0 0 0-1.74-4.186zM7.976 42.296l-2.301-2.301.404-2.432 4.33 4.329-2.433.404zm4.514-1.151L6.824 35.48 33.03 9.284l2.122 2.122L8.953 37.603l1.414 1.414L36.565 12.82l2.121 2.121L12.49 41.145zM40.1 13.526L34.444 7.87l1.416-1.416 5.655 5.656-1.415 1.416zm2.818-2.842l-5.632-5.633a3.907 3.907 0 0 1 2.658-1.05h.005a3.893 3.893 0 0 1 2.774 1.155l.092.092a3.904 3.904 0 0 1 .103 5.436z"/></g></svg>