<?xml version="1.0" encoding="utf-8"?>
<!-- Generator: Adobe Illustrator 19.2.1, SVG Export Plug-In . SVG Version: 6.00 Build 0)  -->
<svg version="1.1" xmlns="http://www.w3.org/2000/svg" xmlns:xlink="http://www.w3.org/1999/xlink" x="0px" y="0px"
	 viewBox="0 0 48 48" style="enable-background:new 0 0 48 48;" xml:space="preserve">
<style type="text/css">
	.st0{fill:none;}
	.st1{fill:#FAC8C6;}
	.st2{fill:#EF4742;}
	.st3{fill:#FFFFFF;}
</style>
<g id="Boundary">
	<rect class="st0" width="48" height="48"/>
</g>
<g id="Design">
	<g>
		<g>
			<g>
				<polygon class="st1" points="42.93,12.11 40.1,14.94 36.57,11.41 33.03,7.87 35.86,5.04 				"/>
			</g>
		</g>
		<path class="st2" d="M44.227,3.833l-0.088-0.088c-1.115-1.122-2.603-1.741-4.188-1.743c-0.003,0-0.005,0-0.008,0
			c-1.587,0-3.078,0.618-4.2,1.741l-31.04,31.03l0.005,0.005c-0.145,0.145-0.25,0.328-0.284,0.538l-1.41,8.489
			c-0.053,0.318,0.051,0.643,0.279,0.871C3.482,44.866,3.737,44.97,4,44.97c0.055,0,0.109-0.005,0.164-0.014l8.49-1.41
			c0.209-0.035,0.393-0.14,0.538-0.284l0.005,0.005l31.029-31.04c1.125-1.124,1.743-2.618,1.741-4.208
			C45.966,6.434,45.347,4.946,44.227,3.833z M7.976,42.296l-2.301-2.301l0.404-2.432l4.33,4.329L7.976,42.296z M12.49,41.145
			l-5.666-5.665L33.03,9.284l2.122,2.122L8.953,37.603l1.414,1.414L36.565,12.82l2.121,2.121L12.49,41.145z M40.1,13.526
			L34.444,7.87l1.416-1.416l5.655,5.656L40.1,13.526z M42.918,10.684l-5.632-5.633c0.73-0.671,1.662-1.05,2.658-1.05
			c0.002,0,0.004,0,0.005,0c1.05,0.002,2.034,0.411,2.774,1.155l0.092,0.092c0.742,0.738,1.151,1.723,1.153,2.772
			C43.969,9.019,43.591,9.953,42.918,10.684z"/>
	</g>
</g>
</svg>
