<svg width="54" height="51" viewBox="0 0 54 51" xmlns="http://www.w3.org/2000/svg"><title>Fill 1</title><path d="M34.866 26.204c-.621 0-1.125-.47-1.125-1.049 0-3.467-3.028-6.288-6.75-6.288-.621 0-1.125-.47-1.125-1.049 0-.578.504-1.048 1.125-1.048 4.964 0 9 3.761 9 8.385 0 .58-.504 1.049-1.125 1.049zm9 0c-.621 0-1.125-.47-1.125-1.049 0-8.091-7.067-14.674-15.75-14.674-.621 0-1.125-.47-1.125-1.048 0-.578.504-1.048 1.125-1.048 9.925 0 18 7.524 18 16.77 0 .58-.504 1.049-1.125 1.049zm9 0c-.621 0-1.125-.47-1.125-1.049 0-12.714-11.104-23.059-24.75-23.059-.621 0-1.125-.47-1.125-1.048C25.866.47 26.37 0 26.991 0c14.888 0 27 11.284 27 25.155 0 .58-.504 1.049-1.125 1.049zm-36.018-5.216h.023-.023zM8.892 10.433c-.864 0-1.728.306-2.385.92l-2.621 2.44c-1.879 1.749-2.176 4.522-.707 6.591 7.533 10.612 17.537 19.932 28.933 26.957 2.228 1.368 5.2 1.09 7.072-.663l2.623-2.438c1.314-1.226 1.314-3.22 0-4.446l-4.774-4.446c-1.276-1.189-3.499-1.187-4.772 0L30.67 36.83a1.18 1.18 0 0 1-1.51.069c-5.321-4.063-10.429-8.823-14.773-13.764a.994.994 0 0 1 .076-1.405l1.59-1.482c1.313-1.226 1.313-3.222-.001-4.45l-4.773-4.444a3.505 3.505 0 0 0-2.387-.92zm26.316 39.868a8.239 8.239 0 0 1-4.336-1.212C19.224 41.91 9 32.386 1.302 21.54c-2.058-2.897-1.64-6.779.993-9.23l2.619-2.44c2.194-2.041 5.762-2.041 7.956 0l4.775 4.449c2.187 2.044 2.187 5.368 0 7.41v.002l-.869.807a102.185 102.185 0 0 0 13.028 12.136l.866-.807c2.122-1.981 5.825-1.986 7.954 0l4.774 4.446c2.192 2.042 2.192 5.366 0 7.41l-2.621 2.438c-1.51 1.411-3.53 2.14-5.569 2.14z" fill="#9C9DA2" fill-rule="evenodd"/></svg>