<svg xmlns="http://www.w3.org/2000/svg" viewBox="0 0 48 48"><style>.st0{fill:none}.st1{fill:#fac8c6}.st2{fill:#ef4742}</style><path class="st0" d="M0 0h48v48H0z" id="Boundary"/><g id="Design"><g id="XMLID_56_"><path class="st1" d="M43.1 39.44l-1.26 1.28c-.1.1-.2.2-.3.28l-7.5-7.5.38-.38 1.16-1.16a3.138 3.138 0 0 1 4.43 0l3.07 3.07a3.142 3.142 0 0 1 .02 4.41zM14.51 13.97L7.02 6.48 7 6.46l1.57-1.55a3.142 3.142 0 0 1 4.41.02l3.07 3.08a3.126 3.126 0 0 1 0 4.42l-1.15 1.16-.13.13-.25.26-.01-.01z"/><path class="st2" d="M43.787 34.323l-3.073-3.073c-1.616-1.603-4.236-1.602-5.841.003l-2.419 2.413a101.28 101.28 0 0 1-9.884-8.72 101.864 101.864 0 0 1-8.221-9.387l1.258-1.263-.707-.706.71.704 1.146-1.157a4.095 4.095 0 0 0 1.208-2.917 4.097 4.097 0 0 0-1.207-2.916L13.684 4.22c-1.597-1.584-4.205-1.594-5.817-.021l-1.57 1.55.022.021c-1.386 1.243-2.21 3.025-2.254 4.838-.597 6.396 3.394 14.244 11.239 22.101 7.344 7.334 14.683 11.3 20.774 11.3.424 0 .841-.02 1.252-.058 1.629-.032 3.459-.864 4.834-2.169.128-.103.258-.229.388-.359l1.264-1.283c1.569-1.611 1.557-4.218-.029-5.817zM12.271 5.636l3.071 3.081c.401.401.622.936.622 1.503 0 .568-.221 1.102-.625 1.506l-.826.834-6.094-6.095.849-.839a2.15 2.15 0 0 1 3.003.01zm24.946 36.318c-5.804.548-13.075-3.245-20.5-10.661C9.301 23.867 5.515 16.587 6.06 10.726a4.837 4.837 0 0 1 .989-2.803l6.053 6.052-.785.785a1 1 0 0 0-.092 1.314 103.812 103.812 0 0 0 8.927 10.281 103.034 103.034 0 0 0 10.785 9.432.996.996 0 0 0 1.309-.088l.792-.789 6.014 6.014c-.906.629-1.918 1.01-2.835 1.03zm5.171-3.216l-.841.854-6.094-6.094.834-.832a2.143 2.143 0 0 1 3.016 0l3.067 3.067c.819.828.826 2.177.018 3.005z"/></g></g></svg>