<?xml version="1.0" encoding="utf-8"?>
<!-- Generator: Adobe Illustrator 19.2.1, SVG Export Plug-In . SVG Version: 6.00 Build 0)  -->
<svg version="1.1" xmlns="http://www.w3.org/2000/svg" xmlns:xlink="http://www.w3.org/1999/xlink" x="0px" y="0px"
	 viewBox="0 0 48 48" style="enable-background:new 0 0 48 48;" xml:space="preserve">
<style type="text/css">
	.st0{fill:none;}
	.st1{fill:#FAC8C6;}
	.st2{fill:#EF4742;}
</style>
<g id="Boundary">
	<rect class="st0" width="48" height="48"/>
</g>
<g id="Design">
	<g>
		<g>
			<g>
				<path class="st1" d="M22,30c-0.55,0-1,0.45-1,1s0.45,1,1,1s1-0.45,1-1S22.55,30,22,30z M25,35h-6H3c-1.1,0-2-0.9-2-2v-6h4h29.93
					H35v8H25z"/>
			</g>
		</g>
		<g>
			<path class="st2" d="M46.22,23H44V8c0-1.654-1.346-3-3-3H3C1.346,5,0,6.346,0,8v25c0,1.654,1.346,3,3,3h15v5h-4v2h16v-2h-4v-5h8
				v5.22c0,0.981,0.799,1.78,1.78,1.78H46.22c0.981,0,1.78-0.799,1.78-1.78V24.78C48,23.799,47.201,23,46.22,23z M24,41h-4v-5h4V41z
				 M34,34H3c-0.552,0-1-0.448-1-1v-5h3h29V34z M34,24.78V26H5H2V8c0-0.552,0.448-1,1-1h38c0.552,0,1,0.448,1,1v15h-6.22
				C34.799,23,34,23.799,34,24.78z M46,41H36v-2h10V41z M46,37H36V25h10V37z"/>
			<circle class="st2" cx="22" cy="31" r="1"/>
		</g>
	</g>
</g>
</svg>
