<?xml version="1.0" encoding="utf-8"?>
<!-- Generator: Adobe Illustrator 19.2.1, SVG Export Plug-In . SVG Version: 6.00 Build 0)  -->
<svg version="1.1" xmlns="http://www.w3.org/2000/svg" xmlns:xlink="http://www.w3.org/1999/xlink" x="0px" y="0px"
	 viewBox="0 0 48 48" style="enable-background:new 0 0 48 48;" xml:space="preserve">
<style type="text/css">
	.st0{fill:none;}
	.st1{fill:#FAC8C6;}
	.st2{fill:#EF4742;}
</style>
<g id="Boundary">
	<rect class="st0" width="48" height="48"/>
</g>
<g id="Design">
	<g id="XMLID_54_">
		<g>
			<g>
				<path class="st1" d="M24,1c12.7,0,23,10.3,23,23c0,12.71-10.3,23.01-23,23.01C11.29,47.01,0.99,36.71,0.99,24
					C0.99,11.3,11.29,1,24,1z M43,24c0-10.49-8.51-19-19-19C13.5,5,4.99,13.51,4.99,24c0,10.5,8.51,19.01,19.01,19.01
					C34.49,43.01,43,34.5,43,24z"/>
			</g>
		</g>
		<g>
			<path class="st2" d="M24,0C10.761,0-0.01,10.767-0.01,24c0,13.239,10.771,24.01,24.01,24.01c13.234,0,24-10.771,24-24.01
				C48,10.767,37.234,0,24,0z M24,46.01C11.864,46.01,1.99,36.136,1.99,24C1.99,11.869,11.864,2,24,2c12.131,0,22,9.869,22,22
				C46,36.136,36.131,46.01,24,46.01z"/>
			<path class="st2" d="M24,4C12.967,4,3.99,12.972,3.99,24c0,11.033,8.977,20.01,20.01,20.01c11.028,0,20-8.977,20-20.01
				C44,12.972,35.028,4,24,4z M24,42.01c-9.931,0-18.01-8.079-18.01-18.01c0-9.925,8.079-18,18.01-18c9.925,0,18,8.075,18,18
				C42,33.931,33.925,42.01,24,42.01z"/>
			<path class="st2" d="M34.458,23.126l-16.99-9.01c-0.31-0.163-0.683-0.154-0.984,0.027C16.184,14.324,16,14.649,16,15v18.02
				c0,0.351,0.184,0.676,0.484,0.856c0.158,0.096,0.337,0.144,0.516,0.144c0.161,0,0.322-0.039,0.468-0.116l16.99-9.01
				c0.327-0.174,0.532-0.514,0.532-0.884S34.786,23.3,34.458,23.126z M18,31.357V16.662l13.856,7.348L18,31.357z"/>
		</g>
	</g>
</g>
</svg>
