<svg xmlns="http://www.w3.org/2000/svg" viewBox="0 0 48 48"><style>.st0{fill:none}.st1{fill:#f9b6b3}.st2{fill:#ef4742}</style><path class="st0" d="M0 0h48v48H0z" id="Boundary"/><g id="Design"><g id="XMLID_28_"><path class="st1" d="M5.01 37h38v4h-38z"/><path class="st2" d="M43.01 6h-38a1 1 0 0 0-1 1v34a1 1 0 0 0 1 1h38a1 1 0 0 0 1-1V7a1 1 0 0 0-1-1zm-1 2v28h-36V8h36zm-36 32v-2h36v2h-36z"/><path class="st2" d="M20.58 29.903a1.003 1.003 0 0 0 1.06-.127l8-6.5a.998.998 0 0 0 0-1.552l-8-6.5a1 1 0 0 0-1.63.776v13c0 .386.221.737.57.903zm1.43-11.802l5.414 4.399-5.414 4.399v-8.798z"/></g></g></svg>