<svg id="Layer_1" xmlns="http://www.w3.org/2000/svg" viewBox="0 0 48 48"><style>.st0{fill:#fff}</style><g id="Design"><g id="XMLID_25_"><path class="st0" d="M46.01 17.785a2.81 2.81 0 0 0-.833-2.001l-1.979-1.98a2.826 2.826 0 0 0-3.994 0l-1.213 1.213V9.4a.99.99 0 0 0-.292-.706l-6.391-6.41a1 1 0 0 0-.708-.294H2.99a1 1 0 0 0-1 1v42.02a1 1 0 0 0 1 1h34a1 1 0 0 0 1-1V26.99h-.016l7.203-7.203c.534-.529.834-1.25.833-2.002zm-22.54 20.88l-3.147-3.154L35.87 19.964l3.151 3.151-15.551 15.55zm-3.896-1.073l1.816 1.82-2.183.363.367-2.183zm17.71-19.042l.805-.805 3.147 3.154-.801.801-3.151-3.15zm-2.115-9.56H30.99V4.798l4.179 4.192zM16.798 23.827c-.512-1.638-2.015-2.837-3.808-2.837H9.01c-1.823 0-3.349 1.24-3.834 2.921a9.134 9.134 0 0 1-1.186-1.182V11.255a9 9 0 0 1 6.95-3.265c4.995 0 9.06 4.038 9.06 9 0 2.65-1.203 5.142-3.202 6.837zm-1.8 1.188a9.002 9.002 0 0 1-4.058.976A8.888 8.888 0 0 1 7 25.067v-.037c0-1.125.901-2.04 2.01-2.04h3.98c1.104 0 2 .907 2.008 2.025zM35.99 44.01h-32V25.52c.477.385.978.738 1.516 1.04 1.657.94 3.53 1.433 5.435 1.431 1.974 0 3.898-.518 5.561-1.495C19.893 24.533 22 20.891 22 16.99c0-6.065-4.961-11-11.06-11-2.573 0-5.004.873-6.95 2.45V3.99h25v6a1 1 0 0 0 1 1h6v6h.025L18.203 34.803l.005.005a.989.989 0 0 0-.284.537l-.78 4.646H6v2h11.99a.9.9 0 0 0 .164-.014l5.479-.91a.988.988 0 0 0 .538-.284l.005.005L35.99 28.974V44.01zm7.773-25.637l-1.113 1.113-3.147-3.154 1.114-1.114a.826.826 0 0 1 1.166 0l1.979 1.981a.824.824 0 0 1 .001 1.174z"/><path class="st0" d="M25 12.99h8v2h-8v-2zm0 6h4v2h-4v-2zm-14-9c-2.757 0-5 2.248-5 5.01s2.243 5.01 5 5.01 5-2.248 5-5.01-2.243-5.01-5-5.01zm0 8.02c-1.654 0-3-1.35-3-3.01s1.346-3.01 3-3.01 3 1.35 3 3.01-1.346 3.01-3 3.01z"/></g></g></svg>