<?xml version="1.0" encoding="utf-8"?>
<!-- Generator: Adobe Illustrator 21.0.2, SVG Export Plug-In . SVG Version: 6.00 Build 0)  -->
<svg version="1.1" id="Layer_1" xmlns="http://www.w3.org/2000/svg" xmlns:xlink="http://www.w3.org/1999/xlink" x="0px" y="0px"
	 viewBox="0 0 48 48" style="enable-background:new 0 0 48 48;" xml:space="preserve">
<style type="text/css">
	.st0{fill:#FFFFFF;}
</style>
<g id="Design">
	<g id="XMLID_25_">
		<path class="st0" d="M46.01,17.785c0.001-0.752-0.299-1.472-0.833-2.001l-1.979-1.98c-1.103-1.102-2.891-1.102-3.994,0
			l-1.213,1.213V9.4c0.001-0.265-0.104-0.519-0.292-0.706l-6.391-6.41C31.12,2.096,30.866,1.99,30.6,1.99H2.99c-0.552,0-1,0.448-1,1
			v42.02c0,0.552,0.448,1,1,1h34c0.552,0,1-0.448,1-1V26.99h-0.016l7.203-7.203C45.711,19.258,46.011,18.537,46.01,17.785z
			 M23.47,38.665l-3.147-3.154L35.87,19.964l3.151,3.151C39.021,23.115,23.47,38.665,23.47,38.665z M19.574,37.592l1.816,1.82
			l-2.183,0.363L19.574,37.592z M37.284,18.55l0.805-0.805l3.147,3.154L40.435,21.7L37.284,18.55z M35.169,8.99H30.99V4.798
			C30.99,4.798,35.169,8.99,35.169,8.99z M16.798,23.827c-0.512-1.638-2.015-2.837-3.808-2.837H9.01
			c-1.823,0-3.349,1.24-3.834,2.921c-0.431-0.357-0.828-0.753-1.186-1.182V11.255c1.713-2.072,4.262-3.269,6.95-3.265
			c4.995,0,9.06,4.038,9.06,9C20,19.64,18.797,22.132,16.798,23.827z M14.998,25.015c-1.258,0.639-2.648,0.973-4.058,0.976
			C9.573,25.99,8.225,25.674,7,25.067V25.03c0-1.125,0.901-2.04,2.01-2.04h3.98C14.094,22.99,14.99,23.897,14.998,25.015z
			 M35.99,44.01h-32V25.52c0.477,0.385,0.978,0.738,1.516,1.04c1.657,0.94,3.53,1.433,5.435,1.431c1.974,0,3.898-0.518,5.561-1.495
			C19.893,24.533,22,20.891,22,16.99c0-6.065-4.961-11-11.06-11c-2.573,0-5.004,0.873-6.95,2.45V3.99h25v6c0,0.552,0.448,1,1,1h6v6
			h0.025L18.203,34.803l0.005,0.005c-0.149,0.145-0.248,0.333-0.284,0.537l-0.78,4.646H6v2h11.99c0.055,0,0.11-0.004,0.164-0.014
			l5.479-0.91c0.205-0.036,0.393-0.135,0.538-0.284l0.005,0.005L35.99,28.974V44.01z M43.763,18.373l-1.113,1.113l-3.147-3.154
			l1.114-1.114c0.322-0.321,0.844-0.321,1.166,0l1.979,1.981c0.324,0.319,0.329,0.841,0.01,1.165
			C43.769,18.367,43.766,18.37,43.763,18.373z"/>
		<path class="st0" d="M25,12.99h8v2h-8V12.99z M25,18.99h4v2h-4V18.99z M11,9.99c-2.757,0-5,2.248-5,5.01s2.243,5.01,5,5.01
			s5-2.248,5-5.01S13.757,9.99,11,9.99z M11,18.01c-1.654,0-3-1.35-3-3.01s1.346-3.01,3-3.01s3,1.35,3,3.01S12.654,18.01,11,18.01z"
			/>
	</g>
</g>
</svg>
