<svg width="45" height="46" viewBox="0 0 45 46" xmlns="http://www.w3.org/2000/svg"><title>Pre-reg</title><g fill="none" fill-rule="evenodd"><path d="M20 15.99c0 3.69-2.01 6.91-5 8.64v-.6c0-1.68-1.35-3.04-3.01-3.04H8.01C6.35 20.99 5 22.35 5 24.03v.66a10.04 10.04 0 0 1-3-2.58h-.01V9.87H2c1.84-2.36 4.71-3.88 7.94-3.88 5.56 0 10.06 4.48 10.06 10zM14 14a4.001 4.001 0 1 0-8 0c0 2.21 1.79 4.01 4 4.01s4-1.8 4-4.01z" fill="#F9B6B3"/><path d="M45.01 16.785a2.81 2.81 0 0 0-.833-2.001l-1.979-1.98a2.826 2.826 0 0 0-3.994 0l-1.213 1.213V8.4a.994.994 0 0 0-.292-.706l-6.391-6.41A1.002 1.002 0 0 0 29.6.99H1.99a1 1 0 0 0-1 1v42.02a1 1 0 0 0 1 1h34a1 1 0 0 0 1-1V25.99h-.016l7.203-7.203a2.81 2.81 0 0 0 .833-2.002zm-22.54 20.88l-3.147-3.154L34.87 18.964l3.151 3.151-15.551 15.55zm-3.896-1.073l1.816 1.82-2.183.363.367-2.183zm17.71-19.042l.805-.805 3.147 3.154-.801.801-3.151-3.15zm-2.115-9.56H29.99V3.798l4.179 4.192zM15.798 22.827c-.512-1.638-2.015-2.837-3.808-2.837H8.01c-1.823 0-3.349 1.24-3.834 2.921a9.133 9.133 0 0 1-1.186-1.182V10.255A8.998 8.998 0 0 1 9.94 6.99c4.995 0 9.06 4.038 9.06 9 0 2.65-1.203 5.142-3.202 6.837zm-1.8 1.188a9 9 0 0 1-4.058.976A8.878 8.878 0 0 1 6 24.067v-.037c0-1.125.901-2.04 2.01-2.04h3.98c1.104 0 2 .907 2.008 2.025zM34.99 43.01h-32V24.52c.477.385.978.738 1.516 1.04a11 11 0 0 0 5.435 1.431c1.974 0 3.898-.518 5.561-1.495C18.893 23.533 21 19.891 21 15.99c0-6.065-4.961-11-11.06-11-2.573 0-5.004.873-6.95 2.45V2.99h25v6a1 1 0 0 0 1 1h6v6h.025L17.203 33.803l.005.005a.99.99 0 0 0-.284.537l-.78 4.646H5v2h11.99a.9.9 0 0 0 .164-.014l5.479-.91a.994.994 0 0 0 .538-.284l.005.005L34.99 27.974V43.01zm7.773-25.637l-1.113 1.113-3.147-3.154 1.114-1.114a.826.826 0 0 1 1.166 0l1.979 1.981a.824.824 0 0 1 .001 1.174z" fill="#EF4742"/><path d="M24 11.99h8v2h-8v-2zm0 6h4v2h-4v-2zm-14-9c-2.757 0-5 2.248-5 5.01 0 2.762 2.243 5.01 5 5.01s5-2.248 5-5.01c0-2.762-2.243-5.01-5-5.01zm0 8.02c-1.654 0-3-1.35-3-3.01 0-1.66 1.346-3.01 3-3.01s3 1.35 3 3.01c0 1.66-1.346 3.01-3 3.01z" fill="#EF4742"/></g></svg>