<svg id="Layer_1" xmlns="http://www.w3.org/2000/svg" viewBox="0 0 48 48"><style>.st0{fill:none}.st1{fill:#fff}</style><path id="Boundary" class="st0" d="M0 0h48v48H0V0z"/><g id="Design"><g id="XMLID_33_"><path class="st1" d="M45 41V27.8c1.2-.4 2-1.5 2-2.8 0-1.7-1.3-3-3-3s-3 1.3-3 3c0 1.3.8 2.4 2 2.8V41h-4V5c0-.6-.4-1-1-1H10c-.6 0-1 .4-1 1v36H5V27.8c1.2-.4 2-1.5 2-2.8 0-1.7-1.3-3-3-3s-3 1.3-3 3c0 1.3.8 2.4 2 2.8V41H0v2h48v-2h-3zm-1-17c.6 0 1 .5 1 1s-.4.9-1 1c-.6 0-1-.4-1-1s.4-1 1-1zM4 24c.6 0 1 .5 1 1s-.4.9-1 1c-.6 0-1-.4-1-1s.4-1 1-1zM37 6v2H11V6h26zM11 39h8v2h-8v-2zm16 2h-6v-7c0-1.7 1.4-3 3-3 .8 0 1.5.3 2.1.9.6.6.9 1.3.9 2.1v7zm.5-10.5c-.9-1-2.2-1.5-3.5-1.5-2.8 0-5 2.2-5 5v3h-8V10h26v27h-8v-3c0-1.3-.5-2.6-1.5-3.5zM29 41v-2h8v2h-8z"/><path class="st1" d="M18 12h-4c-.6 0-1 .4-1 1v4c0 .6.4 1 1 1h4c.6 0 1-.4 1-1v-4c0-.6-.4-1-1-1zm-1 4h-2v-2h2v2zm9-4h-4c-.6 0-1 .4-1 1v4c0 .6.4 1 1 1h4c.6 0 1-.4 1-1v-4c0-.6-.4-1-1-1zm-1 4h-2v-2h2v2zm5 2h4c.6 0 1-.4 1-1v-4c0-.6-.4-1-1-1h-4c-.6 0-1 .4-1 1v4c0 .6.4 1 1 1zm1-4h2v2h-2v-2zm-13 6h-4c-.6 0-1 .4-1 1v4c0 .6.4 1 1 1h4c.6 0 1-.4 1-1v-4c0-.6-.4-1-1-1zm-1 4h-2v-2h2v2zm9-4h-4c-.6 0-1 .4-1 1v4c0 .6.4 1 1 1h4c.6 0 1-.4 1-1v-4c0-.6-.4-1-1-1zm-1 4h-2v-2h2v2zm5 2h4c.6 0 1-.4 1-1v-4c0-.6-.4-1-1-1h-4c-.6 0-1 .4-1 1v4c0 .6.4 1 1 1zm1-4h2v2h-2v-2z"/></g></g></svg>