<svg xmlns="http://www.w3.org/2000/svg" viewBox="0 0 48 48"><style>.st0{fill:none}.st1{fill:#fac8c6}.st2{fill:#ef4742}</style><path class="st0" d="M0 0h48v48H0z" id="Boundary"/><g id="Design"><path class="st1" d="M11 19.01c2.21 0 4-1.8 4-4.01a4.001 4.001 0 1 0-8 0c0 2.21 1.79 4.01 4 4.01zm1.99 2.98H9.01C7.35 21.99 6 23.35 6 25.03v.66a10.04 10.04 0 0 1-3-2.58h-.01V10.87H3c1.84-2.36 4.71-3.88 7.94-3.88 5.56 0 10.06 4.48 10.06 10 0 3.69-2.01 6.91-5 8.64v-.6c0-1.68-1.35-3.04-3.01-3.04z"/><path class="st2" d="M45.177 15.783l-1.98-1.98a2.826 2.826 0 0 0-3.994 0l-1.213 1.213V9.4a.998.998 0 0 0-.292-.706l-6.39-6.41a.999.999 0 0 0-.708-.294H2.99a1 1 0 0 0-1 1v42.02a1 1 0 0 0 1 1h34a1 1 0 0 0 1-1V26.99h-.016l7.203-7.203a2.834 2.834 0 0 0 0-4.004zM23.471 38.665l-3.148-3.155L35.87 19.964l3.151 3.151-15.55 15.55zm-3.896-1.073l1.816 1.82-2.182.362.366-2.182zM37.284 18.55l.805-.805 3.148 3.154-.801.801-3.152-3.15zM35.17 8.99h-4.18V4.798l4.18 4.192zM16.798 23.827c-.512-1.638-2.015-2.837-3.808-2.837H9.01c-1.823 0-3.349 1.24-3.834 2.921a9.07 9.07 0 0 1-1.186-1.182V11.255a8.998 8.998 0 0 1 6.95-3.265c4.996 0 9.06 4.037 9.06 9 0 2.65-1.203 5.143-3.202 6.837zm-1.8 1.188a9 9 0 0 1-4.059.976 8.897 8.897 0 0 1-3.94-.923v-.038c0-1.125.901-2.04 2.01-2.04h3.98c1.104 0 2.001.907 2.009 2.025zM35.99 44.01h-32V25.52c.477.385.978.738 1.516 1.04a11.005 11.005 0 0 0 5.434 1.431c1.975 0 3.9-.519 5.561-1.495 3.392-1.962 5.5-5.604 5.5-9.505 0-6.065-4.961-11-11.06-11-2.573 0-5.004.873-6.95 2.45V3.99h25v6a1 1 0 0 0 1 1h6v6h.025L18.203 34.803l.005.005a.995.995 0 0 0-.284.536l-.78 4.646H6v2h11.99c.054 0 .109-.005.164-.014l5.48-.91a1 1 0 0 0 .538-.284l.005.005L35.99 28.974V44.01zm7.773-25.637l-1.112 1.112-3.148-3.154 1.114-1.114a.828.828 0 0 1 1.166 0l1.98 1.98c.33.33.33.846 0 1.176z"/><path class="st2" d="M25 12.99h8v2h-8zM25 18.99h4v2h-4zM11 9.99c-2.757 0-5 2.247-5 5.01s2.243 5.01 5 5.01 5-2.247 5-5.01-2.243-5.01-5-5.01zm0 8.02c-1.654 0-3-1.351-3-3.01s1.346-3.01 3-3.01 3 1.351 3 3.01-1.346 3.01-3 3.01z"/></g></svg>