<svg width="48" height="48" viewBox="0 0 48 48" xmlns="http://www.w3.org/2000/svg"><title>Check icon</title><g stroke="#282C36" stroke-width="2" fill="none" fill-rule="evenodd"><path d="M47.008 24.004c0 12.705-10.3 23.004-23.004 23.004C11.299 47.008 1 36.708 1 24.004 1 11.299 11.299 1 24.004 1c12.705 0 23.004 10.299 23.004 23.004z" stroke-linejoin="round"/><path d="M47.008 24.004c0 12.705-10.3 23.004-23.004 23.004C11.299 47.008 1 36.708 1 24.004 1 11.299 11.299 1 24.004 1c12.705 0 23.004 10.299 23.004 23.004z" stroke-linejoin="round"/><path d="M16.035 27.242l4.58 3.723 11.381-13.957"/></g></svg>