<svg width="48" height="43" viewBox="0 0 48 43" xmlns="http://www.w3.org/2000/svg" xmlns:xlink="http://www.w3.org/1999/xlink"><title>Icon</title><defs><path id="a" d="M48 21.505V.01H0V43h48z"/></defs><g fill="none" fill-rule="evenodd"><g transform="translate(0 -.01)"><mask id="b" fill="#fff"><use xlink:href="#a"/></mask><path d="M46 37.01H2v-18h6v3H6v2h36v-2h-2v-3h6v18zM2 41h44v-1.99H2V41zm8-38.99h28v20h-7v-11h-2v11h-3.99v-16h-2v16H19v-16h-2v16h-7v-20zm37 15h-7v-16a1 1 0 0 0-1-1H9a1 1 0 0 0-1 1v16H1a1 1 0 0 0-1 1V42a1 1 0 0 0 1 1h46a1 1 0 0 0 1-1V18.01a1 1 0 0 0-1-1z" fill="#FFF" mask="url(#b)"/></g><path d="M40 30.5c0 .83.67 1.5 1.5 1.5s1.5-.67 1.5-1.5-.67-1.5-1.5-1.5-1.5.67-1.5 1.5" fill="#FFF"/></g></svg>