<?xml version="1.0" encoding="utf-8"?>
<!-- Generator: Adobe Illustrator 19.2.1, SVG Export Plug-In . SVG Version: 6.00 Build 0)  -->
<svg version="1.1" xmlns="http://www.w3.org/2000/svg" xmlns:xlink="http://www.w3.org/1999/xlink" x="0px" y="0px"
	 viewBox="0 0 48 48" style="enable-background:new 0 0 48 48;" xml:space="preserve">
<style type="text/css">
	.st0{fill:none;}
	.st1{fill:#FAC8C6;}
	.st2{fill:#EF4742;}
</style>
<g id="Boundary">
	<rect class="st0" width="48" height="48"/>
</g>
<g id="Design">
	<g>
		<rect x="1" y="41" class="st1" width="46" height="3.99"/>
		<g>
			<path class="st2" d="M47,20h-7V4c0-0.552-0.448-1-1-1H9C8.448,3,8,3.448,8,4v16H1c-0.552,0-1,0.448-1,1v23.99
				c0,0.552,0.448,1,1,1h46c0.552,0,1-0.448,1-1V21C48,20.448,47.552,20,47,20z M10,5h28v20h-7V14h-2v11h-3.99V9h-2v16H19V9h-2v16
				h-7V5z M46,43.99H2V42h44V43.99z M46,40H2V22h6v3H6v2h36v-2h-2v-3h6V40z"/>
			<circle class="st2" cx="41.5" cy="33.5" r="1.5"/>
		</g>
	</g>
</g>
</svg>
