<svg xmlns="http://www.w3.org/2000/svg" viewBox="0 0 48 48"><style>.st0{fill:none}.st1{fill:#fac8c6}.st2{fill:#ef4742}</style><path class="st0" d="M0 0h48v48H0z" id="Boundary"/><path class="st2" d="M27.983 46.005c-3.088 0-5.697-2.664-5.697-5.816 0-.916.221-1.801.631-2.591H10.909a1 1 0 0 1-1-1v-8.96c-1.029.469-2.202.71-3.152.71C3.583 28.348 1 25.787 1 22.64c0-2.527 1.708-4.783 4.155-5.484a5.767 5.767 0 0 1 1.602-.225c.951 0 2.123.241 3.152.71V4a1 1 0 0 1 1-1H25.19a1 1 0 0 1 .578 1.816c-1.011.716-1.568 1.752-1.568 2.915 0 2.045 1.686 3.708 3.757 3.708s3.756-1.663 3.756-3.708c0-1.162-.558-2.197-1.571-2.915A1 1 0 1 1 30.72 3h14.248a1 1 0 0 1 1 1v15.52c0 .415-.256.786-.643.935a1.005 1.005 0 0 1-1.103-.268 3.77 3.77 0 0 0-2.809-1.256c-1.297 0-2.62.658-3.292 1.639a3.663 3.663 0 0 0-.638 2.07c0 1.907 1.649 3.566 3.676 3.698a3.77 3.77 0 0 0 3.062-1.246 1.001 1.001 0 0 1 1.746.667v10.839a1 1 0 0 1-1 1h-11.92a5.6 5.6 0 0 1 .633 2.591c.001 3.152-2.609 5.816-5.697 5.816zM11.909 35.598h13.086a1 1 0 0 1 .633 1.774 3.626 3.626 0 0 0-1.342 2.816c0 2.068 1.693 3.816 3.697 3.816s3.698-1.748 3.698-3.816c0-1.092-.49-2.118-1.345-2.816a1 1 0 0 1 .633-1.774h13v-7.847a5.67 5.67 0 0 1-2.956.582c-3.041-.199-5.528-2.754-5.528-5.693a5.65 5.65 0 0 1 .986-3.197l.001-.001c1.044-1.525 2.984-2.511 4.943-2.511.895 0 1.769.209 2.555.597V5H32.986c.477.816.727 1.743.727 2.731 0 3.147-2.583 5.708-5.756 5.708-3.174 0-5.757-2.561-5.757-5.708 0-.989.25-1.915.726-2.731H11.909v14.531a1 1 0 0 1-1.748.665c-.621-.698-2.148-1.266-3.405-1.266-.359 0-.712.049-1.048.146C4.113 19.534 3 20.999 3 22.64c0 2.045 1.685 3.708 3.756 3.708 1.257 0 2.785-.567 3.405-1.265a1 1 0 0 1 1.748.664v9.851z" id="Design"/></svg>