<?xml version="1.0" encoding="utf-8"?>
<!-- Generator: Adobe Illustrator 19.2.1, SVG Export Plug-In . SVG Version: 6.00 Build 0)  -->
<svg version="1.1" xmlns="http://www.w3.org/2000/svg" xmlns:xlink="http://www.w3.org/1999/xlink" x="0px" y="0px"
	 viewBox="0 0 48 48" style="enable-background:new 0 0 48 48;" xml:space="preserve">
<style type="text/css">
	.st0{fill:none;}
	.st1{fill:#FAC8C6;}
	.st2{fill:#EF4742;}
</style>
<g id="Boundary">
	<rect class="st0" width="48" height="48"/>
</g>
<g id="Design">
	<g>
		<g>
			<path class="st1" d="M0.99,24C0.99,11.3,11.29,1,24,1c12.7,0,23,10.3,23,23c0,12.71-10.3,23.01-23,23.01
				C11.29,47.01,0.99,36.71,0.99,24z M43,24c0-10.49-8.51-19-19-19C13.5,5,4.99,13.51,4.99,24c0,10.5,8.51,19.01,19.01,19.01
				C34.49,43.01,43,34.5,43,24z"/>
		</g>
		<g>
			<circle class="st2" cx="24" cy="32" r="2"/>
			<path class="st2" d="M24.67,14c-2.53,0-4.44,1.39-5.3,3.84c-0.08,0.22,0.04,0.47,0.26,0.56l1.15,0.48
				c0.23,0.1,0.5-0.03,0.59-0.27c0.65-1.64,1.81-2.46,3.24-2.46c1.63,0,2.97,1.24,2.97,3.06c0,1.49-0.85,2.31-2.37,3.73
				c-1.3,1.15-2.42,2.21-2.42,3.73c0,0.48,0.12,0.97,0.3,1.33h2.03c-0.06-0.27-0.15-0.6-0.15-0.97c0-1.09,0.82-1.85,2.15-3.06
				c1.7-1.51,2.88-2.88,2.88-4.91C30,16.09,27.61,14,24.67,14z"/>
			<path class="st2" d="M24,0C10.761,0-0.01,10.766-0.01,24c0,13.239,10.771,24.01,24.01,24.01c13.234,0,24-10.771,24-24.01
				C48,10.766,37.234,0,24,0z M24,46.01C11.864,46.01,1.99,36.136,1.99,24C1.99,11.869,11.864,2,24,2c12.131,0,22,9.869,22,22
				C46,36.136,36.131,46.01,24,46.01z"/>
			<path class="st2" d="M24,4C12.967,4,3.99,12.972,3.99,24c0,11.033,8.977,20.01,20.01,20.01c11.028,0,20-8.977,20-20.01
				C44,12.972,35.028,4,24,4z M24,42.01c-9.931,0-18.01-8.079-18.01-18.01c0-9.925,8.079-18,18.01-18c9.925,0,18,8.075,18,18
				C42,33.931,33.925,42.01,24,42.01z"/>
		</g>
	</g>
</g>
</svg>
