<svg width="45" height="40" viewBox="0 0 45 40" xmlns="http://www.w3.org/2000/svg"><title>Redo</title><path d="M39.347 6.04C35.63 2.144 30.623 0 25.249 0 15.532 0 7.22 7.271 5.915 16.915a16.65 16.65 0 0 0-.131 2.378l-4.555-3.444L0 17.474l6.391 4.833a1.013 1.013 0 0 0 1.271-.035l5.978-5.046-1.313-1.557-4.494 3.795c-.015-.834.018-1.585.111-2.275C9.112 8.557 16.551 2.047 25.249 2.047c4.809 0 9.29 1.92 12.617 5.406 3.341 3.501 5.055 8.105 4.828 12.963-.423 8.995-8.074 16.474-17.056 16.669-5.897.149-11.459-2.724-14.809-7.63a17.554 17.554 0 0 1-.461-.709l-1.743 1.072c.165.268.336.532.513.791 3.66 5.362 9.658 8.528 16.115 8.528.143 0 .286-.002.43-.005 10.206-.223 18.576-8.402 19.056-18.62.254-5.422-1.661-10.562-5.392-14.472" fill="#F04742" fill-rule="evenodd"/></svg>