<?xml version="1.0" encoding="utf-8"?>
<!-- Generator: Adobe Illustrator 19.2.1, SVG Export Plug-In . SVG Version: 6.00 Build 0)  -->
<svg version="1.1" xmlns="http://www.w3.org/2000/svg" xmlns:xlink="http://www.w3.org/1999/xlink" x="0px" y="0px"
	 viewBox="0 0 48 48" style="enable-background:new 0 0 48 48;" xml:space="preserve">
<style type="text/css">
	.st0{fill:none;}
	.st1{fill:#FAC8C6;}
	.st2{fill:#EF4742;}
</style>
<g id="Boundary">
	<rect class="st0" width="48" height="48"/>
</g>
<g id="Design">
	<g>
		<g>
			<polygon class="st1" points="29,13.33 26.56,16.67 29,20 24.89,19.56 23.22,23.34 21.56,19.56 17.45,20 19.89,16.67 17.45,13.33 
				21.56,13.78 23.22,10 24.89,13.78 			"/>
		</g>
		<g>
			<path class="st2" d="M40.348,18.628l-1.182-2.542c-0.43-0.918-0.577-1.931-0.427-2.933l0.4-2.77
				c0.057-0.391-0.121-0.777-0.454-0.988l-2.437-1.544c-0.844-0.525-1.511-1.284-1.932-2.191l-1.19-2.57
				c-0.163-0.354-0.518-0.58-0.907-0.58h-2.93c-0.988,0-1.947-0.278-2.776-0.806l-2.461-1.55c-0.327-0.207-0.741-0.204-1.066,0
				l-2.464,1.552C19.697,2.231,18.741,2.51,17.76,2.51h-2.93c-0.389,0-0.742,0.225-0.906,0.577L12.723,5.66
				c-0.42,0.906-1.086,1.665-1.926,2.194l-2.44,1.54C8.021,9.605,7.843,9.995,7.9,10.387l0.409,2.765
				c0.144,1.001-0.005,2.019-0.425,2.934l-1.19,2.54c-0.169,0.361-0.108,0.788,0.155,1.087l1.879,2.127
				c0.671,0.766,1.101,1.693,1.242,2.687l0.41,2.78c0.058,0.389,0.337,0.708,0.715,0.816l2.797,0.799
				c0.137,0.039,0.265,0.094,0.396,0.144L8.534,42.168c-0.141,0.321-0.103,0.693,0.1,0.98c0.203,0.287,0.546,0.446,0.892,0.419
				l5.679-0.431l3.53,4.482C18.925,47.861,19.216,48,19.52,48c0.042,0,0.084-0.003,0.126-0.008c0.349-0.045,0.648-0.269,0.789-0.59
				l2.564-5.833l2.567,5.833c0.141,0.321,0.44,0.545,0.789,0.59C26.396,47.997,26.438,48,26.48,48c0.304,0,0.595-0.139,0.785-0.381
				l3.53-4.482l5.679,0.431c0.348,0.028,0.688-0.132,0.892-0.419c0.202-0.286,0.24-0.658,0.1-0.98l-5.55-12.641
				c-0.007-0.016-0.021-0.025-0.028-0.04c0.393-0.241,0.817-0.434,1.266-0.565l2.8-0.8c0.379-0.108,0.659-0.43,0.716-0.819
				l0.399-2.773c0.152-1.01,0.584-1.938,1.252-2.689l1.87-2.13C40.453,19.412,40.515,18.987,40.348,18.628z M19.274,45.072
				l-2.829-3.592c-0.206-0.262-0.529-0.405-0.86-0.378l-4.55,0.345l4.964-11.3c0.115,0.11,0.235,0.213,0.342,0.335l1.9,2.149
				c0.192,0.218,0.467,0.338,0.749,0.338c0.071,0,0.141-0.014,0.211-0.029l2.704,6.145L19.274,45.072z M34.965,41.447l-4.55-0.345
				c-0.332-0.028-0.654,0.116-0.86,0.378l-2.829,3.592l-2.791-6.341c-0.004-0.011-0.01-0.021-0.014-0.032l-2.777-6.309l0.949-0.27
				c0.938-0.276,1.929-0.277,2.871,0.002l2.81,0.81c0.092,0.026,0.185,0.039,0.277,0.039c0.281,0,0.555-0.119,0.747-0.336l1.12-1.26
				c0.001-0.001,0.001-0.001,0.001-0.002c0.001-0.001,0.003-0.002,0.004-0.003l0.411-0.469L34.965,41.447z M36.823,20.515
				c-0.923,1.038-1.521,2.322-1.733,3.723l-0.308,2.14L32.6,27c-1.326,0.388-2.502,1.135-3.401,2.161l-0.78,0.89
				c0,0-0.001,0.001-0.001,0.002l-0.696,0.782l-2.198-0.633c-1.305-0.385-2.688-0.384-3.986-0.003l-2.04,0.58
				c-0.015,0.004-0.026,0.016-0.04,0.021l-0.132,0.038l-1.48-1.675c-0.493-0.564-1.063-1.039-1.674-1.4
				c-0.525-0.328-1.104-0.584-1.725-0.764l-2.179-0.622l-0.315-2.138c-0.196-1.374-0.79-2.659-1.72-3.721L8.783,18.88l0.916-1.953
				c0.584-1.272,0.788-2.676,0.59-4.063l-0.314-2.125l1.889-1.192c1.167-0.735,2.092-1.788,2.673-3.043l0.931-1.993h2.293
				c1.363,0,2.689-0.386,3.833-1.114l1.927-1.214l1.924,1.212c1.147,0.73,2.478,1.116,3.847,1.116h2.291l0.922,1.99
				c0.584,1.262,1.514,2.316,2.682,3.045l1.884,1.193l-0.308,2.122c-0.209,1.388-0.004,2.796,0.592,4.071l0.906,1.948L36.823,20.515
				z"/>
			<path class="st2" d="M29.865,12.829c-0.198-0.343-0.588-0.537-0.974-0.493l-3.383,0.37l-1.374-3.11
				C23.975,9.233,23.615,9,23.22,9h-0.001c-0.396,0-0.755,0.235-0.915,0.598l-1.364,3.108l-3.38-0.37
				c-0.396-0.038-0.776,0.151-0.975,0.493c-0.199,0.343-0.176,0.771,0.058,1.091l2.008,2.749l-2.007,2.74
				c-0.234,0.319-0.258,0.747-0.06,1.09c0.197,0.344,0.581,0.535,0.973,0.495l3.382-0.362l1.365,3.11
				c0.16,0.362,0.519,0.598,0.915,0.598h0.001c0.396,0,0.755-0.233,0.915-0.596l1.374-3.112l3.385,0.362
				c0.398,0.041,0.775-0.151,0.973-0.495c0.198-0.343,0.175-0.771-0.06-1.09l-2.008-2.74l2.009-2.749
				C30.041,13.601,30.064,13.172,29.865,12.829z M25.753,17.261l1.102,1.504l-1.858-0.199c-0.438-0.047-0.846,0.192-1.021,0.59
				l-0.752,1.704l-0.747-1.702c-0.161-0.366-0.522-0.598-0.916-0.598c-0.035,0-0.07,0.002-0.106,0.006l-1.858,0.199l1.102-1.504
				c0.258-0.352,0.258-0.829,0.001-1.181l-1.103-1.509l1.855,0.203c0.44,0.046,0.85-0.192,1.025-0.592l0.747-1.702l0.752,1.704
				c0.176,0.398,0.598,0.637,1.023,0.59l1.856-0.203l-1.103,1.509C25.495,16.432,25.495,16.909,25.753,17.261z"/>
		</g>
	</g>
</g>
</svg>
