<svg xmlns="http://www.w3.org/2000/svg" viewBox="0 0 48 48"><style>.st0{fill:none}.st1{fill:#fac8c6}.st2{fill:#ef4742}</style><path class="st0" d="M0 0h48v48H0z" id="Boundary"/><g id="Design"><path class="st1" d="M29 13.33l-2.44 3.34L29 20l-4.11-.44-1.67 3.78-1.66-3.78-4.11.44 2.44-3.33-2.44-3.34 4.11.45L23.22 10l1.67 3.78z"/><path class="st2" d="M40.348 18.628l-1.182-2.542a5.107 5.107 0 0 1-.427-2.933l.4-2.77a.998.998 0 0 0-.454-.988l-2.437-1.544a5.098 5.098 0 0 1-1.932-2.191l-1.19-2.57a.999.999 0 0 0-.907-.58h-2.93a5.155 5.155 0 0 1-2.776-.806L24.052.154a.999.999 0 0 0-1.066 0l-2.464 1.552a5.14 5.14 0 0 1-2.762.804h-2.93a.999.999 0 0 0-.906.577L12.723 5.66a5.14 5.14 0 0 1-1.926 2.194l-2.44 1.54a1.002 1.002 0 0 0-.457.993l.409 2.765a5.242 5.242 0 0 1-.425 2.934l-1.19 2.54c-.169.361-.108.788.155 1.087l1.879 2.127a5.172 5.172 0 0 1 1.242 2.687l.41 2.78c.058.389.337.708.715.816l2.797.799c.137.039.265.094.396.144L8.534 42.168a1 1 0 0 0 .992 1.399l5.679-.431 3.53 4.482a.997.997 0 0 0 1.7-.216l2.564-5.833 2.567 5.833a1.001 1.001 0 0 0 .914.598.999.999 0 0 0 .785-.381l3.53-4.482 5.679.431a1 1 0 0 0 .992-1.399l-5.55-12.641c-.007-.016-.021-.025-.028-.04a5.22 5.22 0 0 1 1.266-.565l2.8-.8c.379-.108.659-.43.716-.819l.399-2.773a5.19 5.19 0 0 1 1.252-2.689l1.87-2.13c.262-.3.324-.725.157-1.084zM19.274 45.072l-2.829-3.592a.993.993 0 0 0-.86-.378l-4.55.345 4.964-11.3c.115.11.235.213.342.335l1.9 2.149a.999.999 0 0 0 .749.338c.071 0 .141-.014.211-.029l2.704 6.145-2.631 5.987zm15.691-3.625l-4.55-.345a.99.99 0 0 0-.86.378l-2.829 3.592-2.791-6.341-.014-.032-2.777-6.309.949-.27a5.055 5.055 0 0 1 2.871.002l2.81.81a.998.998 0 0 0 1.024-.297l1.12-1.26.001-.002.004-.003.411-.469 4.631 10.546zm1.858-20.932a7.196 7.196 0 0 0-1.733 3.723l-.308 2.14L32.6 27a7.196 7.196 0 0 0-3.401 2.161l-.78.89-.001.002-.696.782-2.198-.633a7.058 7.058 0 0 0-3.986-.003l-2.04.58c-.015.004-.026.016-.04.021l-.132.038-1.48-1.675a6.902 6.902 0 0 0-1.674-1.4 6.843 6.843 0 0 0-1.725-.764l-2.179-.622-.315-2.138a7.176 7.176 0 0 0-1.72-3.721l-1.45-1.638.916-1.953a7.257 7.257 0 0 0 .59-4.063l-.314-2.125 1.889-1.192a7.127 7.127 0 0 0 2.673-3.043l.931-1.993h2.293a7.129 7.129 0 0 0 3.833-1.114l1.927-1.214 1.924 1.212a7.153 7.153 0 0 0 3.847 1.116h2.291l.922 1.99a7.09 7.09 0 0 0 2.682 3.045l1.884 1.193-.308 2.122a7.092 7.092 0 0 0 .592 4.071l.906 1.948-1.438 1.635z"/><path class="st2" d="M29.865 12.829a1.004 1.004 0 0 0-.974-.493l-3.383.37-1.374-3.11A.998.998 0 0 0 23.22 9h-.001c-.396 0-.755.235-.915.598l-1.364 3.108-3.38-.37a.999.999 0 1 0-.917 1.584l2.008 2.749-2.007 2.74a1 1 0 0 0 .913 1.585l3.382-.362 1.365 3.11c.16.362.519.598.915.598h.001a1 1 0 0 0 .915-.596l1.374-3.112 3.385.362a.997.997 0 0 0 .973-.495.997.997 0 0 0-.06-1.09l-2.008-2.74 2.009-2.749a1 1 0 0 0 .057-1.091zm-4.112 4.432l1.102 1.504-1.858-.199a.994.994 0 0 0-1.021.59l-.752 1.704-.747-1.702a1 1 0 0 0-1.022-.592l-1.858.199 1.102-1.504a1 1 0 0 0 .001-1.181l-1.103-1.509 1.855.203a.998.998 0 0 0 1.025-.592l.747-1.702.752 1.704c.176.398.598.637 1.023.59l1.856-.203-1.103 1.509a1 1 0 0 0 .001 1.181z"/></g></svg>