<?xml version="1.0" encoding="utf-8"?>
<!-- Generator: Adobe Illustrator 19.2.1, SVG Export Plug-In . SVG Version: 6.00 Build 0)  -->
<svg version="1.1" xmlns="http://www.w3.org/2000/svg" xmlns:xlink="http://www.w3.org/1999/xlink" x="0px" y="0px"
	 viewBox="0 0 48 48" style="enable-background:new 0 0 48 48;" xml:space="preserve">
<style type="text/css">
	.st0{fill:none;}
	.st1{fill:#FAC8C6;}
	.st2{fill:#EF4742;}
</style>
<g id="Boundary">
	<rect class="st0" width="48" height="48"/>
</g>
<g id="Design">
	<g>
		<g>
			<path class="st1" d="M43.87,25c0.73,3.74-1.78,7.62-5.74,7.97C37.92,32.99,37.71,33,37.5,33c-0.22,0-0.43-0.01-0.64-0.03
				c-3.96-0.35-6.46-4.23-5.73-7.97H43.87z"/>
		</g>
		<g>
			<path class="st1" d="M16.87,25c0.73,3.74-1.78,7.62-5.74,7.97C10.92,32.99,10.71,33,10.5,33c-0.22,0-0.43-0.01-0.64-0.03
				C5.9,32.62,3.4,28.74,4.13,25H16.87z"/>
		</g>
		<path class="st2" d="M44.854,24.82c-0.108-0.59-0.274-1.137-0.508-1.671L39.029,11H43V9H24.97V5.816c1.161-0.414,2-1.514,2-2.816
			c0-1.654-1.346-3-3-3s-3,1.346-3,3c0,1.302,0.839,2.402,2,2.816V9H5v2h3.971L3.654,23.149c-0.233,0.534-0.399,1.081-0.506,1.66
			C2.721,27,3.245,29.281,4.587,31.064c1.27,1.688,3.111,2.719,5.179,2.901C10.007,33.989,10.248,34,10.5,34
			c0.241,0,0.483-0.011,0.718-0.034c2.077-0.184,3.922-1.216,5.194-2.908c1.342-1.783,1.866-4.062,1.441-6.239
			c-0.108-0.59-0.274-1.137-0.508-1.671L12.029,11H22.97v29h-5.52c-1.299,0-2.444,0.827-2.849,2.053l-1.55,4.63
			c-0.103,0.305-0.052,0.641,0.137,0.901C13.376,47.845,13.679,48,14,48h20.01c0.321,0,0.624-0.155,0.812-0.416
			c0.188-0.261,0.239-0.596,0.137-0.901l-1.548-4.625C33.006,40.827,31.86,40,30.56,40h-5.59V11h11.001l-5.317,12.149
			c-0.233,0.534-0.399,1.081-0.506,1.66c-0.428,2.192,0.097,4.472,1.438,6.256c1.27,1.688,3.111,2.719,5.179,2.901
			C37.007,33.989,37.248,34,37.5,34c0.241,0,0.483-0.011,0.718-0.034c2.077-0.184,3.922-1.216,5.194-2.908
			C44.754,29.275,45.278,26.997,44.854,24.82z M23.97,2c0.552,0,1,0.449,1,1s-0.448,1-1,1s-1-0.449-1-1S23.418,2,23.97,2z
			 M14.814,29.856c-0.928,1.233-2.268,1.985-3.779,2.119c-0.367,0.035-0.726,0.033-1.087,0c-1.502-0.133-2.838-0.883-3.763-2.112
			C5.349,28.751,4.945,27.381,5.019,26h10.963C16.055,27.373,15.651,28.744,14.814,29.856z M15.532,24H5.468
			c0.007-0.016,0.011-0.033,0.018-0.049L10.5,12.494l5.014,11.457C15.521,23.967,15.525,23.984,15.532,24z M31.512,42.688L32.62,46
			H15.39l1.109-3.317C16.634,42.274,17.017,42,17.45,42H30.56C30.994,42,31.376,42.274,31.512,42.688z M37.5,12.494l5.014,11.457
			c0.007,0.016,0.011,0.033,0.018,0.049H32.468c0.007-0.016,0.011-0.033,0.018-0.049L37.5,12.494z M41.814,29.856
			c-0.928,1.233-2.268,1.985-3.779,2.119c-0.366,0.035-0.725,0.033-1.087,0c-1.502-0.133-2.838-0.883-3.763-2.112
			c-0.836-1.111-1.24-2.481-1.167-3.862h10.963C43.055,27.373,42.651,28.744,41.814,29.856z"/>
	</g>
</g>
</svg>
