<svg xmlns="http://www.w3.org/2000/svg" viewBox="0 0 48 48"><style>.st0{fill:none}.st1{fill:#fac8c6}.st2{fill:#ef4742}</style><path class="st0" d="M0 0h48v48H0z" id="Boundary"/><g id="Design"><g id="XMLID_64_"><path class="st1" d="M23.6 23.4c-2.33-2.34-5.56-2.87-7.26-1.23l5.63-5.62c1.68-1.69 4.95-1.15 7.29 1.19l4.24 4.24 4.24 4.25-4.8.84-.85 4.81-4.24-4.24h-.01L23.6 23.4z"/><path class="st2" d="M42.656 4.341c-2.78-2.768-6.603-3.288-8.703-1.188l-18.32 18.309.003.003c-.011.01-.023.018-.033.028l1.431 1.396c1.307-1.26 3.935-.717 5.86 1.22 1.917 1.908 2.465 4.6 1.196 5.876l-9.707 9.707c-.203-1.597-1.021-3.284-2.406-4.669-1.278-1.279-2.854-2.127-4.437-2.388-.076-.013-.15-.016-.226-.026l9.703-9.703-1.414-1.414-12.33 12.33-.002.002c-2.068 2.079-1.528 5.984 1.201 8.701 1.626 1.633 3.617 2.488 5.413 2.488 1.258 0 2.42-.421 3.292-1.288l12.332-12.332.007-.008 2.334-2.334 3.533 3.533a1.001 1.001 0 0 0 1.692-.533l.728-4.119 4.11-.719a1 1 0 0 0 .536-1.692l-3.537-3.541 8.936-8.936c2.1-2.098 1.578-5.92-1.192-8.703zm-36.77 36.77c-1.917-1.908-2.465-4.598-1.198-5.874.578-.579 1.476-.805 2.527-.628 1.174.193 2.363.843 3.348 1.828 1.917 1.918 2.467 4.608 1.202 5.873-1.277 1.268-3.967.723-5.879-1.199zm21.959-13.477zm4.923-1.549a1 1 0 0 0-.812.812l-.516 2.919-2.882-2.883c-.009-.009-.021-.012-.03-.02l-4.22-4.22c-1.393-1.399-3.063-2.223-4.653-2.422l3.022-3.02.003.003c.566-.569 1.322-.689 1.856-.69h.005c1.332 0 2.83.703 4.008 1.88l7.126 7.132-2.907.509zm9.665-14.452l-8.935 8.935-3.851-3.855-.014.014c-1.29-1.174-2.813-1.919-4.321-2.11l10.056-10.05c1.265-1.268 3.958-.721 5.874 1.188 1.911 1.921 2.457 4.612 1.191 5.878z"/><path class="st2" d="M8.007 38.993c-.668-.668-.903-1.35-.902-1.73 0-.124.025-.219.067-.261l-1.404-1.424c-.431.425-.661 1.005-.663 1.678-.004 1.038.552 2.216 1.488 3.151.976.976 2.125 1.49 3.132 1.49.648 0 1.239-.214 1.687-.655l-1.404-1.424c-.175.168-1.086.09-2.001-.825z"/></g></g></svg>