<?xml version="1.0" encoding="utf-8"?>
<!-- Generator: Adobe Illustrator 19.2.1, SVG Export Plug-In . SVG Version: 6.00 Build 0)  -->
<svg version="1.1" xmlns="http://www.w3.org/2000/svg" xmlns:xlink="http://www.w3.org/1999/xlink" x="0px" y="0px"
	 viewBox="0 0 48 48" style="enable-background:new 0 0 48 48;" xml:space="preserve">
<style type="text/css">
	.st0{fill:none;}
	.st1{fill:#FAC8C6;}
	.st2{fill:#EF4742;}
</style>
<g id="Boundary">
	<rect class="st0" width="48" height="48"/>
</g>
<g id="Design">
	<g id="XMLID_64_">
		<g>
			<g>
				<path class="st1" d="M23.6,23.4c-2.33-2.34-5.56-2.87-7.26-1.23l5.63-5.62c1.68-1.69,4.95-1.15,7.29,1.19l4.24,4.24l4.24,4.25
					l-4.8,0.84l-0.85,4.81l-4.24-4.24h-0.01L23.6,23.4z"/>
			</g>
		</g>
		<g>
			<path class="st2" d="M42.656,4.341c-2.78-2.768-6.603-3.288-8.703-1.188l-18.32,18.309l0.003,0.003
				c-0.011,0.01-0.023,0.018-0.033,0.028l1.431,1.396c1.307-1.26,3.935-0.717,5.86,1.22c1.917,1.908,2.465,4.6,1.196,5.876
				l-9.707,9.707c-0.203-1.597-1.021-3.284-2.406-4.669c-1.278-1.279-2.854-2.127-4.437-2.388c-0.076-0.013-0.15-0.016-0.226-0.026
				l9.703-9.703l-1.414-1.414l-12.33,12.33c-0.001,0.001-0.001,0.001-0.002,0.002c-2.068,2.079-1.528,5.984,1.201,8.701
				c1.626,1.633,3.617,2.488,5.413,2.488c1.258,0,2.42-0.421,3.292-1.288l12.332-12.332l0,0c0.002-0.002,0.004-0.005,0.007-0.008
				l2.334-2.334l3.533,3.533c0.19,0.19,0.446,0.293,0.707,0.293c0.101,0,0.202-0.015,0.3-0.046c0.356-0.112,0.62-0.413,0.685-0.78
				l0.728-4.119l4.11-0.719c0.367-0.064,0.668-0.328,0.781-0.684c0.113-0.355,0.018-0.744-0.245-1.008l-3.537-3.541l8.936-8.936
				C45.948,10.946,45.426,7.124,42.656,4.341z M5.886,41.111c-1.917-1.908-2.465-4.598-1.198-5.874
				c0.578-0.579,1.476-0.805,2.527-0.628c1.174,0.193,2.363,0.843,3.348,1.828c1.917,1.918,2.467,4.608,1.202,5.873
				C10.488,43.578,7.798,43.033,5.886,41.111z M27.845,27.634L27.845,27.634L27.845,27.634L27.845,27.634z M32.768,26.085
				c-0.415,0.073-0.739,0.397-0.812,0.812l-0.516,2.919l-2.882-2.883c-0.009-0.009-0.021-0.012-0.03-0.02l-4.22-4.22l0,0
				c-1.393-1.399-3.063-2.223-4.653-2.422l3.022-3.02l0.003,0.003c0.566-0.569,1.322-0.689,1.856-0.69c0.001,0,0.003,0,0.005,0
				c1.332,0,2.83,0.703,4.008,1.88l7.126,7.132L32.768,26.085z M42.433,11.633l-8.935,8.935l-3.851-3.855l-0.014,0.014
				c-1.29-1.174-2.813-1.919-4.321-2.11l10.056-10.05c1.265-1.268,3.958-0.721,5.874,1.188
				C43.153,7.676,43.699,10.367,42.433,11.633z"/>
			<path class="st2" d="M8.007,38.993c-0.668-0.668-0.903-1.35-0.902-1.73c0-0.124,0.025-0.219,0.067-0.261l-1.404-1.424
				c-0.431,0.425-0.661,1.005-0.663,1.678c-0.004,1.038,0.552,2.216,1.488,3.151c0.976,0.976,2.125,1.49,3.132,1.49
				c0.648,0,1.239-0.214,1.687-0.655l-1.404-1.424C9.833,39.986,8.922,39.908,8.007,38.993z"/>
		</g>
	</g>
</g>
</svg>
