<svg xmlns="http://www.w3.org/2000/svg" viewBox="0 0 48 48"><style>.st0{fill:none}.st1{fill:#fac8c6}.st2{fill:#ef4742}</style><path class="st0" d="M0 0h48v48H0z" id="Boundary"/><g id="Design"><path class="st1" d="M3.99 3.99h25V6h-25z"/><path class="st2" d="M45.39 20.67l-6-2.59a.987.987 0 0 0-.79 0l-.61.26V9.4c0-.27-.1-.52-.29-.71l-6.39-6.4a1 1 0 0 0-.71-.3H2.99c-.55 0-1 .45-1 1v42.02c0 .55.45 1 1 1h34c.56 0 1-.45 1-1v-8.5l.44.31a.988.988 0 0 0 1.14 0l4.88-3.4A3.46 3.46 0 0 0 46 30.54v-8.95c0-.4-.24-.76-.61-.92zM39 20.09l5 2.16v1.82l-4.61-1.99a.987.987 0 0 0-.79 0L34 24.07v-1.82l5-2.16zm-3.83-11.1h-4.18v-4.2l4.18 4.2zm-31.18-5h25V6h-25V3.99zm32 40.02h-32V8h25v1.99c0 .55.45 1 1 1h6v8.22l-3.39 1.46c-.36.16-.6.52-.6.92v8.95c0 1.16.58 2.23 1.52 2.86l2.47 1.72v8.89zM44 30.54c0 .49-.25.94-.67 1.22L39 34.78l-4.35-3.03c-.41-.27-.65-.72-.65-1.21v-4.29l5-2.16 5 2.16v4.29z"/><path class="st2" d="M10 14h20v2H10zM10 26h14.99v2H10zM10 20h10.99v2H10zM10 32h6v2h-6z"/></g></svg>