<svg xmlns="http://www.w3.org/2000/svg" viewBox="0 0 48 48"><style>.st0{fill:none}.st1{fill:#fac8c6}.st2{fill:#ef4742}</style><path class="st0" d="M0 0h48v48H0z" id="Boundary"/><g id="Design"><path class="st1" d="M.99 24C.99 11.3 11.29 1 24 1c12.7 0 23 10.3 23 23 0 12.71-10.3 23.01-23 23.01C11.29 47.01.99 36.71.99 24zM43 24c0-10.49-8.51-19-19-19C13.5 5 4.99 13.51 4.99 24c0 10.5 8.51 19.01 19.01 19.01 10.49 0 19-8.51 19-19.01z"/><path class="st2" d="M24 0C10.761 0-.01 10.766-.01 24c0 13.239 10.771 24.01 24.01 24.01 13.233 0 24-10.771 24-24.01C48 10.766 37.233 0 24 0zm0 46.01C11.864 46.01 1.99 36.136 1.99 24 1.99 11.869 11.864 2 24 2c12.131 0 22 9.869 22 22 0 12.136-9.869 22.01-22 22.01z"/><path class="st2" d="M24 4C12.967 4 3.99 12.972 3.99 24c0 11.033 8.977 20.01 20.01 20.01 11.028 0 20-8.977 20-20.01 0-11.028-8.972-20-20-20zm0 38.01c-9.931 0-18.01-8.079-18.01-18.01 0-9.925 8.079-18 18.01-18 9.925 0 18 8.075 18 18 0 9.931-8.075 18.01-18 18.01z"/><path class="st2" d="M37.187 21.018l-2.359-.449-.746-1.793 1.356-1.993a1 1 0 0 0-.12-1.27l-2.83-2.83a.999.999 0 0 0-1.27-.12l-1.993 1.355-1.793-.745-.449-2.361A1 1 0 0 0 26 10h-4a.999.999 0 0 0-.982.813l-.449 2.361-1.793.745-1.993-1.355a1 1 0 0 0-1.27.12l-2.83 2.83a1 1 0 0 0-.12 1.27l1.356 1.993-.746 1.793-2.359.449A.998.998 0 0 0 10 22v4a1 1 0 0 0 .813.982l2.359.449.746 1.793-1.356 1.993a1 1 0 0 0 .12 1.27l2.83 2.83c.34.34.873.391 1.27.12l1.993-1.355 1.793.745.449 2.361A1 1 0 0 0 22 38h4c.48 0 .893-.341.982-.813l.449-2.361 1.793-.745 1.993 1.355c.397.271.93.22 1.27-.12l2.83-2.83a1 1 0 0 0 .12-1.27l-1.356-1.993.746-1.793 2.359-.449A.998.998 0 0 0 38 26v-4a1 1 0 0 0-.813-.982zM36 25.172l-2.076.395a1.002 1.002 0 0 0-.737.599l-1.16 2.79a1 1 0 0 0 .097.946l1.195 1.756-1.66 1.659-1.756-1.194a1.001 1.001 0 0 0-.946-.097l-2.79 1.16a1 1 0 0 0-.599.736L25.172 36h-2.344l-.396-2.077a.996.996 0 0 0-.599-.736l-2.79-1.16a.998.998 0 0 0-.946.097l-1.756 1.194-1.66-1.659 1.195-1.756c.189-.279.226-.635.097-.946l-1.16-2.79a1.002 1.002 0 0 0-.737-.599L12 25.172v-2.345l2.076-.395c.331-.063.607-.288.737-.599l1.16-2.79a1 1 0 0 0-.097-.946l-1.195-1.756 1.66-1.659 1.756 1.194c.28.19.637.227.946.097l2.79-1.16a1 1 0 0 0 .599-.736L22.828 12h2.344l.396 2.077a.996.996 0 0 0 .599.736l2.79 1.16a1 1 0 0 0 .946-.097l1.756-1.194 1.66 1.659-1.195 1.756a1.003 1.003 0 0 0-.097.946l1.16 2.79c.13.311.406.536.737.599l2.076.396v2.344z"/><path class="st2" d="M26.777 18.303a.997.997 0 0 0-.707-.293h-4.14a.996.996 0 0 0-.707.293l-2.92 2.92a1 1 0 0 0-.293.707v4.14c0 .265.105.52.293.707l2.92 2.92a.997.997 0 0 0 .707.293h4.141c.266 0 .52-.105.707-.293l2.92-2.92a1 1 0 0 0 .293-.707v-4.14a.997.997 0 0 0-.293-.707l-2.921-2.92zm1.213 7.353l-2.334 2.334h-3.312l-2.334-2.334v-3.312l2.334-2.334h3.312l2.334 2.334v3.312z"/></g></svg>