<?xml version="1.0" encoding="utf-8"?>
<!-- Generator: Adobe Illustrator 19.2.1, SVG Export Plug-In . SVG Version: 6.00 Build 0)  -->
<svg version="1.1" xmlns="http://www.w3.org/2000/svg" xmlns:xlink="http://www.w3.org/1999/xlink" x="0px" y="0px"
	 viewBox="0 0 48 48" style="enable-background:new 0 0 48 48;" xml:space="preserve">
<style type="text/css">
	.st0{fill:none;}
	.st1{fill:#FAC8C6;}
	.st2{fill:#EF4742;}
</style>
<g id="Boundary">
	<rect class="st0" width="48" height="48"/>
</g>
<g id="Design">
	<g>
		<path class="st1" d="M9,8.65l15-6.56l15,6.56v2.82L24.4,5.08c-0.25-0.11-0.55-0.11-0.8,0L9,11.47V8.65z"/>
		<g>
			<polygon class="st2" points="17.63,26.5 16.37,28.05 21.72,32.41 33.74,17.67 32.19,16.41 21.44,29.59 			"/>
			<path class="st2" d="M40.4,7.08l-16-7c-0.25-0.11-0.55-0.11-0.8,0l-16,7C7.24,7.24,7,7.6,7,8v4.08v20.14
				c0,2.56,1.26,4.94,3.35,6.35l13.07,9.25C23.6,47.94,23.8,48,24,48s0.4-0.06,0.58-0.18l13.06-9.24c2.1-1.42,3.36-3.8,3.36-6.36
				V12.08V8C41,7.6,40.76,7.24,40.4,7.08z M9,8.65l15-6.56l15,6.56v2.82L24.4,5.08c-0.25-0.11-0.55-0.11-0.8,0L9,11.47V8.65z
				 M39,32.22c0,1.9-0.93,3.65-2.5,4.72L24,45.78l-12.51-8.85C9.93,35.87,9,34.12,9,32.22V13.66l15-6.57l15,6.57V32.22z"/>
		</g>
	</g>
</g>
</svg>
