<svg id="Layer_1" xmlns="http://www.w3.org/2000/svg" viewBox="0 0 48 48"><style>.st0{fill:#fff}</style><g id="Design"><path class="st0" d="M17.63 26.5l-1.26 1.55 5.35 4.36 12.02-14.74-1.55-1.26-10.75 13.18z"/><path class="st0" d="M40.4 7.08l-16-7a1.01 1.01 0 0 0-.8 0l-16 7c-.36.16-.6.52-.6.92v24.22a7.65 7.65 0 0 0 3.35 6.35l13.07 9.25c.18.12.38.18.58.18s.4-.06.58-.18l13.06-9.24c2.1-1.42 3.36-3.8 3.36-6.36V8c0-.4-.24-.76-.6-.92zM9 8.65l15-6.56 15 6.56v2.82L24.4 5.08a1.01 1.01 0 0 0-.8 0L9 11.47V8.65zm30 23.57c0 1.9-.93 3.65-2.5 4.72L24 45.78l-12.51-8.85A5.672 5.672 0 0 1 9 32.22V13.66l15-6.57 15 6.57v18.56z"/></g></svg>