<?xml version="1.0" encoding="utf-8"?>
<!-- Generator: Adobe Illustrator 19.2.1, SVG Export Plug-In . SVG Version: 6.00 Build 0)  -->
<svg version="1.1" xmlns="http://www.w3.org/2000/svg" xmlns:xlink="http://www.w3.org/1999/xlink" x="0px" y="0px"
	 viewBox="0 0 48 48" style="enable-background:new 0 0 48 48;" xml:space="preserve">
<style type="text/css">
	.st0{fill:none;}
	.st1{fill:#FAC8C6;}
	.st2{fill:#EF4742;}
</style>
<g id="Boundary">
	<rect class="st0" width="48" height="48"/>
</g>
<g id="Design">
	<g>
		<g>
			<path class="st1" d="M27.05,23.87c2.78,3.97,6.12,6.12,7.95,7.13c-1.83,1.01-5.17,3.16-7.95,7.13C24.11,42.31,23.29,45.91,23,48
				c-0.29-2.09-1.11-5.69-4.05-9.87C16.17,34.16,12.83,32.01,11,31c1.83-1.01,5.17-3.16,7.95-7.13c2.94-4.18,3.76-7.78,4.05-9.87
				C23.29,16.09,24.11,19.69,27.05,23.87z"/>
		</g>
		<g>
			<path class="st2" d="M35.483,30.125c-3.02-1.666-5.653-4.027-7.615-6.83c-2.124-3.02-3.428-6.193-3.878-9.433
				C23.922,13.368,23.499,13,23,13s-0.922,0.368-0.99,0.862c-0.45,3.24-1.754,6.413-3.879,9.434
				c-1.961,2.801-4.595,5.162-7.614,6.828C10.198,30.3,10,30.636,10,31s0.198,0.7,0.517,0.875c3.02,1.666,5.653,4.027,7.615,6.83
				c2.124,3.02,3.428,6.193,3.878,9.433C22.078,48.632,22.501,49,23,49s0.922-0.368,0.99-0.862c0.45-3.24,1.754-6.413,3.879-9.434
				c1.961-2.801,4.595-5.162,7.614-6.828C35.802,31.7,36,31.364,36,31S35.802,30.3,35.483,30.125z M26.231,37.555
				c-1.412,2.009-2.493,4.088-3.231,6.214c-0.738-2.126-1.818-4.205-3.23-6.213c-1.812-2.587-4.149-4.829-6.822-6.556
				c2.673-1.727,5.01-3.969,6.821-6.555c1.412-2.009,2.493-4.088,3.231-6.214c0.738,2.126,1.818,4.205,3.23,6.213
				c1.812,2.587,4.149,4.829,6.822,6.556C30.38,32.727,28.043,34.969,26.231,37.555z"/>
			<path class="st2" d="M47.48,19.373c-0.418-0.229-1.295-0.861-2.469-2.524c-0.729-1.049-1.224-2.426-1.431-3.981
				c-0.065-0.495-0.486-0.865-0.985-0.868c-0.002,0-0.004,0-0.006,0c-0.497,0-0.919,0.365-0.989,0.857
				c-0.233,1.606-0.718,2.95-1.437,3.986c-1.128,1.594-2.225,2.3-2.645,2.53C37.199,19.548,37,19.885,37,20.25
				s0.199,0.702,0.52,0.877c0.526,0.288,1.568,0.999,2.641,2.525c0.782,1.121,1.267,2.295,1.44,3.491
				C41.671,27.635,42.093,28,42.59,28c0.002,0,0.004,0,0.006,0c0.499-0.003,0.92-0.374,0.985-0.868
				c0.156-1.175,0.637-2.346,1.428-3.477c1.166-1.66,2.049-2.296,2.472-2.528c0.32-0.175,0.52-0.512,0.52-0.877
				S47.801,19.548,47.48,19.373z M43.371,22.507c-0.298,0.426-0.56,0.858-0.786,1.295c-0.228-0.44-0.489-0.873-0.786-1.298
				c-0.713-1.014-1.433-1.743-2.051-2.256c0.615-0.513,1.335-1.242,2.054-2.259c0.294-0.423,0.556-0.881,0.784-1.373
				c0.229,0.494,0.493,0.956,0.788,1.38c0.646,0.915,1.303,1.674,1.942,2.251C44.673,20.828,44.015,21.59,43.371,22.507z"/>
			<path class="st2" d="M14.479,10.877C14.801,10.702,15,10.366,15,10s-0.199-0.702-0.521-0.877
				c-1.067-0.583-2.604-1.658-3.869-3.465C9.521,4.099,8.859,2.487,8.642,0.867C8.575,0.372,8.154,0.002,7.655,0
				C7.653,0,7.652,0,7.65,0C7.153,0,6.731,0.365,6.66,0.857C6.419,2.535,5.771,4.104,4.681,5.657
				c-1.352,1.931-3.319,3.006-4.16,3.466C0.199,9.298,0,9.634,0,10s0.199,0.702,0.521,0.877c0.841,0.459,2.809,1.535,4.161,3.467
				c1.09,1.551,1.737,3.121,1.979,4.798C6.731,19.635,7.153,20,7.65,20c0.002,0,0.003,0,0.005,0c0.499-0.002,0.92-0.372,0.986-0.867
				c0.218-1.62,0.88-3.232,1.968-4.79C11.875,12.535,13.412,11.46,14.479,10.877z M8.97,13.198
				c-0.526,0.754-0.968,1.523-1.324,2.303c-0.357-0.786-0.8-1.556-1.326-2.304C5.291,11.727,4.006,10.693,2.958,10
				c1.048-0.693,2.332-1.727,3.36-3.195c0.526-0.75,0.97-1.52,1.327-2.306c0.356,0.78,0.798,1.549,1.325,2.304
				C9.968,8.228,11.107,9.265,12.129,10C11.107,10.735,9.967,11.773,8.97,13.198z"/>
		</g>
	</g>
</g>
</svg>
