<svg xmlns="http://www.w3.org/2000/svg" viewBox="0 0 48 48"><style>.st0{fill:none}.st1{fill:#fac8c6}.st2{fill:#ef4742}</style><path class="st0" d="M0 0h48v48H0z" id="Boundary"/><g id="Design"><path class="st1" d="M27.05 23.87c2.78 3.97 6.12 6.12 7.95 7.13a23.678 23.678 0 0 0-7.95 7.13C24.11 42.31 23.29 45.91 23 48c-.29-2.09-1.11-5.69-4.05-9.87A23.678 23.678 0 0 0 11 31c1.83-1.01 5.17-3.16 7.95-7.13 2.94-4.18 3.76-7.78 4.05-9.87.29 2.09 1.11 5.69 4.05 9.87z"/><path class="st2" d="M35.483 30.125a22.752 22.752 0 0 1-7.615-6.83c-2.124-3.02-3.428-6.193-3.878-9.433a1 1 0 0 0-1.98 0c-.45 3.24-1.754 6.413-3.879 9.434a22.765 22.765 0 0 1-7.614 6.828 1 1 0 0 0 0 1.751 22.752 22.752 0 0 1 7.615 6.83c2.124 3.02 3.428 6.193 3.878 9.433a1 1 0 0 0 1.98 0c.45-3.24 1.754-6.413 3.879-9.434a22.765 22.765 0 0 1 7.614-6.828 1 1 0 0 0 0-1.751zm-9.252 7.43c-1.412 2.009-2.493 4.088-3.231 6.214-.738-2.126-1.818-4.205-3.23-6.213A24.754 24.754 0 0 0 12.948 31a24.747 24.747 0 0 0 6.821-6.555c1.412-2.009 2.493-4.088 3.231-6.214.738 2.126 1.818 4.205 3.23 6.213A24.754 24.754 0 0 0 33.052 31a24.775 24.775 0 0 0-6.821 6.555zM47.48 19.373c-.418-.229-1.295-.861-2.469-2.524-.729-1.049-1.224-2.426-1.431-3.981a.999.999 0 0 0-.985-.868h-.006a.998.998 0 0 0-.989.857c-.233 1.606-.718 2.95-1.437 3.986-1.128 1.594-2.225 2.3-2.645 2.53a1.001 1.001 0 0 0 .002 1.754c.526.288 1.568.999 2.641 2.525.782 1.121 1.267 2.295 1.44 3.491.07.492.492.857.989.857h.006a1 1 0 0 0 .985-.868c.156-1.175.637-2.346 1.428-3.477 1.166-1.66 2.049-2.296 2.472-2.528a1 1 0 0 0-.001-1.754zm-4.109 3.134c-.298.426-.56.858-.786 1.295-.228-.44-.489-.873-.786-1.298a11.536 11.536 0 0 0-2.051-2.256 11.765 11.765 0 0 0 2.054-2.259 9.12 9.12 0 0 0 .784-1.373c.229.494.493.956.788 1.38.646.915 1.303 1.674 1.942 2.251-.643.581-1.301 1.343-1.945 2.26zM14.479 10.877a.997.997 0 0 0 0-1.754 11.46 11.46 0 0 1-3.869-3.465C9.521 4.099 8.859 2.487 8.642.867A1 1 0 0 0 7.655 0H7.65a1 1 0 0 0-.99.857c-.241 1.678-.889 3.247-1.979 4.8C3.329 7.588 1.362 8.663.521 9.123a.997.997 0 0 0 0 1.754c.841.459 2.809 1.535 4.161 3.467 1.09 1.551 1.737 3.121 1.979 4.798.07.493.492.858.989.858h.005a.999.999 0 0 0 .986-.867c.218-1.62.88-3.232 1.968-4.79a11.466 11.466 0 0 1 3.87-3.466zM8.97 13.198a14.696 14.696 0 0 0-1.324 2.303c-.357-.786-.8-1.556-1.326-2.304-1.029-1.47-2.314-2.504-3.362-3.197 1.048-.693 2.332-1.727 3.36-3.195.526-.75.97-1.52 1.327-2.306.356.78.798 1.549 1.325 2.304A13.423 13.423 0 0 0 12.129 10a13.41 13.41 0 0 0-3.159 3.198z"/></g></svg>