<?xml version="1.0" encoding="utf-8"?>
<!-- Generator: Adobe Illustrator 19.2.1, SVG Export Plug-In . SVG Version: 6.00 Build 0)  -->
<svg version="1.1" xmlns="http://www.w3.org/2000/svg" xmlns:xlink="http://www.w3.org/1999/xlink" x="0px" y="0px"
	 viewBox="0 0 48 48" style="enable-background:new 0 0 48 48;" xml:space="preserve">
<style type="text/css">
	.st0{fill:none;}
	.st1{fill:#BEC0C3;}
	.st2{fill:#282C36;}
	.st3{fill:none;stroke:#282C36;stroke-width:2;stroke-linejoin:round;stroke-miterlimit:10;}
	.st4{fill:#292D37;}
</style>
<g id="Boundary">
	<rect class="st0" width="48" height="48"/>
</g>
<g id="Design">
	<g>
		<path class="st2" d="M36.764,19.771l1.972-7.017c0.857-3.053,0.251-6.252-1.663-8.779C35.157,1.449,32.241,0,29.071,0H19.027
			c-3.171,0-6.087,1.449-8.002,3.977c-1.914,2.526-2.52,5.727-1.662,8.778l1.948,6.931C8.526,22.805,7,26.799,7,31
			c0,9.374,7.626,17,17,17s17-7.626,17-17C41,26.842,39.5,22.877,36.764,19.771z M24,46c-8.271,0-15-6.729-15-15
			c0-3.844,1.448-7.492,4.081-10.284c0.29-0.252,0.414-0.651,0.309-1.027l-2.101-7.475c-0.688-2.444-0.202-5.006,1.331-7.029
			C14.153,3.16,16.488,2,19.027,2h10.044c2.538,0,4.873,1.16,6.406,3.184s2.019,4.586,1.332,7.03l-2.122,7.554
			c-0.103,0.367,0.014,0.75,0.279,0.999C37.568,23.553,39,27.185,39,31C39,39.271,32.271,46,24,46z"/>
		<path class="st2" d="M28.833,5h-9.608c-1.469,0-2.851,0.693-3.791,1.902c-1.039,1.335-1.404,3.135-0.979,4.813l1.56,6.146
			c0.076,0.298,0.284,0.545,0.566,0.669c0.279,0.123,0.602,0.11,0.875-0.033c2.046-1.095,4.248-1.649,6.544-1.649
			c2.298,0,4.503,0.557,6.577,1.667l0.004,0.002c0.141,0.07,0.294,0.105,0.447,0.105c0.141,0,0.282-0.029,0.413-0.089
			c0.274-0.125,0.479-0.367,0.555-0.658l1.598-6.122c0.439-1.683,0.081-3.49-0.958-4.836C31.695,5.698,30.309,5,28.833,5z
			 M31.658,11.247l-1.289,4.941c-2.019-0.891-4.155-1.341-6.369-1.341c-2.207,0-4.337,0.447-6.349,1.332l-1.257-4.956
			c-0.276-1.085-0.045-2.241,0.617-3.094C17.579,7.401,18.365,7,19.225,7h9.608c0.864,0,1.652,0.404,2.22,1.14
			C31.716,8.998,31.942,10.16,31.658,11.247z"/>
		<path class="st2" d="M30.491,28.374C30.829,29.209,31,30.093,31,31c0,3.859-3.141,7-7,7c-0.907,0-1.791-0.171-2.626-0.509
			l-0.75,1.854C21.698,39.779,22.834,40,24,40c4.963,0,9-4.037,9-9c0-1.166-0.221-2.302-0.655-3.376L30.491,28.374z"/>
	</g>
</g>
</svg>
