<svg xmlns="http://www.w3.org/2000/svg" viewBox="0 0 48 48"><style>.st0{fill:none}.st1{fill:#bec0c3}.st2{fill:#282c36}</style><path class="st0" d="M0 0h48v48H0z" id="Boundary"/><g id="Design"><path class="st1" d="M45.15 14.94L45 15l-8-1-2.64-1.59c-1.34-.8-3.07-.46-4.01.79l-1.75 2.88c-1.81.76-2.85 1.97-2.6 3.92.14 1.12.89 3.18 1.42 4.56.34.87 1.14 1.47 2.06 1.55 1.6.14 4.11.41 5.52.83 2.19.66 2.19 3.89 1.9 5.06-.29 1.17-1.75 5.35-.2 6.9 1.55 1.55 2.08 2.73 2.08 2.73A22.934 22.934 0 0 1 22 46.91c-3.27-.28-6.35-1.25-9.08-2.76L13 44l-2-6 4-2 2.79-6.43c.62-1.24-.2-2.7-1.57-2.83l-7.14-.64c-.7-.07-1.37-.35-1.9-.8l-5.87-5.04c.18-1.12.44-2.2.78-3.26h3.53l1.42 2.38c.33.56.93.87 1.54.87.34 0 .68-.09.99-.3.79-.52 1.03-1.57.55-2.39-.53-.9-1.08-1.92-.99-2.1l.98-1.82A3.145 3.145 0 0 1 12.87 12C14.6 12 16 10.6 16 8.87V5l-1.81-1.81C17.16 1.79 20.49 1 24 1c1.66 0 3.29.18 4.85.52C28.51 2.95 28.14 6.84 34 7c.56.02 3 2 3 2l2.69-1.79c2.32 2.15 4.19 4.78 5.46 7.73z" id="XMLID_55_"/><path class="st2" d="M46.068 14.545a23.66 23.66 0 0 0-5.671-8.042 11.16 11.16 0 0 0-.525-.492 24.085 24.085 0 0 0-5.725-3.755 23.837 23.837 0 0 0-4.805-1.66 3.949 3.949 0 0 0-.321-.062A23.824 23.824 0 0 0 24 0c-3.575 0-7.02.77-10.236 2.286a24.17 24.17 0 0 0-8.702 6.978 23.715 23.715 0 0 0-3.924 7.431 23.103 23.103 0 0 0-.825 3.452l-.011.055A23.993 23.993 0 0 0 0 24c0 .73.027 1.335.083 1.873a23.447 23.447 0 0 0 2.943 9.783 23.96 23.96 0 0 0 6.234 7.279 22.279 22.279 0 0 0 3.175 2.09 23.64 23.64 0 0 0 9.475 2.881c.7.064 1.384.094 2.09.094 5.632 0 11.108-1.99 15.425-5.605 4.282-3.609 7.184-8.602 8.168-14.046.27-1.407.407-2.87.407-4.349 0-3.279-.649-6.46-1.932-9.455zm-8.019-7.446l-.996.664C34.837 6.028 34.282 6.009 34.027 6c-1.875-.051-3.156-.507-3.809-1.355-.443-.577-.551-1.282-.532-1.895 1.254.338 2.466.775 3.608 1.316a22.099 22.099 0 0 1 4.755 3.033zm-31.41 3.395a22.165 22.165 0 0 1 7.358-6.083L15 5.414V8.87c0 1.175-.955 2.13-2.13 2.13a4.143 4.143 0 0 0-3.641 2.165l-.994 1.848c-.268.535-.157 1.052 1.021 3.052a.787.787 0 0 1-.247 1.058c-.347.235-.89.121-1.111-.255l-1.42-2.38A.997.997 0 0 0 5.62 16H3.522a21.673 21.673 0 0 1 3.117-5.506zM4.773 34.682a21.492 21.492 0 0 1-2.698-8.984A16.211 16.211 0 0 1 2 24c0-.589.025-1.178.072-1.764l4.46 3.826c.68.576 1.55.943 2.458 1.033l7.135.64c.323.031.598.21.754.492.155.28.161.606-.006.944l-2.646 6.097-3.675 1.837a1 1 0 0 0-.501 1.211l1.196 3.589c-.252-.181-.511-.352-.754-.544a21.99 21.99 0 0 1-5.72-6.679zm17.312 11.232a21.65 21.65 0 0 1-8.187-2.382l-1.675-5.025 3.225-1.612a1 1 0 0 0 .47-.496l2.768-6.381a2.959 2.959 0 0 0-2.375-4.274l-7.131-.64a2.492 2.492 0 0 1-1.348-.563l-5.427-4.659c.118-.636.267-1.262.443-1.882h2.205l1.126 1.888a2.792 2.792 0 0 0 3.941.897 2.783 2.783 0 0 0 .861-3.733c-.465-.788-.686-1.229-.788-1.457l.795-1.477A2.144 2.144 0 0 1 12.87 13 4.135 4.135 0 0 0 17 8.87V5a.996.996 0 0 0-.293-.707l-.766-.766a21.858 21.858 0 0 1 11.773-1.205c-.091 1.043.031 2.385.919 3.541 1.023 1.332 2.787 2.05 5.234 2.134.401.175 1.59 1.039 2.503 1.78a1 1 0 0 0 1.184.056L39.552 8.5a21.67 21.67 0 0 1 3.923 5.302l-6.142-.768-2.461-1.482c-1.787-1.066-4.073-.614-5.378 1.129l-1.588 2.612c-2.734 1.277-3.093 3.32-2.899 4.831.117.942.602 2.511 1.48 4.8a3.425 3.425 0 0 0 2.905 2.183c2.431.212 4.32.493 5.318.792 1.422.428 1.447 2.936 1.218 3.861a18.57 18.57 0 0 1-.146.532c-.547 1.938-1.563 5.542.209 7.315a12.108 12.108 0 0 1 1.474 1.763c-4.353 3.373-9.861 5.038-15.38 4.544zm23.541-17.932c-.835 4.616-3.183 8.86-6.628 12.09a14.044 14.044 0 0 0-1.591-1.879c-.943-.944-.006-4.267.302-5.358.067-.239.124-.441.162-.595.396-1.598.296-5.392-2.585-6.258-1.443-.431-3.906-.71-5.719-.868a1.451 1.451 0 0 1-1.214-.913c-1.006-2.617-1.295-3.796-1.361-4.328-.123-.954.019-2.041 1.994-2.871.194-.081.358-.223.468-.402l1.694-2.798a2.053 2.053 0 0 1 2.696-.535l2.64 1.59c.119.072.253.118.392.136l7.579.947A21.883 21.883 0 0 1 46 24c0 1.353-.125 2.689-.374 3.982z"/></g></svg>