<svg xmlns="http://www.w3.org/2000/svg" viewBox="0 0 48 48"><style>.st0{fill:none}.st1{fill:#bec0c3}.st2{fill:#282c36}</style><path class="st0" d="M0 0h48v48H0z" id="Boundary"/><g id="Design"><path class="st2" d="M20 4c-5.317 0-8.193 5.151-8.2 9.998l2 .003C13.806 10.025 15.937 6 20 6V4z"/><path class="st2" d="M37.481 40c-.265 0-.481-.219-.481-.526 0-.662-.258-1.284-.726-1.751a2.488 2.488 0 0 0-1.793-.724h-.004a2.521 2.521 0 0 0-2.516 2.518v4.502A1.984 1.984 0 0 1 29.98 46 1.983 1.983 0 0 1 28 44.019V36c0-1.654-1.346-3-3-3s-3 1.346-3 3v.5a.5.5 0 0 1-1 0v-5.188c.25.046.504.077.769.077.687 0 1.422-.153 2.197-.458a1.004 1.004 0 0 0 .563-1.302l-.783-1.959C29.172 25.902 33 20.35 33 14.011 33 6.298 27.168.023 20 .023S7 6.298 7 14.011c0 6.338 3.828 11.891 9.255 13.658l-.783 1.959a.996.996 0 0 0 .206 1.048 1.02 1.02 0 0 0 1.044.271c.969-.305 1.884-.596 2.198-.518.031.007.052.021.08.029V36.5c0 1.378 1.121 2.5 2.5 2.5s2.5-1.122 2.5-2.5V36a1.001 1.001 0 0 1 2 0v8.019C26 46.214 27.785 48 29.98 48s3.981-1.786 3.981-3.981v-4.502c0-.285.232-.518.562-.518h.001a.47.47 0 0 1 .335.139.496.496 0 0 1 .141.374A2.487 2.487 0 0 0 37.482 42H39v-2h-1.519zM18.81 28.419a4.02 4.02 0 0 0-.73.075l.449-1.124a.998.998 0 0 0-.714-1.347C12.789 24.919 9 19.755 9 14.011c0-6.61 4.935-11.988 11-11.988s11 5.378 11 11.988c0 5.744-3.789 10.908-8.814 12.012a1.001 1.001 0 0 0-.714 1.347l.79 1.976c-.409.067-.777.053-1.1-.04-.242-.07-.396-.166-.607-.299-.28-.175-.629-.394-1.165-.523a2.515 2.515 0 0 0-.58-.065z"/></g></svg>