<?xml version="1.0" encoding="utf-8"?>
<!-- Generator: Adobe Illustrator 19.2.1, SVG Export Plug-In . SVG Version: 6.00 Build 0)  -->
<svg version="1.1" xmlns="http://www.w3.org/2000/svg" xmlns:xlink="http://www.w3.org/1999/xlink" x="0px" y="0px"
	 viewBox="0 0 48 48" style="enable-background:new 0 0 48 48;" xml:space="preserve">
<style type="text/css">
	.st0{fill:none;}
	.st1{fill:#BEC0C3;}
	.st2{fill:#282C36;}
	.st3{fill:none;stroke:#282C36;stroke-width:2;stroke-linejoin:round;stroke-miterlimit:10;}
	.st4{fill:#FFFFFF;}
	.st5{fill:#292D37;}
</style>
<g id="Boundary">
	<rect class="st0" width="48" height="48"/>
</g>
<g id="Design">
	<g>
		<g id="XMLID_2_">
			<path class="st1" d="M32.72,34.6l2.16-2.16l1.16,1.16l1.42,1.41l6.6-6.61H46V35c0,2.21-1.79,4-4,4h-9.66
				c-0.92,0-1.72-0.62-1.94-1.51l-0.96-3.83l1.86-0.47L32.72,34.6z"/>
			<path class="st1" d="M38.5,28.81l-1.41-1.41l-5.79,5.79l-1.86,0.47l-2.04-8.11c-0.06-0.65,0.15-1.28,0.59-1.77
				c0.46-0.5,1.08-0.78,1.76-0.78h13.9c0.7,0,1.32,0.32,1.75,0.81l0.43,0.67c0.11,0.27,0.17,0.56,0.17,0.87v3.05h-1.94l-1.41-1.41
				l-6.61,6.61l-1.16-1.16L38.5,28.81z"/>
			<path class="st1" d="M11.5,28.81l-1.42-1.41l-5.79,5.79l1.42,1.41L11.5,28.81z M17.05,28.4l-1.41-1.41L9.03,33.6l1.42,1.41
				L17.05,28.4z M20.6,25.55l-3,11.94C17.38,38.38,16.58,39,15.66,39H6c-2.21,0-4-1.79-4-4v-9.65c0-0.31,0.06-0.6,0.17-0.87
				l0.42-0.67C3.03,23.32,3.65,23,4.35,23h13.9c0.68,0,1.3,0.28,1.76,0.78C20.45,24.27,20.65,24.9,20.6,25.55z"/>
			
				<rect x="35.38" y="30.001" transform="matrix(0.7066 -0.7076 0.7076 0.7066 -10.1843 37.4391)" class="st2" width="9.344" height="1.998"/>
			<polygon class="st2" points="38.5,28.81 34.88,32.44 32.72,34.6 31.3,33.19 37.09,27.4 			"/>
			<path class="st4" d="M25.44,25.97L25.45,26h-2.9l0.01-0.03c0.01-0.05,0.02-0.09,0.02-0.14c0.03-0.27,0.03-0.55,0-0.83h2.84
				c-0.03,0.28-0.03,0.56,0,0.83C25.42,25.88,25.43,25.92,25.44,25.97z"/>
			
				<rect x="8.37" y="30.001" transform="matrix(0.7066 -0.7076 0.7076 0.7066 -18.1099 18.3257)" class="st2" width="9.344" height="1.998"/>
			<polygon class="st2" points="11.5,28.81 5.71,34.6 4.29,33.19 10.08,27.4 			"/>
			<path class="st2" d="M20.6,25.55c0.05-0.65-0.15-1.28-0.59-1.77c-0.46-0.5-1.08-0.78-1.76-0.78H4.35c-0.7,0-1.32,0.32-1.76,0.81
				l-0.42,0.67C2.06,24.75,2,25.04,2,25.35V35c0,2.21,1.79,4,4,4h9.66c0.92,0,1.72-0.62,1.94-1.51L20.6,25.55z M25.45,26l-0.01-0.03
				c-0.01-0.05-0.02-0.09-0.02-0.14c-0.03-0.27-0.03-0.55,0-0.83h-2.84c0.03,0.28,0.03,0.56,0,0.83c0,0.05-0.01,0.09-0.02,0.14
				L22.55,26H25.45z M46,35v-6.6v-3.05c0-0.31-0.06-0.6-0.17-0.87l-0.43-0.67C44.97,23.32,44.35,23,43.65,23h-13.9
				c-0.68,0-1.3,0.28-1.76,0.78c-0.44,0.49-0.65,1.12-0.59,1.77l2.04,8.11l0.96,3.83c0.22,0.89,1.02,1.51,1.94,1.51H42
				C44.21,39,46,37.21,46,35z M47.55,23.46v0.01c0.28,0.57,0.45,1.21,0.45,1.88V35c0,3.31-2.69,6-6,6h-9.66
				c-1.84,0-3.43-1.24-3.88-3.03L25.95,28h-3.91l-2.5,9.97C19.09,39.76,17.5,41,15.66,41H6c-3.31,0-6-2.69-6-6v-9.65
				c0-0.67,0.17-1.31,0.45-1.88v-0.01c0.13-0.27,0.29-0.52,0.48-0.76l9.53-15.23c0.26-0.42,0.78-0.58,1.23-0.39l2.69,1.12
				l-0.76,1.85l-1.92-0.8L4.35,21h13.9c1.24,0,2.42,0.53,3.25,1.45c0.15,0.17,0.27,0.36,0.39,0.55h4.22
				c0.12-0.19,0.24-0.38,0.39-0.55c0.83-0.92,2.01-1.45,3.25-1.45h13.9L36.3,9.25l-1.92,0.8L33.61,8.2l2.7-1.12
				c0.45-0.19,0.97-0.03,1.23,0.39l9.53,15.23C47.26,22.94,47.42,23.19,47.55,23.46z"/>
		</g>
	</g>
</g>
</svg>
