<svg xmlns="http://www.w3.org/2000/svg" viewBox="0 0 48 48"><style>.st0{fill:none}.st1{fill:#bec0c3}.st2{fill:#282c36}</style><path class="st0" d="M0 0h48v48H0z" id="Boundary"/><g id="Design"><circle class="st1" cx="10" cy="10" r="9"/><path class="st2" d="M20 10c0-5.514-4.486-10-10-10S0 4.486 0 10s4.486 10 10 10 10-4.486 10-10zM2 10c0-4.411 3.589-8 8-8s8 3.589 8 8-3.589 8-8 8-8-3.589-8-8zm25 19H10a1 1 0 0 0-1 1v17a1 1 0 0 0 1 1h17a1 1 0 0 0 1-1V30a1 1 0 0 0-1-1zm-1 17H11V31h15v15zm22.06-24.511l-10.1-17c-.36-.606-1.359-.606-1.72 0l-10.1 17A1.002 1.002 0 0 0 27 23h20.2a1.001 1.001 0 0 0 .86-1.511zM28.757 21L37.1 6.958 45.443 21H28.757z"/><path class="st2" d="M10 4c-3.309 0-6 2.691-6 6h2c0-2.206 1.794-4 4-4V4z"/></g></svg>