<svg xmlns="http://www.w3.org/2000/svg" viewBox="0 0 48 48"><style>.st0{fill:none}.st1{fill:#bec0c3}.st2{fill:#282c36}.st3{fill:none;stroke:#282c36;stroke-width:2;stroke-linejoin:round;stroke-miterlimit:10}.st4{fill:#292d37}</style><path class="st0" d="M0 0h48v48H0z" id="Boundary"/><g id="Design"><g id="XMLID_3_"><path class="st1" d="M6 41h36v2H6z"/><path class="st2" d="M16 25h16c.55 0 1-.45 1-1v-6c0-.55-.45-1-1-1H16c-.55 0-1 .45-1 1v6c0 .55.45 1 1 1zm1-6h14v4H17v-4z"/><path class="st2" d="M45 3.01H3c-.55 0-1 .45-1 1V12c0 .55.45 1 1 1h1v31c0 .55.45 1 1 1h38c.55 0 1-.45 1-1V13h1c.55 0 1-.45 1-1V4.01c0-.55-.45-1-1-1zM42 43H6v-2h36v2zm0-4H6V13h36v26zm2-28H4V5.01h40V11z"/></g></g></svg>