<svg xmlns="http://www.w3.org/2000/svg" viewBox="0 0 48 48"><style>.st0{fill:none}.st1{fill:#bec0c3}.st2{fill:#282c36}.st3{fill:none;stroke:#282c36;stroke-width:2;stroke-linejoin:round;stroke-miterlimit:10}.st4{fill:#fff}.st5{fill:#292d37}</style><path class="st0" d="M0 0h48v48H0z" id="Boundary"/><g id="Design"><path class="st2" d="M29.49 45c-.83 0-1.5.67-1.5 1.5s.67 1.5 1.5 1.5c.82 0 1.5-.67 1.5-1.5s-.68-1.5-1.5-1.5zm.5-11.99c-1.9 0-3.33 1.04-3.97 2.87-.06.17.03.36.19.43l.86.36c.18.07.37-.03.45-.2.48-1.23 1.36-1.85 2.42-1.85 1.23 0 2.23.93 2.23 2.29 0 1.12-.64 1.73-1.78 2.8-.97.86-1.81 1.66-1.81 2.79 0 .37.09.73.23 1h1.52c-.05-.2-.12-.45-.12-.73 0-.81.62-1.38 1.62-2.29 1.27-1.14 2.15-2.16 2.15-3.68 0-2.22-1.79-3.79-3.99-3.79zM10.135 13.68A9.993 9.993 0 0 0 20 22c4.892 0 9.037-3.5 9.854-8.31A9.42 9.42 0 0 0 30 12c0-5.514-4.486-10-10-10S10 6.486 10 12c0 .567.045 1.13.133 1.671l.002.009zM20 20a7.989 7.989 0 0 1-7.644-5.645c2.224-.487 3.751-2.079 4.631-3.331 1.26 1.446 4.125 3.232 10.609 3.461A7.968 7.968 0 0 1 20 20zm0-16c4.411 0 8 3.589 8 8 0 .166-.011.326-.02.486-9.069-.248-9.991-3.624-9.993-3.63a.998.998 0 0 0-.863-.827 1.013 1.013 0 0 0-1.04.593c-.015.034-1.397 3.1-4.053 3.758-.007-.129-.031-.251-.031-.38 0-4.411 3.589-8 8-8z"/><path class="st2" d="M10 29.26A3.263 3.263 0 0 1 13.26 26h2.875l2.946 6.875a1 1 0 0 0 1.838 0L23.869 26h2.871A3.264 3.264 0 0 1 30 29.26V31h2v-1.74c0-2.9-2.359-5.26-5.26-5.26H13.26A5.265 5.265 0 0 0 8 29.26V42a1 1 0 0 0 1 1h16v-2H10V29.26zm10 .684L18.307 26h3.382L20 29.944z"/></g></svg>