<?xml version="1.0" encoding="utf-8"?>
<!-- Generator: Adobe Illustrator 19.2.1, SVG Export Plug-In . SVG Version: 6.00 Build 0)  -->
<svg version="1.1" xmlns="http://www.w3.org/2000/svg" xmlns:xlink="http://www.w3.org/1999/xlink" x="0px" y="0px"
	 viewBox="0 0 48 48" style="enable-background:new 0 0 48 48;" xml:space="preserve">
<style type="text/css">
	.st0{fill:none;}
	.st1{fill:#BEC0C3;}
	.st2{fill:#282C36;}
	.st3{fill:none;stroke:#282C36;stroke-width:2;stroke-linejoin:round;stroke-miterlimit:10;}
	.st4{fill:#292D37;}
</style>
<g id="Boundary">
	<rect class="st0" width="48" height="48"/>
</g>
<g id="Design">
	<g id="XMLID_62_">
		<g>
			<g>
				<rect x="18" y="30" class="st1" width="8" height="9"/>
			</g>
		</g>
		<g>
			<path class="st2" d="M45,46V16c0-0.334-0.167-0.646-0.445-0.832l-15-10c-0.336-0.225-0.773-0.225-1.109,0L24,8.132V6
				c0-0.553-0.448-1-1-1h-6c-0.552,0-1,0.447-1,1v7.465l-2.555,1.703C13.167,15.354,13,15.666,13,16v18.294
				c-0.572-0.2-1.177-0.304-1.8-0.304c-2.005,0-3.791,1.051-4.761,2.74c-0.494-0.08-1-0.094-1.513-0.033
				c-2.554,0.292-4.611,2.394-4.891,4.997c-0.174,1.638,0.347,3.267,1.428,4.47C2.513,47.331,4.006,48,5.56,48h13.38H30h10h8v-2H45z
				 M18,7h4v2.465l-4,2.667V7z M18.94,46H5.56c-1.002,0-1.929-0.417-2.609-1.174c-0.713-0.793-1.042-1.83-0.927-2.92
				c0.181-1.68,1.497-3.035,3.131-3.223c0.138-0.016,0.275-0.023,0.41-0.023c0.377,0,0.744,0.062,1.095,0.185
				c0.509,0.178,1.074-0.082,1.266-0.592c0.526-1.396,1.781-2.263,3.274-2.263c0.762,0,1.482,0.243,2.09,0.705
				c0.027,0.027,0.057,0.054,0.088,0.078c0.181,0.144,0.347,0.306,0.497,0.482c-1.548,0.397-2.839,1.538-3.482,3.129l1.854,0.75
				c0.473-1.171,1.489-1.947,2.632-2.025c0.173-0.009,0.347-0.01,0.516,0.006c1.616,0.155,2.835,1.537,2.835,3.215
				c0,0.136-0.023,0.37-0.038,0.468c-0.008,0.051-0.012,0.102-0.012,0.152c0,0.514,0.44,0.989,0.946,1.053
				c0.241,0.028,0.46,0.154,0.619,0.355c0.171,0.218,0.247,0.495,0.211,0.783C19.9,45.623,19.453,46,18.94,46z M19,38v-7h6v7H19z
				 M39,46h-8V31h8V46z M43,46h-2V30c0-0.553-0.448-1-1-1H30c-0.552,0-1,0.447-1,1v16h-7.207c0.07-0.198,0.124-0.403,0.15-0.618
				c0.1-0.818-0.123-1.622-0.626-2.262c-0.297-0.376-0.668-0.669-1.087-0.86c-0.01-0.814-0.215-1.575-0.548-2.26H26
				c0.552,0,1-0.447,1-1v-9c0-0.553-0.448-1-1-1h-8c-0.552,0-1,0.447-1,1v7.472c-0.255-0.103-0.519-0.188-0.794-0.249
				c-0.295-0.634-0.707-1.197-1.206-1.675V16.535l14-9.333l14,9.333V46z"/>
			<path class="st2" d="M25,19c0,2.206,1.794,4,4,4s4-1.794,4-4s-1.794-4-4-4S25,16.794,25,19z M31,19c0,1.103-0.897,2-2,2
				s-2-0.897-2-2s0.897-2,2-2S31,17.897,31,19z"/>
			<path class="st2" d="M33,41c0.55,0,1-0.45,1-1s-0.45-1-1-1c-0.56,0-1,0.45-1,1S32.44,41,33,41z"/>
		</g>
	</g>
</g>
</svg>
