<?xml version="1.0" encoding="utf-8"?>
<!-- Generator: Adobe Illustrator 19.2.1, SVG Export Plug-In . SVG Version: 6.00 Build 0)  -->
<svg version="1.1" xmlns="http://www.w3.org/2000/svg" xmlns:xlink="http://www.w3.org/1999/xlink" x="0px" y="0px"
	 viewBox="0 0 48 48" style="enable-background:new 0 0 48 48;" xml:space="preserve">
<style type="text/css">
	.st0{fill:none;}
	.st1{fill:#BEC0C3;}
	.st2{fill:#282C36;}
	.st3{fill:none;stroke:#282C36;stroke-width:2;stroke-linejoin:round;stroke-miterlimit:10;}
	.st4{fill:#FFFFFF;}
	.st5{fill:#292D37;}
</style>
<g id="Boundary">
	<rect class="st0" width="48" height="48"/>
</g>
<g id="Design">
	<g>
		<g>
			<path class="st1" d="M10.5,9C11.33,9,12,8.33,12,7.5S11.33,6,10.5,6S9,6.67,9,7.5S9.67,9,10.5,9z M38.5,6C37.67,6,37,6.67,37,7.5
				S37.67,9,38.5,9S40,8.33,40,7.5S39.33,6,38.5,6z M1,3h46v9H1V3z"/>
		</g>
		<g>
			<circle class="st2" cx="38.5" cy="7.5" r="1.5"/>
		</g>
		<g>
			<circle class="st2" cx="10.5" cy="7.5" r="1.5"/>
		</g>
	</g>
	<g>
		<path class="st2" d="M47,2H1C0.447,2,0,2.447,0,3v41c0,0.553,0.447,1,1,1h39c0.266,0,0.52-0.105,0.707-0.293l7-7
			C47.895,37.52,48,37.266,48,37V3C48,2.447,47.553,2,47,2z M46,4v7H2V4H46z M2,13h44v23h-6c-0.553,0-1,0.447-1,1v6H2V13z
			 M44.586,38L41,41.586V38H44.586z"/>
		<path class="st2" d="M10,16H6c-0.553,0-1,0.447-1,1v4c0,0.553,0.447,1,1,1h4c0.553,0,1-0.447,1-1v-4C11,16.447,10.553,16,10,16z
			 M9,20H7v-2h2V20z"/>
		<path class="st2" d="M18,16h-4c-0.553,0-1,0.447-1,1v4c0,0.553,0.447,1,1,1h4c0.553,0,1-0.447,1-1v-4C19,16.447,18.553,16,18,16z
			 M17,20h-2v-2h2V20z"/>
		<path class="st2" d="M26,16h-4c-0.553,0-1,0.447-1,1v4c0,0.553,0.447,1,1,1h4c0.553,0,1-0.447,1-1v-4C27,16.447,26.553,16,26,16z
			 M25,20h-2v-2h2V20z"/>
		<path class="st2" d="M34,16h-4c-0.553,0-1,0.447-1,1v4c0,0.553,0.447,1,1,1h4c0.553,0,1-0.447,1-1v-4C35,16.447,34.553,16,34,16z
			 M33,20h-2v-2h2V20z"/>
		<path class="st2" d="M38,22h4c0.553,0,1-0.447,1-1v-4c0-0.553-0.447-1-1-1h-4c-0.553,0-1,0.447-1,1v4C37,21.553,37.447,22,38,22z
			 M39,18h2v2h-2V18z"/>
		<path class="st2" d="M10,25H6c-0.553,0-1,0.447-1,1v4c0,0.553,0.447,1,1,1h4c0.553,0,1-0.447,1-1v-4C11,25.447,10.553,25,10,25z
			 M9,29H7v-2h2V29z"/>
		<path class="st2" d="M18,25h-4c-0.553,0-1,0.447-1,1v4c0,0.553,0.447,1,1,1h4c0.553,0,1-0.447,1-1v-4C19,25.447,18.553,25,18,25z
			 M17,29h-2v-2h2V29z"/>
		<path class="st2" d="M26,25h-4c-0.553,0-1,0.447-1,1v4c0,0.553,0.447,1,1,1h4c0.553,0,1-0.447,1-1v-4C27,25.447,26.553,25,26,25z
			 M25,29h-2v-2h2V29z"/>
		<path class="st2" d="M34,25h-4c-0.553,0-1,0.447-1,1v4c0,0.553,0.447,1,1,1h4c0.553,0,1-0.447,1-1v-4C35,25.447,34.553,25,34,25z
			 M33,29h-2v-2h2V29z"/>
		<path class="st2" d="M10,34H6c-0.553,0-1,0.447-1,1v4c0,0.553,0.447,1,1,1h4c0.553,0,1-0.447,1-1v-4C11,34.447,10.553,34,10,34z
			 M9,38H7v-2h2V38z"/>
		<path class="st2" d="M18,34h-4c-0.553,0-1,0.447-1,1v4c0,0.553,0.447,1,1,1h4c0.553,0,1-0.447,1-1v-4C19,34.447,18.553,34,18,34z
			 M17,38h-2v-2h2V38z"/>
		<path class="st2" d="M26,34h-4c-0.553,0-1,0.447-1,1v4c0,0.553,0.447,1,1,1h4c0.553,0,1-0.447,1-1v-4C27,34.447,26.553,34,26,34z
			 M25,38h-2v-2h2V38z"/>
		<path class="st2" d="M34,34h-4c-0.553,0-1,0.447-1,1v4c0,0.553,0.447,1,1,1h4c0.553,0,1-0.447,1-1v-4C35,34.447,34.553,34,34,34z
			 M33,38h-2v-2h2V38z"/>
		<path class="st2" d="M42,31c0.553,0,1-0.447,1-1v-4c0-0.553-0.447-1-1-1h-4c-0.553,0-1,0.447-1,1v4c0,0.553,0.447,1,1,1H42z
			 M39,27h2v2h-2V27z"/>
	</g>
</g>
</svg>
