<svg xmlns="http://www.w3.org/2000/svg" viewBox="0 0 48 48"><style>.st0{fill:none}.st1{fill:#bec0c3}.st2{fill:#282c36}</style><path class="st0" d="M0 0h48v48H0z" id="Boundary"/><g id="Design"><path class="st2" d="M42 5H7C5.346 5 4 6.346 4 8v27c0 1.654 1.346 3 3 3h4.999v4a1 1 0 0 0 1.64.769L19.362 38H42c1.654 0 3-1.346 3-3V8c0-1.654-1.346-3-3-3zm1 30c0 .552-.449 1-1 1H19c-.234 0-.46.082-.64.231l-4.361 3.634V37a1 1 0 0 0-1-1H7c-.551 0-1-.448-1-1V8c0-.552.449-1 1-1h35c.551 0 1 .448 1 1v27z"/><circle class="st2" cx="17.5" cy="21.5" r="1.5"/><circle class="st2" cx="24.5" cy="21.5" r="1.5"/><circle class="st2" cx="31.5" cy="21.5" r="1.5"/></g></svg>