<?xml version="1.0" encoding="utf-8"?>
<!-- Generator: Adobe Illustrator 19.2.1, SVG Export Plug-In . SVG Version: 6.00 Build 0)  -->
<svg version="1.1" xmlns="http://www.w3.org/2000/svg" xmlns:xlink="http://www.w3.org/1999/xlink" x="0px" y="0px"
	 viewBox="0 0 48 48" style="enable-background:new 0 0 48 48;" xml:space="preserve">
<style type="text/css">
	.st0{fill:none;}
	.st1{fill:#BEC0C3;}
	.st2{fill:#282C36;}
</style>
<g id="Boundary">
	<rect class="st0" width="48" height="48"/>
</g>
<g id="Design">
	<g>
		<g>
			<path class="st1" d="M34.78,25.23C32.77,29.44,30.11,32.26,30,39c0,0.21-0.37,0.39-1,0.55C27.92,39.82,26.08,40,24,40
				s-3.92-0.18-5-0.45c-0.63-0.16-1-0.34-1-0.55h0.01c-0.11-6.74-2.77-9.56-4.78-13.77c-0.1-0.22-0.2-0.44-0.29-0.66L13,24.55
				C16.5,24.84,20.19,25,24,25s7.5-0.16,11-0.45l0.06,0.02C34.98,24.79,34.88,25.01,34.78,25.23z"/>
		</g>
		<path class="st2" d="M35.617,14.074c-1.612-3.284-4.411-5.62-7.884-6.579c-2.401-0.654-5.031-0.66-7.459,0.001
			c-3.473,0.959-6.275,3.298-7.889,6.585c-1.67,3.402-1.805,7.363-0.371,10.866c0.093,0.228,0.196,0.455,0.313,0.713
			c0.478,1.001,0.991,1.925,1.487,2.817c1.6,2.88,3.111,5.602,3.194,10.522H17c0,0.686,0.5,1.059,1,1.276V43c0,1.103,0.897,2,2,2
			v0.18c0,1.555,1.265,2.82,2.82,2.82h2.36c1.555,0,2.82-1.265,2.82-2.82V45c1.103,0,2-0.897,2-2v-2.724
			c0.495-0.214,0.989-0.585,0.998-1.26l0.002,0c0.08-4.931,1.593-7.654,3.195-10.537c0.496-0.894,1.009-1.817,1.499-2.843
			c0.11-0.242,0.219-0.483,0.292-0.688C37.422,21.441,37.288,17.478,35.617,14.074z M14.18,14.963
			c1.358-2.767,3.712-4.734,6.623-5.538c2.06-0.561,4.33-0.565,6.401-0.001c2.911,0.804,5.261,2.769,6.617,5.532
			c1.32,2.688,1.495,5.786,0.522,8.633c-6.795,0.532-13.893,0.532-20.688,0C12.684,20.767,12.856,17.66,14.18,14.963z
			 M18.998,38.984C18.998,38.99,19,38.994,19,39h-0.99L18.998,38.984z M26,45.18C26,45.64,25.64,46,25.18,46h-2.36
			C22.36,46,22,45.64,22,45.18V45h4V45.18z M27,43h-6h-1v-2.25c1.125,0.159,2.529,0.25,4,0.25c1.47,0,2.874-0.091,4-0.25V43H27z
			 M29,39c0-0.006,0.002-0.01,0.002-0.016L30,39H29z M29.026,38.503c-0.071,0.023-0.156,0.048-0.269,0.076
			c-2.074,0.519-7.443,0.518-9.512,0.001c-0.108-0.027-0.192-0.052-0.262-0.074c-0.181-5.125-1.821-8.12-3.421-11
			c-0.331-0.595-0.664-1.212-0.989-1.841C17.68,25.883,20.841,26,24,26c3.163,0,6.327-0.117,9.437-0.335
			c-0.326,0.63-0.66,1.247-0.991,1.843C30.847,30.387,29.208,33.381,29.026,38.503z"/>
	</g>
</g>
</svg>
