<svg xmlns="http://www.w3.org/2000/svg" viewBox="0 0 48 48"><style>.st0{fill:none}.st1{fill:#bec0c3}.st2{fill:#282c36}.st3{fill:none;stroke:#282c36;stroke-width:2;stroke-linejoin:round;stroke-miterlimit:10}.st4{fill:#292d37}</style><path class="st0" d="M0 0h48v48H0z" id="Boundary"/><g id="Design"><path class="st1" d="M36 32H12v-7.88c.19-.6 1.18-3.12 4.31-3.12 1.84 0 3.54 1.71 5.34 3.53C23.73 26.62 26.08 29 29.2 29s5.38-1.28 6.8-2.47V32z"/><path class="st2" d="M29 20c2.76 0 5-2.24 5-5s-2.24-5-5-5-5 2.24-5 5 2.24 5 5 5zm0-8c1.65 0 3 1.35 3 3s-1.35 3-3 3-3-1.35-3-3 1.35-3 3-3z"/><circle class="st2" cx="24" cy="42" r="2"/><path class="st2" d="M10 23.76V38h28V6H10v17.76zM36 32H12v-7.88c.19-.6 1.18-3.12 4.31-3.12 1.84 0 3.54 1.71 5.34 3.53C23.73 26.62 26.08 29 29.2 29s5.38-1.28 6.8-2.47V32zm0 4H12v-2h24v2zM12 8h24v15.69c-.6.78-2.84 3.31-6.8 3.31-2.29 0-4.15-1.88-6.13-3.88-2.01-2.03-4.08-4.12-6.76-4.12-1.9 0-3.31.68-4.31 1.58V8z"/><path class="st2" d="M39 0H9C7.35 0 6 1.35 6 3v42c0 1.65 1.35 3 3 3h30c1.65 0 3-1.35 3-3V3c0-1.65-1.35-3-3-3zm1 6v39c0 .55-.45 1-1 1H9c-.55 0-1-.45-1-1V3c0-.55.45-1 1-1h30c.55 0 1 .45 1 1v3z"/></g></svg>