<?xml version="1.0" encoding="utf-8"?>
<!-- Generator: Adobe Illustrator 19.2.1, SVG Export Plug-In . SVG Version: 6.00 Build 0)  -->
<svg version="1.1" xmlns="http://www.w3.org/2000/svg" xmlns:xlink="http://www.w3.org/1999/xlink" x="0px" y="0px"
	 viewBox="0 0 48 48" style="enable-background:new 0 0 48 48;" xml:space="preserve">
<style type="text/css">
	.st0{fill:none;}
	.st1{fill:#BEC0C3;}
	.st2{fill:#282C36;}
	.st3{fill:none;stroke:#282C36;stroke-width:2;stroke-linejoin:round;stroke-miterlimit:10;}
	.st4{fill:#FFFFFF;}
	.st5{fill:#292D37;}
</style>
<g id="Boundary">
	<rect class="st0" width="48" height="48"/>
</g>
<g id="Design">
	<g>
		<path class="st1" d="M31.72,32.88c0.17-2.47,2.31-4.33,4.78-4.16c0.42,0.03,0.82,0.11,1.19,0.25c-0.87,0.72-1.87,1.27-2.96,1.61
			l0.01,0.06c-0.21,1.93-1.03,3.69-2.26,5.07C31.94,34.91,31.65,33.92,31.72,32.88z"/>
	</g>
	<g>
		<path class="st1" d="M37.7,28.97c1.85,0.66,3.11,2.48,2.96,4.53c-0.17,2.47-2.31,4.33-4.78,4.16c-1.43-0.1-2.65-0.85-3.4-1.95
			c1.23-1.38,2.05-3.14,2.26-5.07l-0.01-0.06c1.09-0.34,2.09-0.89,2.96-1.61H37.7z"/>
	</g>
	<g>
		<circle class="st1" cx="44.5" cy="40.5" r="2.5"/>
	</g>
	<g>
		<path class="st2" d="M44.5,37c-1.93,0-3.5,1.57-3.5,3.5s1.57,3.5,3.5,3.5s3.5-1.57,3.5-3.5S46.43,37,44.5,37z M44.5,42
			c-0.827,0-1.5-0.673-1.5-1.5s0.673-1.5,1.5-1.5s1.5,0.673,1.5,1.5S45.327,42,44.5,42z"/>
		<path class="st2" d="M39.372,28.745C41.05,26.916,42,24.531,42,22c0-4.009-2.521-7.655-6.329-9.239
			c-0.583-2.366-1.922-4.512-3.81-6.088C29.798,4.949,27.184,4,24.5,4c-4.209,0-7.947,2.117-9.967,5.584C13.403,9.196,12.218,9,11,9
			C4.935,9,0,13.935,0,20c0,2.227,0.701,4.433,1.981,6.26c-0.154,0.684-0.231,1.395-0.231,2.12c0,5.305,4.315,9.62,9.62,9.62
			c2.258,0,4.386-0.766,6.106-2.177c0.809,1.052,1.819,1.942,2.971,2.611c1.56,0.906,3.335,1.386,5.132,1.386
			c2.542,0,4.981-0.953,6.849-2.642c0.913,0.862,2.096,1.389,3.382,1.48c0.128,0.009,0.254,0.013,0.381,0.013
			c2.854,0,5.267-2.216,5.466-5.098C41.798,31.648,40.891,29.835,39.372,28.745z M25.58,37.82c-1.445,0-2.873-0.386-4.127-1.115
			c-1.212-0.703-2.229-1.711-2.942-2.915c-0.16-0.27-0.437-0.448-0.748-0.483c-0.31-0.04-0.621,0.077-0.837,0.304
			C15.459,35.151,13.486,36,11.37,36c-4.202,0-7.62-3.418-7.62-7.62c0-0.739,0.095-1.427,0.291-2.102
			c0.087-0.302,0.003-0.628-0.186-0.879c-0.038-0.051-0.082-0.097-0.129-0.139C2.612,23.739,2,21.878,2,20c0-4.963,4.038-9,9-9
			c1.255,0,2.464,0.254,3.595,0.754c0.495,0.221,1.075,0.005,1.308-0.484C17.45,8.02,20.745,6,24.5,6
			c2.216,0,4.375,0.784,6.079,2.208c1.681,1.403,2.835,3.351,3.25,5.482c0.067,0.348,0.313,0.634,0.646,0.752
			C37.728,15.599,40,18.706,40,22c0,2.247-0.935,4.351-2.564,5.859c-0.277-0.065-0.563-0.115-0.867-0.138
			c-3.024-0.217-5.639,2.075-5.846,5.091c-0.064,0.939,0.122,1.882,0.521,2.729C29.723,36.994,27.698,37.82,25.58,37.82z
			 M35.95,36.663c-1.075-0.076-2.039-0.629-2.642-1.513c-0.434-0.643-0.643-1.425-0.591-2.202c0.126-1.832,1.66-3.239,3.469-3.239
			c0.08,0,0.161,0.003,0.241,0.008c0.336,0.024,0.642,0.088,0.909,0.188c0.029,0.011,0.059,0.021,0.089,0.029
			c1.431,0.541,2.349,1.968,2.237,3.497C39.531,35.345,37.862,36.783,35.95,36.663z"/>
	</g>
</g>
</svg>
