<svg xmlns="http://www.w3.org/2000/svg" viewBox="0 0 48 48"><style>.st0{fill:none}.st1{fill:#bec0c3}.st2{fill:#282c36}</style><path class="st0" d="M0 0h48v48H0z" id="Boundary"/><g id="Design"><path class="st1" d="M.99 24C.99 11.3 11.29 1 24 1c12.7 0 23 10.3 23 23 0 12.71-10.3 23.01-23 23.01C11.29 47.01.99 36.71.99 24zM43 24c0-10.49-8.51-19-19-19C13.5 5 4.99 13.51 4.99 24c0 10.5 8.51 19.01 19.01 19.01 10.49 0 19-8.51 19-19.01z"/><path class="st2" d="M24 0C10.761 0-.01 10.766-.01 24c0 13.239 10.771 24.01 24.01 24.01 13.233 0 24-10.771 24-24.01C48 10.766 37.233 0 24 0zm0 46.01C11.864 46.01 1.99 36.136 1.99 24 1.99 11.869 11.864 2 24 2c12.131 0 22 9.869 22 22 0 12.136-9.869 22.01-22 22.01z"/><path class="st2" d="M24 4C12.967 4 3.99 12.972 3.99 24c0 11.033 8.977 20.01 20.01 20.01 11.028 0 20-8.977 20-20.01 0-11.028-8.972-20-20-20zm0 38.01c-9.931 0-18.01-8.079-18.01-18.01 0-9.925 8.079-18 18.01-18 9.925 0 18 8.075 18 18 0 9.931-8.075 18.01-18 18.01z"/><path class="st2" d="M25.374 23.96l6.374-7.176a.998.998 0 0 0-.09-1.417l-7-6.12A1.001 1.001 0 0 0 23 10v4.38h-.03v7.176l-5.263-5.263-1.414 1.414 6.331 6.331-6.372 7.177 1.496 1.328L23 26.626V38a1 1 0 0 0 1.707.707l7-7a.999.999 0 0 0 0-1.414l-6.333-6.333zM25 12.203l4.583 4.007L25 21.369v-9.166zm0 23.383v-9.172L29.586 31 25 35.586z"/></g></svg>