<?xml version="1.0" encoding="utf-8"?>
<!-- Generator: Adobe Illustrator 19.2.1, SVG Export Plug-In . SVG Version: 6.00 Build 0)  -->
<svg version="1.1" xmlns="http://www.w3.org/2000/svg" xmlns:xlink="http://www.w3.org/1999/xlink" x="0px" y="0px"
	 viewBox="0 0 48 48" style="enable-background:new 0 0 48 48;" xml:space="preserve">
<style type="text/css">
	.st0{fill:none;}
	.st1{fill:#BEC0C3;}
	.st2{fill:#282C36;}
</style>
<g id="Boundary">
	<rect class="st0" width="48" height="48"/>
</g>
<g id="Design">
	<g>
		<g>
			<path class="st1" d="M46,17.46v3.08l-2.23,0.42l-0.89,2.15l1.28,1.87l-2.18,2.18l-1.87-1.28l-2.15,0.89L37.54,29H37h-2.54
				l-0.42-2.23L33,26.34l-1.11-0.46l-1.87,1.28l-2.18-2.18l1.28-1.87l-0.89-2.15L26,20.54v-3.08l2.23-0.42l0.89-2.15l-1.28-1.87
				l2.18-2.18l1.87,1.28L33,11.66l1.04-0.43L34.46,9H37h0.54l0.42,2.23l2.15,0.89l1.87-1.28l2.18,2.18l-1.28,1.87l0.89,2.15
				L46,17.46z M40.01,20.71v-3.33l-2.35-2.35h-3.33l-2.35,2.35v3.33l2.35,2.35h3.33L40.01,20.71z"/>
		</g>
		<g>
			<circle class="st2" cx="20" cy="42" r="2"/>
			<path class="st2" d="M46.185,16.478l-1.698-0.32l-0.476-1.149l0.974-1.424c0.272-0.396,0.222-0.932-0.118-1.271l-2.18-2.18
				c-0.34-0.34-0.874-0.391-1.272-0.118l-1.423,0.975l-1.149-0.476l-0.32-1.698C38.465,8.508,38.262,8.267,38,8.128V3
				c0-1.654-1.346-3-3-3H5C3.346,0,2,1.346,2,3v42c0,1.654,1.346,3,3,3h30c1.654,0,3-1.346,3-3V29.872
				c0.262-0.139,0.465-0.38,0.523-0.688l0.32-1.698l1.149-0.476l1.423,0.975c0.398,0.271,0.933,0.223,1.272-0.118l2.18-2.18
				c0.34-0.34,0.39-0.875,0.118-1.271l-0.974-1.424l0.476-1.149l1.698-0.32C46.658,21.434,47,21.021,47,20.54v-3.08
				C47,16.979,46.658,16.566,46.185,16.478z M35,46H5c-0.551,0-1-0.448-1-1V3c0-0.552,0.449-1,1-1h30c0.551,0,1,0.448,1,1v5h-1.54
				C34.292,8,34.14,8.053,34,8.128V6H6v32h28v-8.128C34.14,29.946,34.292,30,34.46,30H36v15C36,45.552,35.551,46,35,46z
				 M27.015,13.584l0.974,1.424l-0.476,1.149l-1.698,0.32C25.342,16.566,25,16.979,25,17.46v3.08c0,0.48,0.342,0.894,0.815,0.982
				l1.698,0.32l0.476,1.149l-0.974,1.424c-0.272,0.396-0.222,0.932,0.118,1.271l2.18,2.18c0.34,0.34,0.875,0.39,1.272,0.118
				L32,27.016V36H8V8h24v2.984l-1.415-0.969c-0.397-0.271-0.931-0.222-1.272,0.118l-2.18,2.18
				C26.792,12.652,26.743,13.188,27.015,13.584z M45,19.711l-1.415,0.267c-0.332,0.062-0.61,0.288-0.739,0.6l-0.89,2.15
				c-0.129,0.312-0.092,0.669,0.099,0.947l0.812,1.186l-1.006,1.006l-1.185-0.812c-0.279-0.19-0.636-0.228-0.947-0.099l-2.15,0.89
				c-0.312,0.129-0.538,0.407-0.601,0.739L36.711,28h-1.422l-0.266-1.415c-0.062-0.333-0.289-0.61-0.601-0.739l-2.149-0.89
				c-0.312-0.129-0.669-0.092-0.948,0.099l-1.185,0.812l-1.006-1.006l0.812-1.186c0.191-0.278,0.228-0.635,0.099-0.947l-0.89-2.15
				c-0.129-0.312-0.407-0.537-0.739-0.6L27,19.711v-1.422l1.415-0.267c0.332-0.062,0.61-0.288,0.739-0.6l0.89-2.15
				c0.129-0.312,0.092-0.669-0.099-0.947l-0.812-1.186l1.006-1.006l1.185,0.812c0.278,0.19,0.636,0.227,0.948,0.099l2.149-0.89
				c0.312-0.129,0.539-0.406,0.601-0.739L35.289,10h1.422l0.266,1.415c0.062,0.332,0.289,0.61,0.601,0.739l2.15,0.89
				c0.311,0.128,0.668,0.092,0.947-0.099l1.185-0.812l1.006,1.006l-0.812,1.186c-0.191,0.278-0.228,0.635-0.099,0.947l0.89,2.15
				c0.129,0.312,0.407,0.537,0.739,0.6L45,18.289V19.711z"/>
			<path class="st2" d="M38.367,14.323c-0.188-0.188-0.442-0.293-0.707-0.293h-3.33c-0.265,0-0.52,0.105-0.707,0.293l-2.35,2.35
				c-0.188,0.188-0.293,0.441-0.293,0.707v3.33c0,0.266,0.105,0.52,0.293,0.707l2.35,2.35c0.188,0.188,0.442,0.293,0.707,0.293h3.33
				c0.265,0,0.52-0.105,0.707-0.293l2.35-2.35c0.188-0.188,0.293-0.441,0.293-0.707v-3.33c0-0.266-0.105-0.52-0.293-0.707
				L38.367,14.323z M39.01,20.296l-1.764,1.764h-2.502l-1.764-1.764v-2.502l1.764-1.764h2.502l1.764,1.764V20.296z"/>
		</g>
	</g>
</g>
</svg>
