<?xml version="1.0" encoding="utf-8"?>
<!-- Generator: Adobe Illustrator 19.2.1, SVG Export Plug-In . SVG Version: 6.00 Build 0)  -->
<svg version="1.1" xmlns="http://www.w3.org/2000/svg" xmlns:xlink="http://www.w3.org/1999/xlink" x="0px" y="0px"
	 viewBox="0 0 48 48" style="enable-background:new 0 0 48 48;" xml:space="preserve">
<style type="text/css">
	.st0{fill:none;}
	.st1{fill:#BEC0C3;}
	.st2{fill:#282C36;}
	.st3{fill:none;stroke:#282C36;stroke-width:2;stroke-linejoin:round;stroke-miterlimit:10;}
	.st4{fill:#FFFFFF;}
	.st5{fill:#292D37;}
</style>
<g id="Boundary">
	<rect class="st0" width="48" height="48"/>
</g>
<g id="Design">
	<g>
		<g>
			<path class="st1" d="M32,10.84C33.23,10.3,34.58,10,36,10c5.52,0,10,4.48,10,10c0,5.53-4.48,10.01-10,10.01
				c-1.42,0-2.77-0.3-4-0.84c-3.54-1.53-6.01-5.06-6.01-9.17C25.99,15.9,28.46,12.37,32,10.84z"/>
		</g>
		<g>
			<circle class="st2" cx="19" cy="42" r="2"/>
			<path class="st2" d="M47,20c0-5.728-4.402-10.442-10-10.949V3c0-1.654-1.346-3-3-3H4C2.346,0,1,1.346,1,3v42c0,1.654,1.346,3,3,3
				h30c1.654,0,3-1.346,3-3V30.959C42.598,30.451,47,25.733,47,20z M34,46H4c-0.552,0-1-0.448-1-1V3c0-0.552,0.448-1,1-1h30
				c0.552,0,1,0.448,1,1v6.051c-0.68,0.062-1.346,0.193-2,0.38V6H5v32h28v-7.421c0.654,0.187,1.321,0.318,2,0.38V45
				C35,45.552,34.552,46,34,46z M31,10.21c-3.671,1.859-6.01,5.629-6.01,9.79c0,4.169,2.341,7.944,6.01,9.801V36H7V8h24V10.21z
				 M36,29.01c-1.245,0-2.456-0.254-3.604-0.758c-3.284-1.42-5.406-4.659-5.406-8.252c0-3.587,2.122-6.822,5.412-8.244
				C33.544,11.254,34.755,11,36,11c4.963,0,9,4.037,9,9C45,24.968,40.963,29.01,36,29.01z"/>
			<path class="st2" d="M35.542,22.402h0.91c0.081,0,0.147-0.064,0.15-0.144l0.297-7.97c0.006-0.153-0.117-0.28-0.27-0.28h-1.265
				c-0.153,0-0.275,0.127-0.27,0.28l0.297,7.97C35.395,22.339,35.461,22.402,35.542,22.402z"/>
			<circle class="st2" cx="35.999" cy="24.801" r="1.199"/>
		</g>
	</g>
</g>
</svg>
