<?xml version="1.0" encoding="utf-8"?>
<!-- Generator: Adobe Illustrator 19.2.1, SVG Export Plug-In . SVG Version: 6.00 Build 0)  -->
<svg version="1.1" xmlns="http://www.w3.org/2000/svg" xmlns:xlink="http://www.w3.org/1999/xlink" x="0px" y="0px"
	 viewBox="0 0 48 48" style="enable-background:new 0 0 48 48;" xml:space="preserve">
<style type="text/css">
	.st0{fill:none;}
	.st1{fill:#BEC0C3;}
	.st2{fill:#282C36;}
	.st3{fill:none;stroke:#282C36;stroke-width:2;stroke-linejoin:round;stroke-miterlimit:10;}
	.st4{fill:#292D37;}
</style>
<g id="Boundary">
	<rect class="st0" width="48" height="48"/>
</g>
<g id="Design">
	<g>
		<polygon class="st1" points="2,4 46,4 46,6 45,6 3,6 2,6 		"/>
		<g>
			<path class="st2" d="M14.08,23.09l2.8,5.37c0.17,0.33,0.51,0.54,0.89,0.54c0.02,0,0.04,0,0.06,0c0.39-0.03,0.73-0.28,0.87-0.65
				l3.68-9.82l1.72,5.28c0.12,0.37,0.45,0.64,0.85,0.68c0.39,0.05,0.77-0.15,0.97-0.49l1.69-2.92l1.24,2.38
				c0.16,0.32,0.49,0.53,0.86,0.54c0.36,0.02,0.7-0.18,0.89-0.49l6.76-11.5l-1.72-1.02l-5.85,9.95l-1.25-2.4
				c-0.17-0.33-0.5-0.53-0.86-0.54c-0.37-0.02-0.71,0.18-0.89,0.5l-1.48,2.56l-1.91-5.87c-0.13-0.4-0.5-0.68-0.93-0.69
				c-0.01,0-0.01,0-0.02,0c-0.42,0-0.79,0.26-0.94,0.65l-3.89,10.4l-2.61-5.01c-0.17-0.33-0.5-0.53-0.87-0.54c-0.01,0-0.01,0-0.02,0
				c-0.36,0-0.69,0.19-0.87,0.51l-3.12,5.5l1.74,0.98L14.08,23.09z"/>
			<path class="st2" d="M47,2H1C0.45,2,0,2.45,0,3v4c0,0.55,0.45,1,1,1h1v26c0,0.55,0.45,1,1,1h20v5.18c-1.16,0.41-2,1.52-2,2.82
				c0,1.65,1.35,3,3,3s3-1.35,3-3c0-1.3-0.84-2.41-2-2.82V35h20c0.55,0,1-0.45,1-1V8h1c0.55,0,1-0.45,1-1V3C48,2.45,47.55,2,47,2z
				 M24,44c-0.55,0-1-0.45-1-1s0.45-1,1-1s1,0.45,1,1S24.55,44,24,44z M44,33H25H4V8h40V33z M46,6h-1H3H2V4h44V6z"/>
		</g>
	</g>
</g>
</svg>
