<svg xmlns="http://www.w3.org/2000/svg" viewBox="0 0 48 48"><style>.st0{fill:none}.st1{fill:#bec0c3}.st2{fill:#282c36}</style><path class="st0" d="M0 0h48v48H0z" id="Boundary"/><g id="Design"><path class="st1" d="M41.87 40.07c.48.87-.15 1.93-1.15 1.93H7.31c-1 0-1.63-1.06-1.15-1.93.35-.65.71-1.37 1.08-2.13L40 38l.67-.32c.4.86.81 1.67 1.2 2.39z"/><path class="st2" d="M15.312 1.882L14.369.118C10.66 2.102 7.932 5.625 6.88 9.785l1.939.49C9.732 6.659 12.1 3.6 15.312 1.882zm23.718 8.393l1.939-.49c-1.052-4.161-3.781-7.684-7.488-9.667l-.943 1.764c3.212 1.718 5.578 4.777 6.492 8.393zm3.719 29.319c-.405-.749-.8-1.535-1.174-2.338a81.214 81.214 0 0 1-1.979-4.58c-2.563-6.774-2.605-17.539-2.605-17.646 0-5.488-3.466-10.408-8.617-12.239-2.841-1.036-5.77-1.037-8.708-.003-5.159 1.834-8.625 6.754-8.625 12.236-.001.107-.101 10.792-2.6 17.639a78.229 78.229 0 0 1-2.1 4.84 58.546 58.546 0 0 1-1.056 2.084 2.275 2.275 0 0 0 .031 2.279A2.292 2.292 0 0 0 7.31 43h10.225c1.061 2.973 3.615 5 6.465 5s5.404-2.027 6.465-5H40.72c.829 0 1.574-.424 1.993-1.134.418-.707.43-1.559.036-2.272zM13.04 15.03c0-4.644 2.932-8.806 7.292-10.356 1.262-.444 2.495-.667 3.717-.667 1.221 0 2.43.222 3.646.666 4.363 1.551 7.295 5.714 7.295 10.358 0 .455.041 11.234 2.74 18.366a81.623 81.623 0 0 0 1.536 3.602l-30.464-.056a83.478 83.478 0 0 0 1.508-3.57c2.628-7.2 2.727-17.885 2.73-18.343zM24 46c-1.788 0-3.421-1.191-4.306-3h8.613c-.886 1.809-2.519 3-4.307 3zm16.991-5.151a.303.303 0 0 1-.271.151H7.31a.304.304 0 0 1-.271-.151.29.29 0 0 1 .003-.305c.266-.494.54-1.038.819-1.602L39.998 39l.001-.429c.322.672.649 1.342.995 1.981a.289.289 0 0 1-.003.297z"/><path class="st2" d="M22.173 9.273l-.666-1.886a7.498 7.498 0 0 0-4.987 7.063h2a5.493 5.493 0 0 1 3.653-5.177z"/></g></svg>