<?xml version="1.0" encoding="utf-8"?>
<!-- Generator: Adobe Illustrator 19.2.1, SVG Export Plug-In . SVG Version: 6.00 Build 0)  -->
<svg version="1.1" xmlns="http://www.w3.org/2000/svg" xmlns:xlink="http://www.w3.org/1999/xlink" x="0px" y="0px"
	 viewBox="0 0 48 48" style="enable-background:new 0 0 48 48;" xml:space="preserve">
<style type="text/css">
	.st0{fill:none;}
	.st1{fill:#BEC0C3;}
	.st2{fill:#282C36;}
</style>
<g id="Boundary">
	<rect class="st0" width="48" height="48"/>
</g>
<g id="Design">
	<g>
		<g>
			<path class="st1" d="M39,16.02c0-1.11-0.91-2.02-2.02-2.02H9v-1V9.98h38v6h-7L39,16.02z"/>
		</g>
		<g>
			<path class="st2" d="M44.98,5H11.02C9.355,5,8,6.355,8,8.02v0.96v2V13H3.02C1.355,13,0,14.355,0,16.02v23.96
				C0,41.645,1.355,43,3.02,43h33.96c1.665,0,3.02-1.355,3.02-3.02V35h4.98c1.665,0,3.02-1.355,3.02-3.02v-15v-2v-4v-2V8.02
				C48,6.355,46.645,5,44.98,5z M38,39.98c0,0.553-0.467,1.02-1.02,1.02H3.02C2.467,41,2,40.533,2,39.98V16.02
				C2,15.467,2.467,15,3.02,15h33.96c0.553,0,1.02,0.467,1.02,1.02V33v2V39.98z M46,31.98c0,0.553-0.467,1.02-1.02,1.02H40V16.98h6
				V31.98z M46,14.98h-6.196C39.378,13.828,38.278,13,36.98,13H10v-2.02h36V14.98z M10,8.98V8.02C10,7.467,10.467,7,11.02,7h33.96
				C45.533,7,46,7.467,46,8.02v0.96H10z"/>
			<path class="st2" d="M31.02,28.98c-0.877,0-1.74,0.243-2.5,0.682c-0.76-0.439-1.623-0.682-2.5-0.682c-2.757,0-5,2.243-5,5
				s2.243,5,5,5c0.877,0,1.74-0.243,2.5-0.682c0.76,0.439,1.623,0.682,2.5,0.682c2.757,0,5-2.243,5-5S33.777,28.98,31.02,28.98z
				 M28.02,33.98c0-0.595,0.186-1.151,0.5-1.63c0.314,0.479,0.5,1.036,0.5,1.63c0,0.594-0.186,1.151-0.5,1.63
				C28.206,35.131,28.02,34.574,28.02,33.98z M23.02,33.98c0-1.654,1.346-3,3-3c0.31,0,0.611,0.053,0.901,0.145
				c-0.578,0.826-0.901,1.813-0.901,2.855s0.323,2.03,0.9,2.855c-0.289,0.092-0.59,0.145-0.9,0.145
				C24.366,36.98,23.02,35.634,23.02,33.98z M31.02,36.98c-0.31,0-0.611-0.053-0.901-0.145c0.578-0.826,0.901-1.813,0.901-2.855
				c0-1.042-0.323-2.029-0.901-2.855c0.289-0.092,0.59-0.145,0.901-0.145c1.654,0,3,1.346,3,3S32.674,36.98,31.02,36.98z"/>
			<rect x="5.02" y="18.98" class="st2" width="6" height="2"/>
			<rect x="13.02" y="18.98" class="st2" width="6" height="2"/>
			<rect x="21.02" y="18.98" class="st2" width="6" height="2"/>
			<rect x="29.02" y="18.98" class="st2" width="6" height="2"/>
			<rect x="5.02" y="34.98" class="st2" width="7" height="2"/>
			<rect x="5.02" y="28.98" class="st2" width="12" height="2"/>
		</g>
	</g>
</g>
</svg>
