<svg xmlns="http://www.w3.org/2000/svg" viewBox="0 0 48 48"><style>.st0{fill:none}.st1{fill:#bec0c3}.st2{fill:#282c36}</style><path class="st0" d="M0 0h48v48H0z" id="Boundary"/><g id="Design"><g id="XMLID_54_"><path class="st1" d="M24 1c12.7 0 23 10.3 23 23 0 12.71-10.3 23.01-23 23.01C11.29 47.01.99 36.71.99 24 .99 11.3 11.29 1 24 1zm19 23c0-10.49-8.51-19-19-19C13.5 5 4.99 13.51 4.99 24c0 10.5 8.51 19.01 19.01 19.01 10.49 0 19-8.51 19-19.01z"/><path class="st2" d="M24 0C10.761 0-.01 10.767-.01 24c0 13.239 10.771 24.01 24.01 24.01 13.234 0 24-10.771 24-24.01C48 10.767 37.234 0 24 0zm0 46.01C11.864 46.01 1.99 36.136 1.99 24 1.99 11.869 11.864 2 24 2c12.131 0 22 9.869 22 22 0 12.136-9.869 22.01-22 22.01z"/><path class="st2" d="M24 4C12.967 4 3.99 12.972 3.99 24c0 11.033 8.977 20.01 20.01 20.01 11.028 0 20-8.977 20-20.01 0-11.028-8.972-20-20-20zm0 38.01c-9.931 0-18.01-8.079-18.01-18.01 0-9.925 8.079-18 18.01-18 9.925 0 18 8.075 18 18 0 9.931-8.075 18.01-18 18.01z"/><path class="st2" d="M34.458 23.126l-16.99-9.01A1.001 1.001 0 0 0 16 15v18.02a.998.998 0 0 0 1 1c.161 0 .322-.039.468-.116l16.99-9.01a1.002 1.002 0 0 0 0-1.768zM18 31.357V16.662l13.856 7.348L18 31.357z"/></g></g></svg>