<svg xmlns="http://www.w3.org/2000/svg" viewBox="0 0 48 48"><style>.st0{fill:none}.st1{fill:#bec0c3}.st2{fill:#282c36}</style><path class="st0" d="M0 0h48v48H0z" id="Boundary"/><g id="Design"><path class="st1" d="M1 41h46v3.99H1z"/><path class="st2" d="M47 20h-7V4a1 1 0 0 0-1-1H9a1 1 0 0 0-1 1v16H1a1 1 0 0 0-1 1v23.99a1 1 0 0 0 1 1h46a1 1 0 0 0 1-1V21a1 1 0 0 0-1-1zM10 5h28v20h-7V14h-2v11h-3.99V9h-2v16H19V9h-2v16h-7V5zm36 38.99H2V42h44v1.99zM46 40H2V22h6v3H6v2h36v-2h-2v-3h6v18z"/><circle class="st2" cx="41.5" cy="33.5" r="1.5"/></g></svg>