<svg xmlns="http://www.w3.org/2000/svg" viewBox="0 0 48 48"><style>.st0{fill:none}.st1{fill:#bec0c3}.st2{fill:#282c36}.st3{fill:none;stroke:#282c36;stroke-width:2;stroke-linejoin:round;stroke-miterlimit:10}.st4{fill:#292d37}</style><path class="st0" d="M0 0h48v48H0z" id="Boundary"/><g id="Design"><g id="XMLID_62_"><path class="st1" d="M18 30h8v9h-8z"/><path class="st2" d="M45 46V16c0-.334-.167-.646-.445-.832l-15-10a.995.995 0 0 0-1.109 0L24 8.132V6a1 1 0 0 0-1-1h-6a1 1 0 0 0-1 1v7.465l-2.555 1.703A1.001 1.001 0 0 0 13 16v18.294a5.438 5.438 0 0 0-1.8-.304 5.45 5.45 0 0 0-4.761 2.74c-.494-.08-1-.094-1.513-.033-2.554.292-4.611 2.394-4.891 4.997a5.777 5.777 0 0 0 1.428 4.47A5.524 5.524 0 0 0 5.56 48H48v-2h-3zM18 7h4v2.465l-4 2.667V7zm.94 39H5.56a3.471 3.471 0 0 1-2.609-1.174c-.713-.793-1.042-1.83-.927-2.92.181-1.68 1.497-3.035 3.131-3.223.138-.016.275-.023.41-.023.377 0 .744.062 1.095.185a1.002 1.002 0 0 0 1.266-.592c.526-1.396 1.781-2.263 3.274-2.263.762 0 1.482.243 2.09.705a.942.942 0 0 0 .088.078c.181.144.347.306.497.482-1.548.397-2.839 1.538-3.482 3.129l1.854.75c.473-1.171 1.489-1.947 2.632-2.025.173-.009.347-.01.516.006 1.616.155 2.835 1.537 2.835 3.215 0 .136-.023.37-.038.468a.983.983 0 0 0-.012.152c0 .514.44.989.946 1.053.241.028.46.154.619.355.171.218.247.495.211.783-.056.482-.503.859-1.016.859zm.06-8v-7h6v7h-6zm20 8h-8V31h8v15zm4 0h-2V30a1 1 0 0 0-1-1H30a1 1 0 0 0-1 1v16h-7.207c.07-.198.124-.403.15-.618a3.039 3.039 0 0 0-.626-2.262 2.942 2.942 0 0 0-1.087-.86 5.299 5.299 0 0 0-.548-2.26H26a1 1 0 0 0 1-1v-9a1 1 0 0 0-1-1h-8a1 1 0 0 0-1 1v7.472a5.02 5.02 0 0 0-.794-.249A5.58 5.58 0 0 0 15 35.548V16.535l14-9.333 14 9.333V46z"/><path class="st2" d="M25 19c0 2.206 1.794 4 4 4s4-1.794 4-4-1.794-4-4-4-4 1.794-4 4zm6 0c0 1.103-.897 2-2 2s-2-.897-2-2 .897-2 2-2 2 .897 2 2zm2 22c.55 0 1-.45 1-1s-.45-1-1-1c-.56 0-1 .45-1 1s.44 1 1 1z"/></g></g></svg>