<?xml version="1.0" encoding="utf-8"?>
<!-- Generator: Adobe Illustrator 19.2.1, SVG Export Plug-In . SVG Version: 6.00 Build 0)  -->
<svg version="1.1" xmlns="http://www.w3.org/2000/svg" xmlns:xlink="http://www.w3.org/1999/xlink" x="0px" y="0px"
	 viewBox="0 0 48 48" style="enable-background:new 0 0 48 48;" xml:space="preserve">
<style type="text/css">
	.st0{fill:none;}
	.st1{fill:#BEC0C3;}
	.st2{fill:#282C36;}
	.st3{fill:none;stroke:#282C36;stroke-width:2;stroke-linejoin:round;stroke-miterlimit:10;}
	.st4{fill:#292D37;}
</style>
<g id="Boundary">
	<rect class="st0" width="48" height="48"/>
</g>
<g id="Design">
	<g>
		<g id="XMLID_3_">
			<rect x="6" y="41" class="st1" width="36" height="2"/>
			<g>
				<path class="st2" d="M16,25h16c0.55,0,1-0.45,1-1v-6c0-0.55-0.45-1-1-1H16c-0.55,0-1,0.45-1,1v6C15,24.55,15.45,25,16,25z
					 M17,19h14v4H17V19z"/>
				<path class="st2" d="M45,3.01H3c-0.55,0-1,0.45-1,1V12c0,0.55,0.45,1,1,1h1v28v3c0,0.55,0.45,1,1,1h38c0.55,0,1-0.45,1-1v-5V13
					h1c0.55,0,1-0.45,1-1V4.01C46,3.46,45.55,3.01,45,3.01z M42,43H6v-2h36V43z M42,39H6V13h36V39z M44,11h-1H5H4V5.01h40V11z"/>
			</g>
		</g>
	</g>
</g>
</svg>
