<svg xmlns="http://www.w3.org/2000/svg" viewBox="0 0 48 48"><style>.st0{fill:none}.st1{fill:#bec0c3}.st2{fill:#282c36}.st3{fill:none;stroke:#282c36;stroke-width:2;stroke-linejoin:round;stroke-miterlimit:10}.st4{fill:#292d37}</style><path class="st0" d="M0 0h48v48H0z" id="Boundary"/><g id="Design"><g id="XMLID_57_"><path class="st1" d="M9 11h30v16H9z"/><path class="st2" d="M9 28h30a1 1 0 0 0 1-1V11a1 1 0 0 0-1-1H9a1 1 0 0 0-1 1v16a1 1 0 0 0 1 1zm1-16h28v14H10V12z"/><path class="st2" d="M47.996 39a.987.987 0 0 0-.101-.447l-3.989-7.978A1.99 1.99 0 0 0 44 30V8c0-1.103-.897-2-2-2H6c-1.103 0-2 .897-2 2v22c0 .201.039.392.094.575L.105 38.553A1 1 0 0 0 .004 39H0v3a1 1 0 0 0 1 1h46a1 1 0 0 0 1-1v-3h-.004zM42 8v22H6V8h36zM5.618 32h36.764l3 6H30.72l-.772-2.316A.998.998 0 0 0 29 35H19a.997.997 0 0 0-.948.684L17.28 38H2.618l3-6zm22.995 6h-9.226l.333-1h8.559l.334 1zM2 41v-1h44v1H2z"/></g></g></svg>