<?xml version="1.0" encoding="utf-8"?>
<!-- Generator: Adobe Illustrator 19.2.1, SVG Export Plug-In . SVG Version: 6.00 Build 0)  -->
<svg version="1.1" xmlns="http://www.w3.org/2000/svg" xmlns:xlink="http://www.w3.org/1999/xlink" x="0px" y="0px"
	 viewBox="0 0 48 48" style="enable-background:new 0 0 48 48;" xml:space="preserve">
<style type="text/css">
	.st0{fill:none;}
	.st1{fill:#BEC0C3;}
	.st2{fill:#282C36;}
</style>
<g id="Boundary">
	<rect class="st0" width="48" height="48"/>
</g>
<g id="Design">
	<g>
		<g>
			<circle class="st1" cx="10" cy="10" r="9"/>
		</g>
		<g>
			<path class="st2" d="M20,10c0-5.514-4.486-10-10-10S0,4.486,0,10s4.486,10,10,10S20,15.514,20,10z M2,10c0-4.411,3.589-8,8-8
				s8,3.589,8,8s-3.589,8-8,8S2,14.411,2,10z"/>
			<path class="st2" d="M27,29H10c-0.552,0-1,0.448-1,1v17c0,0.552,0.448,1,1,1h17c0.552,0,1-0.448,1-1V30
				C28,29.448,27.552,29,27,29z M26,46H11V31h15V46z"/>
			<path class="st2" d="M48.06,21.489l-10.1-17c-0.36-0.606-1.359-0.606-1.72,0l-10.1,17c-0.184,0.309-0.187,0.693-0.009,1.005
				S26.641,23,27,23h20.2c0.359,0,0.691-0.193,0.869-0.505S48.244,21.798,48.06,21.489z M28.757,21L37.1,6.958L45.443,21H28.757z"/>
			<path class="st2" d="M10,4c-3.309,0-6,2.691-6,6h2c0-2.206,1.794-4,4-4V4z"/>
		</g>
	</g>
</g>
</svg>
