<?xml version="1.0" encoding="utf-8"?>
<!-- Generator: Adobe Illustrator 19.2.1, SVG Export Plug-In . SVG Version: 6.00 Build 0)  -->
<svg version="1.1" xmlns="http://www.w3.org/2000/svg" xmlns:xlink="http://www.w3.org/1999/xlink" x="0px" y="0px"
	 viewBox="0 0 48 48" style="enable-background:new 0 0 48 48;" xml:space="preserve">
<style type="text/css">
	.st0{fill:none;}
	.st1{fill:#BEC0C3;}
	.st2{fill:#282C36;}
</style>
<g id="Boundary">
	<rect class="st0" width="48" height="48"/>
</g>
<g id="Design">
	<g>
		<g id="XMLID_55_">
			<g>
				<g>
					<path class="st1" d="M45.15,14.94L45,15l-8-1l-2.64-1.59c-1.34-0.8-3.07-0.46-4.01,0.79l-1.75,2.88
						c-1.81,0.76-2.85,1.97-2.6,3.92c0.14,1.12,0.89,3.18,1.42,4.56c0.34,0.87,1.14,1.47,2.06,1.55c1.6,0.14,4.11,0.41,5.52,0.83
						c2.19,0.66,2.19,3.89,1.9,5.06c-0.29,1.17-1.75,5.35-0.2,6.9c1.55,1.55,2.08,2.73,2.08,2.73C34.78,44.98,29.63,47,24,47
						c-0.68,0-1.34-0.03-2-0.09c-3.27-0.28-6.35-1.25-9.08-2.76L13,44l-2-6l4-2l2.79-6.43c0.62-1.24-0.2-2.7-1.57-2.83L9.08,26.1
						c-0.7-0.07-1.37-0.35-1.9-0.8l-5.87-5.04c0.18-1.12,0.44-2.2,0.78-3.26h3.53l1.42,2.38c0.33,0.56,0.93,0.87,1.54,0.87
						c0.34,0,0.68-0.09,0.99-0.3c0.79-0.52,1.03-1.57,0.55-2.39c-0.53-0.9-1.08-1.92-0.99-2.1l0.98-1.82
						c0.55-1.01,1.61-1.64,2.76-1.64C14.6,12,16,10.6,16,8.87V5l-1.81-1.81C17.16,1.79,20.49,1,24,1c1.66,0,3.29,0.18,4.85,0.52
						C28.51,2.95,28.14,6.84,34,7c0.56,0.02,3,2,3,2l2.69-1.79C42.01,9.36,43.88,11.99,45.15,14.94z"/>
				</g>
			</g>
		</g>
		<path class="st2" d="M46.068,14.545c-1.324-3.076-3.241-5.791-5.671-8.042c-0.176-0.176-0.352-0.34-0.525-0.492
			c-1.704-1.508-3.631-2.771-5.725-3.755c-1.509-0.713-3.124-1.271-4.805-1.66c-0.106-0.024-0.214-0.047-0.321-0.062
			C27.382,0.18,25.693,0,24,0c-3.575,0-7.02,0.77-10.236,2.286c-3.385,1.6-6.395,4.013-8.702,6.978
			c-1.746,2.235-3.066,4.735-3.924,7.431c-0.356,1.112-0.622,2.216-0.81,3.373c-0.006,0.025-0.011,0.052-0.015,0.079
			c-0.004,0.018-0.008,0.036-0.011,0.055C0.102,21.445,0,22.724,0,24c0,0.73,0.027,1.335,0.083,1.873
			c0.254,3.452,1.245,6.744,2.943,9.783c1.583,2.841,3.682,5.291,6.234,7.279c0.989,0.781,2.061,1.486,3.175,2.09
			c2.938,1.624,6.127,2.594,9.475,2.881C22.61,47.97,23.294,48,24,48c5.632,0,11.108-1.99,15.425-5.605
			c4.282-3.609,7.184-8.602,8.168-14.046C47.863,26.942,48,25.479,48,24C48,20.721,47.351,17.54,46.068,14.545z M38.049,7.099
			l-0.996,0.664C34.837,6.028,34.282,6.009,34.027,6c-1.875-0.051-3.156-0.507-3.809-1.355c-0.443-0.577-0.551-1.282-0.532-1.895
			c1.254,0.338,2.466,0.775,3.608,1.316C35.02,4.875,36.609,5.901,38.049,7.099z M6.639,10.494c1.974-2.537,4.51-4.623,7.358-6.083
			L15,5.414V8.87c0,1.175-0.955,2.13-2.13,2.13c-1.519,0-2.912,0.828-3.641,2.165l-0.994,1.848
			c-0.268,0.535-0.157,1.052,1.021,3.052c0.212,0.362,0.107,0.823-0.247,1.058c-0.347,0.235-0.89,0.121-1.111-0.255l-1.42-2.38
			C6.299,16.186,5.973,16,5.62,16H3.522C4.29,14.027,5.325,12.175,6.639,10.494z M4.773,34.682
			c-1.556-2.783-2.463-5.797-2.698-8.984C2.023,25.2,2,24.661,2,24c0-0.589,0.025-1.178,0.072-1.764l4.46,3.826
			c0.68,0.576,1.55,0.943,2.458,1.033l7.135,0.64c0.323,0.031,0.598,0.21,0.754,0.492c0.155,0.28,0.161,0.606-0.006,0.944
			l-2.646,6.097l-3.675,1.837c-0.445,0.223-0.659,0.738-0.501,1.211l1.196,3.589c-0.252-0.181-0.511-0.352-0.754-0.544
			C8.149,39.535,6.226,37.288,4.773,34.682z M22.085,45.914c-2.881-0.247-5.63-1.052-8.187-2.382l-1.675-5.025l3.225-1.612
			c0.21-0.105,0.377-0.281,0.47-0.496l2.768-6.381c0.438-0.875,0.416-1.907-0.057-2.76c-0.475-0.855-1.339-1.421-2.318-1.514
			l-7.131-0.64c-0.499-0.05-0.979-0.251-1.348-0.563l-5.427-4.659C2.523,19.246,2.672,18.62,2.848,18h2.205l1.126,1.888
			c0.494,0.84,1.415,1.362,2.401,1.362c0.559,0,1.094-0.163,1.54-0.465c1.232-0.812,1.611-2.45,0.861-3.733
			c-0.465-0.788-0.686-1.229-0.788-1.457l0.795-1.477C11.364,13.429,12.085,13,12.87,13C15.147,13,17,11.147,17,8.87V5
			c0-0.266-0.105-0.52-0.293-0.707l-0.766-0.766C18.504,2.517,21.207,2,24,2c1.248,0,2.493,0.111,3.714,0.322
			c-0.091,1.043,0.031,2.385,0.919,3.541c1.023,1.332,2.787,2.05,5.234,2.134c0.401,0.175,1.59,1.039,2.503,1.78
			C36.553,9.925,36.776,10,37,10c0.192,0,0.386-0.056,0.554-0.167L39.552,8.5c1.578,1.569,2.893,3.342,3.923,5.302l-6.142-0.768
			l-2.461-1.482c-1.787-1.066-4.073-0.614-5.378,1.129l-1.588,2.612c-2.734,1.277-3.093,3.32-2.899,4.831
			c0.117,0.942,0.602,2.511,1.48,4.8c0.481,1.232,1.595,2.068,2.905,2.183c2.431,0.212,4.32,0.493,5.318,0.792
			c1.422,0.428,1.447,2.936,1.218,3.861c-0.034,0.137-0.085,0.317-0.146,0.532c-0.547,1.938-1.563,5.542,0.209,7.315
			c0.707,0.708,1.179,1.326,1.474,1.763C33.112,44.743,27.604,46.408,22.085,45.914z M45.626,27.982
			c-0.835,4.616-3.183,8.86-6.628,12.09c-0.361-0.515-0.871-1.16-1.591-1.879c-0.943-0.944-0.006-4.267,0.302-5.358
			c0.067-0.239,0.124-0.441,0.162-0.595c0.396-1.598,0.296-5.392-2.585-6.258c-1.443-0.431-3.906-0.71-5.719-0.868
			c-0.539-0.047-1.017-0.407-1.214-0.913c-1.006-2.617-1.295-3.796-1.361-4.328c-0.123-0.954,0.019-2.041,1.994-2.871
			c0.194-0.081,0.358-0.223,0.468-0.402l1.694-2.798c0.635-0.844,1.793-1.073,2.696-0.535l2.64,1.59
			c0.119,0.072,0.253,0.118,0.392,0.136l7.579,0.947C45.466,18.506,46,21.21,46,24C46,25.353,45.875,26.689,45.626,27.982z"/>
	</g>
</g>
</svg>
