<svg xmlns="http://www.w3.org/2000/svg" viewBox="0 0 48 48"><style>.st0{fill:none}.st1{fill:#bec0c3}.st2{fill:#282c36}</style><path class="st0" d="M0 0h48v48H0z" id="Boundary"/><g id="Design"><path class="st1" d="M43.87 25c.73 3.74-1.78 7.62-5.74 7.97a6.641 6.641 0 0 1-1.27 0c-3.96-.35-6.46-4.23-5.73-7.97h12.74zm-27 0c.73 3.74-1.78 7.62-5.74 7.97a6.641 6.641 0 0 1-1.27 0C5.9 32.62 3.4 28.74 4.13 25h12.74z"/><path class="st2" d="M44.854 24.82a7.456 7.456 0 0 0-.508-1.671L39.029 11H43V9H24.97V5.816a2.996 2.996 0 0 0 2-2.816c0-1.654-1.346-3-3-3s-3 1.346-3 3c0 1.302.839 2.402 2 2.816V9H5v2h3.971L3.654 23.149a7.536 7.536 0 0 0-.506 1.66 7.904 7.904 0 0 0 1.439 6.255c1.27 1.688 3.111 2.719 5.179 2.901a7.41 7.41 0 0 0 1.452.001c2.077-.184 3.922-1.216 5.194-2.908a7.889 7.889 0 0 0 1.441-6.239 7.456 7.456 0 0 0-.508-1.671L12.029 11H22.97v29h-5.52a2.994 2.994 0 0 0-2.849 2.053l-1.55 4.63A1.002 1.002 0 0 0 14 48h20.01a1.002 1.002 0 0 0 .949-1.317l-1.548-4.625A2.993 2.993 0 0 0 30.56 40h-5.59V11h11.001l-5.317 12.149a7.536 7.536 0 0 0-.506 1.66 7.906 7.906 0 0 0 1.438 6.256c1.27 1.688 3.111 2.719 5.179 2.901a7.703 7.703 0 0 0 1.453 0c2.077-.184 3.922-1.216 5.194-2.908a7.891 7.891 0 0 0 1.442-6.238zM23.97 2a1.001 1.001 0 1 1-1 1c0-.551.448-1 1-1zm-9.156 27.856c-.928 1.233-2.268 1.985-3.779 2.119a5.805 5.805 0 0 1-1.087 0c-1.502-.133-2.838-.883-3.763-2.112A5.898 5.898 0 0 1 5.019 26h10.963a5.894 5.894 0 0 1-1.168 3.856zM15.532 24H5.468c.007-.016.011-.033.018-.049L10.5 12.494l5.014 11.457c.007.016.011.033.018.049zm15.98 18.688L32.62 46H15.39l1.109-3.317A.998.998 0 0 1 17.45 42h13.11c.434 0 .816.274.952.688zM37.5 12.494l5.014 11.457c.007.016.011.033.018.049H32.468c.007-.016.011-.033.018-.049L37.5 12.494zm4.314 17.362c-.928 1.233-2.268 1.985-3.779 2.119a5.805 5.805 0 0 1-1.087 0c-1.502-.133-2.838-.883-3.763-2.112a5.9 5.9 0 0 1-1.167-3.862h10.963a5.886 5.886 0 0 1-1.167 3.855z"/></g></svg>