<svg xmlns="http://www.w3.org/2000/svg" viewBox="0 0 48 48"><style>.st0{fill:none}.st1{fill:#bec0c3}.st2{fill:#282c36}</style><path class="st0" d="M0 0h48v48H0z" id="Boundary"/><g id="Design"><path class="st1" d="M14 7h20v30H14z"/><circle class="st2" cx="24" cy="42" r="2"/><path class="st2" d="M36 0H12c-1.654 0-3 1.346-3 3v42c0 1.654 1.346 3 3 3h24c1.654 0 3-1.346 3-3V3c0-1.654-1.346-3-3-3zm1 45c0 .551-.449 1-1 1H12c-.551 0-1-.449-1-1V3c0-.551.449-1 1-1h24c.551 0 1 .449 1 1v42z"/><path class="st2" d="M13 38h22V6H13v32zm2-30h18v28H15V8z"/></g></svg>