<svg xmlns="http://www.w3.org/2000/svg" viewBox="0 0 48 48"><style>.st0{fill:none}.st1{fill:#bec0c3}.st2{fill:#282c36}.st3{fill:none;stroke:#282c36;stroke-width:2;stroke-linejoin:round;stroke-miterlimit:10}.st4{fill:#fff}.st5{fill:#292d37}</style><path class="st0" d="M0 0h48v48H0z" id="Boundary"/><g id="Design"><path class="st1" d="M33.5 29a2.5 2.5 0 0 1 0 5h-19a2.5 2.5 0 0 1 0-5h19z"/><path class="st2" d="M38 18a1 1 0 0 0-1 1v5h-3V10a9.89 9.89 0 0 0-2.931-7.065A9.893 9.893 0 0 0 24 0c-5.514 0-10 4.486-10 10v14h-3v-5a1 1 0 0 0-1-1H6v2h3v5a1 1 0 0 0 1 1h13v2h-8.5c-.925 0-1.828.373-2.476 1.022A3.504 3.504 0 0 0 14.5 35H23v4.18l-9.196 1.839A2.996 2.996 0 0 0 11 44c0 1.654 1.346 3 3 3s3-1.346 3-3c0-.548-.158-1.055-.416-1.497L23 41.22v.965a2.996 2.996 0 0 0-2 2.816c0 1.654 1.346 3 3 3s3-1.346 3-3a2.996 2.996 0 0 0-2-2.816v-.965l6.416 1.283A2.957 2.957 0 0 0 31 44c0 1.654 1.346 3 3 3s3-1.346 3-3a2.994 2.994 0 0 0-2.804-2.98L25 39.18V35h8.5c.925 0 1.828-.373 2.476-1.022A3.504 3.504 0 0 0 33.5 28H25v-2h13a1 1 0 0 0 1-1v-5h3v-2h-4zM14 45a1 1 0 1 1 0-2 1 1 0 0 1 0 2zm21-1a1 1 0 1 1-2 0 1 1 0 0 1 2 0zm-11 2a1 1 0 1 1 0-2 1 1 0 0 1 0 2zm11-14.5c0 .397-.159.784-.438 1.063A1.51 1.51 0 0 1 33.5 33h-19a1.502 1.502 0 0 1-1.062-2.563A1.51 1.51 0 0 1 14.5 30h19c.827 0 1.5.673 1.5 1.5zM32 24H16V10c0-4.411 3.589-8 8-8 2.142 0 4.148.833 5.655 2.349A7.91 7.91 0 0 1 32 10v14z"/></g></svg>