<svg xmlns="http://www.w3.org/2000/svg" viewBox="0 0 48 48"><style>.st0{fill:none}.st1{fill:#bec0c3}.st2{fill:#282c36}</style><path class="st0" d="M0 0h48v48H0z" id="Boundary"/><g id="Design"><path class="st1" d="M.99 24C.99 11.3 11.29 1 24 1c12.7 0 23 10.3 23 23 0 12.71-10.3 23.01-23 23.01C11.29 47.01.99 36.71.99 24zM43 24c0-10.49-8.51-19-19-19C13.5 5 4.99 13.51 4.99 24c0 10.5 8.51 19.01 19.01 19.01 10.49 0 19-8.51 19-19.01z"/><path class="st2" d="M24 48.01C10.761 48.01-.01 37.239-.01 24-.01 10.766 10.761 0 24 0c13.233 0 24 10.766 24 24 0 13.239-10.767 24.01-24 24.01zM24 2C11.864 2 1.99 11.869 1.99 24c0 12.136 9.874 22.01 22.01 22.01 12.131 0 22-9.874 22-22.01 0-12.131-9.869-22-22-22z"/><path class="st2" d="M24 44.01C12.967 44.01 3.99 35.033 3.99 24 3.99 12.972 12.967 4 24 4c11.028 0 20 8.972 20 20 0 11.033-8.972 20.01-20 20.01zM24 6C14.069 6 5.99 14.075 5.99 24c0 9.931 8.079 18.01 18.01 18.01 9.925 0 18-8.079 18-18.01 0-9.925-8.075-18-18-18z"/><path class="st2" d="M35.339 22.104C31.905 19.38 28.09 18 24 18c-4.13 0-7.945 1.38-11.379 4.104l-1.242-1.567C15.175 17.526 19.407 16 23.96 16c4.593 0 8.825 1.526 12.621 4.536l-1.242 1.568z"/><path class="st2" d="M31.437 25.627C29.103 23.859 26.671 23 24 23c-2.717 0-5.152.859-7.486 2.627l-1.207-1.594C18 21.992 20.83 21 23.96 21c3.163 0 5.99.992 8.684 3.033l-1.207 1.594zm-3.871 3.559C26.364 28.366 25.265 28 24 28c-1.322 0-2.389.354-3.606 1.186l-1.127-1.652C20.82 26.473 22.269 26 23.96 26c1.709 0 3.2.487 4.733 1.534l-1.127 1.652z"/><circle class="st2" cx="24" cy="32.5" r="2"/></g></svg>