<?xml version="1.0" encoding="utf-8"?>
<!-- Generator: Adobe Illustrator 19.2.1, SVG Export Plug-In . SVG Version: 6.00 Build 0)  -->
<svg version="1.1" xmlns="http://www.w3.org/2000/svg" xmlns:xlink="http://www.w3.org/1999/xlink" x="0px" y="0px"
	 viewBox="0 0 48 48" style="enable-background:new 0 0 48 48;" xml:space="preserve">
<style type="text/css">
	.st0{fill:none;}
	.st1{fill:#BEC0C3;}
	.st2{fill:#282C36;}
</style>
<g id="Boundary">
	<rect class="st0" width="48" height="48"/>
</g>
<g id="Design">
	<g>
		<g>
			<path class="st1" d="M0.99,24C0.99,11.3,11.29,1,24,1c12.7,0,23,10.3,23,23c0,12.71-10.3,23.01-23,23.01
				C11.29,47.01,0.99,36.71,0.99,24z M43,24c0-10.49-8.51-19-19-19C13.5,5,4.99,13.51,4.99,24c0,10.5,8.51,19.01,19.01,19.01
				C34.49,43.01,43,34.5,43,24z"/>
		</g>
		<g>
			<path class="st2" d="M32.581,13.222l-22.08,10.19c-0.371,0.171-0.601,0.551-0.58,0.959c0.021,0.408,0.288,0.762,0.674,0.895
				l8.207,2.82l2.336,8.188c0.113,0.397,0.459,0.683,0.87,0.721C22.038,36.999,22.069,37,22.1,37c0.377,0,0.725-0.212,0.895-0.554
				l10.9-21.87c0.189-0.38,0.119-0.838-0.177-1.143C33.422,13.128,32.965,13.045,32.581,13.222z M22.354,33.248l-1.772-6.212
				c-0.09-0.314-0.328-0.565-0.637-0.671l-6.345-2.18l17.235-7.954L22.354,33.248z"/>
			<path class="st2" d="M24,0C10.761,0-0.01,10.766-0.01,24c0,13.239,10.771,24.01,24.01,24.01c13.233,0,24-10.771,24-24.01
				C48,10.766,37.233,0,24,0z M24,46.01C11.864,46.01,1.99,36.136,1.99,24C1.99,11.869,11.864,2,24,2c12.131,0,22,9.869,22,22
				C46,36.136,36.131,46.01,24,46.01z"/>
			<path class="st2" d="M24,4C12.967,4,3.99,12.972,3.99,24c0,11.033,8.977,20.01,20.01,20.01c11.028,0,20-8.977,20-20.01
				C44,12.972,35.028,4,24,4z M24,42.01c-9.931,0-18.01-8.079-18.01-18.01c0-9.925,8.079-18,18.01-18c9.925,0,18,8.075,18,18
				C42,33.931,33.925,42.01,24,42.01z"/>
		</g>
	</g>
</g>
</svg>
