<svg xmlns="http://www.w3.org/2000/svg" viewBox="0 0 48 48"><style>.st0{fill:none}.st1{fill:#bec0c3}.st2{fill:#282c36}</style><path class="st0" d="M0 0h48v48H0z" id="Boundary"/><g id="Design"><path class="st1" d="M31.06 39.31c.32.74 1.96 1.31 3.94 1.31 2.21 0 4-.71 4-1.58v4.38c0 .87-1.79 1.58-4 1.58s-4-.71-4-1.58v-4.11h.06z"/><path class="st1" d="M39 35.16v3.88c0 .87-1.79 1.58-4 1.58-1.98 0-3.62-.57-3.94-1.31H31v-4.15c0 .87 1.79 1.58 4 1.58s4-.71 4-1.58z"/><path class="st1" d="M35 33.58c2.21 0 4 .71 4 1.58s-1.79 1.58-4 1.58-4-.71-4-1.58c0-.76 1.37-1.4 3.2-1.55.26-.02.52-.03.8-.03z"/><path class="st2" d="M13.135 13.679A9.992 9.992 0 0 0 23 22c4.893 0 9.037-3.5 9.854-8.31A9.411 9.411 0 0 0 33 12c0-5.514-4.486-10-10-10S13 6.486 13 12c0 .568.045 1.13.133 1.671l.002.008zM23 20a7.986 7.986 0 0 1-7.644-5.646c2.224-.486 3.751-2.078 4.631-3.331 1.26 1.446 4.124 3.231 10.609 3.461A7.967 7.967 0 0 1 23 20zm0-16c4.411 0 8 3.589 8 8 0 .166-.011.326-.02.486-9.07-.247-9.991-3.623-9.993-3.63a.998.998 0 0 0-.863-.827 1.015 1.015 0 0 0-1.04.592c-.015.034-1.397 3.1-4.053 3.758-.007-.128-.031-.25-.031-.379 0-4.411 3.589-8 8-8zm-6.74 22h2.876l2.946 6.875a1 1 0 0 0 1.838 0L26.869 26h2.871A3.263 3.263 0 0 1 33 29.26V31h2v-1.74c0-2.9-2.359-5.26-5.26-5.26H16.26c-2.9 0-5.26 2.359-5.26 5.26V42a1 1 0 0 0 1 1h16v-2H13V29.26A3.263 3.263 0 0 1 16.26 26zM23 29.944L21.307 26h3.382L23 29.944z"/><path class="st2" d="M39.959 34.79c-.384-1.721-3.443-2.362-5.841-2.177-2.301.188-3.8 1.011-4.063 2.177H30v8.63c0 1.772 2.592 2.58 5 2.58s5-.808 5-2.58v-8.63h-.041zM38 38.923c-.241.255-1.311.698-3 .698-1.714 0-2.795-.456-3-.687v-1.659c.885.314 1.959.466 3 .466s2.115-.152 3-.466v1.648zm-3.723-4.316c.234-.018.47-.027.723-.027 1.447 0 2.447.326 2.855.58-.408.254-1.408.58-2.855.58-1.444 0-2.442-.325-2.853-.579.319-.196 1.019-.463 2.13-.554zM35 44c-1.668 0-2.742-.433-3-.69v-2.158c.928.328 2.033.468 3 .468 1.041 0 2.115-.152 3-.466v2.156c-.258.257-1.332.69-3 .69z"/></g></svg>