<?xml version="1.0" encoding="utf-8"?>
<!-- Generator: Adobe Illustrator 19.2.1, SVG Export Plug-In . SVG Version: 6.00 Build 0)  -->
<svg version="1.1" xmlns="http://www.w3.org/2000/svg" xmlns:xlink="http://www.w3.org/1999/xlink" x="0px" y="0px"
	 viewBox="0 0 48 48" style="enable-background:new 0 0 48 48;" xml:space="preserve">
<style type="text/css">
	.st0{fill:none;}
	.st1{fill:#BEC0C3;}
	.st2{fill:#282C36;}
</style>
<g id="Boundary">
	<rect class="st0" width="48" height="48"/>
</g>
<g id="Design">
	<g>
		<path class="st2" d="M20,4c-5.317,0-8.193,5.151-8.2,9.998l2,0.003C13.806,10.025,15.937,6,20,6V4z"/>
		<path class="st2" d="M37.481,40C37.216,40,37,39.781,37,39.474c0-0.662-0.258-1.284-0.726-1.751
			c-0.468-0.467-1.089-0.724-1.793-0.724c-0.001,0-0.002,0-0.004,0c-1.387,0.001-2.516,1.13-2.516,2.518v4.502
			c0,1.092-0.889,1.981-1.981,1.981C28.889,46,28,45.111,28,44.019V36c0-1.654-1.346-3-3-3s-3,1.346-3,3v0.5
			c0,0.276-0.225,0.5-0.5,0.5S21,36.776,21,36.5v-5.188c0.25,0.046,0.504,0.077,0.769,0.077c0.687,0,1.422-0.153,2.197-0.458
			c0.248-0.098,0.446-0.29,0.552-0.534c0.105-0.244,0.109-0.521,0.011-0.768l-0.783-1.959C29.172,25.902,33,20.35,33,14.011
			c0-7.713-5.832-13.988-13-13.988S7,6.298,7,14.011c0,6.338,3.828,11.891,9.255,13.658l-0.783,1.959
			c-0.144,0.359-0.057,0.765,0.206,1.048c0.263,0.284,0.677,0.385,1.044,0.271c0.969-0.305,1.884-0.596,2.198-0.518
			c0.031,0.007,0.052,0.021,0.08,0.029V36.5c0,1.378,1.121,2.5,2.5,2.5s2.5-1.122,2.5-2.5V36c0-0.551,0.448-1,1-1s1,0.449,1,1v8.019
			C26,46.214,27.785,48,29.98,48s3.981-1.786,3.981-3.981v-4.502c0-0.285,0.232-0.518,0.562-0.518h0.001
			c0.171,0,0.283,0.087,0.335,0.139C34.913,39.19,35,39.303,35,39.512C35,40.884,36.113,42,37.482,42L39,42v-2L37.481,40z
			 M18.81,28.419c-0.229,0-0.471,0.027-0.73,0.075l0.449-1.124c0.109-0.273,0.093-0.58-0.045-0.839
			c-0.138-0.259-0.382-0.445-0.669-0.508C12.789,24.919,9,19.755,9,14.011c0-6.61,4.935-11.988,11-11.988s11,5.378,11,11.988
			c0,5.744-3.789,10.908-8.814,12.012c-0.287,0.063-0.531,0.249-0.669,0.508c-0.138,0.26-0.153,0.567-0.045,0.839l0.79,1.976
			c-0.409,0.067-0.777,0.053-1.1-0.04c-0.242-0.07-0.396-0.166-0.607-0.299c-0.28-0.175-0.629-0.394-1.165-0.523
			C19.203,28.44,19.011,28.419,18.81,28.419z"/>
	</g>
</g>
</svg>
