<svg xmlns="http://www.w3.org/2000/svg" viewBox="0 0 48 48"><style>.st0{fill:none}.st1{fill:#bec0c3}.st2{fill:#282c36}.st3{fill:none;stroke:#282c36;stroke-width:2;stroke-linejoin:round;stroke-miterlimit:10}.st4{fill:#fff}.st5{fill:#292d37}</style><path class="st0" d="M0 0h48v48H0z" id="Boundary"/><g id="Design"><path class="st1" d="M31.72 32.88a4.48 4.48 0 0 1 5.97-3.91c-.87.72-1.87 1.27-2.96 1.61l.01.06a9.104 9.104 0 0 1-2.26 5.07c-.54-.8-.83-1.79-.76-2.83z"/><path class="st1" d="M37.7 28.97c1.85.66 3.11 2.48 2.96 4.53a4.48 4.48 0 0 1-4.78 4.16c-1.43-.1-2.65-.85-3.4-1.95a9.104 9.104 0 0 0 2.26-5.07l-.01-.06c1.09-.34 2.09-.89 2.96-1.61h.01z"/><circle class="st1" cx="44.5" cy="40.5" r="2.5"/><path class="st2" d="M44.5 37c-1.93 0-3.5 1.57-3.5 3.5s1.57 3.5 3.5 3.5 3.5-1.57 3.5-3.5-1.57-3.5-3.5-3.5zm0 5c-.827 0-1.5-.673-1.5-1.5s.673-1.5 1.5-1.5 1.5.673 1.5 1.5-.673 1.5-1.5 1.5zm-5.128-13.255A9.947 9.947 0 0 0 42 22c0-4.009-2.521-7.655-6.329-9.239a11.558 11.558 0 0 0-3.81-6.088A11.5 11.5 0 0 0 24.5 4c-4.209 0-7.947 2.117-9.967 5.584A10.837 10.837 0 0 0 11 9C4.935 9 0 13.935 0 20c0 2.227.701 4.433 1.981 6.26a9.652 9.652 0 0 0-.231 2.12c0 5.305 4.315 9.62 9.62 9.62a9.561 9.561 0 0 0 6.106-2.177 10.24 10.24 0 0 0 8.103 3.997 10.22 10.22 0 0 0 6.849-2.642 5.468 5.468 0 0 0 3.763 1.493c2.854 0 5.267-2.216 5.466-5.098.141-1.925-.766-3.738-2.285-4.828zM25.58 37.82a8.225 8.225 0 0 1-7.069-4.03.998.998 0 0 0-.748-.483.987.987 0 0 0-.837.304A7.61 7.61 0 0 1 11.37 36c-4.202 0-7.62-3.418-7.62-7.62 0-.739.095-1.427.291-2.102.087-.302.003-.628-.186-.879a.945.945 0 0 0-.129-.139A8.952 8.952 0 0 1 2 20c0-4.963 4.038-9 9-9 1.255 0 2.464.254 3.595.754a.999.999 0 0 0 1.308-.484C17.45 8.02 20.745 6 24.5 6c2.216 0 4.375.784 6.079 2.208a9.545 9.545 0 0 1 3.25 5.482.998.998 0 0 0 .646.752C37.728 15.599 40 18.706 40 22a7.958 7.958 0 0 1-2.564 5.859 5.626 5.626 0 0 0-.867-.138c-3.024-.217-5.639 2.075-5.846 5.091a5.54 5.54 0 0 0 .521 2.729 8.204 8.204 0 0 1-5.664 2.279zm10.37-1.157a3.477 3.477 0 0 1-2.642-1.513 3.485 3.485 0 0 1 3.119-5.433c.336.024.642.088.909.188a.924.924 0 0 0 .089.029 3.479 3.479 0 0 1 2.237 3.497c-.131 1.914-1.8 3.352-3.712 3.232z"/></g></svg>