<svg xmlns="http://www.w3.org/2000/svg" viewBox="0 0 48 48"><style>.st0{fill:none}.st1{fill:#bec0c3}.st2{fill:#282c36}</style><path class="st0" d="M0 0h48v48H0z" id="Boundary"/><g id="Design"><path class="st1" d="M19.99 42h9v5h-10v-5z"/><path class="st2" d="M24.829.041a17.542 17.542 0 0 0-2.469.064h-.003C14.301.937 7.99 7.795 7.99 15.72c0 8.641 4.419 12.883 7.343 15.69 1.484 1.425 2.657 2.55 2.657 3.599a1 1 0 0 0 1 1h1.698L19.24 41h-2.25v2h1v4a1 1 0 0 0 1 1h10a1 1 0 0 0 1-1v-4h1v-2h-2.24l-1.449-4.99H29a1 1 0 0 0 1-1c0-1.049 1.173-2.174 2.657-3.599C35.581 28.604 40 24.361 40 15.72 40 7.529 33.201.496 24.829.041zM22.99 2.609v28.145c-.515-.907-1.111-1.763-1.726-2.636-2.149-3.05-4.585-6.507-4.226-14.02.212-4.384 2.426-8.597 5.952-11.489zm2-.016c3.537 2.893 5.76 7.113 5.971 11.504.353 7.513-2.08 10.97-4.228 14.02-.622.884-1.224 1.75-1.743 2.67V2.593zm-8.271 27.375c-2.84-2.726-6.729-6.459-6.729-14.248 0-6.065 4.251-11.414 10.055-13.126-2.978 3.124-4.802 7.198-5.004 11.408-.392 8.199 2.37 12.119 4.589 15.268 1.117 1.587 2.101 3 2.587 4.74h-2.37c-.417-1.44-1.693-2.664-3.128-4.042zM27.99 46h-8v-3h8v3zm-1.321-5h-5.347l1.449-4.99h2.449L26.669 41zm4.602-11.032c-1.436 1.378-2.711 2.602-3.128 4.042h-2.36c.485-1.74 1.468-3.154 2.586-4.742 2.216-3.149 4.975-7.068 4.59-15.266-.202-4.197-2.014-8.258-4.976-11.378C33.73 4.358 38 9.67 38 15.72c0 7.789-3.889 11.522-6.729 14.248z"/></g></svg>