<?xml version="1.0" encoding="utf-8"?>
<!-- Generator: Adobe Illustrator 19.2.1, SVG Export Plug-In . SVG Version: 6.00 Build 0)  -->
<svg version="1.1" xmlns="http://www.w3.org/2000/svg" xmlns:xlink="http://www.w3.org/1999/xlink" x="0px" y="0px"
	 viewBox="0 0 48 48" style="enable-background:new 0 0 48 48;" xml:space="preserve">
<style type="text/css">
	.st0{fill:none;}
	.st1{fill:#BEC0C3;}
	.st2{fill:#282C36;}
</style>
<g id="Boundary">
	<rect class="st0" width="48" height="48"/>
</g>
<g id="Design">
	<g>
		<g>
			<path class="st1" d="M27,33.66c0.69-0.16,1.36-0.37,2-0.64V40H19v-7.01c0.64,0.26,1.31,0.48,2,0.65
				c0.97,0.24,1.99,0.36,3.04,0.36C25.06,34,26.05,33.88,27,33.66z"/>
		</g>
		<path class="st2" d="M38.05,20.99c0-7.725-6.285-14.01-14.01-14.01s-14.01,6.285-14.01,14.01c0,5.418,3.11,10.302,7.97,12.636V43
			c0,1.103,0.897,2,2,2v0.18c0,1.555,1.265,2.82,2.82,2.82h2.36c1.555,0,2.82-1.265,2.82-2.82V45c1.103,0,2-0.897,2-2v-9.338
			C34.909,31.357,38.05,26.46,38.05,20.99z M20,34.394c0.253,0.076,0.506,0.155,0.76,0.217C21.805,34.869,22.908,35,24.04,35
			c1.064,0,2.136-0.123,3.186-0.366c0.266-0.062,0.519-0.138,0.774-0.213V39h-8V34.394z M26,32.818c-1.352,0.221-2.717,0.213-4-0.01
			V27h4V32.818z M20,25h-1c-0.267,0-0.513-0.102-0.712-0.306C18.102,24.513,18,24.267,18,24c0-0.551,0.449-1,1-1s1,0.449,1,1V25z
			 M26,45.18C26,45.64,25.64,46,25.18,46h-2.36C22.36,46,22,45.64,22,45.18V45h4V45.18z M27,43h-6h-1v-2h8v2H27z M28.611,32.099
			c-0.195,0.082-0.404,0.153-0.611,0.225V27h1c1.654,0,3-1.346,3-3s-1.346-3-3-3s-3,1.346-3,3v1h-4v-1c0-1.654-1.346-3-3-3
			s-3,1.346-3,3c0,0.811,0.317,1.565,0.874,2.108C17.435,26.683,18.189,27,19,27h1v5.291c-0.206-0.072-0.413-0.142-0.617-0.225
			c-4.467-1.894-7.354-6.24-7.354-11.076c0-6.623,5.388-12.01,12.01-12.01c6.622,0,12.01,5.388,12.01,12.01
			C36.05,25.875,33.133,30.234,28.611,32.099z M28,25v-1c0-0.551,0.449-1,1-1s1,0.449,1,1s-0.449,1-1,1H28z"/>
	</g>
</g>
</svg>
