<?xml version="1.0" encoding="utf-8"?>
<!-- Generator: Adobe Illustrator 19.2.1, SVG Export Plug-In . SVG Version: 6.00 Build 0)  -->
<svg version="1.1" xmlns="http://www.w3.org/2000/svg" xmlns:xlink="http://www.w3.org/1999/xlink" x="0px" y="0px"
	 viewBox="0 0 48 48" style="enable-background:new 0 0 48 48;" xml:space="preserve">
<style type="text/css">
	.st0{fill:none;}
	.st1{fill:#BEC0C3;}
	.st2{fill:#282C36;}
	.st3{fill:none;stroke:#282C36;stroke-width:2;stroke-linejoin:round;stroke-miterlimit:10;}
	.st4{fill:#292D37;}
</style>
<g id="Boundary">
	<rect class="st0" width="48" height="48"/>
</g>
<g id="Design">
	<g id="XMLID_60_">
		<g>
			<g>
				<path class="st1" d="M36.62,30.34c0.6-0.35,1.08-0.84,1.38-1.51c-0.33,1-0.84,1.91-1.5,2.69c-1.44,1.69-3.56,2.77-5.93,2.77
					c-2.78,0-5.2-1.62-6.57-3.84c-1.38,2.22-3.8,3.84-6.58,3.84c-2.37,0-4.49-1.08-5.93-2.77c-0.66-0.78-1.17-1.69-1.5-2.69
					c0.3,0.67,0.78,1.16,1.39,1.51c0.68,0.39,1.52,0.57,2.4,0.56c3.98-0.05,3.51-3.27,4.75-4.7c0.65-0.75,1.52-1.2,2.58-1.2
					c1.18,0,2.26,0.71,2.89,1.62c0.62-0.91,1.7-1.62,2.88-1.62c1.07,0,1.93,0.45,2.58,1.2c1.24,1.43,0.77,4.65,4.75,4.7
					C35.09,30.91,35.93,30.73,36.62,30.34z"/>
			</g>
		</g>
		<g>
			<path class="st2" d="M45,24h-1.141l-0.454-2h1.555c1.103,0,2-0.897,2-2v-2c0-1.103-0.897-2-2-2h-2.917l-1.506-6.633
				C40.234,7.974,39.026,7,37.6,7H10.29C8.863,7,7.655,7.974,7.355,9.358L5.847,16H2.93c-1.103,0-2,0.897-2,2v2c0,1.103,0.897,2,2,2
				h1.555l-0.454,2H3c-1.654,0-3,1.346-3,3v13c0,0.553,0.448,1,1,1h3v3.96C4,46.637,5.364,48,7.04,48h1.92
				c1.676,0,3.04-1.363,3.04-3.04V41h24v3.96c0,1.677,1.364,3.04,3.04,3.04h1.92c1.676,0,3.04-1.363,3.04-3.04V41h3
				c0.552,0,1-0.447,1-1V27C48,25.346,46.654,24,45,24z M44.96,18v2h-2.009l-0.454-2H44.96z M2.93,20v-2h2.463L4.94,20H2.93z
				 M9.307,9.792C9.409,9.326,9.812,9,10.29,9H37.6c0.477,0,0.881,0.326,0.985,0.802L41.808,24H26.88
				c-1.033,0-2.065,0.416-2.884,1.13C23.172,24.416,22.139,24,21.11,24H6.082L9.307,9.792z M28.705,26.855
				c0.25,0.288,0.436,0.785,0.632,1.312c0.548,1.469,1.377,3.688,4.862,3.733c0.157,0.003,0.313-0.001,0.468-0.011
				c-1.177,0.901-2.611,1.4-4.097,1.4c-2.246,0-4.438-1.289-5.719-3.365c-0.182-0.295-0.503-0.474-0.85-0.475H24
				c-0.346,0-0.667,0.179-0.849,0.472C21.859,32,19.664,33.29,17.42,33.29c-1.486,0-2.92-0.499-4.097-1.4
				c0.155,0.01,0.312,0.012,0.469,0.011c3.483-0.045,4.312-2.265,4.861-3.733c0.197-0.526,0.382-1.023,0.632-1.312
				C19.777,26.288,20.391,26,21.11,26c0.756,0,1.568,0.467,2.068,1.189c0.187,0.27,0.494,0.431,0.822,0.431
				c0.348-0.017,0.641-0.165,0.827-0.437C25.316,26.465,26.122,26,26.88,26C27.609,26,28.206,26.279,28.705,26.855z M10,44.96
				C10,45.533,9.533,46,8.96,46H7.04C6.467,46,6,45.533,6,44.96V41h4V44.96z M42,44.96c0,0.573-0.467,1.04-1.04,1.04h-1.92
				C38.467,46,38,45.533,38,44.96V41h4V44.96z M46,39h-3h-6H11H5H2V27c0-0.552,0.449-1,1-1h14.442
				c-0.285,0.459-0.477,0.969-0.662,1.467c-0.522,1.397-0.899,2.406-3.011,2.434c-0.715,0.016-1.389-0.14-1.891-0.428
				c-0.457-0.262-0.775-0.605-0.975-1.051c-0.218-0.486-0.776-0.717-1.274-0.524c-0.497,0.192-0.755,0.74-0.588,1.246
				c0.369,1.12,0.937,2.137,1.688,3.024c1.69,1.984,4.129,3.122,6.691,3.122c2.475,0,4.891-1.18,6.578-3.149
				c1.68,1.97,4.094,3.149,6.572,3.149c2.562,0,5.001-1.138,6.693-3.124c0.749-0.885,1.316-1.901,1.687-3.022
				c0.167-0.506-0.092-1.054-0.588-1.246c-0.497-0.193-1.057,0.038-1.274,0.524c-0.199,0.444-0.517,0.789-0.96,1.048
				c-0.513,0.289-1.192,0.42-1.905,0.431c-2.114-0.027-2.491-1.036-3.012-2.433c-0.186-0.498-0.377-1.008-0.663-1.468H45
				c0.551,0,1,0.448,1,1V39z"/>
			<path class="st2" d="M6.5,31C4.57,31,3,32.57,3,34.5S4.57,38,6.5,38s3.5-1.57,3.5-3.5S8.43,31,6.5,31z M6.5,36
				C5.673,36,5,35.327,5,34.5S5.673,33,6.5,33S8,33.673,8,34.5S7.327,36,6.5,36z"/>
			<path class="st2" d="M41.5,31c-1.93,0-3.5,1.57-3.5,3.5s1.57,3.5,3.5,3.5s3.5-1.57,3.5-3.5S43.43,31,41.5,31z M41.5,36
				c-0.827,0-1.5-0.673-1.5-1.5s0.673-1.5,1.5-1.5s1.5,0.673,1.5,1.5S42.327,36,41.5,36z"/>
		</g>
	</g>
</g>
</svg>
