<svg xmlns="http://www.w3.org/2000/svg" viewBox="0 0 48 48"><style>.st0{fill:none}.st1{fill:#bec0c3}.st2{fill:#282c36}</style><path class="st0" d="M0 0h48v48H0z" id="Boundary"/><g id="Design"><path class="st1" d="M35.06 24.57c-.08.22-.18.44-.28.66C32.77 29.44 30.11 32.26 30 39c0 .21-.37.39-1 .55-1.08.27-2.92.45-5 .45s-3.92-.18-5-.45c-.63-.16-1-.34-1-.55h.01c-.11-6.74-2.77-9.56-4.78-13.77-.1-.22-.2-.44-.29-.66l.06-.02c3.5.29 7.19.45 11 .45s7.5-.16 11-.45l.06.02z"/><path class="st2" d="M35.617 14.074c-1.612-3.284-4.411-5.62-7.884-6.579a14.35 14.35 0 0 0-7.459.001c-3.473.959-6.275 3.298-7.889 6.585a13.27 13.27 0 0 0-.371 10.866c.093.228.196.455.313.713.478 1.001.991 1.925 1.487 2.817 1.6 2.88 3.111 5.602 3.194 10.522H17c0 .686.5 1.059 1 1.276V43c0 1.103.897 2 2 2v.18A2.823 2.823 0 0 0 22.82 48h2.36A2.823 2.823 0 0 0 28 45.18V45c1.103 0 2-.897 2-2v-2.724c.495-.214.989-.585.998-1.26H31c.08-4.931 1.593-7.654 3.195-10.537.496-.894 1.009-1.817 1.499-2.843a9.48 9.48 0 0 0 .292-.688 13.276 13.276 0 0 0-.369-10.874zm-21.437.889c1.358-2.767 3.712-4.734 6.623-5.538 2.06-.561 4.33-.565 6.401-.001 2.911.804 5.261 2.769 6.617 5.532 1.32 2.688 1.495 5.786.522 8.633-6.795.532-13.893.532-20.688 0a11.262 11.262 0 0 1 .525-8.626zm4.818 24.021L19 39h-.99l.988-.016zM26 45.18c0 .46-.36.82-.82.82h-2.36c-.46 0-.82-.36-.82-.82V45h4v.18zM27 43h-7v-2.25c1.125.159 2.529.25 4 .25 1.47 0 2.874-.091 4-.25V43h-1zm2-4l.002-.016L30 39h-1zm.026-.497a3.894 3.894 0 0 1-.269.076c-2.074.519-7.443.518-9.512.001a4.43 4.43 0 0 1-.262-.074c-.181-5.125-1.821-8.12-3.421-11a68.102 68.102 0 0 1-.989-1.841C17.68 25.883 20.841 26 24 26c3.163 0 6.327-.117 9.437-.335-.326.63-.66 1.247-.991 1.843-1.599 2.879-3.238 5.873-3.42 10.995zM23 0h2v5h-2z"/><path transform="rotate(-30 14.75 4.976)" class="st2" d="M13.75 2.475h2v5h-2z"/><path transform="rotate(-60 7.975 11.75)" class="st2" d="M6.975 9.25h2v5h-2z"/><path class="st2" d="M4 20h5v2H4z"/><path transform="rotate(-29.991 8.857 29.371)" class="st2" d="M6.355 28.37h5v2h-5z"/><path transform="rotate(-60 39.113 29.351)" class="st2" d="M38.115 26.85h2v5h-2z"/><path class="st2" d="M39 20h5v2h-5z"/><path transform="rotate(-29.991 40.027 11.749)" class="st2" d="M37.525 10.75h5v2h-5z"/><path transform="rotate(-60.007 33.249 4.975)" class="st2" d="M30.75 3.975h5v2h-5z"/></g></svg>