<svg xmlns="http://www.w3.org/2000/svg" viewBox="0 0 48 48"><style>.st0{fill:none}.st1{fill:#d4d5d7}.st2{fill:#282c36}</style><path class="st0" d="M0 0h48v48H0z" id="Boundary"/><g id="Design"><g id="XMLID_32_"><path class="st1" d="M3 8h28v4H3z"/><path class="st2" d="M11 17H7a1 1 0 0 0-1 1v7a1 1 0 0 0 1 1h4a1 1 0 0 0 1-1v-7a1 1 0 0 0-1-1zm-1 7H8v-5h2v5zm9-7h-4a1 1 0 0 0-1 1v7a1 1 0 0 0 1 1h4a1 1 0 0 0 1-1v-7a1 1 0 0 0-1-1zm-1 7h-2v-5h2v5zm5 2h4a1 1 0 0 0 1-1v-7a1 1 0 0 0-1-1h-4a1 1 0 0 0-1 1v7a1 1 0 0 0 1 1zm1-7h2v5h-2v-5z"/><path class="st2" d="M42 34.92c3.386-.488 6-3.401 6-6.92 0-2.803-3.733-14-7-14-3.026 0-7 10.851-7 14 0 3.519 2.614 6.432 6 6.92V41h-8V8a1 1 0 0 0-1-1H3a1 1 0 0 0-1 1v33H0v2h48v-2h-6v-6.08zM36 28c0-3.099 3.606-11.169 5.013-11.974C42.41 16.756 46 24.816 46 28a5.01 5.01 0 0 1-4 4.899V26h-2v2.865l-1.359-1.133-1.281 1.536L40 31.469v1.43A5.01 5.01 0 0 1 36 28zM30 9v2H4V9h26zM20 41h-6v-8h6v8zm-7-10a1 1 0 0 0-1 1v9H4V13h26v28h-8v-9a1 1 0 0 0-1-1h-8z"/></g></g></svg>