<?xml version="1.0" encoding="utf-8"?>
<!-- Generator: Adobe Illustrator 19.2.1, SVG Export Plug-In . SVG Version: 6.00 Build 0)  -->
<svg version="1.1" xmlns="http://www.w3.org/2000/svg" xmlns:xlink="http://www.w3.org/1999/xlink" x="0px" y="0px"
	 viewBox="0 0 48 48" style="enable-background:new 0 0 48 48;" xml:space="preserve">
<style type="text/css">
	.st0{fill:none;}
	.st1{fill:#BEC0C3;}
	.st2{fill:#282C36;}
</style>
<g id="Boundary">
	<rect class="st0" width="48" height="48"/>
</g>
<g id="Design">
	<g>
		<rect x="22" y="13" class="st1" width="21" height="26"/>
		<g>
			<path class="st2" d="M45.3,6H32.216L31.43,2.157c-0.3-1.446-1.729-2.396-3.179-2.107L3.158,5.161
				C1.709,5.46,0.764,6.887,1.051,8.35L8.16,43.232c0.265,1.279,1.391,2.163,2.64,2.163c0.178,0,0.358-0.018,0.54-0.055L17,44.186
				V44.3c0,1.489,1.211,2.7,2.7,2.7h25.6c1.489,0,2.7-1.211,2.7-2.7V8.7C48,7.211,46.789,6,45.3,6z M10.937,43.38
				c-0.376,0.08-0.739-0.172-0.818-0.55L3.012,7.957C2.937,7.574,3.184,7.198,3.56,7.12l25.082-5.109
				c0.394-0.074,0.75,0.167,0.829,0.549L30.175,6H19.7c-1.406,0-2.551,1.084-2.676,2.458L5.63,10.78l5.59,27.439L17,37.044v5.101
				L10.937,43.38z M17,35.003l-4.22,0.858L7.989,12.34L17,10.504V35.003z M46,44.3c0,0.386-0.314,0.7-0.7,0.7H19.7
				c-0.386,0-0.7-0.314-0.7-0.7V8.7C19,8.314,19.314,8,19.7,8h25.6C45.686,8,46,8.314,46,8.7V44.3z"/>
			<path class="st2" d="M21,40h23V12H21V40z M23,14h19v24H23V14z"/>
			<circle class="st2" cx="32.501" cy="42.501" r="1.496"/>
		</g>
	</g>
</g>
</svg>
