<?xml version="1.0" encoding="utf-8"?>
<!-- Generator: Adobe Illustrator 19.2.1, SVG Export Plug-In . SVG Version: 6.00 Build 0)  -->
<svg version="1.1" xmlns="http://www.w3.org/2000/svg" xmlns:xlink="http://www.w3.org/1999/xlink" x="0px" y="0px"
	 viewBox="0 0 48 48" style="enable-background:new 0 0 48 48;" xml:space="preserve">
<style type="text/css">
	.st0{fill:none;}
	.st1{fill:#BEC0C3;}
	.st2{fill:#282C36;}
</style>
<g id="Boundary">
	<rect class="st0" width="48" height="48"/>
</g>
<g id="Design">
	<g>
		<g>
			<rect x="10" y="43" class="st1" width="29" height="4"/>
		</g>
		<path class="st2" d="M39,20h-4.01v-9.47c0-2.808-1.092-5.445-3.073-7.427C29.936,1.121,27.298,0.03,24.49,0.03
			C18.706,0.03,14,4.74,14,10.53V20h-4c-0.553,0-1,0.448-1,1v26c0,0.552,0.447,1,1,1h29c0.553,0,1-0.448,1-1V21
			C40,20.448,39.553,20,39,20z M16,10.53c0-4.687,3.809-8.5,8.49-8.5c2.273,0,4.409,0.883,6.013,2.487s2.487,3.739,2.487,6.013V20
			H31v-9.5c0-1.737-0.676-3.37-1.903-4.597C27.87,4.676,26.238,4,24.5,4C20.916,4,18,6.916,18,10.5V20h-2V10.53z M29,20h-9v-9.5
			C20,8.019,22.019,6,24.5,6c1.203,0,2.334,0.468,3.183,1.317C28.532,8.167,29,9.297,29,10.5V20z M38,22v2H11v-2H38z M38,26v16H11
			V26H38z M11,46v-2h27v2H11z"/>
	</g>
</g>
</svg>
