<svg xmlns="http://www.w3.org/2000/svg" viewBox="0 0 48 48"><style>.st0{fill:none}.st1{fill:#bec0c3}.st2{fill:#282c36}.st3{fill:none;stroke:#282c36;stroke-width:2;stroke-linejoin:round;stroke-miterlimit:10}.st4{fill:#292d37}</style><path class="st0" d="M0 0h48v48H0z" id="Boundary"/><g id="Design"><path class="st1" d="M2 4h44v2H2z"/><path class="st2" d="M14.08 23.09l2.8 5.37c.17.33.51.54.89.54h.06c.39-.03.73-.28.87-.65l3.68-9.82 1.72 5.28c.12.37.45.64.85.68.39.05.77-.15.97-.49l1.69-2.92 1.24 2.38c.16.32.49.53.86.54.36.02.7-.18.89-.49l6.76-11.5-1.72-1.02-5.85 9.95-1.25-2.4a.994.994 0 0 0-.86-.54.965.965 0 0 0-.89.5l-1.48 2.56-1.91-5.87a1 1 0 0 0-.93-.69h-.02c-.42 0-.79.26-.94.65l-3.89 10.4-2.61-5.01a.997.997 0 0 0-.87-.54h-.02c-.36 0-.69.19-.87.51l-3.12 5.5 1.74.98 2.21-3.9z"/><path class="st2" d="M47 2H1c-.55 0-1 .45-1 1v4c0 .55.45 1 1 1h1v26c0 .55.45 1 1 1h20v5.18A3 3 0 0 0 21 43c0 1.65 1.35 3 3 3s3-1.35 3-3a3 3 0 0 0-2-2.82V35h20c.55 0 1-.45 1-1V8h1c.55 0 1-.45 1-1V3c0-.55-.45-1-1-1zM24 44c-.55 0-1-.45-1-1s.45-1 1-1 1 .45 1 1-.45 1-1 1zm20-11H4V8h40v25zm2-27H2V4h44v2z"/></g></svg>