<svg xmlns="http://www.w3.org/2000/svg" viewBox="0 0 48 48"><style>.st0{fill:none}.st1{fill:#bec0c3}.st2{fill:#282c36}.st3{fill:none;stroke:#282c36;stroke-width:2;stroke-linejoin:round;stroke-miterlimit:10}.st4{fill:#292d37}</style><path class="st0" d="M0 0h48v48H0z" id="Boundary"/><g id="Design"><path class="st1" d="M33.03 7.62c.65-.19 1.24-.37 1.76-.52.99 1.85 1.37 10.33 1.12 17.14-.15 4.07-.52 7.55-1.12 8.66-.51-.15-1.1-.32-1.76-.51 1.31-5.33 1.3-19.44 0-24.77z"/><path class="st2" d="M44 19h4v2h-4z"/><path transform="rotate(-45.001 45.115 26.116)" class="st2" d="M44.111 24.114h2.008v4.002h-2.008z"/><path transform="rotate(-45.001 45.086 13.885)" class="st2" d="M43.084 12.881h4.002v2.008h-4.002z"/><path class="st2" d="M37.85 13.97C37.33 5 35.62 5 35 5c-.1 0-.19.01-.28.04-12.62 3.73-26.69 7.3-28.38 6.82A.974.974 0 0 0 6 11.8c-1.15 0-1.98 1.02-2.47 3.03-.01.05-.03.11-.04.17h-.86C1.18 15 0 16.18 0 17.63v4.74C0 23.82 1.18 25 2.63 25h.82c.41 1.81 1.16 3.33 2.55 3.33.1 0 .25-.03.34-.06.15-.05.41-.06.77-.04l3.06 13.66c.4 1.8 2.03 3.11 3.87 3.11 1.19 0 2.31-.53 3.07-1.45.75-.93 1.05-2.13.81-3.31l-2.27-10.38c5.43 1.28 12.45 3.17 19.07 5.1.09.03.19.04.28.04.62 0 2.33 0 2.85-8.98 2.47-.9 4.15-3.29 4.15-6.03 0-2.73-1.68-5.13-4.15-6.02zM3.14 23h-.51c-.35 0-.63-.28-.63-.63v-4.74c0-.35.28-.63.63-.63h.53c-.1.95-.16 1.99-.16 3.06 0 .76.03 1.83.14 2.94zm12.82 17.65A1.956 1.956 0 0 1 14.04 43c-.91 0-1.72-.65-1.91-1.54L9.23 28.5c1.16.2 2.61.49 4.27.87l2.46 11.28zm15.15-8.81c-4.47-1.26-10.68-2.96-15.89-4.14-3.69-.84-6.87-1.43-8.57-1.43-.22 0-.42.01-.59.03-.28-.3-.68-1.41-.91-3.31-.09-.83-.15-1.81-.15-2.93 0-1.18.07-2.19.17-3.04.22-1.83.62-2.9.89-3.19 3.26.37 17-3.35 25.05-5.66 1.19 4.87 1.19 18.79 0 23.67zm4.8-7.6c-.15 4.07-.52 7.55-1.12 8.66-.51-.15-1.1-.32-1.76-.51 1.31-5.33 1.3-19.44 0-24.77.65-.19 1.24-.37 1.76-.52.99 1.85 1.37 10.33 1.12 17.14zm2.03-.47c.04-1.14.06-2.39.06-3.77s-.02-2.64-.06-3.78c1.26.77 2.06 2.18 2.06 3.77 0 1.59-.8 3-2.06 3.78z"/></g></svg>