<?xml version="1.0" encoding="utf-8"?>
<!-- Generator: Adobe Illustrator 19.2.1, SVG Export Plug-In . SVG Version: 6.00 Build 0)  -->
<svg version="1.1" xmlns="http://www.w3.org/2000/svg" xmlns:xlink="http://www.w3.org/1999/xlink" x="0px" y="0px"
	 viewBox="0 0 48 48" style="enable-background:new 0 0 48 48;" xml:space="preserve">
<style type="text/css">
	.st0{fill:none;}
	.st1{fill:#BEC0C3;}
	.st2{fill:#282C36;}
</style>
<g id="Boundary">
	<rect class="st0" width="48" height="48"/>
</g>
<g id="Design">
	<g>
		<path class="st2" d="M25.61,30.73l-1.41-0.59c-1.68-0.69-2.46-1.19-2.46-2.22c0-1.19,1-1.84,2.34-1.89
			c0.06-0.01,0.12-0.01,0.18-0.01c1.44,0,2.75,0.66,3.75,1.68l1.46-1.49c-1.067-1.329-2.579-2.209-4.47-2.367V21h-2v2.952
			c-2.115,0.414-3.72,1.825-3.72,4.098c0,2.18,1.46,3.24,3.77,4.21l1.46,0.62c1.53,0.62,2.65,1.12,2.65,2.43
			c0,1.37-1.31,2.15-2.9,2.15c-0.08,0-0.15,0-0.23-0.01c-1.71-0.08-2.93-1.08-4.13-2.33l-1.53,1.59
			c1.01,1.356,2.589,2.498,4.63,2.844V42h2v-2.366c2.507-0.23,4.63-1.704,4.63-4.414C29.63,33.07,28.35,31.88,25.61,30.73z"/>
		<path class="st2" d="M40.61,44.991c-0.691-0.812-1.028-1.884-0.925-2.945c1.277-13.295-1.677-22.646-8.778-27.796l-0.001-0.001
			c-0.858-0.62-1.801-1.104-2.8-1.461c0.341-0.426,0.579-0.94,0.663-1.506l1.47-9.61c0.073-0.477-0.204-0.938-0.659-1.096
			l-0.126-0.044c-1.18-0.412-2.961-1.037-4.594-0.254c-0.354,0.169-0.625,0.307-0.854,0.424c-0.57,0.291-0.783,0.4-1.442,0.54
			c-0.602,0.126-1.794-0.202-3.44-0.656l-0.106-0.029c-0.375-0.104-0.771,0.021-1.023,0.313s-0.312,0.707-0.155,1.061
			c0.229,0.514,0.555,3.368,0.793,5.451c0.16,1.398,0.319,2.797,0.479,3.885v0.001c0.087,0.583,0.332,1.112,0.687,1.546
			c-0.975,0.356-1.895,0.831-2.734,1.437C9.97,19.394,7.017,28.745,8.288,42.071C8.302,42.191,8.3,42.31,8.3,42.43
			c0,0.942-0.334,1.852-0.948,2.569c-0.46,0.553-0.557,1.3-0.252,1.951C7.403,47.598,8.035,48,8.75,48h30.47
			c1.004,0,1.82-0.821,1.82-1.83C41.04,45.748,40.893,45.335,40.61,44.991z M22.978,3.198c0.489-0.104,0.826-0.21,1.13-0.334
			l-0.502,4.781l1.988,0.209l0.622-5.915c0.599-0.097,1.28,0.054,1.919,0.257l-1.344,8.787C26.705,11.562,26.197,12,25.61,12h-3.33
			c-0.592,0-1.104-0.44-1.191-1.025c-0.157-1.069-0.313-2.444-0.471-3.82c-0.204-1.782-0.37-3.199-0.533-4.239
			C21.283,3.217,22.189,3.362,22.978,3.198z M9.112,46c0.769-1.022,1.188-2.276,1.188-3.57c0-0.2-0.002-0.4-0.024-0.574
			c-1.196-12.545,1.482-21.288,7.961-25.985c1.621-1.171,3.61-1.79,5.754-1.79c2.137,0,4.122,0.619,5.743,1.789
			c6.487,4.703,9.166,13.446,7.962,25.983c-0.145,1.48,0.28,2.977,1.162,4.147H9.112z"/>
	</g>
</g>
</svg>
