<svg xmlns="http://www.w3.org/2000/svg" viewBox="0 0 48 48"><style>.st0{fill:none}.st1{fill:#bec0c3}.st2{fill:#282c36}.st3{fill:none;stroke:#282c36;stroke-width:2;stroke-linejoin:round;stroke-miterlimit:10}.st4{fill:#fff}.st5{fill:#292d37}</style><path class="st0" d="M0 0h48v48H0z" id="Boundary"/><g id="Design"><path class="st1" d="M32 10.84c1.23-.54 2.58-.84 4-.84 5.52 0 10 4.48 10 10 0 5.53-4.48 10.01-10 10.01-1.42 0-2.77-.3-4-.84A9.977 9.977 0 0 1 25.99 20c0-4.1 2.47-7.63 6.01-9.16z"/><circle class="st2" cx="19" cy="42" r="2"/><path class="st2" d="M47 20c0-5.728-4.402-10.442-10-10.949V3c0-1.654-1.346-3-3-3H4C2.346 0 1 1.346 1 3v42c0 1.654 1.346 3 3 3h30c1.654 0 3-1.346 3-3V30.959c5.598-.508 10-5.226 10-10.959zM34 46H4a1 1 0 0 1-1-1V3a1 1 0 0 1 1-1h30a1 1 0 0 1 1 1v6.051c-.68.062-1.346.193-2 .38V6H5v32h28v-7.421c.654.187 1.321.318 2 .38V45a1 1 0 0 1-1 1zm-3-35.79A10.965 10.965 0 0 0 24.99 20c0 4.169 2.341 7.944 6.01 9.801V36H7V8h24v2.21zm5 18.8a8.906 8.906 0 0 1-3.604-.758A8.976 8.976 0 0 1 26.99 20a8.97 8.97 0 0 1 5.412-8.244A8.889 8.889 0 0 1 36 11c4.963 0 9 4.037 9 9 0 4.968-4.037 9.01-9 9.01z"/><path class="st2" d="M35.542 22.402h.91a.15.15 0 0 0 .15-.144l.297-7.97a.27.27 0 0 0-.27-.28h-1.265a.27.27 0 0 0-.27.28l.297 7.97a.15.15 0 0 0 .151.144z"/><circle class="st2" cx="35.999" cy="24.801" r="1.199"/></g></svg>