<?xml version="1.0" encoding="utf-8"?>
<!-- Generator: Adobe Illustrator 19.2.1, SVG Export Plug-In . SVG Version: 6.00 Build 0)  -->
<svg version="1.1" xmlns="http://www.w3.org/2000/svg" xmlns:xlink="http://www.w3.org/1999/xlink" x="0px" y="0px"
	 viewBox="0 0 48 48" style="enable-background:new 0 0 48 48;" xml:space="preserve">
<style type="text/css">
	.st0{fill:none;}
	.st1{fill:#BEC0C3;}
	.st2{fill:#282C36;}
	.st3{fill:none;stroke:#282C36;stroke-width:2;stroke-linejoin:round;stroke-miterlimit:10;}
	.st4{fill:#292D37;}
</style>
<g id="Boundary">
	<rect class="st0" width="48" height="48"/>
</g>
<g id="Design">
	<g id="XMLID_58_">
		<g>
			<g>
				<circle class="st1" cx="38" cy="18.99" r="3"/>
			</g>
		</g>
		<path class="st2" d="M42,18.99c0-2.206-1.794-4-4-4s-4,1.794-4,4c0,1.859,1.279,3.411,3,3.858V35.5
			c0,0.526-0.208,1.024-0.594,1.409c-0.367,0.375-0.863,0.581-1.396,0.581c-1.103,0-2-0.897-2-2v-5c0-1.08-0.419-2.087-1.166-2.821
			c-0.747-0.76-1.754-1.179-2.834-1.179c-2.206,0-4,1.794-4,4v10.5c0,1.076-0.417,2.081-1.181,2.837
			C23.081,44.583,22.079,45,21.01,45C18.799,45,17,43.201,17,40.99V30.348l6.927-8.431c0.01-0.01,0.03-0.03,0.049-0.05l0.001,0.001
			c0.438-0.438,0.843-0.929,1.2-1.456l0,0c0.004-0.006,0.01-0.013,0.013-0.017l-0.338-0.247l0.346,0.234
			C26.377,18.642,27,16.604,27,14.49V3.99c0-1.654-1.346-3-3-3h-3.5c-0.827,0-1.5,0.673-1.5,1.5s0.673,1.5,1.5,1.5
			c0.651,0,1.201-0.419,1.408-1H24c0.552,0,1,0.448,1,1v10.5c0,1.711-0.503,3.357-1.455,4.763l-0.983,1.199
			c-0.01,0.009-0.03,0.03-0.049,0.05l0,0c-1.604,1.604-3.739,2.487-6.013,2.487c-2.352,0-4.613-0.987-6.223-2.717L8.994,18.48
			C8.336,17.242,8,15.9,8,14.49V3.99c0-0.552,0.448-1,1-1h2.092c0.207,0.581,0.757,1,1.408,1c0.827,0,1.5-0.673,1.5-1.5
			s-0.673-1.5-1.5-1.5H9c-1.654,0-3,1.346-3,3v10.5c0,1.732,0.432,3.452,1.248,4.972c0.406,0.76,0.901,1.446,1.453,2.045L15,30.312
			V40.99c0,3.313,2.696,6.01,6.01,6.01c1.608,0,3.114-0.627,4.233-1.759c1.14-1.127,1.767-2.637,1.767-4.251v-10.5
			c0-1.103,0.897-2,2-2c0.539,0,1.039,0.206,1.419,0.594c0.375,0.367,0.581,0.867,0.581,1.406v5c0,2.206,1.794,4,4,4
			c1.074,0,2.077-0.419,2.817-1.173C38.584,37.562,39,36.561,39,35.5V22.848C40.721,22.401,42,20.849,42,18.99z M16.5,24.99
			c0.887,0,1.753-0.121,2.59-0.332l-3.035,3.691l-2.765-3.864C14.319,24.816,15.402,24.99,16.5,24.99z M38,20.99
			c-1.103,0-2-0.897-2-2s0.897-2,2-2s2,0.897,2,2S39.103,20.99,38,20.99z"/>
	</g>
</g>
</svg>
