<?xml version="1.0" encoding="utf-8"?>
<!-- Generator: Adobe Illustrator 19.2.1, SVG Export Plug-In . SVG Version: 6.00 Build 0)  -->
<svg version="1.1" xmlns="http://www.w3.org/2000/svg" xmlns:xlink="http://www.w3.org/1999/xlink" x="0px" y="0px"
	 viewBox="0 0 48 48" style="enable-background:new 0 0 48 48;" xml:space="preserve">
<style type="text/css">
	.st0{fill:none;}
	.st1{fill:#BEC0C3;}
	.st2{fill:#282C36;}
</style>
<g id="Boundary">
	<rect class="st0" width="48" height="48"/>
</g>
<g id="Design">
	<g>
		<path class="st2" d="M42,5H7C5.346,5,4,6.346,4,8v27c0,1.654,1.346,3,3,3h4.999v4c0,0.388,0.225,0.741,0.576,0.905
			C12.71,42.969,12.855,43,12.999,43c0.229,0,0.457-0.079,0.64-0.231L19.362,38H42c1.654,0,3-1.346,3-3V8C45,6.346,43.654,5,42,5z
			 M43,35c0,0.552-0.449,1-1,1H19c-0.234,0-0.46,0.082-0.64,0.231l-4.361,3.634V37c0-0.553-0.448-1-1-1H7c-0.551,0-1-0.448-1-1V8
			c0-0.552,0.449-1,1-1h35c0.551,0,1,0.448,1,1V35z"/>
		<circle class="st2" cx="17.5" cy="21.5" r="1.5"/>
		<circle class="st2" cx="24.5" cy="21.5" r="1.5"/>
		<circle class="st2" cx="31.5" cy="21.5" r="1.5"/>
	</g>
</g>
</svg>
