<?xml version="1.0" encoding="utf-8"?>
<!-- Generator: Adobe Illustrator 19.2.1, SVG Export Plug-In . SVG Version: 6.00 Build 0)  -->
<svg version="1.1" xmlns="http://www.w3.org/2000/svg" xmlns:xlink="http://www.w3.org/1999/xlink" x="0px" y="0px"
	 viewBox="0 0 48 48" style="enable-background:new 0 0 48 48;" xml:space="preserve">
<style type="text/css">
	.st0{fill:none;}
	.st1{fill:#BEC0C3;}
	.st2{fill:#282C36;}
	.st3{fill:none;stroke:#282C36;stroke-width:2;stroke-linejoin:round;stroke-miterlimit:10;}
	.st4{fill:#292D37;}
</style>
<g id="Boundary">
	<rect class="st0" width="48" height="48"/>
</g>
<g id="Design">
	<g>
		<g>
			<path class="st2" d="M27.983,46.005c-3.088,0-5.697-2.664-5.697-5.816c0-0.916,0.221-1.801,0.631-2.591H10.909
				c-0.552,0-1-0.447-1-1v-8.96c-1.029,0.469-2.202,0.71-3.152,0.71C3.583,28.348,1,25.787,1,22.64c0-2.527,1.708-4.783,4.155-5.484
				c0.515-0.149,1.055-0.225,1.602-0.225c0.951,0,2.123,0.241,3.152,0.71V4c0-0.553,0.448-1,1-1H25.19
				c0.436,0,0.821,0.282,0.953,0.696c0.132,0.415-0.019,0.868-0.375,1.12C24.757,5.532,24.2,6.568,24.2,7.731
				c0,2.045,1.686,3.708,3.757,3.708s3.756-1.663,3.756-3.708c0-1.162-0.558-2.197-1.571-2.915c-0.355-0.252-0.507-0.705-0.375-1.12
				C29.899,3.282,30.284,3,30.72,3h14.248c0.552,0,1,0.447,1,1v15.52c0,0.415-0.256,0.786-0.643,0.935
				c-0.388,0.146-0.826,0.041-1.103-0.268c-0.713-0.798-1.737-1.256-2.809-1.256c-1.297,0-2.62,0.658-3.292,1.639l0,0
				c-0.417,0.612-0.638,1.328-0.638,2.07c0,1.907,1.649,3.566,3.676,3.698c0.096,0.008,0.174,0.01,0.253,0.01
				c1.072,0,2.096-0.458,2.809-1.256c0.276-0.309,0.715-0.415,1.103-0.268c0.387,0.148,0.643,0.52,0.643,0.935v10.839
				c0,0.553-0.448,1-1,1h-11.92c0.412,0.791,0.633,1.676,0.633,2.591C33.681,43.341,31.071,46.005,27.983,46.005z M11.909,35.598
				h13.086c0.423,0,0.8,0.266,0.942,0.664s0.018,0.843-0.309,1.11c-0.853,0.696-1.342,1.724-1.342,2.816
				c0,2.068,1.693,3.816,3.697,3.816c2.004,0,3.698-1.748,3.698-3.816c0-1.092-0.49-2.118-1.345-2.816
				c-0.327-0.268-0.451-0.712-0.309-1.11s0.519-0.664,0.942-0.664h13v-7.847c-0.903,0.446-1.922,0.664-2.956,0.582
				c-3.041-0.199-5.528-2.754-5.528-5.693c0-1.146,0.341-2.252,0.986-3.197c0-0.001,0-0.001,0.001-0.001
				c1.044-1.525,2.984-2.511,4.943-2.511c0.895,0,1.769,0.209,2.555,0.597V5H32.986c0.477,0.816,0.727,1.743,0.727,2.731
				c0,3.147-2.583,5.708-5.756,5.708c-3.174,0-5.757-2.561-5.757-5.708c0-0.989,0.25-1.915,0.726-2.731H11.909v14.531
				c0,0.415-0.256,0.787-0.645,0.935c-0.388,0.147-0.827,0.04-1.103-0.27c-0.621-0.698-2.148-1.266-3.405-1.266
				c-0.359,0-0.712,0.049-1.048,0.146C4.113,19.534,3,20.999,3,22.64c0,2.045,1.685,3.708,3.756,3.708
				c1.257,0,2.785-0.567,3.405-1.265c0.276-0.311,0.715-0.418,1.103-0.271c0.388,0.147,0.645,0.52,0.645,0.935V35.598z"/>
		</g>
	</g>
</g>
</svg>
