<?xml version="1.0" encoding="utf-8"?>
<!-- Generator: Adobe Illustrator 19.2.1, SVG Export Plug-In . SVG Version: 6.00 Build 0)  -->
<svg version="1.1" xmlns="http://www.w3.org/2000/svg" xmlns:xlink="http://www.w3.org/1999/xlink" x="0px" y="0px"
	 viewBox="0 0 48 48" style="enable-background:new 0 0 48 48;" xml:space="preserve">
<style type="text/css">
	.st0{fill:none;}
	.st1{fill:#BEC0C3;}
	.st2{fill:#282C36;}
</style>
<g id="Boundary">
	<rect class="st0" width="48" height="48"/>
</g>
<g id="Design">
	<g>
		<g>
			<path class="st1" d="M0.99,24C0.99,11.3,11.29,1,24,1c12.7,0,23,10.3,23,23c0,12.71-10.3,23.01-23,23.01
				C11.29,47.01,0.99,36.71,0.99,24z M43,24c0-10.49-8.51-19-19-19C13.5,5,4.99,13.51,4.99,24c0,10.5,8.51,19.01,19.01,19.01
				C34.49,43.01,43,34.5,43,24z"/>
		</g>
		<g>
			<path class="st2" d="M24,0C10.761,0-0.01,10.766-0.01,24c0,13.239,10.771,24.01,24.01,24.01c13.233,0,24-10.771,24-24.01
				C48,10.766,37.233,0,24,0z M24,46.01C11.864,46.01,1.99,36.136,1.99,24C1.99,11.869,11.864,2,24,2c12.131,0,22,9.869,22,22
				C46,36.136,36.131,46.01,24,46.01z"/>
			<path class="st2" d="M24,4C12.967,4,3.99,12.972,3.99,24c0,11.033,8.977,20.01,20.01,20.01c11.028,0,20-8.977,20-20.01
				C44,12.972,35.028,4,24,4z M24,42.01c-9.931,0-18.01-8.079-18.01-18.01c0-9.925,8.079-18,18.01-18c9.925,0,18,8.075,18,18
				C42,33.931,33.925,42.01,24,42.01z"/>
			<path class="st2" d="M25.723,12.132c-1.154-0.178-2.346-0.172-3.433-0.002c-5.712,0.805-10.039,5.573-10.288,11.319
				C11.991,23.629,11.99,23.82,11.99,24c0,0.38,0.021,0.75,0.054,1.122c0.515,5.557,4.731,9.985,10.26,10.769
				C22.877,35.97,23.448,36.01,24,36.01s1.123-0.04,1.7-0.12c5.519-0.784,9.732-5.212,10.246-10.771C35.979,24.75,36,24.38,36,24
				c0-0.187-0.001-0.364-0.011-0.551C35.727,17.695,31.404,12.936,25.723,12.132z M14.013,24.466
				c-0.007-0.136-0.019-0.27-0.02-0.408c1.284-0.863,2.656-1.559,4.112-2.06C18.039,22.649,18,23.311,18,24
				c0,0.864,0.072,1.71,0.18,2.542C16.718,26.044,15.325,25.343,14.013,24.466z M28,24c0,1.066-0.114,2.104-0.297,3.115
				c-0.898,0.187-1.8,0.311-2.703,0.361v-6.444c0.946,0.052,1.883,0.182,2.797,0.381C27.921,22.25,28,23.098,28,24z M20.296,27.115
				C20.114,26.108,20,25.069,20,24c0-0.899,0.079-1.747,0.204-2.587c0.912-0.199,1.849-0.329,2.796-0.381v6.444
				C22.097,27.426,21.194,27.302,20.296,27.115z M25,19.034v-4.942c1.058,1.593,1.858,3.356,2.357,5.199
				C26.581,19.16,25.793,19.073,25,19.034z M23,14.093v4.942c-0.794,0.039-1.582,0.126-2.357,0.257
				C21.141,17.451,21.941,15.686,23,14.093z M23,29.479v4.435c-0.968-1.457-1.711-3.019-2.21-4.674
				C21.526,29.36,22.264,29.442,23,29.479z M25,33.911v-4.432c0.736-0.037,1.474-0.119,2.21-0.239
				C26.716,30.878,25.975,32.435,25,33.911z M29.895,21.997c1.451,0.5,2.821,1.192,4.102,2.052c-0.001,0.143-0.013,0.28-0.021,0.42
				c-1.294,0.874-2.683,1.574-4.157,2.074C29.928,25.709,30,24.863,30,24C30,23.31,29.96,22.648,29.895,21.997z M33.679,21.51
				c-1.307-0.725-2.69-1.292-4.131-1.704c-0.374-1.761-0.997-3.478-1.839-5.082C30.657,15.896,32.886,18.421,33.679,21.51z
				 M20.29,14.723c-0.843,1.606-1.466,3.324-1.839,5.083c-1.447,0.415-2.834,0.985-4.144,1.714
				C15.096,18.426,17.328,15.898,20.29,14.723z M14.479,27.082c1.312,0.713,2.688,1.269,4.117,1.667
				c0.384,1.595,0.958,3.122,1.719,4.56C17.531,32.217,15.391,29.934,14.479,27.082z M27.684,33.308
				c0.765-1.446,1.339-2.972,1.72-4.559c1.444-0.401,2.821-0.956,4.103-1.655C32.593,29.941,30.458,32.218,27.684,33.308z"/>
		</g>
	</g>
</g>
</svg>
