<svg xmlns="http://www.w3.org/2000/svg" viewBox="0 0 48 48"><style>.st0{fill:none}.st1{fill:#bec0c3}.st2{fill:#282c36}.st3{fill:none;stroke:#282c36;stroke-width:2;stroke-linejoin:round;stroke-miterlimit:10}.st4{fill:#292d37}</style><path class="st0" d="M0 0h48v48H0z" id="Boundary"/><g id="Design"><g id="XMLID_1_"><path class="st1" d="M22.66 6.72c1.63 2.6.55 6.08.55 6.08s-3.65-.62-5.27-3.22c-1.63-2.6-.91-6.67-.91-6.67s4.01 1.21 5.63 3.81z"/><path class="st2" d="M37.516 14.401c-2.198-2.206-4.899-3.421-7.605-3.421-1.398 0-2.756.263-4.038.73 2.077-3.559 5.765-5.69 10.107-5.69v-2c-4.747 0-8.938 2.3-11.424 6.028-.021-1.211-.265-2.609-1.049-3.859-1.8-2.885-6.01-4.182-6.188-4.235a.997.997 0 0 0-1.273.782c-.032.183-.768 4.483 1.046 7.373.203.326.435.62.682.893C11.01 11.229 5.99 18.592 5.99 25.2c0 12.437 6.939 20.79 13.42 20.79 1.908 0 3.477-.752 4.59-1.531 1.113.779 2.682 1.531 4.59 1.531 6.307 0 13.37-8.536 13.42-20.787.012-3.869-1.71-8.009-4.494-10.802zM17.892 4.303c1.289.564 3.066 1.577 3.92 2.946l.001.002c.895 1.427.808 3.237.641 4.317-1.062-.342-2.774-1.088-3.666-2.52-.898-1.431-.966-3.461-.896-4.745zM28.59 43.99c-1.706 0-3.086-.844-3.943-1.552-.18-.147-.424-.229-.656-.229s-.457.081-.637.229c-.857.708-2.237 1.552-3.943 1.552-4.667 0-11.42-6.691-11.42-18.79 0-5.651 4.412-12.22 10.1-12.22 1.891 0 3.705.528 5.307 1.558a.998.998 0 0 0 1.155.036 9.682 9.682 0 0 1 5.358-1.594c2.781 0 4.901 1.54 6.189 2.833 2.423 2.43 3.921 6.025 3.91 9.383-.048 11.644-6.684 18.794-11.42 18.794z"/><path class="st2" d="M9.88 25.95h2c0-4.255 3.303-9.2 7.561-9.2v-2c-5.472 0-9.561 5.913-9.561 11.2z"/></g></g></svg>