<?xml version="1.0" encoding="utf-8"?>
<!-- Generator: Adobe Illustrator 19.2.1, SVG Export Plug-In . SVG Version: 6.00 Build 0)  -->
<svg version="1.1" xmlns="http://www.w3.org/2000/svg" xmlns:xlink="http://www.w3.org/1999/xlink" x="0px" y="0px"
	 viewBox="0 0 48 48" style="enable-background:new 0 0 48 48;" xml:space="preserve">
<style type="text/css">
	.st0{fill:none;}
	.st1{fill:#BEC0C3;}
	.st2{fill:#282C36;}
</style>
<g id="Boundary">
	<rect class="st0" width="48" height="48"/>
</g>
<g id="Design">
	<g>
		<g>
			<path class="st1" d="M14,43V23l0.04-0.02c1.96,3.09,5.2,5.29,8.98,5.87L23,29v5C23,38.97,18.97,43,14,43z"/>
		</g>
		<g>
			<path class="st2" d="M39,16c0-0.362-0.018-0.722-0.047-1.08l0.024-0.002c-0.021-0.248-0.057-0.494-0.101-0.736
				c-0.003-0.02-0.004-0.041-0.006-0.061l-0.002,0c-0.004-0.021-0.004-0.043-0.009-0.064c-0.003-0.013-0.005-0.026-0.008-0.039
				c0,0,0,0,0-0.001c-0.156-1.121-0.444-2.195-0.851-3.201V1c0-0.442-0.291-0.832-0.715-0.958c-0.421-0.128-0.88,0.041-1.122,0.41
				c-0.44,0.673-0.983,1.242-1.616,1.693c-0.024,0.014-0.048,0.029-0.071,0.046C33.722,2.721,32.772,3,31.73,3h-1.56
				C26.9,1.686,23.1,1.686,19.83,3h-1.56c-1.042,0-1.991-0.279-2.745-0.809c-0.023-0.017-0.047-0.032-0.071-0.046
				c-0.633-0.451-1.176-1.021-1.616-1.693c-0.242-0.369-0.7-0.537-1.122-0.41C12.291,0.168,12,0.558,12,1v9.822
				c-0.524,1.319-0.847,2.696-0.943,4.057C11.007,15.297,11,15.697,11,16c0,2.55,0.696,5.025,2,7.187V47c0,0.553,0.447,1,1,1h6.7
				C29.688,48,37,40.688,37,31.7v-8.514C38.305,21.021,39,18.548,39,16z M35.116,22.444C32.905,25.923,29.124,28,25,28
				c-0.618,0-1.232-0.047-1.829-0.139c-3.415-0.524-6.436-2.499-8.289-5.421C13.65,20.521,13,18.295,13,16
				c0-0.299,0.007-0.589,0.047-0.929c0,0,0,0,0-0.001l0.01,0.001C13.261,12.228,15.66,10,18.52,10c3.176,0,5.48,2.095,5.48,4.98
				v5.76l-1.12,1.12L25,23.98l2.12-2.12L26,20.74v-5.76c0-2.886,2.321-4.98,5.52-4.98c2.613,0,4.871,1.852,5.369,4.401
				c0.001,0.003,0.001,0.006,0.002,0.01C36.963,14.93,37,15.463,37,16C37,18.295,36.35,20.521,35.116,22.444z M15,25.79
				c1.894,1.939,4.325,3.281,7,3.867V34c0,4.072-3.06,7.436-7,7.931V25.79z M35.571,3.865c0.024-0.015,0.048-0.029,0.071-0.046V3.82
				C35.765,3.735,35.884,3.647,36,3.556v3.809c-0.762-0.965-1.648-1.825-2.631-2.564C34.169,4.617,34.918,4.313,35.571,3.865z
				 M29.611,4.921l0.398-0.944l0,0.045l-0.378,0.899c1.886,0.793,3.535,2.078,4.795,3.674C33.527,8.215,32.545,8,31.52,8
				c-2.854,0-5.24,1.33-6.517,3.393C23.732,9.33,21.358,8,18.52,8c-1.052,0-2.055,0.227-2.969,0.626
				c1.263-1.61,2.92-2.906,4.818-3.704L19.99,4.024l0-0.047l0.399,0.945C23.285,3.698,26.715,3.698,29.611,4.921z M14.357,3.82
				L14.357,3.82c0.023,0.016,0.047,0.03,0.071,0.045c0.653,0.448,1.402,0.751,2.203,0.935C15.648,5.539,14.762,6.399,14,7.364V3.556
				C14.116,3.647,14.235,3.735,14.357,3.82z M20.7,46H15v-2.051c5.046-0.504,9-4.773,9-9.949v-4.038C24.332,29.986,24.665,30,25,30
				c3.828,0,7.4-1.538,10-4.208V31.7C35,39.585,28.585,46,20.7,46z"/>
			<path class="st2" d="M18.5,13.98c-1.93,0-3.5,1.57-3.5,3.5s1.57,3.5,3.5,3.5s3.5-1.57,3.5-3.5S20.43,13.98,18.5,13.98z
				 M18.5,18.98c-0.827,0-1.5-0.673-1.5-1.5s0.673-1.5,1.5-1.5s1.5,0.673,1.5,1.5S19.327,18.98,18.5,18.98z"/>
			<path class="st2" d="M31.5,13.98c-1.93,0-3.5,1.57-3.5,3.5s1.57,3.5,3.5,3.5s3.5-1.57,3.5-3.5S33.43,13.98,31.5,13.98z
				 M31.5,18.98c-0.827,0-1.5-0.673-1.5-1.5s0.673-1.5,1.5-1.5s1.5,0.673,1.5,1.5S32.327,18.98,31.5,18.98z"/>
		</g>
	</g>
</g>
</svg>
