<svg xmlns="http://www.w3.org/2000/svg" viewBox="0 0 48 48"><style>.st0{fill:none}.st1{fill:#bec0c3}.st2{fill:#282c36}.st3{fill:none;stroke:#282c36;stroke-width:2;stroke-linejoin:round;stroke-miterlimit:10}.st4{fill:#292d37}</style><path class="st0" d="M0 0h48v48H0z" id="Boundary"/><path class="st2" d="M18 48a1 1 0 0 1-.97-1.242L21.719 28H12a1.001 1.001 0 0 1-.852-1.525l16-26a1 1 0 0 1 1.822.767L24.281 20H34a1.001 1.001 0 0 1 .852 1.525l-16 26A1.001 1.001 0 0 1 18 48zm-4.21-22H23a.998.998 0 0 1 .97 1.242l-3.43 13.724L32.21 22H23a.998.998 0 0 1-.97-1.242l3.43-13.724L13.79 26z" id="Design"/></svg>