<svg xmlns="http://www.w3.org/2000/svg" viewBox="0 0 48 48"><style>.st0{fill:none}.st1{fill:#bec0c3}.st2{fill:#282c36}</style><path class="st0" d="M0 0h48v48H0z" id="Boundary"/><path class="st2" d="M44 23.083c0-1.421-.61-2.768-1.628-3.726A7.134 7.134 0 0 0 44 14.818a7.145 7.145 0 0 0-4.029-6.415c-.153-2.843-2.455-5.124-5.396-5.201C33.373 1.237 31.157 0 28.75 0 26.318 0 24.188 1.245 23 3.101 21.812 1.245 19.682 0 17.25 0c-2.405 0-4.619 1.234-5.821 3.197-2.904.037-5.265 2.337-5.415 5.213A7.144 7.144 0 0 0 2 14.818c0 1.707.605 3.295 1.628 4.539A5.138 5.138 0 0 0 2 23.083c0 1.797.93 3.476 2.343 4.431a6.979 6.979 0 0 0-1.329 4.543c.187 2.88 2.295 5.231 5.064 5.925a5.621 5.621 0 0 0-.078.851c0 2.933 2.24 5.353 5.084 5.638A5.665 5.665 0 0 0 23 45.54a5.663 5.663 0 0 0 9.917-1.07A5.674 5.674 0 0 0 38 38.833c0-.288-.035-.571-.077-.852 2.769-.695 4.877-3.046 5.064-5.926a6.983 6.983 0 0 0-1.329-4.542A5.404 5.404 0 0 0 44 23.083zM18.333 46a3.666 3.666 0 0 1-3.551-2.747.998.998 0 0 0-.948-.75l-.167-.003A3.671 3.671 0 0 1 10 38.833c0-.894.325-1.756.916-2.425l-1.5-1.323a5.595 5.595 0 0 0-.686.993c-2.026-.434-3.587-2.097-3.72-4.15-.097-1.498.544-3.054 1.632-3.964a1 1 0 0 0-.371-1.73C4.976 25.87 4 24.516 4 23.083c0-.934.423-1.776 1.122-2.363a7.094 7.094 0 0 0 2.692 1.121l.371-1.965A5.149 5.149 0 0 1 4 14.818c0-1.756.902-3.349 2.322-4.287a5.49 5.49 0 0 0 2.123 2.739l1.111-1.662A3.498 3.498 0 0 1 8 8.696c0-1.93 1.57-3.5 3.413-3.504l.5.043a.996.996 0 0 0 .992-.57C13.667 3.046 15.372 2 17.25 2 19.869 2 22 4.008 22 6.476V14h-4c-.552 0-1-.449-1-1h-2c0 1.654 1.346 3 3 3h4v4h-8c-.552 0-1-.449-1-1h-2c0 1.654 1.346 3 3 3h8v4h-8c-1.654 0-3 1.346-3 3h2c0-.551.448-1 1-1h8v4h-4c-1.654 0-3 1.346-3 3h2c0-.551.448-1 1-1h4v8.333A3.671 3.671 0 0 1 18.333 46zm21.396-19.767a1 1 0 0 0-.371 1.73c1.088.91 1.729 2.466 1.632 3.963-.133 2.054-1.694 3.718-3.72 4.151a5.669 5.669 0 0 0-.686-.993l-1.5 1.323c.591.671.916 1.532.916 2.426a3.676 3.676 0 0 1-3.687 3.667l-.147.003a.998.998 0 0 0-.948.75A3.666 3.666 0 0 1 27.667 46 3.671 3.671 0 0 1 24 42.333V34h4c.552 0 1 .449 1 1h2c0-1.654-1.346-3-3-3h-4v-4h8c.552 0 1 .449 1 1h2c0-1.654-1.346-3-3-3h-8v-4h8c1.654 0 3-1.346 3-3h-2c0 .551-.448 1-1 1h-8v-4h4c1.654 0 3-1.346 3-3h-2c0 .551-.448 1-1 1h-4V6.476C24 4.008 26.131 2 28.75 2c1.878 0 3.583 1.046 4.345 2.666a.993.993 0 0 0 .992.57l.413-.04c1.93 0 3.5 1.57 3.5 3.5 0 1.171-.582 2.26-1.557 2.912l1.111 1.662a5.49 5.49 0 0 0 2.123-2.739A5.142 5.142 0 0 1 42 14.818c0 2.473-1.761 4.6-4.186 5.058l.371 1.965a7.094 7.094 0 0 0 2.692-1.121c.7.587 1.123 1.429 1.123 2.363 0 1.433-.976 2.787-2.271 3.15z" id="Design"/></svg>