<svg xmlns="http://www.w3.org/2000/svg" viewBox="0 0 48 48"><style>.st0{fill:none}.st1{fill:#bec0c3}.st2{fill:#282c36}.st3{fill:none;stroke:#282c36;stroke-width:2;stroke-linejoin:round;stroke-miterlimit:10}.st4{fill:#292d37}</style><path class="st0" d="M0 0h48v48H0z" id="Boundary"/><g id="Design"><g id="XMLID_63_"><path class="st1" d="M21 34h23.03c-.4 1.04-1.11 2.5-2.35 4H2v-4h19z"/><path class="st2" d="M47.99 43c-.736.021-1.482-.257-2.067-.769a6.106 6.106 0 0 1-1.108-1.298 1.002 1.002 0 0 0-1.688-.001c-.307.482-.68.92-1.132 1.322-1.085.942-2.752.974-3.909.093a16.022 16.022 0 0 0 4.039-3.317c.124-.144.245-.287.327-.395a15.38 15.38 0 0 0 2.512-4.277A.998.998 0 0 0 44.03 33H22v-3.445c2.061-.976 4.216-1.53 6.421-1.604 2.758-.106 5.493.565 8.115 1.936a1.001 1.001 0 0 0 1.006-1.727 36.026 36.026 0 0 1-10.399-10.265A35.369 35.369 0 0 1 22 5.802V2h-2v2.173c-2.663.722-8.088 2.961-12.137 9.682C4.42 19.59 3.721 25.783 3.61 28.966a1.004 1.004 0 0 0 1 1.034.997.997 0 0 0 .463-.114c2.623-1.372 5.366-2.02 8.124-1.937 2.328.077 4.612.686 6.803 1.778V33H2a1 1 0 0 0-1 1v8.813C.677 42.923.341 43-.01 43v2c.884 0 1.749-.225 2.488-.642.303-.165.59-.363.894-.629.223-.196.435-.405.633-.624.206.227.428.445.667.657a5.028 5.028 0 0 0 3.32 1.242 5.12 5.12 0 0 0 3.38-1.275c.22-.194.429-.4.626-.616.189.207.406.426.656.651 1.904 1.654 4.77 1.655 6.698-.035.221-.194.43-.4.627-.617.188.207.384.399.584.575.016.016.062.061.079.075 1.898 1.658 4.76 1.66 6.69-.033a8.13 8.13 0 0 0 .635-.623c.206.227.428.445.667.658 1.902 1.651 4.77 1.651 6.708-.035.22-.195.43-.401.627-.618.193.213.413.429.665.653 1.902 1.651 4.77 1.651 6.708-.035.221-.195.43-.401.628-.619.205.226.425.442.663.654.931.81 2.144 1.226 3.376 1.235L47.99 43zM25.477 19.004a38.016 38.016 0 0 0 6.182 7.156 17.506 17.506 0 0 0-3.303-.209c-2.191.075-4.329.567-6.356 1.413V12.465a37.652 37.652 0 0 0 3.477 6.539zM13.261 25.95c-2.572-.071-5.1.399-7.55 1.427.28-3.198 1.174-8.009 3.866-12.491C13.014 9.181 17.482 7.042 20 6.256v21.252c-2.177-.954-4.437-1.481-6.739-1.558zM42.482 35a13.616 13.616 0 0 1-1.304 2H3v-2h39.482zm-6.512 5.47c-.342 0-.66.175-.844.463-.307.482-.68.92-1.132 1.322-1.134.985-2.913.986-4.072-.023a6.106 6.106 0 0 1-1.108-1.298 1.002 1.002 0 0 0-1.688-.001 6.293 6.293 0 0 1-1.145 1.324c-1.129.986-2.896.987-3.975.046a1.662 1.662 0 0 0-.075-.071 6.106 6.106 0 0 1-1.108-1.298c-.367-.578-1.321-.578-1.688 0a6.254 6.254 0 0 1-1.134 1.323c-1.127.986-2.9.986-4.054-.021a5.925 5.925 0 0 1-1.096-1.289c-.18-.294-.5-.475-.845-.478-.348-.042-.667.172-.852.464a6.254 6.254 0 0 1-1.134 1.323c-1.131.988-2.903.99-4.06-.025a6.096 6.096 0 0 1-1.109-1.299c-.367-.576-1.331-.576-1.698.001-.044.074-.103.14-.153.211V39h36.34a13.885 13.885 0 0 1-2.621 1.819.995.995 0 0 0-.746-.349h-.003zM31 8c.189 0 .378-.054.543-.16l3.48-2.25-1.086-1.68L31 5.81l-2.937-1.9-1.086 1.68 3.48 2.25c.165.106.354.16.543.16zm9 4c.189 0 .378-.054.543-.16l3.48-2.25-1.086-1.68L40 9.81l-2.937-1.9-1.086 1.68 3.48 2.25c.165.106.354.16.543.16z"/></g></g></svg>