<?xml version="1.0" encoding="utf-8"?>
<!-- Generator: Adobe Illustrator 19.2.1, SVG Export Plug-In . SVG Version: 6.00 Build 0)  -->
<svg version="1.1" xmlns="http://www.w3.org/2000/svg" xmlns:xlink="http://www.w3.org/1999/xlink" x="0px" y="0px"
	 viewBox="0 0 48 48" style="enable-background:new 0 0 48 48;" xml:space="preserve">
<style type="text/css">
	.st0{fill:none;}
	.st1{fill:#BEC0C3;}
	.st2{fill:#282C36;}
	.st3{fill:none;stroke:#282C36;stroke-width:2;stroke-linejoin:round;stroke-miterlimit:10;}
	.st4{fill:#292D37;}
</style>
<g id="Boundary">
	<rect class="st0" width="48" height="48"/>
</g>
<g id="Design">
	<g>
		<path class="st2" d="M18,48c-0.13,0-0.261-0.025-0.387-0.078c-0.455-0.191-0.702-0.686-0.583-1.164L21.719,28H12
			c-0.362,0-0.696-0.196-0.873-0.512c-0.177-0.316-0.168-0.704,0.021-1.013l16-26c0.258-0.421,0.785-0.587,1.239-0.397
			c0.455,0.191,0.702,0.686,0.583,1.164L24.281,20H34c0.362,0,0.696,0.196,0.873,0.512c0.177,0.316,0.168,0.704-0.021,1.013l-16,26
			C18.665,47.828,18.338,48,18,48z M13.79,26H23c0.308,0,0.599,0.142,0.788,0.385c0.189,0.242,0.257,0.559,0.182,0.857L20.54,40.966
			L32.21,22H23c-0.308,0-0.599-0.142-0.788-0.385c-0.189-0.242-0.257-0.559-0.182-0.857L25.46,7.034L13.79,26z"/>
	</g>
</g>
</svg>
