<?xml version="1.0" encoding="utf-8"?>
<!-- Generator: Adobe Illustrator 19.2.1, SVG Export Plug-In . SVG Version: 6.00 Build 0)  -->
<svg version="1.1" xmlns="http://www.w3.org/2000/svg" xmlns:xlink="http://www.w3.org/1999/xlink" x="0px" y="0px"
	 viewBox="0 0 48 48" style="enable-background:new 0 0 48 48;" xml:space="preserve">
<style type="text/css">
	.st0{fill:none;}
	.st1{fill:#BEC0C3;}
	.st2{fill:#282C36;}
</style>
<g id="Boundary">
	<rect class="st0" width="48" height="48"/>
</g>
<g id="Design">
	<g>
		<path class="st2" d="M35.501,4c-5.228,0-9.611,2.931-11.502,7.211C22.108,6.931,17.728,4,12.503,4C5.609,4,0,9.609,0,16.503
			c0,3.367,1.341,6.539,3.773,8.928l19.523,19.28C23.491,44.904,23.745,45,23.999,45s0.508-0.096,0.703-0.289L44.23,25.433
			c2.434-2.39,3.775-5.562,3.775-8.93C48.005,9.609,42.396,4,35.501,4z M42.827,24.008L23.999,42.595L5.176,24.006
			C3.128,21.994,2,19.33,2,16.503C2,10.712,6.712,6,12.503,6c5.983,0,10.495,4.299,10.495,10c0,0.552,0.448,1,1,1s1-0.448,1-1
			c0-5.701,4.515-10,10.503-10c5.792,0,10.503,4.712,10.503,10.503C46.005,19.331,44.877,21.995,42.827,24.008z"/>
		<path class="st2" d="M4,16.422h2c0-3.564,2.899-6.464,6.463-6.464v-2C7.797,7.958,4,11.755,4,16.422z"/>
	</g>
</g>
</svg>
