<?xml version="1.0" encoding="utf-8"?>
<!-- Generator: Adobe Illustrator 19.2.1, SVG Export Plug-In . SVG Version: 6.00 Build 0)  -->
<svg version="1.1" xmlns="http://www.w3.org/2000/svg" xmlns:xlink="http://www.w3.org/1999/xlink" x="0px" y="0px"
	 viewBox="0 0 48 48" style="enable-background:new 0 0 48 48;" xml:space="preserve">
<style type="text/css">
	.st0{fill:none;}
	.st1{fill:#BEC0C3;}
	.st2{fill:#282C36;}
</style>
<g id="Boundary">
	<rect class="st0" width="48" height="48"/>
</g>
<g id="Design">
	<g>
		<path class="st1" d="M1,28v6c0,1.1,1.058,2,2.351,2H45c1.1,0,2-0.9,2-2v-6H1z"/>
		<g>
			<circle class="st2" cx="24" cy="32" r="1"/>
			<path class="st2" d="M45,3H3C1.346,3,0,4.346,0,6v28c0,1.654,1.346,3,3,3h17v5h-4v2h16v-2h-4v-5h17c1.654,0,3-1.346,3-3V6
				C48,4.346,46.654,3,45,3z M3,5h42c0.551,0,1,0.449,1,1v21H5H2V6C2,5.449,2.449,5,3,5z M26,42h-4v-5h4V42z M45,35H3
				c-0.551,0-1-0.449-1-1v-5h3h41v5C46,34.551,45.551,35,45,35z"/>
		</g>
	</g>
</g>
</svg>
