<svg xmlns="http://www.w3.org/2000/svg" viewBox="0 0 48 48"><style>.st0{fill:none}.st1{fill:#bec0c3}.st2{fill:#282c36}</style><path class="st0" d="M0 0h48v48H0z" id="Boundary"/><g id="Design"><path class="st2" d="M35.501 4c-5.228 0-9.611 2.931-11.502 7.211C22.108 6.931 17.728 4 12.503 4 5.609 4 0 9.609 0 16.503c0 3.367 1.341 6.539 3.773 8.928l19.523 19.28a.996.996 0 0 0 1.406 0L44.23 25.433c2.434-2.39 3.775-5.562 3.775-8.93C48.005 9.609 42.396 4 35.501 4zm7.326 20.008L23.999 42.595 5.176 24.006C3.128 21.994 2 19.33 2 16.503 2 10.712 6.712 6 12.503 6c5.983 0 10.495 4.299 10.495 10a1 1 0 0 0 2 0c0-5.701 4.515-10 10.503-10 5.792 0 10.503 4.712 10.503 10.503.001 2.828-1.127 5.492-3.177 7.505z"/><path class="st2" d="M4 16.422h2a6.47 6.47 0 0 1 6.463-6.464v-2C7.797 7.958 4 11.755 4 16.422z"/></g></svg>