<?xml version="1.0" encoding="utf-8"?>
<!-- Generator: Adobe Illustrator 19.2.1, SVG Export Plug-In . SVG Version: 6.00 Build 0)  -->
<svg version="1.1" xmlns="http://www.w3.org/2000/svg" xmlns:xlink="http://www.w3.org/1999/xlink" x="0px" y="0px"
	 viewBox="0 0 48 48" style="enable-background:new 0 0 48 48;" xml:space="preserve">
<style type="text/css">
	.st0{fill:none;}
	.st1{fill:#BEC0C3;}
	.st2{fill:#282C36;}
	.st3{fill:none;stroke:#282C36;stroke-width:2;stroke-linejoin:round;stroke-miterlimit:10;}
	.st4{fill:#292D37;}
</style>
<g id="Boundary">
	<rect class="st0" width="48" height="48"/>
</g>
<g id="Design">
	<path class="st4" d="M46.472,9.118C46.324,9.039,46.162,9.005,46,9.005V9H2v0.006c-0.162,0-0.324,0.033-0.472,0.113
		C1.203,9.293,1,9.632,1,10v28.292C1,39.233,1.766,40,2.708,40h42.584C46.186,40,47,39.287,47,38.505V10
		C47,9.631,46.797,9.292,46.472,9.118z M24.022,23.45L5.309,11h37.388L24.022,23.45z M16.862,21.089L3,36.466v-24.6L16.862,21.089z
		 M18.546,22.209l4.923,3.276c0.336,0.224,0.773,0.224,1.108-0.001l4.917-3.278L43.694,38H4.31L18.546,22.209z M31.177,21.084
		L45,11.868v24.593L31.177,21.084z"/>
</g>
</svg>
