<svg xmlns="http://www.w3.org/2000/svg" viewBox="0 0 48 48"><style>.st0{fill:none}.st1{fill:#bec0c3}.st2{fill:#282c36}</style><path class="st0" d="M0 0h48v48H0z" id="Boundary"/><g id="Design"><g id="XMLID_26_"><path class="st1" d="M47 38v2c0 1.1-.9 2-2 2H3c-1.1 0-2-.9-2-2v-2h46z"/><path class="st2" d="M47.701 12.715l.03-.032-.092-.086a2.796 2.796 0 0 0-.483-.674A2.98 2.98 0 0 0 45 11H34V6a1 1 0 0 0-1-1H15a1 1 0 0 0-1 1v5H3a2.968 2.968 0 0 0-2.634 1.591l-.097.091.031.034c-.19.396-.3.829-.3 1.284v26c0 1.654 1.346 3 3 3h42c1.654 0 3-1.346 3-3V14c0-.457-.111-.892-.299-1.285zM16 7h16v4H16V7zm17 6h11.699L32.565 26H27v-3a1 1 0 0 0-1-1h-4a1 1 0 0 0-1 1v3h-5.565L3.301 13H33zm-8 11v6h-2v-6h2zm-10.731 3.683c.189.202.454.317.731.317h6v3a1 1 0 0 0 1 1h4a1 1 0 0 0 1-1v-3h6c.277 0 .542-.115.731-.317L46 14.537V37H2V14.537l12.269 13.146zM45 41H3c-.551 0-1-.448-1-1v-1h44v1c0 .552-.449 1-1 1z"/></g></g></svg>