<?xml version="1.0" encoding="utf-8"?>
<!-- Generator: Adobe Illustrator 19.2.1, SVG Export Plug-In . SVG Version: 6.00 Build 0)  -->
<svg version="1.1" xmlns="http://www.w3.org/2000/svg" xmlns:xlink="http://www.w3.org/1999/xlink" x="0px" y="0px"
	 viewBox="0 0 48 48" style="enable-background:new 0 0 48 48;" xml:space="preserve">
<style type="text/css">
	.st0{fill:none;}
	.st1{fill:#BEC0C3;}
	.st2{fill:#282C36;}
</style>
<g id="Boundary">
	<rect class="st0" width="48" height="48"/>
</g>
<g id="Design">
	<g>
		<g>
			<path class="st1" d="M24,8.01c4.42,0,8,3.58,8,7.99c0,4.42-3.58,8-8,8c-4.41,0-7.99-3.58-7.99-8C16.01,11.59,19.59,8.01,24,8.01z
				"/>
		</g>
		<g>
			<path class="st2" d="M34.824,3.875c-3.95-3.249-9.138-4.539-14.245-3.538C13.936,1.625,8.59,6.964,7.279,13.624
				c-0.46,2.299-0.464,4.615-0.009,6.886c0.382,1.875,1.185,3.791,2.385,5.695l13.5,21.35c0.182,0.288,0.498,0.463,0.839,0.465
				c0.002,0,0.004,0,0.006,0c0.339,0,0.654-0.171,0.839-0.455c0.55-0.847,13.48-20.757,14.616-23.201
				c1.072-2.287,1.615-4.728,1.615-7.254C41.07,11.965,38.794,7.142,34.824,3.875z M37.643,23.519
				c-0.812,1.748-8.832,14.244-13.632,21.647L11.346,25.137c-1.07-1.698-1.782-3.389-2.115-5.023
				c-0.401-2.007-0.398-4.059,0.011-6.101c1.155-5.872,5.865-10.579,11.721-11.712c1.006-0.198,2.015-0.294,3.015-0.294
				c3.49,0,6.866,1.183,9.577,3.413c3.506,2.885,5.517,7.146,5.517,11.69C39.07,19.341,38.591,21.496,37.643,23.519z"/>
			<path class="st2" d="M24,7.01c-4.957,0-8.99,4.033-8.99,8.99c0,4.962,4.033,9,8.99,9c4.963,0,9-4.038,9-9
				C33,11.043,28.963,7.01,24,7.01z M24,23c-3.854,0-6.99-3.14-6.99-7c0-3.854,3.136-6.99,6.99-6.99c3.859,0,7,3.136,7,6.99
				C31,19.86,27.859,23,24,23z"/>
		</g>
	</g>
</g>
</svg>
