<svg xmlns="http://www.w3.org/2000/svg" viewBox="0 0 48 48"><style>.st0{fill:none}.st1{fill:#bec0c3}.st2{fill:#282c36}</style><path class="st0" d="M0 0h48v48H0z" id="Boundary"/><g id="Design"><path class="st1" d="M31 32h7v14H27V32h4zm1.5 7c1.1 0 2-.9 2-2s-.9-2-2-2a2 2 0 1 0 0 4z"/><path class="st2" d="M32.5 40c1.654 0 3-1.346 3-3s-1.346-3-3-3-3 1.346-3 3 1.346 3 3 3zm0-4c.551 0 1 .449 1 1s-.449 1-1 1-1-.449-1-1 .449-1 1-1zM10 28.26A3.264 3.264 0 0 1 13.26 25h2.876l2.946 6.875a.998.998 0 0 0 1.837 0L23.869 25h2.871A3.264 3.264 0 0 1 30 28.26V29h2v-.74c0-2.9-2.359-5.26-5.26-5.26H13.26A5.265 5.265 0 0 0 8 28.26V41a1 1 0 0 0 1 1h15v-2H10V28.26zm10 .684L18.307 25h3.382L20 28.944zm-9.865-16.265A9.994 9.994 0 0 0 20 21c4.892 0 9.037-3.5 9.854-8.31A9.411 9.411 0 0 0 30 11c0-5.514-4.486-10-10-10S10 5.486 10 11c0 .568.045 1.13.133 1.671l.002.008zM20 19a7.988 7.988 0 0 1-7.644-5.646c2.224-.486 3.751-2.078 4.631-3.33 1.26 1.446 4.125 3.231 10.609 3.461A7.968 7.968 0 0 1 20 19zm0-16c4.411 0 8 3.589 8 8 0 .166-.011.326-.02.486-9.069-.247-9.991-3.623-9.993-3.63a1 1 0 0 0-.865-.829 1.012 1.012 0 0 0-1.039.596c-.015.034-1.379 3.102-4.052 3.757-.007-.128-.031-.25-.031-.38 0-4.411 3.589-8 8-8z"/><path class="st2" d="M38 31H27a1 1 0 0 0-1 1v14a1 1 0 0 0 1 1h11a1 1 0 0 0 1-1V32a1 1 0 0 0-1-1zm-1 14h-9V33h9v12z"/><path class="st2" d="M30 41h5v2h-5z"/></g></svg>