<?xml version="1.0" encoding="utf-8"?>
<!-- Generator: Adobe Illustrator 19.2.1, SVG Export Plug-In . SVG Version: 6.00 Build 0)  -->
<svg version="1.1" xmlns="http://www.w3.org/2000/svg" xmlns:xlink="http://www.w3.org/1999/xlink" x="0px" y="0px"
	 viewBox="0 0 48 48" style="enable-background:new 0 0 48 48;" xml:space="preserve">
<style type="text/css">
	.st0{fill:none;}
	.st1{fill:#BEC0C3;}
	.st2{fill:#282C36;}
	.st3{fill:none;stroke:#282C36;stroke-width:2;stroke-linejoin:round;stroke-miterlimit:10;}
	.st4{fill:#292D37;}
</style>
<g id="Boundary">
	<rect class="st0" width="48" height="48"/>
</g>
<g id="Design">
	<g id="XMLID_61_">
		<g>
			<g>
				<path class="st1" d="M43.04,3v2H5V3c0-1.1,0.9-2,2-2h34.04C42.14,1,43.04,1.9,43.04,3z"/>
			</g>
		</g>
		<g>
			<path class="st2" d="M11.5,29C9.57,29,8,30.57,8,32.5S9.57,36,11.5,36s3.5-1.57,3.5-3.5S13.43,29,11.5,29z M11.5,34
				c-0.827,0-1.5-0.673-1.5-1.5s0.673-1.5,1.5-1.5s1.5,0.673,1.5,1.5S12.327,34,11.5,34z"/>
			<path class="st2" d="M36.5,29c-1.93,0-3.5,1.57-3.5,3.5s1.57,3.5,3.5,3.5s3.5-1.57,3.5-3.5S38.43,29,36.5,29z M36.5,34
				c-0.827,0-1.5-0.673-1.5-1.5s0.673-1.5,1.5-1.5s1.5,0.673,1.5,1.5S37.327,34,36.5,34z"/>
			<rect x="17" y="26" class="st2" width="14" height="2"/>
			<rect x="17" y="30" class="st2" width="14" height="2"/>
			<rect x="17" y="34" class="st2" width="14" height="2"/>
			<path class="st2" d="M47.04,8h-3V3c0-1.654-1.346-3-3-3H7C5.346,0,4,1.346,4,3v5H1C0.448,8,0,8.447,0,9v7c0,0.553,0.448,1,1,1h3
				v22c0,0.553,0.448,1,1,1h3v4.96C8,46.637,9.364,48,11.04,48h1.92c1.676,0,3.04-1.363,3.04-3.04V40h16v4.96
				c0,1.677,1.364,3.04,3.04,3.04h1.92c1.676,0,3.04-1.363,3.04-3.04V40h3.04c0.552,0,1-0.447,1-1V17h3c0.552,0,1-0.447,1-1V9
				C48.04,8.447,47.592,8,47.04,8z M42.04,16v6H24.245l7.498-8.331l-1.486-1.338L21.555,22h-7.31l7.498-8.331l-1.486-1.338
				L11.555,22H6v-6V9V6h36.04v3V16z M7,2h34.04c0.551,0,1,0.448,1,1v1H6V3C6,2.448,6.449,2,7,2z M2,10h2v5H2V10z M14,44.96
				c0,0.573-0.467,1.04-1.04,1.04h-1.92C10.467,46,10,45.533,10,44.96V40h4V44.96z M38,44.96c0,0.573-0.467,1.04-1.04,1.04h-1.92
				C34.467,46,34,45.533,34,44.96V40h4V44.96z M39,38h-6H15H9H6V24h36.04v14H39z M46.04,15h-2v-5h2V15z"/>
		</g>
	</g>
</g>
</svg>
