<svg xmlns="http://www.w3.org/2000/svg" viewBox="0 0 48 48"><style>.st0{fill:none}.st1{fill:#bec0c3}.st2{fill:#282c36}</style><path class="st0" d="M0 0h48v48H0z" id="Boundary"/><path class="st2" d="M36.091 39.012a6.84 6.84 0 0 1-4.847-2.001L13.83 19.64a3.903 3.903 0 0 1-1.155-2.779c0-1.051.408-2.039 1.151-2.782.742-.742 1.729-1.151 2.779-1.151s2.037.409 2.779 1.151l16.683 16.683-1.39 1.39-16.683-16.683c-.742-.741-2.036-.741-2.778 0a1.951 1.951 0 0 0-.575 1.391c0 .524.205 1.018.577 1.388l17.414 17.371a4.904 4.904 0 0 0 6.923-.004c.925-.925 1.435-2.155 1.435-3.464s-.51-2.538-1.435-3.464L21.384 10.518a7.694 7.694 0 0 0-5.477-2.268h-.001a7.692 7.692 0 0 0-5.477 2.27l-.189.188a7.697 7.697 0 0 0-2.266 5.481 7.692 7.692 0 0 0 2.277 5.478l13.367 13.327-1.388 1.392L8.863 23.059c-1.838-1.834-2.852-4.273-2.854-6.868s1.007-5.037 2.842-6.873l.189-.188a9.646 9.646 0 0 1 6.867-2.846h.001a9.648 9.648 0 0 1 6.867 2.844l18.171 18.171c1.296 1.297 2.011 3.02 2.011 4.854s-.714 3.558-2.011 4.854a6.854 6.854 0 0 1-4.855 2.005z" id="Design"/></svg>