<?xml version="1.0" encoding="utf-8"?>
<!-- Generator: Adobe Illustrator 19.2.1, SVG Export Plug-In . SVG Version: 6.00 Build 0)  -->
<svg version="1.1" xmlns="http://www.w3.org/2000/svg" xmlns:xlink="http://www.w3.org/1999/xlink" x="0px" y="0px"
	 viewBox="0 0 48 48" style="enable-background:new 0 0 48 48;" xml:space="preserve">
<style type="text/css">
	.st0{fill:none;}
	.st1{fill:#BEC0C3;}
	.st2{fill:#282C36;}
</style>
<g id="Boundary">
	<rect class="st0" width="48" height="48"/>
</g>
<g id="Design">
	<g>
		<path class="st1" d="M0.99,24C0.99,11.3,11.29,1,24,1c12.7,0,23,10.3,23,23c0,12.71-10.3,23.01-23,23.01
			C11.29,47.01,0.99,36.71,0.99,24z M43,24c0-10.49-8.51-19-19-19C13.5,5,4.99,13.51,4.99,24c0,10.5,8.51,19.01,19.01,19.01
			C34.49,43.01,43,34.5,43,24z"/>
		<g>
			<path class="st2" d="M24,48.01C10.761,48.01-0.01,37.239-0.01,24C-0.01,10.766,10.761,0,24,0c13.233,0,24,10.766,24,24
				C48,37.239,37.233,48.01,24,48.01z M24,2C11.864,2,1.99,11.869,1.99,24c0,12.136,9.874,22.01,22.01,22.01
				c12.131,0,22-9.874,22-22.01C46,11.869,36.131,2,24,2z"/>
		</g>
		<g>
			<path class="st2" d="M24,44.01C12.967,44.01,3.99,35.033,3.99,24C3.99,12.972,12.967,4,24,4c11.028,0,20,8.972,20,20
				C44,35.033,35.028,44.01,24,44.01z M24,6C14.069,6,5.99,14.075,5.99,24c0,9.931,8.079,18.01,18.01,18.01
				c9.925,0,18-8.079,18-18.01C42,14.075,33.925,6,24,6z"/>
		</g>
		<g>
			<path class="st2" d="M35.339,22.104C31.905,19.38,28.09,18,24,18c-4.13,0-7.945,1.38-11.379,4.104l-1.242-1.567
				C15.175,17.526,19.407,16,23.96,16c4.593,0,8.825,1.526,12.621,4.536L35.339,22.104z"/>
		</g>
		<g>
			<path class="st2" d="M31.437,25.627C29.103,23.859,26.671,23,24,23c-2.717,0-5.152,0.859-7.486,2.627l-1.207-1.594
				C18,21.992,20.83,21,23.96,21c3.163,0,5.99,0.992,8.684,3.033L31.437,25.627z"/>
		</g>
		<g>
			<path class="st2" d="M27.566,29.186C26.364,28.366,25.265,28,24,28c-1.322,0-2.389,0.354-3.606,1.186l-1.127-1.652
				C20.82,26.473,22.269,26,23.96,26c1.709,0,3.2,0.487,4.733,1.534L27.566,29.186z"/>
		</g>
		<circle class="st2" cx="24" cy="32.5" r="2"/>
	</g>
</g>
</svg>
