<svg xmlns="http://www.w3.org/2000/svg" viewBox="0 0 48 48"><style>.st0{fill:none}.st1{fill:#bec0c3}.st2{fill:#282c36}.st3{fill:none;stroke:#282c36;stroke-width:2;stroke-linejoin:round;stroke-miterlimit:10}.st4{fill:#292d37}</style><path class="st0" d="M0 0h48v48H0z" id="Boundary"/><g id="Design"><g id="XMLID_58_"><circle class="st1" cx="38" cy="18.99" r="3"/><path class="st2" d="M42 18.99c0-2.206-1.794-4-4-4s-4 1.794-4 4c0 1.859 1.279 3.411 3 3.858V35.5c0 .526-.208 1.024-.594 1.409a1.936 1.936 0 0 1-1.396.581c-1.103 0-2-.897-2-2v-5a3.93 3.93 0 0 0-1.166-2.821 3.941 3.941 0 0 0-2.834-1.179c-2.206 0-4 1.794-4 4v10.5a3.956 3.956 0 0 1-1.181 2.837A3.938 3.938 0 0 1 21.01 45 4.015 4.015 0 0 1 17 40.99V30.348l6.927-8.431.049-.05.001.001a9.984 9.984 0 0 0 1.2-1.456l.013-.017-.338-.247.346.234A10.463 10.463 0 0 0 27 14.49V3.99c0-1.654-1.346-3-3-3h-3.5c-.827 0-1.5.673-1.5 1.5s.673 1.5 1.5 1.5c.651 0 1.201-.419 1.408-1H24a1 1 0 0 1 1 1v10.5a8.459 8.459 0 0 1-1.455 4.763l-.983 1.199-.049.05a8.445 8.445 0 0 1-6.013 2.487 8.518 8.518 0 0 1-6.223-2.717L8.994 18.48A8.415 8.415 0 0 1 8 14.49V3.99a1 1 0 0 1 1-1h2.092c.207.581.757 1 1.408 1 .827 0 1.5-.673 1.5-1.5s-.673-1.5-1.5-1.5H9c-1.654 0-3 1.346-3 3v10.5c0 1.732.432 3.452 1.248 4.972a9.92 9.92 0 0 0 1.453 2.045L15 30.312V40.99A6.017 6.017 0 0 0 21.01 47a5.912 5.912 0 0 0 4.233-1.759 5.931 5.931 0 0 0 1.767-4.251v-10.5c0-1.103.897-2 2-2a1.96 1.96 0 0 1 1.419.594c.375.367.581.867.581 1.406v5c0 2.206 1.794 4 4 4a3.92 3.92 0 0 0 2.817-1.173A3.955 3.955 0 0 0 39 35.5V22.848c1.721-.447 3-1.999 3-3.858zm-25.5 6c.887 0 1.753-.121 2.59-.332l-3.035 3.691-2.765-3.864c1.029.331 2.112.505 3.21.505zm21.5-4c-1.103 0-2-.897-2-2s.897-2 2-2 2 .897 2 2-.897 2-2 2z"/></g></g></svg>