<?xml version="1.0" encoding="utf-8"?>
<!-- Generator: Adobe Illustrator 19.2.1, SVG Export Plug-In . SVG Version: 6.00 Build 0)  -->
<svg version="1.1" xmlns="http://www.w3.org/2000/svg" xmlns:xlink="http://www.w3.org/1999/xlink" x="0px" y="0px"
	 viewBox="0 0 48 48" style="enable-background:new 0 0 48 48;" xml:space="preserve">
<style type="text/css">
	.st0{fill:none;}
	.st1{fill:#BEC0C3;}
	.st2{fill:#282C36;}
</style>
<g id="Boundary">
	<rect class="st0" width="48" height="48"/>
</g>
<g id="Design">
	<g>
		<g>
			<rect x="10" y="5" class="st1" width="28" height="4"/>
		</g>
		<g>
			<path class="st2" d="M44.99,41V27.819C46.157,27.407,47,26.306,47,25c0-1.654-1.346-3-3-3s-3,1.346-3,3
				c0,1.288,0.831,2.384,1.99,2.806V41H39V5c0-0.552-0.447-1-1-1H10C9.447,4,9,4.448,9,5v36H4.99V27.819C6.157,27.407,7,26.306,7,25
				c0-1.654-1.346-3-3-3s-3,1.346-3,3c0,1.288,0.831,2.384,1.99,2.806V41H0v2h10h10h8h10h10v-2H44.99z M44,24c0.552,0,1,0.449,1,1
				s-0.448,1-1.001,1C43.448,25.995,43,25.546,43,25C43,24.449,43.448,24,44,24z M4,24c0.552,0,1,0.449,1,1s-0.448,1-1.001,1
				C3.448,25.995,3,25.546,3,25C3,24.449,3.448,24,4,24z M37,6v2H11V6H37z M11,39h8v2h-8V39z M27,41h-6v-7c0-1.654,1.346-3,3-3
				c0.795,0,1.551,0.313,2.118,0.872C26.687,32.449,27,33.205,27,34V41z M27.532,30.458C26.578,29.518,25.323,29,24,29
				c-2.757,0-5,2.243-5,5v3h-8V10h26v27h-8v-3C29,32.676,28.482,31.421,27.532,30.458z M29,41v-2h8v2H29z"/>
			<path class="st2" d="M18,12h-4c-0.553,0-1,0.448-1,1v4c0,0.552,0.447,1,1,1h4c0.553,0,1-0.448,1-1v-4C19,12.448,18.553,12,18,12z
				 M17,16h-2v-2h2V16z"/>
			<path class="st2" d="M26,12h-4c-0.553,0-1,0.448-1,1v4c0,0.552,0.447,1,1,1h4c0.553,0,1-0.448,1-1v-4C27,12.448,26.553,12,26,12z
				 M25,16h-2v-2h2V16z"/>
			<path class="st2" d="M30,18h4c0.553,0,1-0.448,1-1v-4c0-0.552-0.447-1-1-1h-4c-0.553,0-1,0.448-1,1v4C29,17.552,29.447,18,30,18z
				 M31,14h2v2h-2V14z"/>
			<path class="st2" d="M18,20h-4c-0.553,0-1,0.448-1,1v4c0,0.552,0.447,1,1,1h4c0.553,0,1-0.448,1-1v-4C19,20.448,18.553,20,18,20z
				 M17,24h-2v-2h2V24z"/>
			<path class="st2" d="M26,20h-4c-0.553,0-1,0.448-1,1v4c0,0.552,0.447,1,1,1h4c0.553,0,1-0.448,1-1v-4C27,20.448,26.553,20,26,20z
				 M25,24h-2v-2h2V24z"/>
			<path class="st2" d="M30,26h4c0.553,0,1-0.448,1-1v-4c0-0.552-0.447-1-1-1h-4c-0.553,0-1,0.448-1,1v4C29,25.552,29.447,26,30,26z
				 M31,22h2v2h-2V22z"/>
		</g>
	</g>
</g>
</svg>
