<svg xmlns="http://www.w3.org/2000/svg" viewBox="0 0 48 48"><style>.st0{fill:none}.st1{fill:#bec0c3}.st2{fill:#282c36}</style><path class="st0" d="M0 0h48v48H0z" id="Boundary"/><g id="Design"><path class="st2" d="M47.933 30.813l.047-.009-5-25A1 1 0 0 0 41.2 5.4l-3 4 1.6 1.2 1.658-2.211 3.134 15.671A10.95 10.95 0 0 0 37 21c-3.845 0-7.231 1.987-9.198 4.984a8.155 8.155 0 0 0-7.604 0C18.231 22.987 14.846 21 11 21a10.95 10.95 0 0 0-7.592 3.06L6.542 8.389 8.2 10.6l1.6-1.2-3-4a.998.998 0 0 0-1.78.404l-5 25 .047.009C.025 31.203 0 31.599 0 32c0 6.065 4.935 11 11 11s11-4.935 11-11c0-1.509-.306-2.947-.858-4.257a6.113 6.113 0 0 1 5.717 0A10.919 10.919 0 0 0 26 32c0 6.065 4.935 11 11 11s11-4.935 11-11c0-.401-.025-.797-.067-1.187zM11 41c-4.962 0-9-4.038-9-9s4.038-9 9-9 9 4.038 9 9-4.038 9-9 9zm26 0c-4.962 0-9-4.038-9-9s4.038-9 9-9 9 4.038 9 9-4.038 9-9 9z"/><path class="st2" d="M11 25v2a5.006 5.006 0 0 1 4.716 6.667l1.886.666A7.008 7.008 0 0 0 11 25zm26 0v2a5.006 5.006 0 0 1 4.716 6.667l1.886.666A7.008 7.008 0 0 0 37 25z"/></g></svg>