<svg xmlns="http://www.w3.org/2000/svg" viewBox="0 0 48 48"><style>.st0{fill:none}.st1{fill:#bec0c3}.st2{fill:#282c36}</style><path class="st0" d="M0 0h48v48H0z" id="Boundary"/><g id="Design"><path class="st1" d="M14 43V23l.04-.02c1.96 3.09 5.2 5.29 8.98 5.87L23 29v5a9 9 0 0 1-9 9z"/><path class="st2" d="M39 16c0-.362-.018-.722-.047-1.08l.024-.002a7.799 7.799 0 0 0-.101-.736c-.003-.02-.004-.041-.006-.061h-.002c-.004-.021-.004-.043-.009-.064l-.008-.039v-.001A13.488 13.488 0 0 0 38 10.816V1a1 1 0 0 0-1.837-.548 6.288 6.288 0 0 1-1.616 1.693.78.78 0 0 0-.071.046c-.754.53-1.704.809-2.746.809h-1.56C26.9 1.686 23.1 1.686 19.83 3h-1.56c-1.042 0-1.991-.279-2.745-.809a.78.78 0 0 0-.071-.046A6.303 6.303 0 0 1 13.838.452 1 1 0 0 0 12 1v9.822a13.64 13.64 0 0 0-.943 4.057c-.05.418-.057.818-.057 1.121 0 2.55.696 5.025 2 7.187V47a1 1 0 0 0 1 1h6.7C29.688 48 37 40.688 37 31.7v-8.514c1.305-2.165 2-4.638 2-7.186zm-3.884 6.444A11.928 11.928 0 0 1 25 28a11.962 11.962 0 0 1-10.118-5.56A11.891 11.891 0 0 1 13 16c0-.299.007-.589.047-.929v-.001l.01.001C13.261 12.228 15.66 10 18.52 10c3.176 0 5.48 2.095 5.48 4.98v5.76l-1.12 1.12L25 23.98l2.12-2.12L26 20.74v-5.76c0-2.886 2.321-4.98 5.52-4.98 2.613 0 4.871 1.852 5.369 4.401l.002.01a11.9 11.9 0 0 1-1.775 8.033zM15 25.79a13.941 13.941 0 0 0 7 3.867V34c0 4.072-3.06 7.436-7 7.931V25.79zM35.571 3.865c.024-.015.048-.029.071-.046v.001c.123-.085.242-.173.358-.264v3.809a14.292 14.292 0 0 0-2.631-2.564c.8-.184 1.549-.488 2.202-.936zm-5.96 1.056l.398-.944v.045l-.378.899a12.138 12.138 0 0 1 4.795 3.674A7.451 7.451 0 0 0 31.52 8c-2.854 0-5.24 1.33-6.517 3.393C23.732 9.33 21.358 8 18.52 8a7.404 7.404 0 0 0-2.969.626 12.137 12.137 0 0 1 4.818-3.704l-.379-.898v-.047l.399.945c2.896-1.224 6.326-1.224 9.222-.001zM14.357 3.82c.023.016.047.03.071.045.653.448 1.402.751 2.203.935A14.292 14.292 0 0 0 14 7.364V3.556c.116.091.235.179.357.264zM20.7 46H15v-2.051c5.046-.504 9-4.773 9-9.949v-4.038a13.908 13.908 0 0 0 11-4.17V31.7C35 39.585 28.585 46 20.7 46z"/><path class="st2" d="M18.5 13.98c-1.93 0-3.5 1.57-3.5 3.5s1.57 3.5 3.5 3.5 3.5-1.57 3.5-3.5-1.57-3.5-3.5-3.5zm0 5c-.827 0-1.5-.673-1.5-1.5s.673-1.5 1.5-1.5 1.5.673 1.5 1.5-.673 1.5-1.5 1.5zm13-5c-1.93 0-3.5 1.57-3.5 3.5s1.57 3.5 3.5 3.5 3.5-1.57 3.5-3.5-1.57-3.5-3.5-3.5zm0 5c-.827 0-1.5-.673-1.5-1.5s.673-1.5 1.5-1.5 1.5.673 1.5 1.5-.673 1.5-1.5 1.5z"/></g></svg>