<?xml version="1.0" encoding="utf-8"?>
<!-- Generator: Adobe Illustrator 19.2.1, SVG Export Plug-In . SVG Version: 6.00 Build 0)  -->
<svg version="1.1" xmlns="http://www.w3.org/2000/svg" xmlns:xlink="http://www.w3.org/1999/xlink" x="0px" y="0px"
	 viewBox="0 0 48 48" style="enable-background:new 0 0 48 48;" xml:space="preserve">
<style type="text/css">
	.st0{fill:none;}
	.st1{fill:#BEC0C3;}
	.st2{fill:#282C36;}
</style>
<g id="Boundary">
	<rect class="st0" width="48" height="48"/>
</g>
<g id="Design">
	<g>
		<g>
			<path class="st1" d="M34,24L24,34L14,24l10-10L34,24z M24,29l5-5l-5-5l-5,5L24,29z"/>
		</g>
		<g>
			<path class="st2" d="M23.293,18.293l-5,5c-0.391,0.391-0.391,1.023,0,1.414l5,5C23.488,29.902,23.744,30,24,30
				s0.512-0.098,0.707-0.293l5-5c0.391-0.391,0.391-1.023,0-1.414l-5-5C24.316,17.902,23.684,17.902,23.293,18.293z M27.586,24
				L24,27.586L20.414,24L24,20.414L27.586,24z"/>
			<path class="st2" d="M47.126,21.892C46.565,21.317,45.811,21,45,21c-1.302,0-2.402,0.839-2.816,2h-7.77L25,13.586V5.819
				c0.417-0.147,0.799-0.376,1.108-0.693C26.683,4.565,27,3.811,27,3s-0.317-1.565-0.874-2.108
				c-1.121-1.149-3.148-1.132-4.234-0.018C21.317,1.435,21,2.189,21,3c0,1.302,0.839,2.402,2,2.816v7.77L13.586,23H5.819
				c-0.147-0.417-0.376-0.799-0.693-1.108c-1.121-1.149-3.148-1.132-4.234-0.018C0.317,22.435,0,23.189,0,24
				s0.317,1.565,0.874,2.108C1.435,26.683,2.189,27,3,27c1.302,0,2.402-0.839,2.816-2h7.77L23,34.414v7.767
				c-0.417,0.147-0.799,0.376-1.108,0.693C21.317,43.435,21,44.189,21,45s0.317,1.565,0.874,2.108C22.435,47.683,23.189,48,24,48
				s1.565-0.317,2.108-0.874C26.683,46.565,27,45.811,27,45c0-1.302-0.839-2.402-2-2.816v-7.77L34.414,25h7.767
				c0.147,0.417,0.376,0.799,0.693,1.108C43.435,26.683,44.189,27,45,27s1.565-0.317,2.108-0.874C47.683,25.565,48,24.811,48,24
				S47.683,22.435,47.126,21.892z M23.306,2.288C23.487,2.102,23.733,2,24,2s0.513,0.102,0.712,0.306C24.898,2.487,25,2.733,25,3
				s-0.102,0.513-0.306,0.712C24.513,3.898,24.267,4,24,4c-0.551,0-1-0.449-1-1C23,2.733,23.102,2.487,23.306,2.288z M3,25
				c-0.267,0-0.513-0.102-0.712-0.306C2.102,24.513,2,24.267,2,24s0.102-0.513,0.306-0.712C2.487,23.102,2.733,23,3,23
				s0.513,0.102,0.712,0.306C3.898,23.487,4,23.733,4,24C4,24.551,3.551,25,3,25z M24.694,45.712
				c-0.362,0.372-1.009,0.39-1.406-0.018C23.102,45.513,23,45.267,23,45s0.102-0.513,0.306-0.712C23.487,44.102,23.733,44,24,44
				c0.551,0,1,0.449,1,1C25,45.267,24.898,45.513,24.694,45.712z M24,32.586L15.414,24L24,15.414L32.586,24L24,32.586z
				 M45.694,24.712c-0.362,0.372-1.009,0.39-1.406-0.018C44.102,24.513,44,24.267,44,24c0-0.551,0.449-1,1-1
				c0.267,0,0.513,0.102,0.712,0.306C45.898,23.487,46,23.733,46,24S45.898,24.513,45.694,24.712z"/>
			<path class="st2" d="M35.725,34.311l-3.679-3.679l-1.414,1.414l3.67,3.67C34.111,36.115,34,36.548,34,37
				c0,0.795,0.313,1.547,0.883,2.118C35.453,39.687,36.205,40,37,40s1.547-0.313,2.118-0.883C39.687,38.547,40,37.795,40,37
				s-0.313-1.547-0.878-2.113C38.235,33.989,36.837,33.804,35.725,34.311z M37.704,37.703c-0.384,0.384-1.024,0.383-1.406,0.001
				C36.105,37.511,36,37.262,36,37s0.105-0.512,0.297-0.704c0.001-0.001,0.002-0.002,0.004-0.004
				c0.188-0.19,0.436-0.295,0.699-0.295s0.511,0.105,0.703,0.299C37.895,36.488,38,36.738,38,37S37.895,37.511,37.704,37.703z"/>
			<path class="st2" d="M11,14.003c0.454,0,0.887-0.112,1.285-0.304l3.668,3.668l1.414-1.414l-3.67-3.67
				C13.889,11.885,14,11.452,14,11c0-0.795-0.313-1.547-0.883-2.118c-1.139-1.138-3.094-1.139-4.234,0.001
				C8.313,9.453,8,10.205,8,11s0.313,1.547,0.878,2.113C9.445,13.687,10.199,14.003,11,14.003z M10.296,10.297
				C10.488,10.105,10.738,10,11,10s0.512,0.105,0.703,0.296C11.895,10.489,12,10.738,12,11s-0.105,0.512-0.297,0.704
				c-0.001,0.001-0.002,0.002-0.004,0.004c-0.376,0.381-1.018,0.385-1.401-0.004C10.105,11.512,10,11.262,10,11
				S10.105,10.489,10.296,10.297z"/>
			<path class="st2" d="M15.953,30.633l-3.679,3.679c-1.111-0.507-2.507-0.322-3.394,0.573C8.312,35.454,8,36.206,8,37
				c0,0.795,0.313,1.547,0.883,2.118C9.453,39.687,10.205,40,11,40s1.547-0.313,2.118-0.883C13.687,38.547,14,37.795,14,37
				c0-0.452-0.112-0.885-0.303-1.283l3.67-3.67L15.953,30.633z M11.704,37.703c-0.384,0.384-1.024,0.383-1.406,0.001
				C10.105,37.511,10,37.262,10,37s0.105-0.512,0.297-0.704c0.001-0.001,0.002-0.002,0.004-0.004
				c0.188-0.19,0.436-0.295,0.699-0.295s0.511,0.105,0.703,0.299C11.895,36.488,12,36.738,12,37S11.895,37.511,11.704,37.703z"/>
			<path class="st2" d="M32.047,17.367l3.67-3.67C36.115,13.889,36.548,14,37,14c0.795,0,1.547-0.313,2.118-0.883
				C39.687,12.547,40,11.795,40,11s-0.313-1.547-0.883-2.118c-1.139-1.138-3.099-1.134-4.229-0.004
				c-0.574,0.567-0.89,1.32-0.89,2.122c0,0.454,0.112,0.887,0.304,1.285l-3.668,3.668L32.047,17.367z M36.296,10.297
				C36.488,10.105,36.738,10,37,10s0.511,0.105,0.703,0.296C37.895,10.488,38,10.738,38,11s-0.105,0.512-0.296,0.703
				c-0.385,0.384-1.023,0.384-1.407,0c-0.001-0.001-0.002-0.002-0.004-0.004c-0.19-0.188-0.295-0.436-0.295-0.699
				S36.102,10.489,36.296,10.297z"/>
		</g>
	</g>
</g>
</svg>
