<?xml version="1.0" encoding="utf-8"?>
<!-- Generator: Adobe Illustrator 19.2.1, SVG Export Plug-In . SVG Version: 6.00 Build 0)  -->
<svg version="1.1" xmlns="http://www.w3.org/2000/svg" xmlns:xlink="http://www.w3.org/1999/xlink" x="0px" y="0px"
	 viewBox="0 0 48 48" style="enable-background:new 0 0 48 48;" xml:space="preserve">
<style type="text/css">
	.st0{fill:none;}
	.st1{fill:#BEC0C3;}
	.st2{fill:#282C36;}
</style>
<g id="Boundary">
	<rect class="st0" width="48" height="48"/>
</g>
<g id="Design">
	<g>
		<g>
			<g>
				<path class="st1" d="M41.87,40.07c0.48,0.87-0.15,1.93-1.15,1.93c-2.41,0-6.45,0-10.97,0c-3.73,0-7.78,0-11.5,0
					c-4.51,0-8.54,0-10.94,0c-1,0-1.63-1.06-1.15-1.93c0.35-0.65,0.71-1.37,1.08-2.13L40,38l0.67-0.32
					C41.07,38.54,41.48,39.35,41.87,40.07z"/>
			</g>
		</g>
		<g>
			<path class="st2" d="M15.312,1.882l-0.943-1.764C10.66,2.102,7.932,5.625,6.88,9.785l1.939,0.49
				C9.732,6.659,12.1,3.6,15.312,1.882z"/>
			<path class="st2" d="M39.03,10.275l1.939-0.49c-1.052-4.161-3.781-7.684-7.488-9.667l-0.943,1.764
				C35.75,3.6,38.116,6.659,39.03,10.275z"/>
			<path class="st2" d="M42.749,39.594c-0.405-0.749-0.8-1.535-1.174-2.338c-0.709-1.513-1.396-3.101-1.979-4.58
				c-2.563-6.774-2.605-17.539-2.605-17.646c0-5.488-3.466-10.408-8.617-12.239c-2.841-1.036-5.77-1.037-8.708-0.003
				c-5.159,1.834-8.625,6.754-8.625,12.236c-0.001,0.107-0.101,10.792-2.6,17.639c-0.662,1.674-1.389,3.351-2.1,4.84
				c-0.363,0.747-0.718,1.455-1.056,2.084c-0.398,0.72-0.387,1.572,0.031,2.279C5.735,42.576,6.48,43,7.31,43h10.225
				c1.061,2.973,3.615,5,6.465,5s5.404-2.027,6.465-5H40.72c0.829,0,1.574-0.424,1.993-1.134
				C43.131,41.159,43.143,40.307,42.749,39.594z M13.04,15.03c0-4.644,2.932-8.806,7.292-10.356
				c1.262-0.444,2.495-0.667,3.717-0.667c1.221,0,2.43,0.222,3.646,0.666c4.363,1.551,7.295,5.714,7.295,10.358
				c0,0.455,0.041,11.234,2.74,18.366c0.462,1.172,0.991,2.395,1.536,3.602L8.802,36.943c0.515-1.144,1.026-2.35,1.508-3.57
				C12.938,26.173,13.037,15.488,13.04,15.03z M24,46c-1.788,0-3.421-1.191-4.306-3h8.613C27.421,44.809,25.788,46,24,46z
				 M40.991,40.849C40.958,40.905,40.878,41,40.72,41H7.31c-0.158,0-0.237-0.095-0.271-0.151c-0.039-0.066-0.071-0.171,0.003-0.305
				c0.266-0.494,0.54-1.038,0.819-1.602L39.998,39l0.001-0.429c0.322,0.672,0.649,1.342,0.995,1.981
				C41.062,40.677,41.03,40.782,40.991,40.849z"/>
			<path class="st2" d="M22.173,9.273l-0.666-1.886c-2.983,1.054-4.987,3.892-4.987,7.063h2
				C18.52,12.125,19.987,10.045,22.173,9.273z"/>
		</g>
	</g>
</g>
</svg>
