<?xml version="1.0" encoding="utf-8"?>
<!-- Generator: Adobe Illustrator 21.0.2, SVG Export Plug-In . SVG Version: 6.00 Build 0)  -->
<svg version="1.1" xmlns="http://www.w3.org/2000/svg" xmlns:xlink="http://www.w3.org/1999/xlink" x="0px" y="0px"
	 viewBox="0 0 48 48" style="enable-background:new 0 0 48 48;" xml:space="preserve">
<style type="text/css">
	.st0{fill:none;}
	.st1{fill:#BEC0C3;}
	.st2{fill:#282C36;}
	.st3{fill:none;stroke:#282C36;stroke-width:2;stroke-linejoin:round;stroke-miterlimit:10;}
	.st4{fill:#FFFFFF;}
	.st5{fill:#292D37;}
</style>
<g id="Boundary">
	<rect class="st0" width="48" height="48"/>
</g>
<g id="Design">
	<g>
		<g>
			<g>
				<path class="st1" d="M33.5,29c1.38,0,2.5,1.12,2.5,2.5c0,0.69-0.28,1.32-0.73,1.77S34.19,34,33.5,34h-19
					c-1.38,0-2.5-1.12-2.5-2.5c0-0.69,0.28-1.32,0.73-1.77C13.18,29.28,13.81,29,14.5,29H24H33.5z"/>
			</g>
		</g>
		<path class="st2" d="M38,18c-0.553,0-1,0.447-1,1v5h-3V10c0-2.678-1.042-5.188-2.931-7.065C29.188,1.042,26.678,0,24,0
			c-5.514,0-10,4.486-10,10v14h-3v-5c0-0.553-0.447-1-1-1H6v2h3v5c0,0.553,0.447,1,1,1h5h8v2h-8.5c-0.925,0-1.828,0.373-2.476,1.022
			C11.373,29.672,11,30.575,11,31.5c0,1.93,1.57,3.5,3.5,3.5H23v4.18l-9.196,1.839l0,0C12.242,41.123,11,42.413,11,44
			c0,1.654,1.346,3,3,3s3-1.346,3-3c0-0.548-0.158-1.055-0.416-1.497L23,41.22v0.965c-1.161,0.414-2,1.514-2,2.816
			c0,1.654,1.346,3,3,3s3-1.346,3-3c0-1.302-0.839-2.402-2-2.816V41.22l6.416,1.283C31.158,42.945,31,43.452,31,44
			c0,1.654,1.346,3,3,3s3-1.346,3-3c0-1.587-1.242-2.877-2.804-2.98l0,0L25,39.18V35h8.5c0.925,0,1.828-0.373,2.476-1.022
			C36.627,33.328,37,32.425,37,31.5c0-1.93-1.57-3.5-3.5-3.5H25v-2h8h5c0.553,0,1-0.447,1-1v-5h3v-2H38z M14,45
			c-0.552,0-1-0.448-1-1s0.448-1,1-1s1,0.448,1,1S14.552,45,14,45z M35,44c0,0.552-0.448,1-1,1s-1-0.448-1-1s0.448-1,1-1
			S35,43.448,35,44z M24,46c-0.552,0-1-0.448-1-1s0.448-1,1-1s1,0.448,1,1S24.552,46,24,46z M35,31.5
			c0,0.397-0.159,0.784-0.438,1.063C34.284,32.841,33.897,33,33.5,33h-19c-0.827,0-1.5-0.673-1.5-1.5
			c0-0.397,0.159-0.784,0.438-1.063C13.716,30.159,14.103,30,14.5,30h19C34.327,30,35,30.673,35,31.5z M32,24H16V10
			c0-4.411,3.589-8,8-8c2.142,0,4.148,0.833,5.655,2.349C31.167,5.852,32,7.858,32,10V24z"/>
	</g>
</g>
</svg>
