<?xml version="1.0" encoding="utf-8"?>
<!-- Generator: Adobe Illustrator 19.2.1, SVG Export Plug-In . SVG Version: 6.00 Build 0)  -->
<svg version="1.1" xmlns="http://www.w3.org/2000/svg" xmlns:xlink="http://www.w3.org/1999/xlink" x="0px" y="0px"
	 viewBox="0 0 48 48" style="enable-background:new 0 0 48 48;" xml:space="preserve">
<style type="text/css">
	.st0{fill:none;}
	.st1{fill:#BEC0C3;}
	.st2{fill:#282C36;}
</style>
<g id="Boundary">
	<rect class="st0" width="48" height="48"/>
</g>
<g id="Design">
	<g>
		<g>
			<g>
				<path class="st1" d="M11,19.01c2.21,0,4-1.8,4-4.01c0-2.22-1.79-4.01-4-4.01S7,12.78,7,15C7,17.21,8.79,19.01,11,19.01z
					 M12.99,21.99H9.01C7.35,21.99,6,23.35,6,25.03v0.66c-1.16-0.65-2.18-1.53-3-2.58H2.99V10.87H3c1.84-2.36,4.71-3.88,7.94-3.88
					c5.56,0,10.06,4.48,10.06,10c0,3.69-2.01,6.91-5,8.64v-0.6C16,23.35,14.65,21.99,12.99,21.99z"/>
			</g>
		</g>
		<g>
			<path class="st2" d="M45.177,15.783l-1.98-1.98c-1.102-1.103-2.894-1.101-3.994,0l-1.213,1.213V9.4
				c0-0.265-0.105-0.519-0.292-0.706l-6.39-6.41C31.121,2.096,30.866,1.99,30.6,1.99H2.99c-0.552,0-1,0.447-1,1v42.02
				c0,0.553,0.448,1,1,1h34c0.552,0,1-0.447,1-1V26.99h-0.016l7.203-7.203C46.281,18.684,46.281,16.887,45.177,15.783z
				 M23.471,38.665l-3.148-3.155L35.87,19.964l3.151,3.151L23.471,38.665z M19.575,37.592l1.816,1.82l-2.182,0.362L19.575,37.592z
				 M37.284,18.55l0.805-0.805l3.148,3.154l-0.801,0.801L37.284,18.55z M35.17,8.99H30.99V4.798L35.17,8.99z M16.798,23.827
				c-0.512-1.638-2.015-2.837-3.808-2.837H9.01c-1.823,0-3.349,1.24-3.834,2.921c-0.429-0.354-0.824-0.749-1.186-1.182V11.255
				C5.719,9.182,8.229,7.99,10.94,7.99c4.996,0,9.06,4.037,9.06,9C20,19.64,18.797,22.133,16.798,23.827z M14.998,25.015
				c-1.243,0.628-2.629,0.976-4.059,0.976c-1.391,0-2.709-0.322-3.94-0.923V25.03c0-1.125,0.901-2.04,2.01-2.04h3.98
				C14.093,22.99,14.99,23.897,14.998,25.015z M35.99,44.01h-32V25.52c0.477,0.385,0.978,0.738,1.516,1.04
				c1.647,0.937,3.526,1.431,5.434,1.431c1.975,0,3.9-0.519,5.561-1.495c3.392-1.962,5.5-5.604,5.5-9.505c0-6.065-4.961-11-11.06-11
				c-2.573,0-5.004,0.873-6.95,2.45V3.99h25v6c0,0.553,0.448,1,1,1h6v6h0.025L18.203,34.803l0.005,0.005
				c-0.144,0.145-0.249,0.327-0.284,0.536l-0.78,4.646H6v2h11.99c0.054,0,0.109-0.005,0.164-0.014l5.48-0.91
				c0.209-0.035,0.393-0.14,0.538-0.284l0.005,0.005L35.99,28.974V44.01z M43.763,18.373l-1.112,1.112l-3.148-3.154l1.114-1.114
				c0.321-0.32,0.845-0.32,1.166,0l1.98,1.98C44.093,17.527,44.093,18.043,43.763,18.373z"/>
			<rect x="25" y="12.99" class="st2" width="8" height="2"/>
			<rect x="25" y="18.99" class="st2" width="4" height="2"/>
			<path class="st2" d="M11,9.99c-2.757,0-5,2.247-5,5.01s2.243,5.01,5,5.01s5-2.247,5-5.01S13.757,9.99,11,9.99z M11,18.01
				c-1.654,0-3-1.351-3-3.01s1.346-3.01,3-3.01s3,1.351,3,3.01S12.654,18.01,11,18.01z"/>
		</g>
	</g>
</g>
</svg>
