<?xml version="1.0" encoding="utf-8"?>
<!-- Generator: Adobe Illustrator 19.2.1, SVG Export Plug-In . SVG Version: 6.00 Build 0)  -->
<svg version="1.1" xmlns="http://www.w3.org/2000/svg" xmlns:xlink="http://www.w3.org/1999/xlink" x="0px" y="0px"
	 viewBox="0 0 48 48" style="enable-background:new 0 0 48 48;" xml:space="preserve">
<style type="text/css">
	.st0{fill:none;}
	.st1{fill:#BEC0C3;}
	.st2{fill:#282C36;}
</style>
<g id="Boundary">
	<rect class="st0" width="48" height="48"/>
</g>
<g id="Design">
	<g>
		<g>
			<rect x="14" y="7" class="st1" width="20" height="30"/>
		</g>
		<g>
			<circle class="st2" cx="24" cy="42" r="2"/>
			<path class="st2" d="M36,0H12c-1.654,0-3,1.346-3,3v42c0,1.654,1.346,3,3,3h24c1.654,0,3-1.346,3-3V3C39,1.346,37.654,0,36,0z
				 M37,45c0,0.551-0.449,1-1,1H12c-0.551,0-1-0.449-1-1V3c0-0.551,0.449-1,1-1h24c0.551,0,1,0.449,1,1V45z"/>
			<path class="st2" d="M13,38h22V6H13V38z M15,8h18v28H15V8z"/>
		</g>
	</g>
</g>
</svg>
