<svg xmlns="http://www.w3.org/2000/svg" viewBox="0 0 48 48"><style>.st0{fill:none}.st1{fill:#bec0c3}.st2{fill:#282c36}</style><path class="st0" d="M0 0h48v48H0z" id="Boundary"/><g id="Design"><path class="st1" d="M10 43h29v4H10z"/><path class="st2" d="M39 20h-4.01v-9.47c0-2.808-1.092-5.445-3.073-7.427A10.43 10.43 0 0 0 24.49.03C18.706.03 14 4.74 14 10.53V20h-4a1 1 0 0 0-1 1v26a1 1 0 0 0 1 1h29a1 1 0 0 0 1-1V21a1 1 0 0 0-1-1zm-23-9.47c0-4.687 3.809-8.5 8.49-8.5 2.273 0 4.409.883 6.013 2.487s2.487 3.739 2.487 6.013V20H31v-9.5c0-1.737-.676-3.37-1.903-4.597A6.457 6.457 0 0 0 24.5 4a6.508 6.508 0 0 0-6.5 6.5V20h-2v-9.47zM29 20h-9v-9.5C20 8.019 22.019 6 24.5 6c1.203 0 2.334.468 3.183 1.317A4.474 4.474 0 0 1 29 10.5V20zm9 2v2H11v-2h27zm0 4v16H11V26h27zM11 46v-2h27v2H11z"/></g></svg>