<?xml version="1.0" encoding="utf-8"?>
<!-- Generator: Adobe Illustrator 19.2.1, SVG Export Plug-In . SVG Version: 6.00 Build 0)  -->
<svg version="1.1" xmlns="http://www.w3.org/2000/svg" xmlns:xlink="http://www.w3.org/1999/xlink" x="0px" y="0px"
	 viewBox="0 0 48 48" style="enable-background:new 0 0 48 48;" xml:space="preserve">
<style type="text/css">
	.st0{fill:none;}
	.st1{fill:#BEC0C3;}
	.st2{fill:#282C36;}
	.st3{fill:none;stroke:#282C36;stroke-width:2;stroke-linejoin:round;stroke-miterlimit:10;}
	.st4{fill:#292D37;}
</style>
<g id="Boundary">
	<rect class="st0" width="48" height="48"/>
</g>
<g id="Design">
	<g>
		<rect x="3.99" y="3.99" class="st1" width="25" height="2.01"/>
		<g>
			<path class="st2" d="M45.39,20.67l-6-2.59c-0.25-0.11-0.53-0.11-0.79,0l-0.61,0.26V9.4c0-0.27-0.1-0.52-0.29-0.71l-6.39-6.4
				c-0.19-0.19-0.44-0.3-0.71-0.3H2.99c-0.55,0-1,0.45-1,1v42.02c0,0.55,0.45,1,1,1h34c0.56,0,1-0.45,1-1v-8.5l0.44,0.31
				C38.6,36.94,38.8,37,39,37s0.4-0.06,0.57-0.18l4.88-3.4C45.42,32.77,46,31.7,46,30.54v-8.95C46,21.19,45.76,20.83,45.39,20.67z
				 M39,20.09l5,2.16v1.82l-4.61-1.99c-0.25-0.11-0.53-0.11-0.79,0L34,24.07v-1.82L39,20.09z M35.17,8.99h-4.18v-4.2L35.17,8.99z
				 M3.99,3.99h25V6h-25V3.99z M35.99,44.01h-32V8h25v1.99c0,0.55,0.45,1,1,1h6v8.22l-3.39,1.46c-0.36,0.16-0.6,0.52-0.6,0.92v8.95
				c0,1.16,0.58,2.23,1.52,2.86l2.47,1.72V44.01z M44,30.54c0,0.49-0.25,0.94-0.67,1.22L39,34.78l-4.35-3.03
				C34.24,31.48,34,31.03,34,30.54v-4.29l5-2.16l5,2.16V30.54z"/>
			<rect x="10" y="14" class="st2" width="20" height="2"/>
			<rect x="10" y="26" class="st2" width="14.99" height="2"/>
			<rect x="10" y="20" class="st2" width="10.99" height="2"/>
			<rect x="10" y="32" class="st2" width="6" height="2"/>
		</g>
	</g>
</g>
</svg>
