<svg xmlns="http://www.w3.org/2000/svg" viewBox="0 0 48 48"><style>.st0{fill:none}.st1{fill:#bec0c3}.st2{fill:#282c36}</style><path class="st0" d="M0 0h48v48H0z" id="Boundary"/><g id="Design"><path class="st2" d="M25.61 30.73l-1.41-.59c-1.68-.69-2.46-1.19-2.46-2.22 0-1.19 1-1.84 2.34-1.89.06-.01.12-.01.18-.01 1.44 0 2.75.66 3.75 1.68l1.46-1.49c-1.067-1.329-2.579-2.209-4.47-2.367V21h-2v2.952c-2.115.414-3.72 1.825-3.72 4.098 0 2.18 1.46 3.24 3.77 4.21l1.46.62c1.53.62 2.65 1.12 2.65 2.43 0 1.37-1.31 2.15-2.9 2.15-.08 0-.15 0-.23-.01-1.71-.08-2.93-1.08-4.13-2.33l-1.53 1.59A7.276 7.276 0 0 0 23 39.554V42h2v-2.366c2.507-.23 4.63-1.704 4.63-4.414 0-2.15-1.28-3.34-4.02-4.49z"/><path class="st2" d="M40.61 44.991a3.973 3.973 0 0 1-.925-2.945c1.277-13.295-1.677-22.646-8.778-27.796l-.001-.001a11.198 11.198 0 0 0-2.8-1.461 3.15 3.15 0 0 0 .663-1.506l1.47-9.61A1 1 0 0 0 29.58.576l-.126-.044C28.274.12 26.493-.505 24.86.278a33.25 33.25 0 0 0-.854.424c-.57.291-.783.4-1.442.54-.602.126-1.794-.202-3.44-.656l-.106-.029c-.375-.104-.771.021-1.023.313s-.312.707-.155 1.061c.229.514.555 3.368.793 5.451.16 1.398.319 2.797.479 3.885v.001a3.18 3.18 0 0 0 .687 1.546c-.975.356-1.895.831-2.734 1.437-7.095 5.143-10.048 14.494-8.777 27.82.014.12.012.239.012.359 0 .942-.334 1.852-.948 2.569-.46.553-.557 1.3-.252 1.951.303.648.935 1.05 1.65 1.05h30.47c1.004 0 1.82-.821 1.82-1.83 0-.422-.147-.835-.43-1.179zM22.978 3.198c.489-.104.826-.21 1.13-.334l-.502 4.781 1.988.209.622-5.915c.599-.097 1.28.054 1.919.257l-1.344 8.787A1.201 1.201 0 0 1 25.61 12h-3.33a1.21 1.21 0 0 1-1.191-1.025c-.157-1.069-.313-2.444-.471-3.82-.204-1.782-.37-3.199-.533-4.239 1.198.301 2.104.446 2.893.282zM9.112 46a5.939 5.939 0 0 0 1.188-3.57c0-.2-.002-.4-.024-.574-1.196-12.545 1.482-21.288 7.961-25.985 1.621-1.171 3.61-1.79 5.754-1.79 2.137 0 4.122.619 5.743 1.789 6.487 4.703 9.166 13.446 7.962 25.983A5.965 5.965 0 0 0 38.858 46H9.112z"/></g></svg>