<svg xmlns="http://www.w3.org/2000/svg" viewBox="0 0 48 48"><style>.st0{fill:none}.st1{fill:#bec0c3}.st2{fill:#282c36}</style><path class="st0" d="M0 0h48v48H0z" id="Boundary"/><g id="Design"><path class="st1" d="M22 30c-.55 0-1 .45-1 1s.45 1 1 1 1-.45 1-1-.45-1-1-1zm3 5H3c-1.1 0-2-.9-2-2v-6h34v8H25z"/><path class="st2" d="M46.22 23H44V8c0-1.654-1.346-3-3-3H3C1.346 5 0 6.346 0 8v25c0 1.654 1.346 3 3 3h15v5h-4v2h16v-2h-4v-5h8v5.22c0 .981.799 1.78 1.78 1.78h10.44c.981 0 1.78-.799 1.78-1.78V24.78c0-.981-.799-1.78-1.78-1.78zM24 41h-4v-5h4v5zm10-7H3a1 1 0 0 1-1-1v-5h32v6zm0-9.22V26H2V8a1 1 0 0 1 1-1h38a1 1 0 0 1 1 1v15h-6.22c-.981 0-1.78.799-1.78 1.78zM46 41H36v-2h10v2zm0-4H36V25h10v12z"/><circle class="st2" cx="22" cy="31" r="1"/></g></svg>