<svg xmlns="http://www.w3.org/2000/svg" viewBox="0 0 48 48"><style>.st0{fill:none}.st1{fill:#bec0c3}.st2{fill:#282c36}.st3{fill:none;stroke:#282c36;stroke-width:2;stroke-linejoin:round;stroke-miterlimit:10}.st4{fill:#292d37}</style><path class="st0" d="M0 0h48v48H0z" id="Boundary"/><path class="st4" d="M46.472 9.118A.995.995 0 0 0 46 9.005V9H2v.006A.984.984 0 0 0 1 10v28.292A1.71 1.71 0 0 0 2.708 40h42.584c.894 0 1.708-.713 1.708-1.495V10a1 1 0 0 0-.528-.882zM24.022 23.45L5.309 11h37.388L24.022 23.45zm-7.16-2.361L3 36.466v-24.6l13.862 9.223zm1.684 1.12l4.923 3.276a.996.996 0 0 0 1.108-.001l4.917-3.278L43.694 38H4.31l14.236-15.791zm12.631-1.125L45 11.868v24.593L31.177 21.084z" id="Design"/></svg>