<?xml version="1.0" encoding="utf-8"?>
<!-- Generator: Adobe Illustrator 19.2.1, SVG Export Plug-In . SVG Version: 6.00 Build 0)  -->
<svg version="1.1" xmlns="http://www.w3.org/2000/svg" xmlns:xlink="http://www.w3.org/1999/xlink" x="0px" y="0px"
	 viewBox="0 0 48 48" style="enable-background:new 0 0 48 48;" xml:space="preserve">
<style type="text/css">
	.st0{fill:none;}
	.st1{fill:#BEC0C3;}
	.st2{fill:#282C36;}
</style>
<g id="Boundary">
	<rect class="st0" width="48" height="48"/>
</g>
<g id="Design">
	<g id="XMLID_26_">
		<g>
			<g>
				<path class="st1" d="M47,38v2c0,1.1-0.9,2-2,2H3c-1.1,0-2-0.9-2-2v-2H47z"/>
			</g>
		</g>
		<path class="st2" d="M47.701,12.715l0.03-0.032l-0.092-0.086c-0.131-0.245-0.285-0.477-0.483-0.674C46.6,11.336,45.814,11,45,11
			H34V6c0-0.553-0.448-1-1-1H15c-0.552,0-1,0.447-1,1v5H3c-0.814,0-1.6,0.336-2.137,0.902c-0.205,0.205-0.363,0.441-0.497,0.689
			l-0.097,0.091L0.3,12.716C0.11,13.112,0,13.545,0,14v26c0,1.654,1.346,3,3,3h42c1.654,0,3-1.346,3-3V14
			C48,13.543,47.889,13.108,47.701,12.715z M16,7h16v4H16V7z M33,13h11.699L32.565,26H27v-3c0-0.553-0.448-1-1-1h-4
			c-0.552,0-1,0.447-1,1v3h-5.565L3.301,13H15H33z M25,24v6h-2v-6H25z M14.269,27.683C14.458,27.885,14.723,28,15,28h6v3
			c0,0.553,0.448,1,1,1h4c0.552,0,1-0.447,1-1v-3h6c0.277,0,0.542-0.115,0.731-0.317L46,14.537V37H2V14.537L14.269,27.683z M45,41H3
			c-0.551,0-1-0.448-1-1v-1h44v1C46,40.552,45.551,41,45,41z"/>
	</g>
</g>
</svg>
