<svg xmlns="http://www.w3.org/2000/svg" viewBox="0 0 48 48"><style>.st0{fill:none}.st1{fill:#bec0c3}.st2{fill:#282c36}</style><path class="st0" d="M0 0h48v48H0z" id="Boundary"/><g id="Design"><path class="st1" d="M24 8.01c4.42 0 8 3.58 8 7.99 0 4.42-3.58 8-8 8-4.41 0-7.99-3.58-7.99-8 0-4.41 3.58-7.99 7.99-7.99z"/><path class="st2" d="M34.824 3.875C30.874.626 25.686-.664 20.579.337 13.936 1.625 8.59 6.964 7.279 13.624a17.446 17.446 0 0 0-.009 6.886c.382 1.875 1.185 3.791 2.385 5.695l13.5 21.35a.999.999 0 0 0 .839.465H24a1 1 0 0 0 .839-.455c.55-.847 13.48-20.757 14.616-23.201a16.968 16.968 0 0 0 1.615-7.254 17.08 17.08 0 0 0-6.246-13.235zm2.819 19.644c-.812 1.748-8.832 14.244-13.632 21.647L11.346 25.137c-1.07-1.698-1.782-3.389-2.115-5.023a15.47 15.47 0 0 1 .011-6.101c1.155-5.872 5.865-10.579 11.721-11.712a15.604 15.604 0 0 1 3.015-.294 15.03 15.03 0 0 1 9.577 3.413 15.087 15.087 0 0 1 5.517 11.69 15.02 15.02 0 0 1-1.429 6.409z"/><path class="st2" d="M24 7.01c-4.957 0-8.99 4.033-8.99 8.99 0 4.962 4.033 9 8.99 9 4.963 0 9-4.038 9-9 0-4.957-4.037-8.99-9-8.99zM24 23c-3.854 0-6.99-3.14-6.99-7A6.998 6.998 0 0 1 24 9.01c3.859 0 7 3.136 7 6.99 0 3.86-3.141 7-7 7z"/></g></svg>