<?xml version="1.0" encoding="utf-8"?>
<!-- Generator: Adobe Illustrator 19.2.1, SVG Export Plug-In . SVG Version: 6.00 Build 0)  -->
<svg version="1.1" xmlns="http://www.w3.org/2000/svg" xmlns:xlink="http://www.w3.org/1999/xlink" x="0px" y="0px"
	 viewBox="0 0 48 48" style="enable-background:new 0 0 48 48;" xml:space="preserve">
<style type="text/css">
	.st0{fill:none;}
	.st1{fill:#BEC0C3;}
	.st2{fill:#282C36;}
</style>
<g id="Boundary">
	<rect class="st0" width="48" height="48"/>
</g>
<g id="Design">
	<g>
		<g>
			<rect x="7" y="4" class="st1" width="30" height="4"/>
		</g>
		<g>
			
				<rect x="41.035" y="13.072" transform="matrix(0.7063 -0.7079 0.7079 0.7063 0.8064 34.5438)" class="st2" width="2" height="6.456"/>
		</g>
		<g>
			<path class="st2" d="M47.189,13.814l-1.982-1.992c-1.102-1.102-2.893-1.102-3.994,0L38,15.036V4c0-0.552-0.447-1-1-1H7
				C6.447,3,6,3.448,6,4v34H1c-0.553,0-1,0.448-1,1v3c0,2.206,1.794,4,4,4v0.02h29c2.757,0,5-2.243,5-5V27h-0.005l9.193-9.193
				C48.289,16.706,48.289,14.914,47.189,13.814z M25.48,36.687l-3.154-3.147l15.55-15.551l3.151,3.151L25.48,36.687z M21.577,35.619
				l1.821,1.817l-2.185,0.367L21.577,35.619z M36,5v2H8V5H36z M2,42v-2h4v2c0,1.103-0.897,2-2,2S2,43.103,2,42z M36,41.02
				c0,1.654-1.346,3-3,3H7.433C7.784,43.425,8,42.74,8,42v-3V9h28v8h0.036L20.203,32.833l0.005,0.005
				c-0.145,0.145-0.25,0.328-0.285,0.538L19.153,38H14v2h5.887c0.038,0.004,0.075,0.02,0.113,0.02c0.055,0,0.11-0.004,0.166-0.014
				l5.48-0.92c0.209-0.035,0.392-0.14,0.536-0.284l0.005,0.005L36,28.995V41.02z M45.773,16.393l-3.333,3.333l-3.151-3.151
				l3.338-3.338c0.321-0.32,0.845-0.322,1.164-0.001l1.982,1.992C46.095,15.548,46.095,16.072,45.773,16.393z"/>
			<rect x="14" y="15" class="st2" width="15" height="2"/>
			<rect x="14" y="21" class="st2" width="11" height="2"/>
			<rect x="14" y="27" class="st2" width="6" height="2"/>
		</g>
	</g>
</g>
</svg>
