<svg xmlns="http://www.w3.org/2000/svg" viewBox="0 0 48 48"><style>.st0{fill:none}.st1{fill:#bec0c3}.st2{fill:#282c36}</style><path class="st0" d="M0 0h48v48H0z" id="Boundary"/><g id="Design"><path class="st2" d="M47.707 46.293l-46-46A1.001 1.001 0 0 0 0 1v46a1 1 0 0 0 1 1h46a1 1 0 0 0 .707-1.707zM39 46v-2h-2v2h-2v-3.414h-2V46h-2v-2h-2v2h-2v-3.414h-2V46h-2v-2h-2v2h-2v-3.414h-2V46h-2v-2h-2v2h-2v-3.414H9V46H7v-2H5v2H2V3.414L44.586 46H39z"/><path class="st2" d="M9 40h19a1 1 0 0 0 .707-1.707l-19-19A1.001 1.001 0 0 0 8 20v19a1 1 0 0 0 1 1zm1-17.586L25.586 38H10V22.414z"/></g></svg>