<?xml version="1.0" encoding="utf-8"?>
<!-- Generator: Adobe Illustrator 19.2.1, SVG Export Plug-In . SVG Version: 6.00 Build 0)  -->
<svg version="1.1" xmlns="http://www.w3.org/2000/svg" xmlns:xlink="http://www.w3.org/1999/xlink" x="0px" y="0px"
	 viewBox="0 0 48 48" style="enable-background:new 0 0 48 48;" xml:space="preserve">
<style type="text/css">
	.st0{fill:none;}
	.st1{fill:#BEC0C3;}
	.st2{fill:#282C36;}
	.st3{fill:none;stroke:#282C36;stroke-width:2;stroke-linejoin:round;stroke-miterlimit:10;}
	.st4{fill:#292D37;}
</style>
<g id="Boundary">
	<rect class="st0" width="48" height="48"/>
</g>
<g id="Design">
	<g>
		<rect x="3.99" y="3.99" class="st1" width="25" height="2.01"/>
		<g>
			<path class="st2" d="M45.41,25.19l-5-2.09l-1.12-5.31c-0.08-0.37-0.36-0.66-0.73-0.76c-0.19-0.05-0.39-0.04-0.57,0.03V9.4
				c0-0.27-0.1-0.52-0.29-0.71l-6.39-6.4c-0.19-0.19-0.44-0.3-0.71-0.3H2.99c-0.55,0-1,0.45-1,1v42.02c0,0.55,0.45,1,1,1h34
				c0.56,0,1-0.45,1-1v-9.92l0.73,0.66c0.19,0.16,0.43,0.25,0.67,0.25c0.13,0,0.25-0.02,0.37-0.07c0.35-0.14,0.6-0.47,0.63-0.85
				l0.44-5.4l4.7-2.7c0.33-0.19,0.52-0.55,0.5-0.93C46,25.67,45.77,25.33,45.41,25.19z M35.17,8.99h-4.18v-4.2L35.17,8.99z
				 M3.99,3.99h25V6h-25V3.99z M35.99,44.01h-32V8h25v1.99c0,0.55,0.45,1,1,1h6v8.18l-1.97,2.29l-5.39-0.57
				c-0.38-0.05-0.75,0.13-0.95,0.45c-0.2,0.33-0.21,0.74-0.01,1.06l2.82,4.63l-2.21,4.95c-0.16,0.35-0.1,0.75,0.14,1.05
				c0.24,0.29,0.63,0.42,1,0.33l5.28-1.25l1.29,1.17V44.01z M39.37,28.21c-0.28,0.16-0.47,0.46-0.49,0.78l-0.32,3.91l-0.26-0.24
				l-2.65-2.39c-0.19-0.17-0.43-0.26-0.67-0.26c-0.08,0-0.16,0.01-0.23,0.03l-3.82,0.91l1.6-3.58c0.14-0.3,0.12-0.65-0.06-0.93
				l-2.04-3.35l3.9,0.42c0.33,0.03,0.65-0.09,0.87-0.34l2.55-2.98l0.81,3.84c0.07,0.32,0.29,0.59,0.59,0.71l3.62,1.51L39.37,28.21z"
				/>
			<rect x="10" y="14" class="st2" width="20" height="2"/>
			<rect x="10" y="26" class="st2" width="14.99" height="2"/>
			<rect x="10" y="20" class="st2" width="10.99" height="2"/>
			<rect x="10" y="32" class="st2" width="6" height="2"/>
		</g>
	</g>
</g>
</svg>
