<?xml version="1.0" encoding="utf-8"?>
<!-- Generator: Adobe Illustrator 19.2.1, SVG Export Plug-In . SVG Version: 6.00 Build 0)  -->
<svg version="1.1" xmlns="http://www.w3.org/2000/svg" xmlns:xlink="http://www.w3.org/1999/xlink" x="0px" y="0px"
	 viewBox="0 0 48 48" style="enable-background:new 0 0 48 48;" xml:space="preserve">
<style type="text/css">
	.st0{fill:none;}
	.st1{fill:#BEC0C3;}
	.st2{fill:#282C36;}
</style>
<g id="Boundary">
	<rect class="st0" width="48" height="48"/>
</g>
<g id="Design">
	<g>
		<g>
			<g>
				<path class="st1" d="M47,6v2H1V6c0-1.1,0.9-2,2-2h42C46.1,4,47,4.9,47,6z"/>
			</g>
		</g>
		<g>
			<circle class="st2" cx="13" cy="21" r="1.5"/>
			<circle class="st2" cx="13" cy="15" r="1.5"/>
			<path class="st2" d="M45,3H3C1.346,3,0,4.346,0,6v28c0,1.654,1.346,3,3,3h17v5h-4v2h16v-2h-4v-5h17c1.654,0,3-1.346,3-3V6
				C48,4.346,46.654,3,45,3z M26,42h-4v-5h4V42z M46,34c0,0.551-0.448,1-1,1H3c-0.552,0-1-0.449-1-1v-5h3h41V34z M46,27H5H2V9h44V27
				z M46,7H2V6c0-0.551,0.448-1,1-1h42c0.552,0,1,0.449,1,1V7z"/>
			<rect x="16" y="14" class="st2" width="13" height="2"/>
			<rect x="31" y="14" class="st2" width="5" height="2"/>
			<rect x="16" y="20" class="st2" width="13" height="2"/>
			<rect x="31" y="20" class="st2" width="5" height="2"/>
			<circle class="st2" cx="24" cy="32" r="1"/>
		</g>
	</g>
</g>
</svg>
