<?xml version="1.0" encoding="utf-8"?>
<!-- Generator: Adobe Illustrator 19.2.1, SVG Export Plug-In . SVG Version: 6.00 Build 0)  -->
<svg version="1.1" xmlns="http://www.w3.org/2000/svg" xmlns:xlink="http://www.w3.org/1999/xlink" x="0px" y="0px"
	 viewBox="0 0 48 48" style="enable-background:new 0 0 48 48;" xml:space="preserve">
<style type="text/css">
	.st0{fill:none;}
	.st1{fill:#BEC0C3;}
	.st2{fill:#282C36;}
</style>
<g id="Boundary">
	<rect class="st0" width="48" height="48"/>
</g>
<g id="Design">
	<g id="XMLID_56_">
		<g>
			<g>
				<path class="st1" d="M43.1,39.44l-1.26,1.28c-0.1,0.1-0.2,0.2-0.3,0.28l-7.5-7.5l0.38-0.38l1.16-1.16c1.22-1.22,3.2-1.22,4.43,0
					l3.07,3.07C44.29,36.25,44.3,38.21,43.1,39.44z"/>
			</g>
			<g>
				<path class="st1" d="M14.51,13.97L7.02,6.48L7,6.46l1.57-1.55c1.23-1.2,3.19-1.19,4.41,0.02l3.07,3.08
					c1.22,1.22,1.22,3.2,0,4.42l-1.15,1.16l-0.13,0.13l-0.25,0.26L14.51,13.97z"/>
			</g>
		</g>
		<path class="st2" d="M43.787,34.323l-3.073-3.073c-1.616-1.603-4.236-1.602-5.841,0.003l-2.419,2.413
			c-3.458-2.669-6.78-5.6-9.884-8.72c-2.909-2.935-5.672-6.089-8.221-9.387l1.258-1.263L14.9,13.59l0.71,0.704l1.146-1.157
			c0.779-0.778,1.208-1.814,1.208-2.917c0-1.102-0.429-2.138-1.207-2.916L13.684,4.22c-1.597-1.584-4.205-1.594-5.817-0.021
			l-1.57,1.55L6.319,5.77c-1.386,1.243-2.21,3.025-2.254,4.838c-0.597,6.396,3.394,14.244,11.239,22.101
			c7.344,7.334,14.683,11.3,20.774,11.3c0.424,0,0.841-0.02,1.252-0.058c1.629-0.032,3.459-0.864,4.834-2.169
			c0.128-0.103,0.258-0.229,0.388-0.359l1.264-1.283C45.385,38.529,45.373,35.922,43.787,34.323z M12.271,5.636l3.071,3.081
			c0.401,0.401,0.622,0.936,0.622,1.503c0,0.568-0.221,1.102-0.625,1.506l-0.826,0.834L8.419,6.465l0.849-0.839
			C10.101,4.813,11.45,4.819,12.271,5.636z M37.217,41.954c-5.804,0.548-13.075-3.245-20.5-10.661
			C9.301,23.867,5.515,16.587,6.06,10.726c0.026-1.015,0.372-1.988,0.989-2.803l6.053,6.052l-0.785,0.785
			c-0.356,0.354-0.395,0.916-0.092,1.314c2.748,3.619,5.751,7.078,8.927,10.281c3.376,3.395,7.005,6.567,10.785,9.432
			c0.398,0.304,0.956,0.264,1.309-0.088l0.792-0.789l6.014,6.014C39.146,41.553,38.134,41.934,37.217,41.954z M42.388,38.738
			l-0.841,0.854l-6.094-6.094l0.834-0.832c0.828-0.828,2.182-0.826,3.016,0l3.067,3.067C43.189,36.561,43.196,37.91,42.388,38.738z"
			/>
	</g>
</g>
</svg>
