<?xml version="1.0" encoding="utf-8"?>
<!-- Generator: Adobe Illustrator 19.2.1, SVG Export Plug-In . SVG Version: 6.00 Build 0)  -->
<svg version="1.1" xmlns="http://www.w3.org/2000/svg" xmlns:xlink="http://www.w3.org/1999/xlink" x="0px" y="0px"
	 viewBox="0 0 48 48" style="enable-background:new 0 0 48 48;" xml:space="preserve">
<style type="text/css">
	.st0{fill:none;}
	.st1{fill:#BEC0C3;}
	.st2{fill:#282C36;}
	.st3{fill:none;stroke:#282C36;stroke-width:2;stroke-linejoin:round;stroke-miterlimit:10;}
	.st4{fill:#292D37;}
</style>
<g id="Boundary">
	<rect class="st0" width="48" height="48"/>
</g>
<g id="Design">
	<g>
		<path class="st1" d="M36.07,40c0.83,0,1.5,0.67,1.5,1.5S36.9,43,36.07,43c-0.82,0-1.5-0.67-1.5-1.5S35.25,40,36.07,40z"/>
		<circle class="st1" cx="16.5" cy="41.5" r="1.5"/>
		<g>
			<path class="st2" d="M46.82,12.44c-0.19-0.27-0.49-0.43-0.82-0.43H8.46L6.38,4.73C6.26,4.3,5.87,4,5.42,4H1v2h3.67l2.29,8.02
				l5.23,18.32c-0.71,0.42-1.19,1.2-1.19,2.08v0.16c0,1.34,1.08,2.42,2.42,2.42H40v-2H13.42C13.19,35,13,34.81,13,34.58v-0.16
				c0-0.23,0.19-0.42,0.42-0.42c0.05,0,0.1,0,0.15-0.02v0.01l26.58-4c0.36-0.06,0.66-0.3,0.79-0.64l6-15.99
				C47.05,13.05,47.01,12.71,46.82,12.44z M39.27,28.1l-25.13,3.79L9.03,14.01h35.53L39.27,28.1z"/>
			<path class="st2" d="M36.07,38c-1.93,0-3.5,1.57-3.5,3.5s1.57,3.5,3.5,3.5s3.5-1.57,3.5-3.5S38,38,36.07,38z M36.07,43
				c-0.82,0-1.5-0.67-1.5-1.5c0-0.83,0.68-1.5,1.5-1.5c0.83,0,1.5,0.67,1.5,1.5C37.57,42.33,36.9,43,36.07,43z"/>
			<path class="st2" d="M16.5,38c-1.93,0-3.5,1.57-3.5,3.5s1.57,3.5,3.5,3.5s3.5-1.57,3.5-3.5S18.43,38,16.5,38z M16.5,43
				c-0.83,0-1.5-0.67-1.5-1.5c0-0.83,0.67-1.5,1.5-1.5s1.5,0.67,1.5,1.5C18,42.33,17.33,43,16.5,43z"/>
		</g>
	</g>
</g>
</svg>
