<svg xmlns="http://www.w3.org/2000/svg" viewBox="0 0 48 48"><style>.st0{fill:none}.st1{fill:#bec0c3}.st2{fill:#282c36}.st3{fill:none;stroke:#282c36;stroke-width:2;stroke-linejoin:round;stroke-miterlimit:10}.st4{fill:#292d37}</style><path class="st0" d="M0 0h48v48H0z" id="Boundary"/><g id="Design"><path class="st2" d="M36.764 19.771l1.972-7.017a9.964 9.964 0 0 0-1.663-8.779A9.965 9.965 0 0 0 29.071 0H19.027a9.958 9.958 0 0 0-8.002 3.977 9.96 9.96 0 0 0-1.662 8.778l1.948 6.931A16.915 16.915 0 0 0 7 31c0 9.374 7.626 17 17 17s17-7.626 17-17c0-4.158-1.5-8.123-4.236-11.229zM24 46c-8.271 0-15-6.729-15-15 0-3.844 1.448-7.492 4.081-10.284.29-.252.414-.651.309-1.027l-2.101-7.475a7.97 7.97 0 0 1 1.331-7.029A7.97 7.97 0 0 1 19.027 2h10.044c2.538 0 4.873 1.16 6.406 3.184s2.019 4.586 1.332 7.03l-2.122 7.554a1 1 0 0 0 .279.999A14.938 14.938 0 0 1 39 31c0 8.271-6.729 15-15 15z"/><path class="st2" d="M28.833 5h-9.608c-1.469 0-2.851.693-3.791 1.902-1.039 1.335-1.404 3.135-.979 4.813l1.56 6.146a1 1 0 0 0 1.441.636A13.73 13.73 0 0 1 24 16.848c2.298 0 4.503.557 6.577 1.667l.004.002a1.005 1.005 0 0 0 .86.016c.274-.125.479-.367.555-.658l1.598-6.122c.439-1.683.081-3.49-.958-4.836C31.695 5.698 30.309 5 28.833 5zm2.825 6.247l-1.289 4.941A15.653 15.653 0 0 0 24 14.847a15.65 15.65 0 0 0-6.349 1.332l-1.257-4.956c-.276-1.085-.045-2.241.617-3.094C17.579 7.401 18.365 7 19.225 7h9.608c.864 0 1.652.404 2.22 1.14.663.858.889 2.02.605 3.107zm-1.167 17.127c.338.835.509 1.719.509 2.626 0 3.859-3.141 7-7 7a6.967 6.967 0 0 1-2.626-.509l-.75 1.854A8.97 8.97 0 0 0 24 40c4.963 0 9-4.037 9-9a8.97 8.97 0 0 0-.655-3.376l-1.854.75z"/></g></svg>