<?xml version="1.0" encoding="utf-8"?>
<!-- Generator: Adobe Illustrator 19.2.1, SVG Export Plug-In . SVG Version: 6.00 Build 0)  -->
<svg version="1.1" xmlns="http://www.w3.org/2000/svg" xmlns:xlink="http://www.w3.org/1999/xlink" x="0px" y="0px"
	 viewBox="0 0 48 48" style="enable-background:new 0 0 48 48;" xml:space="preserve">
<style type="text/css">
	.st0{fill:none;}
	.st1{fill:#BEC0C3;}
	.st2{fill:#282C36;}
</style>
<g id="Boundary">
	<rect class="st0" width="48" height="48"/>
</g>
<g id="Design">
	<g>
		<path class="st2" d="M47.707,46.293l-46-46c-0.286-0.286-0.715-0.371-1.09-0.217C0.243,0.231,0,0.596,0,1v46c0,0.552,0.447,1,1,1
			h46c0.404,0,0.77-0.244,0.924-0.617C48.079,47.009,47.993,46.579,47.707,46.293z M39,46v-2h-2v2h-2v-3.414h-2V46h-2v-2h-2v2h-2
			v-3.414h-2V46h-2v-2h-2v2h-2v-3.414h-2V46h-2v-2h-2v2h-2v-3.414H9V46H7v-2H5v2H2V3.414L44.586,46H39z"/>
		<path class="st2" d="M9,40h19c0.404,0,0.77-0.244,0.924-0.617c0.155-0.374,0.069-0.804-0.217-1.09l-19-19
			c-0.286-0.286-0.715-0.371-1.09-0.217C8.243,19.231,8,19.596,8,20v19C8,39.552,8.447,40,9,40z M10,22.414L25.586,38H10V22.414z"/>
	</g>
</g>
</svg>
