<?xml version="1.0" encoding="utf-8"?>
<!-- Generator: Adobe Illustrator 19.2.1, SVG Export Plug-In . SVG Version: 6.00 Build 0)  -->
<svg version="1.1" xmlns="http://www.w3.org/2000/svg" xmlns:xlink="http://www.w3.org/1999/xlink" x="0px" y="0px"
	 viewBox="0 0 48 48" style="enable-background:new 0 0 48 48;" xml:space="preserve">
<style type="text/css">
	.st0{fill:none;}
	.st1{fill:#BEC0C3;}
	.st2{fill:#282C36;}
</style>
<g id="Boundary">
	<rect class="st0" width="48" height="48"/>
</g>
<g id="Design">
	<g>
		<g>
			<rect x="6" y="1" class="st1" width="4" height="46"/>
		</g>
		<g>
			<rect x="18" y="37" class="st2" width="16" height="2"/>
			<path class="st2" d="M39.1,0H6C5.447,0,5,0.448,5,1v46c0,0.552,0.447,1,1,1h33.1c2.15,0,3.9-1.75,3.9-3.9V3.9
				C43,1.75,41.25,0,39.1,0z M7,2h2v44H7V2z M41,44.1c0,1.048-0.853,1.9-1.9,1.9H11V2h28.1C40.147,2,41,2.852,41,3.9V44.1z"/>
			<path class="st2" d="M27.726,8.132c-1.119-0.176-2.348-0.173-3.436-0.002c-5.696,0.804-10.02,5.567-10.278,11.312
				c-0.001,0.017,0,0.033-0.001,0.05c0,0.003-0.001,0.005-0.001,0.008h0.001C14.003,19.668,14,19.83,14,20
				c0,0.38,0.021,0.75,0.054,1.122c0.516,5.557,4.725,9.977,10.221,10.746C24.834,31.956,25.415,32,26,32s1.166-0.044,1.709-0.13
				c5.513-0.771,9.722-5.191,10.237-10.751C37.979,20.75,38,20.38,38,20c0-0.188-0.001-0.364-0.011-0.551
				C37.726,13.694,33.404,8.934,27.726,8.132z M16.023,20.469c-0.007-0.14-0.02-0.279-0.021-0.421
				c1.281-0.859,2.65-1.55,4.103-2.051C20.04,18.648,20,19.311,20,20c0,0.864,0.072,1.71,0.18,2.542
				C18.721,22.047,17.337,21.349,16.023,20.469z M22.296,23.115C22.114,22.108,22,21.069,22,20c0-0.899,0.079-1.747,0.204-2.587
				c2.463-0.537,5.12-0.538,7.593,0C29.921,18.25,30,19.098,30,20c0,1.066-0.114,2.104-0.296,3.115
				C27.245,23.627,24.756,23.627,22.296,23.115z M31.895,17.997c1.451,0.5,2.821,1.192,4.102,2.052
				c-0.001,0.143-0.013,0.28-0.021,0.42c-1.294,0.874-2.683,1.574-4.157,2.074C31.928,21.709,32,20.863,32,20
				C32,19.31,31.96,18.648,31.895,17.997z M35.68,17.51c-1.307-0.725-2.69-1.292-4.131-1.705c-0.374-1.761-0.997-3.479-1.839-5.083
				C32.657,11.895,34.886,14.42,35.68,17.51z M26,10c0.328,0,0.654,0.023,0.978,0.058c1.069,1.601,1.876,3.377,2.379,5.234
				c-2.205-0.374-4.515-0.373-6.714,0c0.5-1.847,1.303-3.618,2.368-5.216C25.337,10.04,25.663,10,26,10z M22.289,10.725
				c-0.842,1.605-1.465,3.323-1.838,5.08c-1.443,0.414-2.825,0.98-4.131,1.705C17.113,14.424,19.339,11.9,22.289,10.725z
				 M16.492,23.091c1.298,0.707,2.67,1.259,4.105,1.658c0.383,1.586,0.953,3.106,1.712,4.544
				C19.537,28.209,17.405,25.936,16.492,23.091z M25.008,29.924c-0.97-1.457-1.716-3.022-2.217-4.683
				C23.86,25.414,24.934,25.51,26,25.51c1.066,0,2.14-0.096,3.21-0.269c-0.5,1.659-1.246,3.226-2.218,4.684
				C26.341,29.995,25.674,29.995,25.008,29.924z M29.692,29.29c0.76-1.439,1.33-2.959,1.712-4.542
				c1.444-0.401,2.821-0.956,4.102-1.655C34.594,25.934,32.465,28.204,29.692,29.29z"/>
		</g>
	</g>
</g>
</svg>
