<?xml version="1.0" encoding="utf-8"?>
<!-- Generator: Adobe Illustrator 19.2.1, SVG Export Plug-In . SVG Version: 6.00 Build 0)  -->
<svg version="1.1" xmlns="http://www.w3.org/2000/svg" xmlns:xlink="http://www.w3.org/1999/xlink" x="0px" y="0px"
	 viewBox="0 0 48 48" style="enable-background:new 0 0 48 48;" xml:space="preserve">
<style type="text/css">
	.st0{fill:none;}
	.st1{fill:#BEC0C3;}
	.st2{fill:#282C36;}
</style>
<g id="Boundary">
	<rect class="st0" width="48" height="48"/>
</g>
<g id="Design">
	<g>
		<g>
			<path class="st1" d="M0.99,24C0.99,11.3,11.29,1,24,1c12.7,0,23,10.3,23,23c0,12.71-10.3,23.01-23,23.01
				C11.29,47.01,0.99,36.71,0.99,24z M43,24c0-10.49-8.51-19-19-19C13.5,5,4.99,13.51,4.99,24c0,10.5,8.51,19.01,19.01,19.01
				C34.49,43.01,43,34.5,43,24z"/>
		</g>
		<g>
			<path class="st2" d="M24,0C10.761,0-0.01,10.766-0.01,24c0,13.239,10.771,24.01,24.01,24.01c13.233,0,24-10.771,24-24.01
				C48,10.766,37.233,0,24,0z M24,46.01C11.864,46.01,1.99,36.136,1.99,24C1.99,11.869,11.864,2,24,2c12.131,0,22,9.869,22,22
				C46,36.136,36.131,46.01,24,46.01z"/>
			<path class="st2" d="M24,4C12.967,4,3.99,12.972,3.99,24c0,11.033,8.977,20.01,20.01,20.01c11.028,0,20-8.977,20-20.01
				C44,12.972,35.028,4,24,4z M24,42.01c-9.931,0-18.01-8.079-18.01-18.01c0-9.925,8.079-18,18.01-18c9.925,0,18,8.075,18,18
				C42,33.931,33.925,42.01,24,42.01z"/>
			<path class="st2" d="M25.374,23.96l6.374-7.176c0.177-0.199,0.267-0.461,0.25-0.727s-0.139-0.514-0.34-0.69l-7-6.12
				c-0.294-0.258-0.714-0.319-1.071-0.158C23.229,9.251,23,9.608,23,10v4.38h-0.03v7.176l-5.263-5.263l-1.414,1.414l6.331,6.331
				l-6.372,7.177l1.496,1.328L23,26.626V38c0,0.404,0.243,0.769,0.617,0.924C23.741,38.975,23.871,39,24,39
				c0.26,0,0.516-0.102,0.707-0.293l7-7c0.391-0.391,0.391-1.023,0-1.414L25.374,23.96z M25,12.203l4.583,4.007L25,21.369V12.203z
				 M25,35.586v-9.172L29.586,31L25,35.586z"/>
		</g>
	</g>
</g>
</svg>
