<svg xmlns="http://www.w3.org/2000/svg" viewBox="0 0 48 48"><style>.st0{fill:none}.st1{fill:#bec0c3}.st2{fill:#282c36}</style><path class="st0" d="M0 0h48v48H0z" id="Boundary"/><g id="Design"><path class="st1" d="M43 33v12H24V33l6 6h7z"/><path class="st2" d="M9.26 26h2.876l2.946 6.875a.998.998 0 0 0 1.837 0L19.869 26h2.871A3.264 3.264 0 0 1 26 29.26V30h2v-.74c0-2.9-2.359-5.26-5.26-5.26H9.26A5.265 5.265 0 0 0 4 29.26V42a1 1 0 0 0 1 1h16v-2H6V29.26A3.263 3.263 0 0 1 9.26 26zM16 29.944L14.307 26h3.382L16 29.944zM6.135 13.679A9.994 9.994 0 0 0 16 22c4.892 0 9.037-3.5 9.854-8.31A9.411 9.411 0 0 0 26 12c0-5.514-4.486-10-10-10S6 6.486 6 12c0 .568.045 1.13.133 1.671l.002.008zM16 20a7.988 7.988 0 0 1-7.644-5.646c2.224-.486 3.751-2.078 4.631-3.33 1.26 1.446 4.125 3.231 10.609 3.461A7.968 7.968 0 0 1 16 20zm0-16c4.411 0 8 3.589 8 8 0 .166-.011.326-.02.486-9.069-.247-9.991-3.623-9.993-3.63a1 1 0 0 0-.865-.829 1.01 1.01 0 0 0-1.039.596c-.015.034-1.379 3.102-4.052 3.757C8.024 12.252 8 12.13 8 12c0-4.411 3.589-8 8-8z"/><path class="st2" d="M43 32h-5v-2a1 1 0 0 0-1-1h-7a1 1 0 0 0-1 1v2h-5a1 1 0 0 0-1 1v12a1 1 0 0 0 1 1h19a1 1 0 0 0 1-1V33a1 1 0 0 0-1-1zm-12-1h5v1h-5v-1zm6 3h3.586l-4 4h-6.172l-4-4H37zM25 44v-8.586L29.586 40h7.828L42 35.414V44H25z"/></g></svg>