<svg xmlns="http://www.w3.org/2000/svg" viewBox="0 0 48 48"><style>.st0{fill:none}.st1{fill:#fac8c6}.st2{fill:#ef4742}</style><path class="st0" d="M0 0h48v48H0z" id="Boundary"/><g id="Design"><path class="st2" d="M24 10c-7.72 0-14 6.28-14 14s6.28 14 14 14 14-6.28 14-14-6.28-14-14-14zm0 26c-6.617 0-12-5.383-12-12s5.383-12 12-12 12 5.383 12 12-5.383 12-12 12z"/><path class="st2" d="M14 24h2a7.96 7.96 0 0 1 4.445-7.169l-.891-1.791A9.949 9.949 0 0 0 14 24zM40 23h8v2h-8zM0 23h8v2H0zM23 40h2v8h-2zM23 0h2v8h-2z"/><path transform="rotate(-45.001 38.142 38.143)" class="st2" d="M37.142 34.142h2v8.001h-2z"/><path transform="rotate(-45.001 9.858 9.858)" class="st2" d="M8.858 5.858h2v8h-2z"/><path transform="rotate(-45.001 9.858 38.142)" class="st2" d="M5.858 37.142h8.001v2H5.858z"/><path transform="rotate(-45.001 38.142 9.858)" class="st2" d="M34.142 8.858h8v2h-8z"/></g></svg>