<?xml version="1.0" encoding="utf-8"?>
<!-- Generator: Adobe Illustrator 19.2.1, SVG Export Plug-In . SVG Version: 6.00 Build 0)  -->
<svg version="1.1" xmlns="http://www.w3.org/2000/svg" xmlns:xlink="http://www.w3.org/1999/xlink" x="0px" y="0px"
	 viewBox="0 0 48 48" style="enable-background:new 0 0 48 48;" xml:space="preserve">
<style type="text/css">
	.st0{fill:none;}
	.st1{fill:#FAC8C6;}
	.st2{fill:#EF4742;}
</style>
<g id="Boundary">
	<rect class="st0" width="48" height="48"/>
</g>
<g id="Design">
	<g>
		<path class="st2" d="M24,10c-7.72,0-14,6.28-14,14s6.28,14,14,14s14-6.28,14-14S31.72,10,24,10z M24,36c-6.617,0-12-5.383-12-12
			s5.383-12,12-12s12,5.383,12,12S30.617,36,24,36z"/>
		<path class="st2" d="M14,24h2c0-3.06,1.703-5.806,4.445-7.169l-0.891-1.791C16.128,16.743,14,20.176,14,24z"/>
		<rect x="40" y="23" class="st2" width="8" height="2"/>
		<rect y="23" class="st2" width="8" height="2"/>
		<rect x="23" y="40" class="st2" width="2" height="8"/>
		<rect x="23" class="st2" width="2" height="8"/>
		
			<rect x="37.142" y="34.142" transform="matrix(0.7071 -0.7071 0.7071 0.7071 -15.799 38.1421)" class="st2" width="2" height="8.001"/>
		<rect x="8.858" y="5.858" transform="matrix(0.7071 -0.7071 0.7071 0.7071 -4.0832 9.8577)" class="st2" width="2" height="8"/>
		
			<rect x="5.858" y="37.142" transform="matrix(0.7071 -0.7071 0.7071 0.7071 -24.0832 18.1422)" class="st2" width="8.001" height="2"/>
		<rect x="34.142" y="8.858" transform="matrix(0.7071 -0.7071 0.7071 0.7071 4.2012 29.8579)" class="st2" width="8" height="2"/>
	</g>
</g>
</svg>
