<svg xmlns="http://www.w3.org/2000/svg" viewBox="0 0 48 48"><style>.st0{fill:none}.st1{fill:#fac8c6}.st2{fill:#ef4742}.st3{fill:#fff}</style><path class="st0" d="M0 0h48v48H0z" id="Boundary"/><g id="Design"><g id="XMLID_2_"><path class="st1" d="M46 28.4V35c0 2.21-1.79 4-4 4h-9.66c-.92 0-1.72-.62-1.94-1.51l-.96-3.83 1.86-.47 1.42 1.41 2.16-2.16 1.16 1.16 1.42 1.41 6.6-6.61H46z"/><path class="st2" d="M48 25.35V35c0 3.31-2.69 6-6 6h-9.66a3.99 3.99 0 0 1-3.88-3.03L25.95 28h-3.91l-2.5 9.97A3.99 3.99 0 0 1 15.66 41H6c-3.31 0-6-2.69-6-6v-9.65c0-.67.17-1.31.45-1.88v-.01c.13-.27.29-.52.48-.76l9.53-15.23c.26-.42.78-.58 1.23-.39l2.69 1.12-.76 1.85-1.92-.8L4.35 21h13.9c1.24 0 2.42.53 3.25 1.45.15.17.27.36.39.55h4.22c.12-.19.24-.38.39-.55A4.38 4.38 0 0 1 29.75 21h13.9L36.3 9.25l-1.92.8-.77-1.85 2.7-1.12c.45-.19.97-.03 1.23.39l9.53 15.23c.19.24.35.49.48.76v.01c.28.57.45 1.21.45 1.88zM46 35V25.35c0-.31-.06-.6-.17-.87l-.43-.67c-.43-.49-1.05-.81-1.75-.81h-13.9c-.68 0-1.3.28-1.76.78-.44.49-.65 1.12-.59 1.77l2.04 8.11.96 3.83c.22.89 1.02 1.51 1.94 1.51H42c2.21 0 4-1.79 4-4zm-20.55-9l-.01-.03c-.01-.05-.02-.09-.02-.14-.03-.27-.03-.55 0-.83h-2.84c.03.28.03.56 0 .83 0 .05-.01.09-.02.14l-.01.03h2.9zm-4.85-.45c.05-.65-.15-1.28-.59-1.77-.46-.5-1.08-.78-1.76-.78H4.35c-.7 0-1.32.32-1.76.81l-.42.67c-.11.27-.17.56-.17.87V35c0 2.21 1.79 4 4 4h9.66c.92 0 1.72-.62 1.94-1.51l3-11.94z"/><path class="st1" d="M46 25.35v3.05h-1.94l-1.41-1.41-6.61 6.61-1.16-1.16 3.62-3.63-1.41-1.41-5.79 5.79-1.86.47-2.04-8.11c-.06-.65.15-1.28.59-1.77.46-.5 1.08-.78 1.76-.78h13.9c.7 0 1.32.32 1.75.81l.43.67c.11.27.17.56.17.87z"/><path transform="rotate(-45.041 40.056 31.001)" class="st2" d="M35.38 30.001h9.344v1.998H35.38z"/><path class="st2" d="M38.5 28.81l-3.62 3.63-2.16 2.16-1.42-1.41 5.79-5.79zM25.44 25.97l.01.03h-2.9l.01-.03c.01-.05.02-.09.02-.14.03-.27.03-.55 0-.83h2.84c-.03.28-.03.56 0 .83 0 .05.01.09.02.14z"/><path class="st1" d="M20.01 23.78c.44.49.64 1.12.59 1.77l-3 11.94c-.22.89-1.02 1.51-1.94 1.51H6c-2.21 0-4-1.79-4-4v-9.65c0-.31.06-.6.17-.87l.42-.67c.44-.49 1.06-.81 1.76-.81h13.9c.68 0 1.3.28 1.76.78zm-9.56 11.23l6.6-6.61-1.41-1.41-6.61 6.61 1.42 1.41zm-4.74-.41l5.79-5.79-1.42-1.41-5.79 5.79 1.42 1.41z"/><path transform="rotate(-45.041 13.044 31.002)" class="st2" d="M8.37 30.001h9.344v1.998H8.37z"/><path class="st2" d="M11.5 28.81L5.71 34.6l-1.42-1.41 5.79-5.79z"/></g><path class="st3" d="M22.55 26l.01-.03c.01-.05.02-.09.02-.14.03-.27.03-.55 0-.83h2.84c-.03.28-.03.56 0 .83 0 .05.01.09.02.14l.01.03h-2.9z"/></g></svg>