<svg id="Layer_1" xmlns="http://www.w3.org/2000/svg" viewBox="0 0 2304 2304"><style>.st0{fill:#ee3a36}.st1{fill:#f03833}</style><path class="st0" d="M2258.251 2182.997H51.683c-16.87 0-32.417-9.293-40.352-24.233a45.639 45.639 0 0 1 2.323-46.964L655.999 1152 13.655 192.2a45.702 45.702 0 0 1-2.323-47c7.935-14.904 23.482-24.197 40.352-24.197h2206.567c25.233 0 45.749 20.48 45.749 45.749s-20.516 45.749-45.749 45.749H137.356l611.714 914.051a45.8 45.8 0 0 1 0 50.896l-611.714 914.051h2120.895c25.233 0 45.749 20.516 45.749 45.749s-20.516 45.749-45.749 45.749z"/><path class="st1" d="M1387.596 1318.537v155.071h392.895v73.711h-392.895v154.377h-66.062v-383.159h66.062zm392.894-207.914v73.712h-458.957v-73.712h458.957zm-318.488-508.319c82.752 0 141.164 62.585 141.164 155.767v93.877h177.324v73.711h-458.957V758.071c0-93.182 57.023-155.767 140.469-155.767zM1386.9 851.948h150.9v-92.486c0-52.85-31.293-81.361-75.103-81.361-44.505 0-75.797 28.511-75.797 81.361v92.486z"/></svg>