<svg xmlns="http://www.w3.org/2000/svg" viewBox="0 0 48 48"><style>.st0{fill:none}.st1{fill:#fac8c6}.st2{fill:#ef4742}</style><path class="st0" d="M0 0h48v48H0z" id="Boundary"/><g id="Design"><path class="st1" d="M24.87 29.15l2.73-2.73 2.46-2.47a2.004 2.004 0 0 1 3.42 1.41c0 .51-.2 1.02-.59 1.41v.01l-7.07 7.07a1.993 1.993 0 0 1-2.83 0 1.993 1.993 0 0 1 0-2.83l1.88-1.87zM43.58 37.46a5.016 5.016 0 0 1 0 7.08A4.98 4.98 0 0 1 40.04 46a4.94 4.94 0 0 1-3.53-1.46l-7.81-7.81 7.07-7.07 7.81 7.8z"/><path class="st2" d="M44.287 36.752L34.182 26.658a2.976 2.976 0 0 0-.585-3.415c-1.133-1.133-3.111-1.134-4.246.001L27.595 25l-3.12-3.12 3.998-8.866a6.554 6.554 0 0 0 4.95-3.815 6.778 6.778 0 0 0 .597-2.748c0-1.934-.824-3.746-2.261-4.971a.999.999 0 0 0-1.561.349l-2.38 5.275-.644.158-.303-.583 2.38-5.277a1.002 1.002 0 0 0-.773-1.401 6.288 6.288 0 0 0-.875-.061c-2.54 0-4.933 1.528-6.016 3.932a6.582 6.582 0 0 0 .456 6.283l-2.891 6.404-7.281-7.281c.025-.099.052-.199.045-.304a1.004 1.004 0 0 0-.389-.728l-5.6-4.3a1 1 0 0 0-1.314.087l-2.32 2.32a.998.998 0 0 0-.085 1.317l4.31 5.6a1 1 0 0 0 .792.39.98.98 0 0 0 .501-.155l8.745 8.746-5.946 12.677a6.552 6.552 0 0 0-5.022 3.824A6.78 6.78 0 0 0 4.99 41.5c0 1.934.824 3.746 2.261 4.971a.999.999 0 0 0 1.561-.349l2.38-5.275.644-.158.303.583-2.38 5.277a1.002 1.002 0 0 0 .773 1.401c.292.041.584.061.875.061 2.54 0 4.933-1.528 6.016-3.932a6.586 6.586 0 0 0-.414-6.221l4.853-10.303 1.59 1.59-1.168 1.168a2.987 2.987 0 0 0-.883 2.127c0 .796.313 1.548.883 2.117.895.897 2.319 1.116 3.418.588l10.099 10.099A5.914 5.914 0 0 0 40.04 47a5.967 5.967 0 0 0 4.249-1.755c2.329-2.341 2.329-6.149-.002-8.493zm-9.93-7.093L28.7 35.316l-1.466-1.466 5.657-5.657 1.466 1.466zM23.413 4.693a4.676 4.676 0 0 1 3.369-2.675L24.85 6.301c-.126.279-.117.601.024.873l.89 1.71a1.002 1.002 0 0 0 1.125.51l1.88-.46c.299-.073.547-.28.674-.56l1.934-4.287c.417.699.645 1.514.645 2.366 0 .646-.146 1.313-.423 1.932a4.575 4.575 0 0 1-3.946 2.721 3.76 3.76 0 0 1-.896-.041l-.008-.001a4.572 4.572 0 0 1-1.136-.333 4.26 4.26 0 0 1-1.672-1.333c-1.033-1.327-1.235-3.131-.528-4.705zm.092 7.085c.393.304.823.567 1.297.781.491.214.988.357 1.482.445l-3.321 7.365-2.298-2.298 2.84-6.293zM4.328 7.146l1.079-1.078 4 3.071-2.003 2.003-3.076-3.996zm11.27 36.113a4.676 4.676 0 0 1-3.369 2.675l1.932-4.283a1.002 1.002 0 0 0-.024-.873l-.89-1.71a1.002 1.002 0 0 0-1.125-.51l-1.88.46c-.299.073-.547.28-.674.56l-1.934 4.287A4.605 4.605 0 0 1 6.99 41.5c0-.646.146-1.313.423-1.932a4.575 4.575 0 0 1 3.946-2.721 3.76 3.76 0 0 1 .896.041l.008.001c.376.057.763.17 1.136.333a4.26 4.26 0 0 1 1.672 1.333c1.032 1.327 1.234 3.131.527 4.704zm-.031-7.042a6.453 6.453 0 0 0-1.358-.824 6.577 6.577 0 0 0-1.407-.428l5.258-11.21 2.298 2.298-4.791 10.164zM9.258 12.123l1.314-1.318 15.61 15.61-1.316 1.316L9.258 12.123zm14.439 21.02a.99.99 0 0 1-.002-1.414l7.072-7.072a1.028 1.028 0 0 1 1.416 0c.191.191.297.441.297.703s-.105.512-.297.704c-.008.008-.011.021-.02.029l-7.05 7.05h-.001a1.016 1.016 0 0 1-1.415 0zm19.176 10.69A3.979 3.979 0 0 1 40.04 45a3.936 3.936 0 0 1-2.823-1.167l-7.103-7.103 5.658-5.658 7.099 7.093a4.028 4.028 0 0 1 .002 5.668z"/></g></svg>