<?xml version="1.0" encoding="utf-8"?>
<!-- Generator: Adobe Illustrator 19.2.1, SVG Export Plug-In . SVG Version: 6.00 Build 0)  -->
<svg version="1.1" xmlns="http://www.w3.org/2000/svg" xmlns:xlink="http://www.w3.org/1999/xlink" x="0px" y="0px"
	 viewBox="0 0 48 48" style="enable-background:new 0 0 48 48;" xml:space="preserve">
<style type="text/css">
	.st0{fill:none;}
	.st1{fill:#FAC8C6;}
	.st2{fill:#EF4742;}
</style>
<g id="Boundary">
	<rect class="st0" width="48" height="48"/>
</g>
<g id="Design">
	<g>
		<g>
			<path class="st1" d="M24.87,29.15l2.73-2.73l2.46-2.47c0.78-0.78,2.05-0.78,2.83,0c0.39,0.39,0.59,0.9,0.59,1.41
				s-0.2,1.02-0.59,1.41v0.01l-7.07,7.07c-0.39,0.39-0.9,0.59-1.42,0.59c-0.51,0-1.02-0.2-1.41-0.59c-0.39-0.39-0.59-0.9-0.59-1.41
				c0-0.52,0.2-1.03,0.59-1.42L24.87,29.15z"/>
		</g>
		<g>
			<path class="st1" d="M43.58,37.46c1.95,1.96,1.95,5.12,0,7.08C42.6,45.52,41.32,46,40.04,46c-1.28,0-2.56-0.48-3.53-1.46
				l-7.81-7.81l7.07-7.07L43.58,37.46z"/>
		</g>
		<path class="st2" d="M44.287,36.752L34.182,26.658c0.195-0.401,0.298-0.842,0.298-1.298c0-0.796-0.313-1.547-0.883-2.117
			c-1.133-1.133-3.111-1.134-4.246,0.001l-1.756,1.756l-3.12-3.12l3.998-8.866c2.17-0.351,4.031-1.759,4.95-3.815
			c0.391-0.873,0.597-1.823,0.597-2.748c0-1.934-0.824-3.746-2.261-4.971c-0.239-0.204-0.559-0.284-0.868-0.215
			c-0.307,0.068-0.563,0.278-0.693,0.564l-2.38,5.275l-0.644,0.158l-0.303-0.583l2.38-5.277c0.129-0.287,0.116-0.618-0.036-0.894
			c-0.152-0.276-0.425-0.464-0.737-0.507c-0.292-0.041-0.584-0.061-0.875-0.061c-2.54,0-4.933,1.528-6.016,3.932
			c-0.933,2.078-0.74,4.436,0.456,6.283l-2.891,6.404l-7.281-7.281c0.025-0.099,0.052-0.199,0.045-0.304
			c-0.019-0.287-0.161-0.552-0.389-0.728l-5.6-4.3C5.531,3.642,4.967,3.678,4.613,4.033l-2.32,2.32
			C1.937,6.708,1.901,7.272,2.208,7.67l4.31,5.6c0.176,0.229,0.444,0.371,0.732,0.388c0.02,0.001,0.04,0.002,0.06,0.002
			c0.181,0,0.348-0.064,0.501-0.155l8.745,8.746L10.61,34.928c-2.201,0.331-4.093,1.746-5.022,3.824
			C5.197,39.625,4.99,40.575,4.99,41.5c0,1.934,0.824,3.746,2.261,4.971c0.239,0.204,0.559,0.284,0.868,0.215
			c0.307-0.068,0.563-0.278,0.693-0.564l2.38-5.275l0.644-0.158l0.303,0.583l-2.38,5.277c-0.129,0.287-0.116,0.618,0.036,0.894
			c0.152,0.276,0.425,0.464,0.737,0.507c0.292,0.041,0.584,0.061,0.875,0.061c2.54,0,4.933-1.528,6.016-3.932
			c0.923-2.054,0.745-4.383-0.414-6.221l4.853-10.303l1.59,1.59l-1.168,1.168c-0.57,0.569-0.883,1.325-0.883,2.127
			c0,0.796,0.313,1.548,0.883,2.117c0.895,0.897,2.319,1.116,3.418,0.588l10.099,10.099C36.92,46.376,38.427,47,40.04,47
			c1.608,0,3.117-0.623,4.249-1.755C46.618,42.904,46.618,39.096,44.287,36.752z M34.357,29.659L28.7,35.316l-1.466-1.466
			l5.657-5.657L34.357,29.659z M23.413,4.693c0.639-1.418,1.924-2.401,3.369-2.675l-1.932,4.283
			c-0.126,0.279-0.117,0.601,0.024,0.873l0.89,1.71c0.175,0.336,0.521,0.539,0.887,0.539c0.079,0,0.159-0.009,0.238-0.029l1.88-0.46
			c0.299-0.073,0.547-0.28,0.674-0.56l1.934-4.287c0.417,0.699,0.645,1.514,0.645,2.366c0,0.646-0.146,1.313-0.423,1.932
			c-0.708,1.583-2.211,2.626-3.946,2.721c-0.287,0.023-0.578,0.009-0.896-0.041c-0.002,0-0.005-0.001-0.008-0.001
			c-0.376-0.057-0.763-0.17-1.136-0.333c-0.672-0.304-1.232-0.749-1.672-1.333C22.908,8.071,22.706,6.267,23.413,4.693z
			 M23.505,11.778c0.393,0.304,0.823,0.567,1.297,0.781c0.491,0.214,0.988,0.357,1.482,0.445l-3.321,7.365l-2.298-2.298
			L23.505,11.778z M4.328,7.146l1.079-1.078l4,3.071l-2.003,2.003L4.328,7.146z M15.598,43.259
			c-0.639,1.418-1.924,2.401-3.369,2.675l1.932-4.283c0.126-0.279,0.117-0.601-0.024-0.873l-0.89-1.71
			c-0.175-0.336-0.521-0.539-0.887-0.539c-0.079,0-0.159,0.009-0.238,0.029l-1.88,0.46c-0.299,0.073-0.547,0.28-0.674,0.56
			l-1.934,4.287C7.217,43.167,6.99,42.352,6.99,41.5c0-0.646,0.146-1.313,0.423-1.932c0.708-1.583,2.211-2.626,3.946-2.721
			c0.287-0.023,0.578-0.009,0.896,0.041c0.002,0,0.005,0.001,0.008,0.001c0.376,0.057,0.763,0.17,1.136,0.333
			c0.672,0.304,1.232,0.749,1.672,1.333C16.103,39.882,16.305,41.686,15.598,43.259z M15.567,36.217
			c-0.408-0.324-0.861-0.599-1.358-0.824c-0.466-0.203-0.938-0.339-1.407-0.428l5.258-11.21l2.298,2.298L15.567,36.217z
			 M9.258,12.123l1.314-1.318l15.61,15.61l-1.316,1.316L9.258,12.123z M23.697,33.143c-0.192-0.192-0.297-0.441-0.297-0.703
			c0-0.268,0.105-0.521,0.295-0.711l7.072-7.072c0.376-0.377,1.039-0.377,1.416,0c0.191,0.191,0.297,0.441,0.297,0.703
			s-0.105,0.512-0.297,0.704c-0.008,0.008-0.011,0.021-0.02,0.029l-7.05,7.05l0,0c0,0,0,0-0.001,0
			C24.735,33.52,24.085,33.531,23.697,33.143z M42.873,43.833C42.121,44.585,41.114,45,40.04,45c-1.075,0-2.077-0.413-2.823-1.167
			l-7.103-7.103l5.658-5.658l7.099,7.093C44.426,39.729,44.426,42.271,42.873,43.833z"/>
	</g>
</g>
</svg>
