<svg xmlns="http://www.w3.org/2000/svg" viewBox="0 0 48 48"><style>.st0{fill:none}.st1{fill:#f9b6b3}.st2{fill:#ef4742}</style><path class="st0" d="M0 0h48v48H0z" id="Boundary"/><g id="Design"><g id="XMLID_27_"><path class="st1" d="M43 28H1v6c0 1.1.9 2 2 2h42c1.1 0 2-.9 2-2v-6h-4zm-19 5c-.55 0-1-.45-1-1s.45-1 1-1 1 .45 1 1-.45 1-1 1z"/><circle class="st2" cx="24" cy="32" r="1"/><path class="st2" d="M45 3H3C1.346 3 0 4.346 0 6v28c0 1.654 1.346 3 3 3h17v6h-4v2h16v-2h-4v-6h17c1.654 0 3-1.346 3-3V6c0-1.654-1.346-3-3-3zM3 5h42c.551 0 1 .449 1 1v21H30.995v-2.43c0-1.968-1.705-3.57-3.8-3.57h-6.39c-2.095 0-3.8 1.602-3.8 3.57V27H2V6c0-.551.449-1 1-1zm21.995 20v-2h2.2c.993 0 1.8.704 1.8 1.57V27h-9.99v-2.43c0-.866.808-1.57 1.8-1.57h2.19v2h2zM26 43h-4v-6h4v6zm19-8H3c-.551 0-1-.449-1-1v-5h44v5c0 .551-.449 1-1 1z"/><path class="st2" d="M23.995 20c2.944 0 5.428-2.102 5.896-4.943.071-.319.104-.655.104-1.057 0-3.309-2.691-6-6-6a6.014 6.014 0 0 0-5.603 3.869A5.753 5.753 0 0 0 17.995 14c0 3.309 2.692 6 6 6zm0-2c-2.206 0-4-1.794-4-4 0-.079.016-.151.02-.229 1.285.713 3.793 1.78 7.541 2.017A3.959 3.959 0 0 1 23.995 18zm0-8c2.142 0 3.882 1.696 3.981 3.814-3.965-.188-6.413-1.43-7.322-1.987A4.006 4.006 0 0 1 23.995 10z"/></g></g></svg>