<svg width="16" height="14" viewBox="0 0 16 14" xmlns="http://www.w3.org/2000/svg"><title>Twitter</title><g fill="none" fill-rule="evenodd"><path d="M15.93 1.823a6.47 6.47 0 0 1-1.875.52A3.302 3.302 0 0 0 15.49.518a6.46 6.46 0 0 1-2.074.8 3.246 3.246 0 0 0-2.383-1.04c-1.803 0-3.265 1.476-3.265 3.298 0 .258.029.51.084.752A9.242 9.242 0 0 1 1.122.88a3.308 3.308 0 0 0-.444 1.66c0 1.144.577 2.154 1.453 2.745a3.226 3.226 0 0 1-1.48-.412v.041a3.292 3.292 0 0 0 2.62 3.234 3.218 3.218 0 0 1-1.475.058 3.274 3.274 0 0 0 3.05 2.29 6.51 6.51 0 0 1-4.835 1.366 9.175 9.175 0 0 0 5.006 1.482c6.006 0 9.29-5.026 9.29-9.384 0-.143-.002-.285-.01-.427a6.691 6.691 0 0 0 1.632-1.71z" fill="#FFF"/><path d="M0-2h16v16H0z"/></g></svg>