<?xml version="1.0" encoding="utf-8"?>
<!-- Generator: Adobe Illustrator 19.2.1, SVG Export Plug-In . SVG Version: 6.00 Build 0)  -->
<svg version="1.1" xmlns="http://www.w3.org/2000/svg" xmlns:xlink="http://www.w3.org/1999/xlink" x="0px" y="0px"
	 viewBox="0 0 48 48" style="enable-background:new 0 0 48 48;" xml:space="preserve">
<style type="text/css">
	.st0{fill:none;}
	.st1{fill:#FAC8C6;}
	.st2{fill:#EF4742;}
</style>
<g id="Boundary">
	<rect class="st0" width="48" height="48"/>
</g>
<g id="Design">
	<g>
		<g>
			<path class="st1" d="M31,32h7v14H27v-5v-9H31z M32.5,39c1.1,0,2-0.9,2-2s-0.9-2-2-2c-1.11,0-2,0.9-2,2S31.39,39,32.5,39z"/>
		</g>
		<g>
			<path class="st2" d="M32.5,40c1.654,0,3-1.346,3-3s-1.346-3-3-3s-3,1.346-3,3S30.846,40,32.5,40z M32.5,36c0.551,0,1,0.449,1,1
				s-0.449,1-1,1s-1-0.449-1-1S31.949,36,32.5,36z"/>
			<path class="st2" d="M10,28.26c0-1.797,1.462-3.26,3.26-3.26h2.876l2.946,6.875C19.239,32.242,19.6,32.48,20,32.48
				s0.761-0.238,0.919-0.605L23.869,25h2.871c1.797,0,3.26,1.462,3.26,3.26V29h2v-0.74c0-2.9-2.359-5.26-5.26-5.26H13.26
				C10.359,23,8,25.359,8,28.26V41c0,0.552,0.448,1,1,1h15v-2H10V28.26z M20,28.944L18.307,25h3.382L20,28.944z"/>
			<path class="st2" d="M10.135,12.679C10.965,17.5,15.114,21,20,21c4.892,0,9.037-3.5,9.854-8.31C29.951,12.161,30,11.592,30,11
				c0-5.514-4.486-10-10-10S10,5.486,10,11c0,0.568,0.045,1.13,0.133,1.671C10.134,12.674,10.134,12.677,10.135,12.679z M20,19
				c-3.557,0-6.619-2.322-7.644-5.646c2.224-0.486,3.751-2.078,4.631-3.33c1.26,1.446,4.125,3.231,10.609,3.461
				C26.54,16.739,23.514,19,20,19z M20,3c4.411,0,8,3.589,8,8c0,0.166-0.011,0.326-0.02,0.486c-9.069-0.247-9.991-3.623-9.993-3.63
				c-0.073-0.438-0.425-0.775-0.865-0.829c-0.434-0.048-0.863,0.189-1.039,0.596c-0.015,0.034-1.379,3.102-4.052,3.757
				C12.024,11.252,12,11.13,12,11C12,6.589,15.589,3,20,3z"/>
			<path class="st2" d="M38,31H27c-0.552,0-1,0.448-1,1v14c0,0.552,0.448,1,1,1h11c0.552,0,1-0.448,1-1V32
				C39,31.448,38.552,31,38,31z M37,45h-9V33h9V45z"/>
			<rect x="30" y="41" class="st2" width="5" height="2"/>
		</g>
	</g>
</g>
</svg>
