<?xml version="1.0" encoding="utf-8"?>
<!-- Generator: Adobe Illustrator 21.0.2, SVG Export Plug-In . SVG Version: 6.00 Build 0)  -->
<svg version="1.1" id="Layer_1" xmlns="http://www.w3.org/2000/svg" xmlns:xlink="http://www.w3.org/1999/xlink" x="0px" y="0px"
	 viewBox="0 0 48 48" style="enable-background:new 0 0 48 48;" xml:space="preserve">
<style type="text/css">
	.st0{fill:#FFFFFF;}
</style>
<g id="Design">
	<g id="XMLID_15_">
		<path class="st0" d="M43,2H5C4.448,2,4,2.448,4,3v42c0,0.552,0.448,1,1,1h38c0.552,0,1-0.448,1-1V3C44,2.448,43.552,2,43,2z M42,4
			v36H6V4H42z M6,44v-2h36v2H6z"/>
		<path class="st0" d="M9,35h30c0.552,0,1-0.448,1-1V7c0-0.552-0.448-1-1-1H9C8.448,6,8,6.448,8,7v27C8,34.552,8.448,35,9,35z
			 M25,30v-3h3.21c0.992,0,1.8,0.704,1.8,1.57V33H17.99v-4.43c0-0.866,0.808-1.57,1.8-1.57H23v3H25z M10,8h28v25h-5.99v-4.43
			c0-1.968-1.704-3.57-3.8-3.57h-8.42c-2.096,0-3.8,1.602-3.8,3.57V33H10V8z"/>
		<path class="st0" d="M24,23.99c3.41,0.009,6.326-2.45,6.895-5.812C30.965,17.789,31,17.389,31,16.99c0-3.86-3.141-7-7-7
			s-7,3.14-7,7c0,0.396,0.034,0.779,0.104,1.17C17.659,21.533,20.582,24.004,24,23.99z M24,21.99
			c-2.068,0.007-3.923-1.27-4.657-3.203c1.214-0.372,2.103-1.2,2.688-1.948c0.973,0.918,2.877,1.9,6.548,2.113
			C27.803,20.794,25.999,21.991,24,21.99z M24,11.99c2.755,0.003,4.989,2.232,4.999,4.987c-5.372-0.214-6.009-2.143-6.012-2.143
			c-0.073-0.436-0.424-0.771-0.863-0.825c-0.44-0.055-0.863,0.186-1.04,0.592c-0.009,0.019-0.723,1.569-2.059,2.155
			C19.149,14.11,21.323,11.99,24,11.99z"/>
	</g>
</g>
</svg>
