<?xml version="1.0" encoding="utf-8"?>
<!-- Generator: Adobe Illustrator 19.2.1, SVG Export Plug-In . SVG Version: 6.00 Build 0)  -->
<svg version="1.1" xmlns="http://www.w3.org/2000/svg" xmlns:xlink="http://www.w3.org/1999/xlink" x="0px" y="0px"
	 viewBox="0 0 48 48" style="enable-background:new 0 0 48 48;" xml:space="preserve">
<style type="text/css">
	.st0{fill:none;}
	.st1{fill:#FAC8C6;}
	.st2{fill:#EF4742;}
</style>
<g id="Boundary">
	<rect class="st0" width="48" height="48"/>
</g>
<g id="Design">
	<g>
		<g>
			<path class="st1" d="M31.06,39.31c0.32,0.74,1.96,1.31,3.94,1.31c2.21,0,4-0.71,4-1.58v4.38c0,0.87-1.79,1.58-4,1.58
				s-4-0.71-4-1.58V42v-2.69H31.06z"/>
		</g>
		<g>
			<path class="st1" d="M39,35.16v3.88c0,0.87-1.79,1.58-4,1.58c-1.98,0-3.62-0.57-3.94-1.31H31v-4.15c0,0.87,1.79,1.58,4,1.58
				S39,36.03,39,35.16z"/>
		</g>
		<g>
			<path class="st1" d="M35,33.58c2.21,0,4,0.71,4,1.58s-1.79,1.58-4,1.58s-4-0.71-4-1.58c0-0.76,1.37-1.4,3.2-1.55
				C34.46,33.59,34.72,33.58,35,33.58z"/>
		</g>
		<g>
			<path class="st2" d="M13.135,13.679C13.964,18.5,18.113,22,23,22c4.893,0,9.037-3.5,9.854-8.31C32.951,13.161,33,12.592,33,12
				c0-5.514-4.486-10-10-10S13,6.486,13,12c0,0.568,0.045,1.13,0.133,1.671C13.134,13.674,13.134,13.677,13.135,13.679z M23,20
				c-3.558,0-6.62-2.322-7.644-5.646c2.224-0.486,3.751-2.078,4.631-3.331c1.26,1.446,4.124,3.231,10.609,3.461
				C29.54,17.739,26.515,20,23,20z M23,4c4.411,0,8,3.589,8,8c0,0.166-0.011,0.326-0.02,0.486c-9.07-0.247-9.991-3.623-9.993-3.63
				c-0.072-0.437-0.424-0.772-0.863-0.827c-0.431-0.05-0.862,0.187-1.04,0.592c-0.015,0.034-1.397,3.1-4.053,3.758
				C15.024,12.251,15,12.129,15,12C15,7.589,18.589,4,23,4z"/>
			<path class="st2" d="M16.26,26h2.876l2.946,6.875c0.157,0.367,0.52,0.605,0.919,0.605s0.762-0.238,0.919-0.605L26.869,26h2.871
				c1.798,0,3.26,1.462,3.26,3.26V31h2v-1.74c0-2.9-2.359-5.26-5.26-5.26H16.26c-2.9,0-5.26,2.359-5.26,5.26V42c0,0.552,0.447,1,1,1
				h16v-2H13V29.26C13,27.462,14.462,26,16.26,26z M23,29.944L21.307,26h3.382L23,29.944z"/>
			<path class="st2" d="M39.959,34.79c-0.384-1.721-3.443-2.362-5.841-2.177c-2.301,0.188-3.8,1.011-4.063,2.177H30v8.63
				c0,1.772,2.592,2.58,5,2.58s5-0.808,5-2.58v-8.63H39.959z M38,38.923c-0.241,0.255-1.311,0.698-3,0.698
				c-1.714,0-2.795-0.456-3-0.687v-1.659c0.885,0.314,1.959,0.466,3,0.466s2.115-0.152,3-0.466V38.923z M34.277,34.607
				c0.234-0.018,0.47-0.027,0.723-0.027c1.447,0,2.447,0.326,2.855,0.58c-0.408,0.254-1.408,0.58-2.855,0.58
				c-1.444,0-2.442-0.325-2.853-0.579C32.466,34.965,33.166,34.698,34.277,34.607z M35,44c-1.668,0-2.742-0.433-3-0.69v-2.158
				c0.928,0.328,2.033,0.468,3,0.468c1.041,0,2.115-0.152,3-0.466v2.156C37.742,43.567,36.668,44,35,44z"/>
		</g>
	</g>
</g>
</svg>
